M48
METRIC,LZ,000.000
;FILE_FORMAT=3:3
;TYPE=PLATED
;Layer: PTH_Through
;EasyEDA v6.5.1, 2022-04-03 23:05:39
;0caac7c7161345fe919d254c63c90933,10
;Gerber Generator version 0.2
;Holesize 1 = 0.305 mm
T01C0.305
;Holesize 2 = 0.600 mm
T02C0.600
;Holesize 3 = 0.900 mm
T03C0.900
;Holesize 4 = 0.920 mm
T04C0.920
;Holesize 5 = 1.000 mm
T05C1.000
;Holesize 6 = 1.101 mm
T06C1.101
;Holesize 7 = 3.000 mm
T07C3.000
%
G05
G90
T01
X039743Y032504
X038743Y032504
X038743Y031504
X039743Y031504
X061849Y026938
X064516Y026938
X067310Y026938
X069850Y026938
X072517Y026938
X018923Y040640
X033782Y043180
X046482Y045085
X024257Y035769
X024257Y032811
X040259Y036322
X041021Y036322
X041783Y036322
X040132Y024398
X036957Y036703
X035814Y035941
X035052Y034671
X047371Y045847
X033655Y035052
X032512Y034671
X031623Y033909
X030988Y033020
X031115Y030988
X032004Y030480
X032893Y029972
X033782Y029464
X039751Y026543
X038862Y026543
X036957Y026543
X037973Y026543
X033782Y027178
X035814Y026543
X034798Y043180
X018669Y042672
X063373Y042926
X037846Y050419
X035560Y051689
X039243Y051689
X035560Y050292
X050165Y049149
X049657Y049911
X029845Y032004
X028702Y032004
X062484Y044069
X059817Y047879
X045593Y037592
X055245Y045593
X038354Y037592
X073406Y042672
X067437Y028956
X070993Y028956
X072136Y028956
X071120Y034544
X043434Y018669
X044069Y019431
X053340Y034544
X054610Y034544
X055880Y034544
X057150Y034544
X058420Y034544
X059690Y034544
X060960Y034544
X062230Y034544
X063500Y034544
X063500Y033020
X062230Y033020
X060960Y033020
X059690Y033020
X058420Y033020
X057150Y033020
X055880Y033020
X054610Y033020
X053340Y033020
X063500Y030480
X062230Y030480
X060960Y030480
X059690Y030480
X058420Y030480
X057150Y030480
X055880Y030480
X054610Y030480
X053340Y030480
X063500Y031750
X062230Y031750
X060960Y031750
X059690Y031750
X058420Y031750
X057150Y031750
X055880Y031750
X054610Y031750
X053340Y031750
X037846Y032512
X037846Y031496
X037846Y030480
X038735Y030480
X039751Y030480
X040640Y030480
X040640Y031496
X040640Y032512
X040640Y033401
X039751Y033401
X038735Y033401
X037846Y033401
X021336Y040499
X036449Y043166
X049149Y045198
X065405Y040118
X019431Y043434
T02
X027482Y054110G85X027482Y053112
X014682Y054110G85X014682Y053112
X071678Y054110G85X071678Y053112
X058878Y054110G85X058878Y053112
X041658Y054070G85X041658Y053270
X033018Y050071G85X033018Y048971
X041658Y050071G85X041658Y048971
X033018Y054070G85X033018Y053270
X053220Y054530G85X053220Y053630
X047618Y054531G85X047618Y053631
T03
X018288Y019812
X014859Y019812
T04
X017582Y046211
X020082Y046211
X022082Y046211
X024582Y046211
X061778Y046211
X064278Y046211
X066278Y046211
X068778Y046211
T05
X066770Y019812G85X062770Y019812
X026130Y019812G85X022130Y019812
T06
X010287Y032131
X010287Y034671
X010287Y037211
X010287Y039751
T07
X010668Y053340
X075692Y053340
X010668Y020320
X075692Y020320
M30
