G04 Layer: TopSilkscreenLayer*
G04 EasyEDA v6.5.1, 2022-04-03 23:05:39*
G04 0caac7c7161345fe919d254c63c90933,10*
G04 Gerber Generator version 0.2*
G04 Scale: 100 percent, Rotated: No, Reflected: No *
G04 Dimensions in millimeters *
G04 leading zeros omitted , absolute positions ,4 integer and 5 decimal *
%FSLAX45Y45*%
%MOMM*%

%ADD10C,0.2540*%
%ADD15C,0.5000*%
%ADD47C,0.1524*%
%ADD48C,0.1500*%
%ADD49C,0.1000*%
%ADD50C,0.2500*%
%ADD51C,0.3000*%
%ADD52C,0.1750*%
%ADD53C,0.2000*%

%LPD*%
G36*
X1130401Y4810912D02*
G01*
X1128522Y4810099D01*
X1125524Y4807915D01*
X1121714Y4804613D01*
X1112875Y4795621D01*
X1101801Y4783683D01*
X1086053Y4766005D01*
X1088034Y4600295D01*
X1089050Y4552543D01*
X1089507Y4540910D01*
X1090422Y4533544D01*
X1091488Y4530090D01*
X1093266Y4528566D01*
X1096111Y4528210D01*
X1099820Y4529124D01*
X1106119Y4531715D01*
X1114044Y4535525D01*
X1131163Y4544771D01*
X1143457Y4551121D01*
X1145844Y4552086D01*
X1146505Y4551172D01*
X1147013Y4548581D01*
X1147419Y4544822D01*
X1147521Y4528210D01*
X1245666Y4528210D01*
X1245666Y4517339D01*
X1147775Y4517339D01*
X1146403Y4493615D01*
X1115263Y4510684D01*
X1103934Y4516526D01*
X1099870Y4518202D01*
X1096721Y4519015D01*
X1094333Y4518914D01*
X1092708Y4517796D01*
X1091590Y4515764D01*
X1090930Y4512665D01*
X1090523Y4503267D01*
X1090472Y4474362D01*
X1108049Y4467402D01*
X1114552Y4465218D01*
X1120749Y4463440D01*
X1126744Y4462018D01*
X1132535Y4460951D01*
X1138123Y4460290D01*
X1143660Y4459986D01*
X1149045Y4460036D01*
X1154379Y4460494D01*
X1159713Y4461306D01*
X1164996Y4462475D01*
X1170330Y4463999D01*
X1176528Y4466539D01*
X1182878Y4470146D01*
X1189177Y4474565D01*
X1195120Y4479594D01*
X1200556Y4485030D01*
X1205128Y4490618D01*
X1208735Y4496206D01*
X1211021Y4501489D01*
X1213815Y4510633D01*
X1251356Y4511852D01*
X1251356Y4533646D01*
X1218285Y4534916D01*
X1218031Y4548225D01*
X1217320Y4553356D01*
X1216202Y4558334D01*
X1214628Y4563160D01*
X1212646Y4567783D01*
X1210259Y4572254D01*
X1207414Y4576521D01*
X1204214Y4580534D01*
X1200607Y4584395D01*
X1196644Y4588002D01*
X1192276Y4591405D01*
X1187551Y4594555D01*
X1182471Y4597450D01*
X1177086Y4600041D01*
X1171295Y4602429D01*
X1149807Y4609236D01*
X1149807Y4736134D01*
X1165656Y4753254D01*
X1169263Y4757623D01*
X1171752Y4761026D01*
X1172616Y4762906D01*
X1171854Y4764633D01*
X1166469Y4771948D01*
X1157732Y4782515D01*
X1147673Y4793996D01*
X1138377Y4803952D01*
X1131925Y4810048D01*
G37*
G36*
X1054760Y4769358D02*
G01*
X1008329Y4724958D01*
X1008329Y4605375D01*
X996289Y4605121D01*
X990650Y4604766D01*
X985316Y4603800D01*
X980186Y4602327D01*
X975207Y4600244D01*
X970330Y4597603D01*
X965555Y4594301D01*
X960831Y4590389D01*
X956106Y4585817D01*
X951941Y4581042D01*
X947826Y4575454D01*
X943965Y4569358D01*
X940460Y4563008D01*
X937412Y4556760D01*
X935126Y4550867D01*
X933602Y4545634D01*
X933043Y4541367D01*
X933043Y4534916D01*
X902258Y4533646D01*
X901547Y4525314D01*
X901700Y4517999D01*
X904341Y4513580D01*
X910234Y4511395D01*
X920191Y4510735D01*
X934212Y4510735D01*
X939749Y4498492D01*
X942746Y4492802D01*
X946556Y4487113D01*
X951026Y4481576D01*
X956056Y4476292D01*
X961542Y4471365D01*
X967384Y4466894D01*
X973480Y4462932D01*
X979728Y4459630D01*
X987145Y4456480D01*
X993546Y4454804D01*
X1001217Y4454347D01*
X1012342Y4454702D01*
X1020470Y4455261D01*
X1027887Y4456226D01*
X1034694Y4457649D01*
X1041095Y4459579D01*
X1047140Y4462018D01*
X1052982Y4465015D01*
X1058773Y4468622D01*
X1074521Y4480610D01*
X1074521Y4519472D01*
X1065072Y4519472D01*
X1059383Y4518914D01*
X1052677Y4516831D01*
X1043889Y4512868D01*
X1008329Y4493615D01*
X1008329Y4517339D01*
X907948Y4517339D01*
X907948Y4528210D01*
X1008329Y4528210D01*
X1008430Y4544822D01*
X1008887Y4551172D01*
X1009243Y4552137D01*
X1016152Y4548581D01*
X1042619Y4534204D01*
X1050747Y4530547D01*
X1057198Y4528718D01*
X1063345Y4528210D01*
X1073912Y4528210D01*
X1075486Y4682642D01*
X1075588Y4732985D01*
X1075283Y4741773D01*
X1074826Y4747717D01*
X1074166Y4751527D01*
X1073251Y4753864D01*
X1072083Y4755489D01*
X1069035Y4758537D01*
X1063345Y4763363D01*
G37*
G36*
X951280Y4434687D02*
G01*
X948944Y4434332D01*
X947572Y4432960D01*
X946912Y4430064D01*
X946607Y4419955D01*
X945896Y4417263D01*
X944219Y4416399D01*
X934466Y4417161D01*
X928725Y4415891D01*
X924001Y4412996D01*
X920546Y4408627D01*
X918565Y4404106D01*
X917600Y4399635D01*
X917476Y4396079D01*
X926185Y4396079D01*
X926947Y4402836D01*
X929182Y4407408D01*
X932942Y4409897D01*
X938326Y4410354D01*
X942187Y4409744D01*
X944473Y4408525D01*
X945692Y4406188D01*
X946353Y4402277D01*
X946556Y4394250D01*
X945337Y4388764D01*
X942543Y4385614D01*
X938021Y4384649D01*
X932738Y4385310D01*
X929081Y4387443D01*
X926896Y4390999D01*
X926185Y4396079D01*
X917476Y4396079D01*
X918057Y4391152D01*
X919429Y4387342D01*
X921410Y4384040D01*
X923950Y4381246D01*
X926998Y4379061D01*
X930452Y4377690D01*
X934212Y4377131D01*
X938225Y4377537D01*
X944981Y4380077D01*
X947064Y4380636D01*
X948486Y4380687D01*
X948994Y4380128D01*
X949299Y4379366D01*
X950010Y4378706D01*
X951128Y4378299D01*
X952449Y4378147D01*
X954176Y4379214D01*
X955243Y4383379D01*
X955751Y4392015D01*
X955751Y4422140D01*
X955192Y4430572D01*
X953820Y4434027D01*
G37*
G36*
X1083665Y4434687D02*
G01*
X1081125Y4434027D01*
X1079754Y4430572D01*
X1079195Y4422038D01*
X1079093Y4395927D01*
X1088186Y4395927D01*
X1088948Y4402734D01*
X1091184Y4407408D01*
X1094943Y4409897D01*
X1100277Y4410354D01*
X1103884Y4409744D01*
X1106424Y4408525D01*
X1108303Y4406595D01*
X1109726Y4403699D01*
X1110894Y4397095D01*
X1109624Y4391304D01*
X1106271Y4387037D01*
X1101140Y4385005D01*
X1095603Y4385208D01*
X1091539Y4387138D01*
X1089050Y4390745D01*
X1088186Y4395927D01*
X1079093Y4395927D01*
X1079093Y4377639D01*
X1085342Y4378756D01*
X1088085Y4379061D01*
X1090930Y4378960D01*
X1093520Y4378553D01*
X1097788Y4377182D01*
X1100480Y4377131D01*
X1103680Y4377740D01*
X1107389Y4379010D01*
X1111351Y4380941D01*
X1114196Y4383278D01*
X1116330Y4386478D01*
X1118006Y4390796D01*
X1119276Y4395571D01*
X1119479Y4399381D01*
X1118565Y4403140D01*
X1116431Y4407814D01*
X1113891Y4412183D01*
X1111402Y4414824D01*
X1108151Y4416247D01*
X1103477Y4416856D01*
X1099820Y4416907D01*
X1096314Y4416602D01*
X1093419Y4415942D01*
X1089812Y4414062D01*
X1088796Y4414926D01*
X1088339Y4417923D01*
X1088034Y4429353D01*
X1087424Y4432757D01*
X1086053Y4434281D01*
G37*
G36*
X1014780Y4428185D02*
G01*
X1012139Y4426712D01*
X1011072Y4424578D01*
X1010310Y4419904D01*
X1009446Y4418431D01*
X1008176Y4417110D01*
X1006652Y4416247D01*
X1004519Y4415383D01*
X1003808Y4414621D01*
X1004519Y4413554D01*
X1006652Y4411980D01*
X1008532Y4410049D01*
X1009751Y4407154D01*
X1010412Y4403039D01*
X1010615Y4397349D01*
X1011428Y4387646D01*
X1014069Y4381449D01*
X1018844Y4378299D01*
X1026007Y4377893D01*
X1028446Y4379112D01*
X1028801Y4381398D01*
X1027328Y4383633D01*
X1024331Y4384649D01*
X1021892Y4385056D01*
X1020521Y4386834D01*
X1019911Y4390745D01*
X1019759Y4397705D01*
X1019860Y4405020D01*
X1020571Y4408881D01*
X1022248Y4410456D01*
X1027836Y4410964D01*
X1029665Y4411624D01*
X1030782Y4412640D01*
X1031189Y4414012D01*
X1030782Y4415383D01*
X1029665Y4416399D01*
X1027836Y4417060D01*
X1022654Y4417517D01*
X1020876Y4418380D01*
X1020013Y4420006D01*
X1019759Y4422698D01*
X1019048Y4425950D01*
X1017269Y4427880D01*
G37*
G36*
X1174546Y4428185D02*
G01*
X1171854Y4426712D01*
X1170787Y4424527D01*
X1170076Y4419701D01*
X1169365Y4418431D01*
X1168247Y4417618D01*
X1165606Y4417009D01*
X1164488Y4416298D01*
X1163777Y4415282D01*
X1163523Y4414012D01*
X1163777Y4412742D01*
X1164488Y4411726D01*
X1165606Y4411014D01*
X1166926Y4410760D01*
X1168603Y4410100D01*
X1169670Y4407865D01*
X1170178Y4403547D01*
X1170533Y4389120D01*
X1171244Y4384395D01*
X1172870Y4381449D01*
X1175715Y4379214D01*
X1180236Y4377385D01*
X1184402Y4377232D01*
X1187399Y4378706D01*
X1188618Y4381601D01*
X1188262Y4382820D01*
X1187246Y4383735D01*
X1185824Y4384395D01*
X1181608Y4385056D01*
X1180236Y4386834D01*
X1179626Y4390745D01*
X1179474Y4397705D01*
X1179626Y4404614D01*
X1180236Y4408576D01*
X1181608Y4410354D01*
X1185824Y4411014D01*
X1187297Y4411726D01*
X1188262Y4412742D01*
X1188618Y4414012D01*
X1188262Y4415282D01*
X1187297Y4416348D01*
X1185824Y4417009D01*
X1181912Y4417568D01*
X1180490Y4418482D01*
X1179728Y4420158D01*
X1179474Y4422698D01*
X1178763Y4425950D01*
X1176985Y4427880D01*
G37*
G36*
X981913Y4417669D02*
G01*
X974801Y4416856D01*
X969365Y4414621D01*
X968502Y4412234D01*
X971651Y4410557D01*
X978408Y4410354D01*
X982471Y4410557D01*
X985418Y4410202D01*
X987399Y4409338D01*
X988466Y4407916D01*
X988568Y4406239D01*
X987247Y4404868D01*
X984351Y4403547D01*
X979728Y4402277D01*
X972566Y4399686D01*
X967841Y4395978D01*
X965657Y4391202D01*
X965975Y4386072D01*
X973886Y4386072D01*
X974242Y4389272D01*
X975817Y4392879D01*
X978103Y4395368D01*
X982726Y4397248D01*
X986536Y4397502D01*
X989126Y4396232D01*
X990092Y4393488D01*
X989025Y4389424D01*
X986282Y4385818D01*
X982776Y4383582D01*
X979322Y4383430D01*
X975055Y4384649D01*
X973886Y4386072D01*
X965975Y4386072D01*
X966012Y4385462D01*
X968451Y4381500D01*
X972718Y4378401D01*
X977493Y4376775D01*
X981506Y4377385D01*
X983030Y4377893D01*
X988314Y4378553D01*
X998778Y4378299D01*
X997203Y4397400D01*
X995680Y4409998D01*
X993241Y4413961D01*
X988364Y4416602D01*
G37*
G36*
X1122375Y4417568D02*
G01*
X1134872Y4387799D01*
X1136700Y4381804D01*
X1136446Y4376826D01*
X1133957Y4372711D01*
X1127607Y4368292D01*
X1126490Y4366920D01*
X1125982Y4365447D01*
X1126185Y4363974D01*
X1128014Y4361434D01*
X1130554Y4361027D01*
X1133602Y4362551D01*
X1137107Y4365853D01*
X1140917Y4370832D01*
X1144879Y4377334D01*
X1148943Y4385208D01*
X1152906Y4394301D01*
X1158798Y4409287D01*
X1161237Y4416145D01*
X1160881Y4416602D01*
X1158646Y4417212D01*
X1157020Y4417263D01*
X1154836Y4416602D01*
X1152855Y4414418D01*
X1150823Y4410405D01*
X1146962Y4399178D01*
X1145336Y4395012D01*
X1144016Y4392218D01*
X1143152Y4391152D01*
X1142288Y4392168D01*
X1140815Y4394860D01*
X1134618Y4409643D01*
X1132332Y4413656D01*
X1129995Y4415942D01*
X1127404Y4416907D01*
G37*
G36*
X1213764Y4417263D02*
G01*
X1209751Y4417009D01*
X1206246Y4416094D01*
X1203299Y4414570D01*
X1200708Y4412386D01*
X1197508Y4408271D01*
X1195374Y4403953D01*
X1203502Y4403953D01*
X1204468Y4406239D01*
X1206296Y4408779D01*
X1208532Y4410710D01*
X1211173Y4412081D01*
X1214120Y4412742D01*
X1214983Y4412538D01*
X1217726Y4410811D01*
X1219250Y4409490D01*
X1222197Y4405985D01*
X1222146Y4403699D01*
X1218996Y4402429D01*
X1212494Y4402074D01*
X1206906Y4402175D01*
X1204112Y4402683D01*
X1203502Y4403953D01*
X1195374Y4403953D01*
X1194358Y4399584D01*
X1194257Y4395266D01*
X1195070Y4391152D01*
X1196746Y4387342D01*
X1199235Y4383938D01*
X1202385Y4381042D01*
X1206144Y4378858D01*
X1210513Y4377436D01*
X1215390Y4376877D01*
X1220673Y4377385D01*
X1226413Y4379417D01*
X1227480Y4381804D01*
X1224280Y4383786D01*
X1217218Y4384649D01*
X1212240Y4384852D01*
X1208684Y4385564D01*
X1206296Y4386834D01*
X1204671Y4388866D01*
X1202994Y4392168D01*
X1202283Y4394200D01*
X1203401Y4394657D01*
X1211021Y4395622D01*
X1230833Y4396638D01*
X1230071Y4403140D01*
X1228445Y4409338D01*
X1225194Y4413758D01*
X1220266Y4416399D01*
G37*
G36*
X1050442Y4417212D02*
G01*
X1043279Y4416907D01*
X1039164Y4415078D01*
X1038352Y4412488D01*
X1039418Y4410659D01*
X1041958Y4409897D01*
X1050290Y4411421D01*
X1054506Y4411218D01*
X1057452Y4409846D01*
X1058570Y4407560D01*
X1058062Y4406341D01*
X1056690Y4405122D01*
X1054709Y4404004D01*
X1046429Y4401362D01*
X1041755Y4398772D01*
X1038301Y4395724D01*
X1036116Y4392371D01*
X1035373Y4389120D01*
X1044854Y4389120D01*
X1045819Y4392269D01*
X1048461Y4394962D01*
X1052220Y4396841D01*
X1056640Y4397603D01*
X1058316Y4397400D01*
X1059281Y4396587D01*
X1059535Y4395063D01*
X1059180Y4392777D01*
X1055928Y4386834D01*
X1051102Y4383887D01*
X1046734Y4384497D01*
X1044854Y4389120D01*
X1035373Y4389120D01*
X1035913Y4385259D01*
X1037996Y4381855D01*
X1041704Y4378807D01*
X1045159Y4376877D01*
X1047800Y4376166D01*
X1050493Y4376775D01*
X1056792Y4379925D01*
X1058875Y4380636D01*
X1060297Y4380738D01*
X1060805Y4380230D01*
X1061110Y4379417D01*
X1061821Y4378756D01*
X1062939Y4378299D01*
X1064260Y4378147D01*
X1066038Y4379468D01*
X1067257Y4383024D01*
X1067917Y4388104D01*
X1068019Y4394098D01*
X1067663Y4400296D01*
X1066749Y4406087D01*
X1065377Y4410760D01*
X1063498Y4413656D01*
X1058062Y4416094D01*
G37*
G36*
X1081176Y2937357D02*
G01*
X1080414Y2937103D01*
X1079855Y2936341D01*
X1079550Y2935224D01*
X1079652Y2932074D01*
X1080008Y2931210D01*
X1080566Y2931058D01*
X1081379Y2931617D01*
X1082649Y2933395D01*
X1083005Y2935274D01*
X1082497Y2936748D01*
G37*
G36*
X1011834Y2935833D02*
G01*
X1006195Y2935579D01*
X1003096Y2934817D01*
X1002182Y2932785D01*
X1002436Y2930347D01*
X1003858Y2927908D01*
X1007821Y2924505D01*
X1009142Y2923032D01*
X1009954Y2921508D01*
X1010615Y2918155D01*
X1011072Y2918155D01*
X1011732Y2918764D01*
X1012799Y2921000D01*
X1012545Y2923489D01*
X1011021Y2926029D01*
X1006754Y2929331D01*
X1004366Y2931617D01*
X1003858Y2932480D01*
X1004417Y2933852D01*
X1006551Y2934309D01*
X1009192Y2933852D01*
X1012647Y2931464D01*
X1012901Y2931718D01*
X1013409Y2934411D01*
X1014628Y2933750D01*
X1016355Y2930906D01*
X1019606Y2922778D01*
X1021740Y2918358D01*
X1022400Y2917698D01*
X1023061Y2918358D01*
X1025194Y2922778D01*
X1027988Y2929839D01*
X1029360Y2932379D01*
X1030681Y2933852D01*
X1032002Y2934309D01*
X1033322Y2934055D01*
X1034084Y2932836D01*
X1034440Y2930347D01*
X1034897Y2920746D01*
X1035710Y2917952D01*
X1036675Y2918104D01*
X1037488Y2921711D01*
X1037894Y2925724D01*
X1044092Y2920034D01*
X1047292Y2918155D01*
X1048308Y2918053D01*
X1048410Y2918714D01*
X1047597Y2920034D01*
X1039825Y2927502D01*
X1037691Y2930702D01*
X1037386Y2933192D01*
X1038910Y2934817D01*
X1038910Y2935122D01*
X1037742Y2935427D01*
X1032510Y2935681D01*
X1027125Y2935427D01*
X1026058Y2935020D01*
X1026261Y2934512D01*
X1027074Y2933649D01*
X1027277Y2932480D01*
X1026820Y2930753D01*
X1024382Y2925470D01*
X1023467Y2924302D01*
X1022654Y2924556D01*
X1021537Y2926029D01*
X1020470Y2928061D01*
X1019759Y2930245D01*
X1019454Y2932480D01*
X1019556Y2934716D01*
X1017219Y2935528D01*
G37*
G36*
X1072134Y2935833D02*
G01*
X1071067Y2935376D01*
X1069898Y2933954D01*
X1068679Y2931718D01*
X1065123Y2921762D01*
X1060297Y2932125D01*
X1058773Y2934258D01*
X1057351Y2935427D01*
X1055725Y2935732D01*
X1054049Y2935427D01*
X1053846Y2935224D01*
X1054709Y2934106D01*
X1054963Y2932277D01*
X1055014Y2929534D01*
X1054506Y2922371D01*
X1054506Y2919780D01*
X1054811Y2918206D01*
X1055420Y2917698D01*
X1055979Y2918104D01*
X1056335Y2919171D01*
X1056487Y2920796D01*
X1056233Y2925216D01*
X1056386Y2926892D01*
X1056741Y2927908D01*
X1057300Y2928264D01*
X1058113Y2927858D01*
X1059078Y2926740D01*
X1062888Y2919272D01*
X1064107Y2917748D01*
X1065479Y2919882D01*
X1070711Y2932074D01*
X1070965Y2921812D01*
X1071321Y2919577D01*
X1071880Y2918155D01*
X1072591Y2917698D01*
X1073353Y2918256D01*
X1073912Y2919882D01*
X1074216Y2922727D01*
X1074216Y2931261D01*
X1073861Y2934055D01*
X1073200Y2935427D01*
G37*
G36*
X1092047Y2935833D02*
G01*
X1088593Y2935528D01*
X1087374Y2935224D01*
X1086662Y2934817D01*
X1085748Y2932785D01*
X1086053Y2930296D01*
X1087475Y2927654D01*
X1091539Y2923692D01*
X1092708Y2922168D01*
X1093266Y2920847D01*
X1093165Y2918256D01*
X1093520Y2918002D01*
X1094181Y2918104D01*
X1096111Y2919780D01*
X1096264Y2922371D01*
X1094841Y2925318D01*
X1091895Y2928061D01*
X1090015Y2929382D01*
X1087475Y2931922D01*
X1087120Y2932785D01*
X1088034Y2933954D01*
X1090269Y2934258D01*
X1092860Y2933801D01*
X1094943Y2932531D01*
X1095705Y2931769D01*
X1096213Y2931617D01*
X1096467Y2932125D01*
X1096314Y2934462D01*
X1095552Y2935274D01*
X1094181Y2935681D01*
G37*
G36*
X1048003Y2935681D02*
G01*
X1046429Y2935478D01*
X1044905Y2934716D01*
X1043482Y2933547D01*
X1042212Y2932023D01*
X1040993Y2929534D01*
X1041095Y2928366D01*
X1042212Y2928721D01*
X1045006Y2931769D01*
X1047445Y2933700D01*
X1050036Y2935071D01*
X1050442Y2935478D01*
G37*
G36*
X954786Y2929686D02*
G01*
X912723Y2929331D01*
X898194Y2928975D01*
X886917Y2928264D01*
X882497Y2926892D01*
X877214Y2924657D01*
X871677Y2921812D01*
X866394Y2918663D01*
X862939Y2916072D01*
X859840Y2913024D01*
X856945Y2909316D01*
X853135Y2903067D01*
X851408Y2899714D01*
X850137Y2896006D01*
X849325Y2891231D01*
X848918Y2884627D01*
X848918Y2875534D01*
X849426Y2863088D01*
X851763Y2825546D01*
X858926Y2724302D01*
X861212Y2695498D01*
X863092Y2677871D01*
X863955Y2671724D01*
X866546Y2659583D01*
X868426Y2653334D01*
X870305Y2649626D01*
X872286Y2648305D01*
X874521Y2649270D01*
X875690Y2650490D01*
X876096Y2651963D01*
X875893Y2654249D01*
X873556Y2663494D01*
X871931Y2672486D01*
X870305Y2687066D01*
X868171Y2711196D01*
X858113Y2848813D01*
X856640Y2875381D01*
X856335Y2888894D01*
X856487Y2890062D01*
X859028Y2897479D01*
X862736Y2903829D01*
X867816Y2909417D01*
X874420Y2914548D01*
X878941Y2917291D01*
X881227Y2918358D01*
X883818Y2919222D01*
X886866Y2919933D01*
X890625Y2920492D01*
X900988Y2921254D01*
X916381Y2921762D01*
X957884Y2922574D01*
X985113Y2923590D01*
X989431Y2924048D01*
X989888Y2925521D01*
X989584Y2927451D01*
X989025Y2928162D01*
X987602Y2928670D01*
X984910Y2929077D01*
X974496Y2929534D01*
G37*
G36*
X1141679Y2929483D02*
G01*
X1114602Y2929026D01*
X1111504Y2928772D01*
X1110183Y2928467D01*
X1109522Y2927756D01*
X1109065Y2926791D01*
X1108913Y2925724D01*
X1109116Y2924657D01*
X1109675Y2923946D01*
X1110996Y2923387D01*
X1113536Y2922930D01*
X1123543Y2922422D01*
X1189736Y2922016D01*
X1201724Y2921457D01*
X1208989Y2920441D01*
X1211732Y2919730D01*
X1218539Y2917088D01*
X1224584Y2913735D01*
X1229868Y2909671D01*
X1234287Y2904998D01*
X1237843Y2899765D01*
X1240383Y2894076D01*
X1241907Y2887929D01*
X1242364Y2881477D01*
X1241653Y2866796D01*
X1236675Y2793339D01*
X1229410Y2703372D01*
X1226667Y2676042D01*
X1225296Y2666441D01*
X1223416Y2656840D01*
X1222857Y2652877D01*
X1223111Y2650540D01*
X1224026Y2648966D01*
X1225092Y2647848D01*
X1225956Y2647492D01*
X1226769Y2647848D01*
X1227785Y2648966D01*
X1229664Y2653030D01*
X1232052Y2660548D01*
X1234287Y2669438D01*
X1236116Y2679293D01*
X1237437Y2694025D01*
X1241450Y2749905D01*
X1246276Y2825089D01*
X1248765Y2871317D01*
X1248867Y2896209D01*
X1244498Y2903524D01*
X1239774Y2910027D01*
X1233728Y2916072D01*
X1226820Y2921304D01*
X1219301Y2925470D01*
X1216761Y2926588D01*
X1214069Y2927451D01*
X1210716Y2928061D01*
X1205992Y2928518D01*
X1190244Y2929077D01*
G37*
G36*
X1001369Y2922270D02*
G01*
X1000963Y2921558D01*
X1000810Y2919984D01*
X1001014Y2919120D01*
X1001471Y2918358D01*
X1002182Y2917901D01*
X1003046Y2917698D01*
X1004062Y2917799D01*
X1004468Y2918155D01*
X1004265Y2918866D01*
X1002842Y2920847D01*
G37*
G36*
X1084935Y2922270D02*
G01*
X1084580Y2921558D01*
X1084427Y2919984D01*
X1084580Y2919120D01*
X1085037Y2918358D01*
X1085748Y2917901D01*
X1086612Y2917698D01*
X1087628Y2917799D01*
X1088034Y2918155D01*
X1087882Y2918866D01*
G37*
G36*
X1157427Y2900629D02*
G01*
X1153871Y2900273D01*
X1150975Y2899664D01*
X1148791Y2898749D01*
X1145997Y2896565D01*
X1143965Y2893872D01*
X1142796Y2890672D01*
X1142390Y2887014D01*
X1143000Y2883611D01*
X1144778Y2880360D01*
X1147724Y2877210D01*
X1151839Y2874314D01*
X1160068Y2869031D01*
X1164691Y2865170D01*
X1166368Y2861919D01*
X1165910Y2858465D01*
X1164539Y2856534D01*
X1161999Y2854655D01*
X1159002Y2853334D01*
X1156106Y2852775D01*
X1152702Y2853740D01*
X1149096Y2856077D01*
X1146251Y2859024D01*
X1145082Y2861818D01*
X1144676Y2863951D01*
X1144270Y2864612D01*
X1143711Y2864866D01*
X1143203Y2864358D01*
X1142492Y2860903D01*
X1142390Y2851912D01*
X1156462Y2850794D01*
X1162202Y2851099D01*
X1166114Y2852369D01*
X1169060Y2854807D01*
X1171397Y2858668D01*
X1172514Y2863240D01*
X1172362Y2867761D01*
X1170838Y2871419D01*
X1169568Y2872740D01*
X1164590Y2876499D01*
X1155344Y2882595D01*
X1151585Y2885744D01*
X1149654Y2888437D01*
X1149096Y2891231D01*
X1149604Y2894228D01*
X1151026Y2896362D01*
X1153464Y2897682D01*
X1156868Y2898089D01*
X1160475Y2897174D01*
X1164082Y2894939D01*
X1166876Y2891993D01*
X1168095Y2888488D01*
X1168806Y2887624D01*
X1169314Y2887522D01*
X1169873Y2888030D01*
X1170584Y2891434D01*
X1170686Y2900324D01*
G37*
G36*
X939901Y2899613D02*
G01*
X928166Y2899460D01*
X926287Y2899206D01*
X926337Y2898546D01*
X930706Y2895142D01*
X932332Y2891688D01*
X933094Y2885948D01*
X933348Y2876753D01*
X933196Y2866034D01*
X932535Y2859125D01*
X931265Y2855417D01*
X929233Y2854299D01*
X927455Y2853842D01*
X926896Y2853385D01*
X926693Y2852775D01*
X927303Y2852166D01*
X929081Y2851708D01*
X934770Y2851251D01*
X939698Y2851607D01*
X942441Y2852420D01*
X942746Y2853537D01*
X940155Y2854706D01*
X938682Y2855620D01*
X937869Y2858058D01*
X937564Y2863443D01*
X937463Y2890621D01*
X961237Y2863291D01*
X970940Y2852826D01*
X972718Y2851251D01*
X973175Y2852775D01*
X973785Y2863037D01*
X974039Y2883865D01*
X974648Y2891688D01*
X976020Y2895752D01*
X979474Y2898597D01*
X979119Y2899105D01*
X972921Y2899511D01*
X964539Y2899613D01*
X967892Y2895904D01*
X969670Y2893466D01*
X970686Y2890520D01*
X971092Y2885643D01*
X971194Y2862884D01*
G37*
G36*
X990498Y2899613D02*
G01*
X985418Y2899359D01*
X983894Y2899105D01*
X983335Y2898800D01*
X984351Y2897784D01*
X988872Y2895447D01*
X989787Y2893720D01*
X989939Y2890062D01*
X989482Y2883306D01*
X988263Y2871368D01*
X986790Y2862529D01*
X985062Y2856941D01*
X983030Y2854655D01*
X980592Y2853436D01*
X981151Y2852369D01*
X984300Y2851607D01*
X989736Y2851302D01*
X994562Y2851404D01*
X996950Y2851708D01*
X997356Y2852369D01*
X995070Y2854452D01*
X993038Y2855620D01*
X992327Y2855823D01*
X991768Y2859328D01*
X991920Y2867507D01*
X992632Y2876804D01*
X993648Y2883560D01*
X994410Y2883966D01*
X995984Y2881884D01*
X998474Y2877108D01*
X1005078Y2862681D01*
X1009853Y2853283D01*
X1010970Y2851759D01*
X1012139Y2853029D01*
X1017168Y2862580D01*
X1028446Y2888081D01*
X1030020Y2873451D01*
X1030630Y2861360D01*
X1030630Y2856941D01*
X1030427Y2855925D01*
X1029919Y2855061D01*
X1029258Y2854502D01*
X1027023Y2853842D01*
X1026617Y2853385D01*
X1026464Y2852775D01*
X1027176Y2852166D01*
X1029157Y2851708D01*
X1035862Y2851251D01*
X1041704Y2851505D01*
X1044702Y2852166D01*
X1044905Y2853385D01*
X1042263Y2855061D01*
X1040587Y2856382D01*
X1039469Y2859125D01*
X1038606Y2864561D01*
X1036726Y2885592D01*
X1036726Y2892348D01*
X1037844Y2895854D01*
X1041603Y2898597D01*
X1041501Y2899105D01*
X1036319Y2899511D01*
X1029360Y2899613D01*
X1013561Y2865069D01*
X1013104Y2865526D01*
X1010818Y2869946D01*
X1005433Y2881985D01*
X1002233Y2888538D01*
X997661Y2899613D01*
G37*
G36*
X1048867Y2899613D02*
G01*
X1051814Y2896514D01*
X1053388Y2894380D01*
X1054303Y2891231D01*
X1054658Y2885643D01*
X1054608Y2865069D01*
X1054100Y2858363D01*
X1053033Y2855112D01*
X1049934Y2853842D01*
X1049528Y2853385D01*
X1049375Y2852775D01*
X1050086Y2852166D01*
X1052068Y2851708D01*
X1058773Y2851251D01*
X1064463Y2851556D01*
X1067714Y2852369D01*
X1068171Y2853486D01*
X1065530Y2854706D01*
X1064056Y2855671D01*
X1063244Y2858312D01*
X1062888Y2864358D01*
X1062888Y2886202D01*
X1063294Y2892399D01*
X1064158Y2895498D01*
X1067257Y2898546D01*
X1066952Y2899257D01*
X1064310Y2899562D01*
G37*
G36*
X1081074Y2899613D02*
G01*
X1075791Y2899359D01*
X1074216Y2899105D01*
X1073607Y2898749D01*
X1074775Y2897733D01*
X1079601Y2895396D01*
X1080719Y2894279D01*
X1081125Y2892602D01*
X1078433Y2865323D01*
X1077112Y2857449D01*
X1076553Y2856128D01*
X1072794Y2853537D01*
X1071727Y2852369D01*
X1072134Y2851708D01*
X1074572Y2851404D01*
X1082954Y2851404D01*
X1085850Y2851708D01*
X1087780Y2852166D01*
X1088440Y2852775D01*
X1088288Y2853385D01*
X1087272Y2854147D01*
X1086459Y2854299D01*
X1084275Y2855214D01*
X1083005Y2858211D01*
X1082649Y2863342D01*
X1084376Y2885236D01*
X1085037Y2884982D01*
X1086866Y2881934D01*
X1098854Y2856687D01*
X1100988Y2852724D01*
X1102055Y2851251D01*
X1103071Y2852623D01*
X1107795Y2861919D01*
X1114094Y2875584D01*
X1116736Y2880664D01*
X1118616Y2883611D01*
X1119581Y2884119D01*
X1120444Y2878886D01*
X1121816Y2861462D01*
X1121765Y2857398D01*
X1121054Y2855518D01*
X1116787Y2853486D01*
X1117346Y2852369D01*
X1120851Y2851556D01*
X1126947Y2851251D01*
X1131214Y2851353D01*
X1134262Y2851658D01*
X1135989Y2852115D01*
X1136294Y2852775D01*
X1135176Y2853842D01*
X1132332Y2854655D01*
X1131417Y2856788D01*
X1130452Y2862072D01*
X1129030Y2872079D01*
X1127810Y2882798D01*
X1127607Y2889910D01*
X1128522Y2894380D01*
X1130604Y2897073D01*
X1132179Y2898394D01*
X1132281Y2899105D01*
X1130604Y2899410D01*
X1120038Y2899613D01*
X1104188Y2863596D01*
X1088491Y2899613D01*
G37*
G36*
X1044651Y2833166D02*
G01*
X989787Y2832963D01*
X972261Y2832709D01*
X961237Y2832201D01*
X954938Y2831338D01*
X953008Y2830728D01*
X948232Y2828086D01*
X944067Y2824530D01*
X940866Y2820263D01*
X938784Y2815590D01*
X938377Y2812694D01*
X938276Y2807462D01*
X939139Y2787802D01*
X941527Y2752039D01*
X946556Y2689402D01*
X947724Y2682900D01*
X1044651Y2682087D01*
G37*
G36*
X1054404Y2833166D02*
G01*
X1055573Y2812897D01*
X1056436Y2807258D01*
X1057910Y2801975D01*
X1060094Y2796133D01*
X1064158Y2787243D01*
X1067765Y2780690D01*
X1070762Y2776829D01*
X1074674Y2772613D01*
X1079500Y2768193D01*
X1085037Y2763570D01*
X1091285Y2758846D01*
X1098143Y2754071D01*
X1105458Y2749346D01*
X1117803Y2741930D01*
X1122121Y2738882D01*
X1126134Y2735681D01*
X1129792Y2732328D01*
X1133043Y2728925D01*
X1135888Y2725420D01*
X1138275Y2721914D01*
X1140104Y2718358D01*
X1142136Y2713583D01*
X1143203Y2709570D01*
X1143558Y2705049D01*
X1143000Y2694127D01*
X1142136Y2686710D01*
X1141425Y2683408D01*
X1141780Y2682595D01*
X1143101Y2682240D01*
X1147064Y2682087D01*
X1148384Y2682240D01*
X1149451Y2682849D01*
X1150416Y2684170D01*
X1151178Y2686456D01*
X1151940Y2690063D01*
X1153312Y2702204D01*
X1159510Y2786837D01*
X1160424Y2804312D01*
X1160424Y2809240D01*
X1160119Y2812542D01*
X1159560Y2814929D01*
X1158748Y2817164D01*
X1156309Y2821889D01*
X1153058Y2825800D01*
X1148943Y2828950D01*
X1143863Y2831388D01*
X1139240Y2832150D01*
X1129893Y2832709D01*
X1115771Y2833065D01*
G37*
G36*
X939749Y2679039D02*
G01*
X938733Y2677515D01*
X937514Y2674670D01*
X936244Y2669692D01*
X935939Y2664510D01*
X936498Y2659938D01*
X937869Y2656840D01*
X940866Y2655519D01*
X942594Y2658313D01*
X942695Y2663647D01*
X939698Y2673807D01*
X939495Y2675483D01*
X940155Y2678887D01*
G37*
G36*
X1159002Y2678125D02*
G01*
X1159052Y2676144D01*
X1157986Y2671216D01*
X1155750Y2663139D01*
X1155446Y2658872D01*
X1156208Y2656027D01*
X1157986Y2654960D01*
X1160780Y2656992D01*
X1162253Y2662123D01*
X1162253Y2668727D01*
X1160526Y2675331D01*
G37*
G36*
X1009091Y2673096D02*
G01*
X971448Y2672943D01*
X950976Y2672283D01*
X951941Y2669489D01*
X957732Y2656433D01*
X1045311Y2656433D01*
X1045362Y2667152D01*
X1045057Y2668879D01*
X1044346Y2670251D01*
X1042924Y2671267D01*
X1040688Y2672029D01*
X1037336Y2672537D01*
X1026617Y2672994D01*
G37*
G36*
X1053388Y2673045D02*
G01*
X1053592Y2607716D01*
X1053947Y2596743D01*
X1054404Y2590800D01*
X1054658Y2589987D01*
X1059027Y2591358D01*
X1067816Y2594660D01*
X1074470Y2597505D01*
X1081125Y2600655D01*
X1087628Y2604211D01*
X1094028Y2608072D01*
X1100175Y2612186D01*
X1106119Y2616504D01*
X1111808Y2621076D01*
X1117193Y2625801D01*
X1122172Y2630678D01*
X1126794Y2635707D01*
X1130909Y2640787D01*
X1134618Y2645867D01*
X1137920Y2651760D01*
X1142339Y2660345D01*
X1146149Y2668320D01*
X1147775Y2672537D01*
X1133906Y2672892D01*
G37*
G36*
X948283Y2659380D02*
G01*
X947013Y2658719D01*
X945083Y2656738D01*
X943508Y2653944D01*
X942848Y2651201D01*
X942746Y2649982D01*
X942390Y2649728D01*
X941578Y2650490D01*
X940206Y2652318D01*
X937514Y2655163D01*
X934466Y2656840D01*
X931113Y2657348D01*
X927811Y2656535D01*
X924661Y2655112D01*
X927760Y2655062D01*
X929233Y2654757D01*
X930452Y2653944D01*
X931468Y2652522D01*
X932230Y2650540D01*
X934059Y2647340D01*
X936955Y2644749D01*
X940206Y2643225D01*
X943965Y2643225D01*
X946099Y2641904D01*
X949350Y2637586D01*
X951788Y2643936D01*
X951941Y2645765D01*
X951484Y2647543D01*
X949502Y2651506D01*
X948893Y2653436D01*
X948639Y2655163D01*
X948893Y2658668D01*
G37*
G36*
X1149858Y2658872D02*
G01*
X1149705Y2658262D01*
X1150112Y2655112D01*
X1149756Y2653284D01*
X1149045Y2651404D01*
X1146657Y2647543D01*
X1146048Y2645816D01*
X1145946Y2644292D01*
X1146454Y2642768D01*
X1147927Y2640279D01*
X1149350Y2639161D01*
X1150670Y2639415D01*
X1152804Y2642209D01*
X1153769Y2642971D01*
X1154887Y2643327D01*
X1158595Y2643276D01*
X1161338Y2644546D01*
X1163878Y2647035D01*
X1166977Y2652217D01*
X1168146Y2653639D01*
X1169314Y2654604D01*
X1170381Y2655011D01*
X1171600Y2655062D01*
X1172006Y2655265D01*
X1170381Y2656535D01*
X1167587Y2657398D01*
X1164437Y2656890D01*
X1161288Y2655214D01*
X1158646Y2652471D01*
X1157122Y2650388D01*
X1156309Y2649677D01*
X1155903Y2650236D01*
X1155242Y2653538D01*
X1153414Y2656433D01*
X1150670Y2658618D01*
G37*
G36*
X1208836Y2645003D02*
G01*
X1208227Y2644241D01*
X1206652Y2640177D01*
X1206500Y2639009D01*
X1206957Y2638450D01*
X1209192Y2638094D01*
X1210259Y2637485D01*
X1211275Y2636570D01*
X1212088Y2635453D01*
X1212799Y2633929D01*
X1212799Y2632913D01*
X1211935Y2632202D01*
X1208633Y2631287D01*
X1207363Y2631338D01*
X1206347Y2631744D01*
X1205128Y2633014D01*
X1204569Y2633014D01*
X1203909Y2632405D01*
X1201928Y2627985D01*
X1202182Y2626360D01*
X1204264Y2626055D01*
X1208328Y2626766D01*
X1214170Y2627325D01*
X1220012Y2626664D01*
X1224229Y2625140D01*
X1225245Y2623159D01*
X1225042Y2622143D01*
X1225245Y2621838D01*
X1225651Y2621737D01*
X1226769Y2622753D01*
X1228191Y2625140D01*
X1229461Y2627884D01*
X1230020Y2629966D01*
X1229258Y2630119D01*
X1227480Y2629763D01*
X1223060Y2630322D01*
X1217777Y2633472D01*
X1213002Y2638145D01*
X1209903Y2643378D01*
X1209344Y2644698D01*
G37*
G36*
X888136Y2644190D02*
G01*
X887323Y2642768D01*
X884834Y2640787D01*
X879602Y2638348D01*
X873658Y2636266D01*
X869035Y2635351D01*
X865987Y2635300D01*
X869442Y2627680D01*
X870503Y2625852D01*
X871626Y2625852D01*
X871778Y2628950D01*
X874877Y2631948D01*
X880871Y2634843D01*
X890016Y2638247D01*
X890625Y2637231D01*
X891590Y2634742D01*
X892352Y2631084D01*
X891946Y2627884D01*
X890371Y2625140D01*
X887628Y2622753D01*
X884072Y2620924D01*
X880668Y2620314D01*
X877417Y2620873D01*
X874369Y2622600D01*
X871626Y2625852D01*
X870503Y2625852D01*
X872744Y2621991D01*
X876452Y2618384D01*
X880668Y2616809D01*
X885342Y2617317D01*
X890778Y2620111D01*
X893673Y2624328D01*
X894029Y2630170D01*
X891997Y2637942D01*
X890371Y2641854D01*
X889101Y2643886D01*
G37*
G36*
X958596Y2642666D02*
G01*
X956208Y2640939D01*
X954430Y2638856D01*
X953414Y2636570D01*
X953262Y2633929D01*
X954430Y2629103D01*
X954176Y2628646D01*
X952855Y2629611D01*
X950264Y2632100D01*
X946505Y2635148D01*
X943051Y2636570D01*
X939800Y2636367D01*
X936701Y2634538D01*
X934872Y2632760D01*
X936650Y2633268D01*
X938021Y2633421D01*
X939546Y2632760D01*
X941324Y2631135D01*
X945896Y2625496D01*
X948029Y2623718D01*
X950264Y2622804D01*
X955294Y2622346D01*
X959103Y2621584D01*
X961085Y2620721D01*
X961898Y2620721D01*
X962609Y2621127D01*
X963218Y2621889D01*
X964234Y2624582D01*
X964184Y2627325D01*
X963117Y2630322D01*
X959612Y2635707D01*
X958697Y2637688D01*
X958189Y2639364D01*
X958189Y2640634D01*
X958646Y2642108D01*
G37*
G36*
X1140409Y2642057D02*
G01*
X1140256Y2641650D01*
X1140561Y2640584D01*
X1140561Y2639364D01*
X1140053Y2637637D01*
X1135126Y2628493D01*
X1134414Y2623667D01*
X1135583Y2620670D01*
X1138478Y2621076D01*
X1141120Y2621889D01*
X1148232Y2622753D01*
X1150518Y2623718D01*
X1152702Y2625547D01*
X1157224Y2631084D01*
X1158951Y2632760D01*
X1160475Y2633472D01*
X1163167Y2633014D01*
X1163421Y2633268D01*
X1163320Y2633675D01*
X1162710Y2634335D01*
X1160068Y2635605D01*
X1158392Y2636113D01*
X1156208Y2636418D01*
X1154277Y2636215D01*
X1152398Y2635402D01*
X1147470Y2631694D01*
X1145895Y2631033D01*
X1145184Y2632100D01*
X1144879Y2636774D01*
X1144371Y2638501D01*
X1143508Y2639923D01*
X1142441Y2640990D01*
G37*
G36*
X1006551Y2639822D02*
G01*
X967790Y2639771D01*
X983081Y2623210D01*
X1045311Y2623210D01*
X1045311Y2639822D01*
G37*
G36*
X1126286Y2627731D02*
G01*
X1128420Y2624023D01*
X1128369Y2622600D01*
X1127150Y2620924D01*
X1122019Y2615946D01*
X1120444Y2613761D01*
X1119682Y2611475D01*
X1119479Y2608732D01*
X1119835Y2605278D01*
X1120952Y2603804D01*
X1123035Y2604414D01*
X1127963Y2608630D01*
X1128115Y2608529D01*
X1126845Y2606294D01*
X1127099Y2605532D01*
X1128674Y2605176D01*
X1135024Y2605278D01*
X1137412Y2605989D01*
X1139494Y2607360D01*
X1143406Y2611374D01*
X1145184Y2612847D01*
X1146860Y2613812D01*
X1149451Y2614269D01*
X1150010Y2614574D01*
X1149858Y2615285D01*
X1149096Y2616454D01*
X1146657Y2618232D01*
X1143304Y2618536D01*
X1139291Y2617317D01*
X1131671Y2612491D01*
X1131062Y2612390D01*
X1132636Y2616250D01*
X1132586Y2619908D01*
X1131265Y2623362D01*
X1128877Y2626055D01*
G37*
G36*
X969924Y2626207D02*
G01*
X968298Y2625090D01*
X966622Y2623058D01*
X965606Y2620670D01*
X965403Y2618232D01*
X966012Y2615692D01*
X967994Y2612186D01*
X968248Y2610612D01*
X967689Y2609850D01*
X967384Y2609900D01*
X967130Y2610764D01*
X965758Y2613050D01*
X962355Y2615641D01*
X958342Y2617774D01*
X954836Y2618689D01*
X953363Y2618435D01*
X949909Y2616962D01*
X945235Y2613152D01*
X949096Y2613761D01*
X951179Y2613863D01*
X953008Y2613304D01*
X954836Y2611932D01*
X959154Y2607411D01*
X961288Y2605989D01*
X963726Y2605278D01*
X970076Y2605176D01*
X971651Y2605532D01*
X971854Y2606294D01*
X970635Y2608478D01*
X970838Y2608580D01*
X975512Y2604719D01*
X977544Y2604363D01*
X978814Y2605836D01*
X979271Y2609037D01*
X978916Y2610967D01*
X978001Y2613152D01*
X976477Y2615438D01*
X972515Y2619959D01*
X971143Y2621889D01*
X970432Y2623515D01*
X970381Y2624582D01*
X970838Y2626106D01*
G37*
G36*
X1198727Y2623108D02*
G01*
X1197914Y2622550D01*
X1197254Y2619959D01*
X1196289Y2617673D01*
X1190701Y2607716D01*
X1189583Y2605176D01*
X1189532Y2603754D01*
X1190396Y2602992D01*
X1192580Y2602280D01*
X1194104Y2602128D01*
X1194663Y2602484D01*
X1193901Y2603347D01*
X1192936Y2604973D01*
X1193088Y2607056D01*
X1194104Y2608884D01*
X1195832Y2609646D01*
X1199946Y2608224D01*
X1205992Y2604922D01*
X1211427Y2601315D01*
X1214018Y2598470D01*
X1214628Y2598775D01*
X1216507Y2601010D01*
X1218336Y2603804D01*
X1219098Y2605481D01*
X1218742Y2606090D01*
X1217371Y2605735D01*
X1215898Y2605786D01*
X1213358Y2606598D01*
X1206347Y2609799D01*
X1197203Y2614625D01*
X1202385Y2619756D01*
X1203147Y2620975D01*
X1203045Y2621737D01*
X1202182Y2622346D01*
X1200150Y2623058D01*
G37*
G36*
X888898Y2614015D02*
G01*
X885952Y2613101D01*
X882933Y2610764D01*
X889457Y2610764D01*
X889965Y2611069D01*
X891184Y2610916D01*
X893064Y2609748D01*
X893724Y2608783D01*
X894080Y2607716D01*
X894029Y2605735D01*
X893064Y2605176D01*
X891692Y2606040D01*
X890219Y2608275D01*
X889558Y2609900D01*
X889457Y2610764D01*
X882802Y2610662D01*
X881126Y2608884D01*
X880160Y2607259D01*
X879856Y2605684D01*
X880059Y2604008D01*
X881278Y2601417D01*
X882802Y2600045D01*
X883869Y2600198D01*
X883919Y2604516D01*
X884732Y2606954D01*
X886002Y2608884D01*
X887425Y2609646D01*
X888746Y2608224D01*
X891946Y2602636D01*
X892962Y2601468D01*
X893927Y2601366D01*
X895045Y2602128D01*
X896518Y2604109D01*
X896924Y2606243D01*
X896213Y2608580D01*
X894334Y2611170D01*
X891692Y2613355D01*
G37*
G36*
X1112164Y2613406D02*
G01*
X1112062Y2612593D01*
X1112469Y2608732D01*
X1112164Y2607310D01*
X1111300Y2606090D01*
X1105916Y2602331D01*
X1103020Y2599283D01*
X1101191Y2596083D01*
X1100582Y2592781D01*
X1100937Y2589733D01*
X1102207Y2588768D01*
X1104900Y2589834D01*
X1109268Y2592984D01*
X1114145Y2597810D01*
X1116685Y2602738D01*
X1116736Y2607513D01*
X1114247Y2611729D01*
X1112875Y2613050D01*
G37*
G36*
X985113Y2612136D02*
G01*
X984605Y2611983D01*
X983792Y2611018D01*
X981760Y2606802D01*
X981811Y2602534D01*
X984046Y2598216D01*
X988364Y2593848D01*
X993190Y2590190D01*
X996187Y2588818D01*
X997712Y2589682D01*
X998118Y2592781D01*
X997508Y2596032D01*
X995730Y2599232D01*
X992886Y2602280D01*
X987958Y2605836D01*
X986942Y2607056D01*
X986180Y2608478D01*
X985469Y2611475D01*
G37*
G36*
X1044905Y2606598D02*
G01*
X1015288Y2606497D01*
X1010056Y2606192D01*
X1009040Y2605430D01*
X1010919Y2604008D01*
X1017320Y2600706D01*
X1026261Y2596591D01*
X1035151Y2592882D01*
X1041196Y2590749D01*
X1045413Y2589733D01*
G37*
G36*
X1126998Y2601976D02*
G01*
X1123391Y2600655D01*
X1118971Y2598470D01*
X1114196Y2595168D01*
X1110538Y2591917D01*
X1109472Y2589834D01*
X1110183Y2589326D01*
X1111707Y2588869D01*
X1116177Y2588514D01*
X1119124Y2588666D01*
X1121460Y2589225D01*
X1123391Y2590292D01*
X1126591Y2593136D01*
X1128420Y2594203D01*
X1130401Y2594914D01*
X1135227Y2595727D01*
X1135989Y2597048D01*
X1134618Y2598724D01*
X1129639Y2601112D01*
G37*
G36*
X970483Y2601925D02*
G01*
X968451Y2601315D01*
X965453Y2599740D01*
X962863Y2597810D01*
X961847Y2596286D01*
X962507Y2595473D01*
X966368Y2595575D01*
X968248Y2595016D01*
X970330Y2593898D01*
X972464Y2592374D01*
X976833Y2589885D01*
X982014Y2588514D01*
X986637Y2588463D01*
X989279Y2589885D01*
X987501Y2592628D01*
X982116Y2596591D01*
X975614Y2600248D01*
G37*
G36*
X1004163Y2601925D02*
G01*
X1003096Y2600960D01*
X1001369Y2598318D01*
X999693Y2593340D01*
X1000912Y2588666D01*
X1005332Y2583738D01*
X1013307Y2578150D01*
X1018336Y2574950D01*
X1018336Y2580132D01*
X1017727Y2583992D01*
X1015796Y2587345D01*
X1012393Y2590444D01*
X1005484Y2594457D01*
X1004366Y2595575D01*
X1003960Y2596946D01*
X1004519Y2601163D01*
G37*
G36*
X1187246Y2601112D02*
G01*
X1186281Y2600706D01*
X1183487Y2597150D01*
X1182928Y2595676D01*
X1183284Y2594813D01*
X1184656Y2594559D01*
X1188516Y2592984D01*
X1194206Y2589479D01*
X1199388Y2585516D01*
X1201623Y2582824D01*
X1201978Y2581351D01*
X1202893Y2581148D01*
X1204315Y2582316D01*
X1207465Y2586888D01*
X1207820Y2588006D01*
X1207211Y2588463D01*
X1204010Y2588768D01*
X1202283Y2589428D01*
X1198981Y2591511D01*
X1196136Y2593594D01*
X1193190Y2594813D01*
X1190955Y2596794D01*
X1188313Y2600299D01*
G37*
G36*
X1095095Y2599842D02*
G01*
X1094638Y2599690D01*
X1094536Y2597251D01*
X1093419Y2595829D01*
X1091438Y2594102D01*
X1088593Y2592222D01*
X1084275Y2588971D01*
X1081379Y2585466D01*
X1079957Y2581656D01*
X1080058Y2577642D01*
X1080465Y2576322D01*
X1081227Y2575966D01*
X1082802Y2576576D01*
X1090117Y2581198D01*
X1093368Y2583637D01*
X1095654Y2585923D01*
X1097381Y2588310D01*
X1098448Y2591358D01*
X1098499Y2594813D01*
X1097584Y2597861D01*
X1095806Y2599639D01*
G37*
G36*
X898093Y2598978D02*
G01*
X895045Y2598267D01*
X892556Y2596286D01*
X891641Y2594965D01*
X890930Y2593441D01*
X890473Y2591866D01*
X890320Y2590444D01*
X890879Y2587904D01*
X892251Y2585618D01*
X893876Y2584297D01*
X895299Y2584500D01*
X895502Y2584907D01*
X895096Y2585415D01*
X893978Y2585770D01*
X893470Y2586583D01*
X893114Y2587802D01*
X893165Y2591104D01*
X893826Y2592578D01*
X894892Y2593695D01*
X896467Y2594559D01*
X899871Y2595778D01*
X902106Y2595880D01*
X903376Y2594914D01*
X903782Y2592781D01*
X903732Y2591003D01*
X903427Y2590342D01*
X902614Y2590800D01*
X900023Y2593238D01*
X898601Y2593848D01*
X898398Y2593492D01*
X899210Y2591409D01*
X901141Y2589276D01*
X903325Y2587802D01*
X905052Y2587701D01*
X906221Y2589326D01*
X906373Y2591663D01*
X905611Y2594254D01*
X903986Y2596591D01*
X901242Y2598420D01*
G37*
G36*
X1073708Y2589987D02*
G01*
X1074013Y2588260D01*
X1073962Y2585872D01*
X1072337Y2583586D01*
X1068984Y2581249D01*
X1059688Y2576677D01*
X1056894Y2574239D01*
X1055268Y2571343D01*
X1054557Y2566619D01*
X1053947Y2565298D01*
X1053084Y2564130D01*
X1052017Y2563164D01*
X1049223Y2562148D01*
X1046632Y2562809D01*
X1044702Y2564841D01*
X1043990Y2567889D01*
X1043432Y2571496D01*
X1041501Y2574493D01*
X1037996Y2577185D01*
X1028496Y2581808D01*
X1026058Y2583383D01*
X1024839Y2584958D01*
X1024534Y2586736D01*
X1024534Y2589022D01*
X1024178Y2589784D01*
X1023366Y2588971D01*
X1021791Y2586634D01*
X1020165Y2583383D01*
X1020013Y2580538D01*
X1021486Y2577490D01*
X1027684Y2570124D01*
X1027836Y2569413D01*
X1025550Y2570073D01*
X1020521Y2571089D01*
X1013968Y2571750D01*
X1011428Y2571394D01*
X1009396Y2570226D01*
X1005789Y2566314D01*
X1003808Y2563266D01*
X1003553Y2562301D01*
X1003655Y2561742D01*
X1003960Y2561590D01*
X1007262Y2563926D01*
X1010056Y2564180D01*
X1013510Y2563266D01*
X1017625Y2561183D01*
X1022045Y2559253D01*
X1026464Y2558745D01*
X1030732Y2559608D01*
X1034643Y2561844D01*
X1036218Y2563164D01*
X1036675Y2564079D01*
X1035812Y2565044D01*
X1030630Y2568600D01*
X1030681Y2568803D01*
X1033627Y2567838D01*
X1038606Y2565349D01*
X1043736Y2562453D01*
X1048359Y2558948D01*
X1049375Y2558592D01*
X1050391Y2558948D01*
X1054455Y2562402D01*
X1058062Y2564638D01*
X1061923Y2566568D01*
X1065530Y2567990D01*
X1067917Y2568498D01*
X1062583Y2564739D01*
X1061516Y2563571D01*
X1062786Y2562148D01*
X1065936Y2560421D01*
X1069594Y2558948D01*
X1072540Y2558338D01*
X1074166Y2558592D01*
X1078687Y2560167D01*
X1085342Y2563266D01*
X1088796Y2564130D01*
X1091539Y2563876D01*
X1094994Y2561437D01*
X1095146Y2562301D01*
X1094232Y2564434D01*
X1092454Y2567076D01*
X1088694Y2570175D01*
X1083919Y2571597D01*
X1078179Y2571445D01*
X1070711Y2569464D01*
X1070762Y2569972D01*
X1073454Y2573020D01*
X1076502Y2576931D01*
X1077925Y2580995D01*
X1077671Y2584856D01*
X1075639Y2588260D01*
G37*
G36*
X1178966Y2588971D02*
G01*
X1177544Y2588564D01*
X1176172Y2587701D01*
X1174800Y2586329D01*
X1171905Y2581198D01*
X1172819Y2577541D01*
X1177239Y2575560D01*
X1184960Y2575610D01*
X1189990Y2576169D01*
X1192580Y2576068D01*
X1193495Y2575153D01*
X1193393Y2573172D01*
X1192987Y2571343D01*
X1192174Y2570327D01*
X1190650Y2569870D01*
X1183487Y2570124D01*
X1188364Y2565806D01*
X1189634Y2565400D01*
X1191006Y2566111D01*
X1192936Y2567990D01*
X1195324Y2571292D01*
X1196136Y2574594D01*
X1195476Y2577541D01*
X1193241Y2580030D01*
X1191463Y2581046D01*
X1189431Y2581452D01*
X1186840Y2581249D01*
X1178610Y2579674D01*
X1175918Y2579776D01*
X1174851Y2580894D01*
X1175207Y2583129D01*
X1175816Y2584094D01*
X1176934Y2584856D01*
X1178407Y2585313D01*
X1182674Y2585821D01*
X1183487Y2586685D01*
X1182674Y2587802D01*
X1180236Y2588920D01*
G37*
G36*
X908354Y2587701D02*
G01*
X907948Y2584805D01*
X905510Y2581706D01*
X902208Y2579217D01*
X899261Y2578557D01*
X897940Y2578862D01*
X897483Y2578709D01*
X899109Y2576372D01*
X900480Y2574798D01*
X901700Y2574442D01*
X903325Y2575255D01*
X905967Y2577388D01*
X909167Y2579573D01*
X911961Y2580335D01*
X913841Y2579674D01*
X914552Y2577592D01*
X913282Y2575356D01*
X910386Y2573020D01*
X907084Y2571445D01*
X904341Y2571445D01*
X905205Y2569819D01*
X908558Y2565755D01*
X909828Y2564587D01*
X910183Y2564739D01*
X909777Y2566263D01*
X910437Y2568244D01*
X912876Y2570581D01*
X916076Y2572562D01*
X919022Y2573375D01*
X921359Y2572664D01*
X921766Y2570734D01*
X920343Y2568143D01*
X917244Y2565400D01*
X914857Y2563672D01*
X913434Y2562301D01*
X912977Y2561183D01*
X913384Y2560218D01*
X914146Y2559608D01*
X914908Y2559354D01*
X915669Y2559456D01*
X921664Y2564485D01*
X924255Y2567228D01*
X925169Y2569667D01*
X924407Y2571851D01*
X920648Y2574493D01*
X919581Y2575458D01*
X918870Y2576474D01*
X918514Y2578201D01*
X917905Y2579268D01*
X916635Y2579827D01*
X913637Y2582418D01*
X910183Y2586126D01*
G37*
G36*
X1106424Y2586888D02*
G01*
X1103223Y2586228D01*
X1099007Y2584754D01*
X1094486Y2582519D01*
X1090472Y2580030D01*
X1088491Y2578506D01*
X1087729Y2577490D01*
X1087983Y2576525D01*
X1089253Y2575407D01*
X1092454Y2573782D01*
X1096314Y2573578D01*
X1100734Y2574798D01*
X1108760Y2579370D01*
X1110996Y2580335D01*
X1112723Y2580386D01*
X1115822Y2578811D01*
X1116634Y2578963D01*
X1116584Y2579979D01*
X1115720Y2581859D01*
X1114044Y2583688D01*
X1111605Y2585313D01*
X1108862Y2586482D01*
G37*
G36*
X991869Y2586431D02*
G01*
X989685Y2586177D01*
X987602Y2585618D01*
X985824Y2584805D01*
X983081Y2582519D01*
X982065Y2581300D01*
X981506Y2580284D01*
X981202Y2579166D01*
X981354Y2578709D01*
X985012Y2580640D01*
X986891Y2580538D01*
X989533Y2579471D01*
X997356Y2575001D01*
X1000252Y2573832D01*
X1002792Y2573680D01*
X1005586Y2574239D01*
X1007516Y2574899D01*
X1010158Y2576474D01*
X1010564Y2577185D01*
X1008786Y2579370D01*
X1004417Y2582214D01*
X998982Y2584805D01*
X994054Y2586278D01*
G37*
G36*
X1167333Y2573274D02*
G01*
X1162456Y2571902D01*
X1156817Y2567228D01*
X1156002Y2566314D01*
X1159052Y2566314D01*
X1159205Y2567279D01*
X1161237Y2568498D01*
X1164437Y2568549D01*
X1167485Y2567584D01*
X1169009Y2565806D01*
X1169060Y2564739D01*
X1168349Y2562148D01*
X1167688Y2560980D01*
X1166622Y2559710D01*
X1165656Y2559405D01*
X1164234Y2560116D01*
X1160576Y2563520D01*
X1159560Y2564993D01*
X1159052Y2566314D01*
X1156002Y2566314D01*
X1152652Y2562148D01*
X1154074Y2562047D01*
X1155903Y2561183D01*
X1158290Y2559558D01*
X1165301Y2553309D01*
X1167790Y2550566D01*
X1168704Y2548788D01*
X1168298Y2546299D01*
X1169365Y2546350D01*
X1171244Y2547315D01*
X1173581Y2549194D01*
X1175613Y2551531D01*
X1175461Y2552039D01*
X1174597Y2552192D01*
X1172718Y2552954D01*
X1170533Y2554732D01*
X1168755Y2556865D01*
X1167993Y2558745D01*
X1168857Y2559050D01*
X1174597Y2559050D01*
X1184452Y2558389D01*
X1188110Y2558491D01*
X1190498Y2559202D01*
X1192276Y2560574D01*
X1194155Y2562910D01*
X1194968Y2564688D01*
X1194765Y2565044D01*
X1193647Y2564485D01*
X1190904Y2562148D01*
X1188262Y2561437D01*
X1184249Y2561539D01*
X1178306Y2562301D01*
X1175105Y2562910D01*
X1173175Y2563672D01*
X1172260Y2564790D01*
X1172057Y2566517D01*
X1170736Y2571496D01*
G37*
G36*
X930757Y2562809D02*
G01*
X929690Y2562656D01*
X926998Y2561386D01*
X925626Y2560472D01*
X924604Y2559405D01*
X929690Y2559405D01*
X930249Y2559761D01*
X932942Y2559659D01*
X934974Y2558796D01*
X935532Y2558186D01*
X935990Y2556103D01*
X935126Y2555087D01*
X933399Y2555189D01*
X931418Y2556764D01*
X930097Y2558491D01*
X929690Y2559405D01*
X924604Y2559405D01*
X923544Y2557780D01*
X922883Y2556103D01*
X922629Y2554528D01*
X923391Y2551633D01*
X925321Y2548940D01*
X927912Y2547010D01*
X930706Y2546248D01*
X931265Y2546400D01*
X931214Y2546807D01*
X927150Y2549906D01*
X925880Y2551938D01*
X925677Y2554224D01*
X926592Y2556662D01*
X927353Y2557576D01*
X928369Y2557576D01*
X929894Y2556713D01*
X935075Y2552395D01*
X937158Y2551684D01*
X938428Y2552649D01*
X938834Y2555290D01*
X938021Y2557780D01*
X936040Y2560218D01*
X933399Y2562098D01*
G37*
G36*
X1150416Y2559862D02*
G01*
X1148740Y2559507D01*
X1146352Y2558237D01*
X1140409Y2553716D01*
X1138123Y2551734D01*
X1135786Y2548991D01*
X1135837Y2548077D01*
X1136192Y2548026D01*
X1136700Y2548280D01*
X1139952Y2546858D01*
X1145032Y2542133D01*
X1149604Y2536698D01*
X1151229Y2533091D01*
X1150975Y2531516D01*
X1152042Y2531465D01*
X1154734Y2533091D01*
X1159357Y2536545D01*
X1163472Y2540254D01*
X1165504Y2543352D01*
X1165453Y2545435D01*
X1163066Y2546197D01*
X1161897Y2545842D01*
X1161694Y2545435D01*
X1161796Y2544165D01*
X1161338Y2542946D01*
X1159154Y2540101D01*
X1155801Y2536545D01*
X1151128Y2541930D01*
X1150518Y2543200D01*
X1150975Y2544216D01*
X1153566Y2546400D01*
X1156004Y2547569D01*
X1157833Y2547823D01*
X1158189Y2548178D01*
X1157224Y2550007D01*
X1155750Y2551480D01*
X1154328Y2552192D01*
X1153515Y2552039D01*
X1153769Y2550210D01*
X1153363Y2549296D01*
X1152601Y2548331D01*
X1151483Y2547366D01*
X1149756Y2546299D01*
X1148435Y2546045D01*
X1147114Y2546756D01*
X1143762Y2550261D01*
X1143101Y2551480D01*
X1143304Y2552547D01*
X1144219Y2553614D01*
X1146708Y2555240D01*
X1151534Y2557170D01*
X1152398Y2557780D01*
X1152398Y2558440D01*
X1151636Y2559304D01*
G37*
G36*
X957122Y2556103D02*
G01*
X956868Y2555748D01*
X957122Y2553817D01*
X955954Y2550972D01*
X954887Y2549448D01*
X953262Y2547670D01*
X952144Y2546908D01*
X951077Y2547213D01*
X949706Y2548382D01*
X947013Y2550160D01*
X943864Y2550668D01*
X940866Y2549906D01*
X938377Y2547975D01*
X936396Y2544572D01*
X936598Y2541981D01*
X939596Y2541981D01*
X940714Y2545689D01*
X943203Y2548229D01*
X945134Y2549093D01*
X947470Y2548331D01*
X948994Y2547213D01*
X949452Y2546502D01*
X949604Y2545791D01*
X948740Y2543454D01*
X946607Y2540609D01*
X944118Y2538171D01*
X942086Y2537155D01*
X940003Y2538628D01*
X939596Y2541981D01*
X936598Y2541981D01*
X936650Y2541320D01*
X939393Y2537510D01*
X945794Y2531821D01*
X946403Y2531516D01*
X946658Y2531618D01*
X946454Y2532176D01*
X946607Y2533548D01*
X947928Y2535834D01*
X950315Y2538933D01*
X956767Y2546096D01*
X961085Y2551328D01*
X961745Y2552496D01*
X960983Y2553766D01*
X957834Y2555951D01*
G37*
G36*
X1133246Y2547518D02*
G01*
X1131570Y2546858D01*
X1127150Y2543200D01*
X1126540Y2542387D01*
X1126947Y2542286D01*
X1129842Y2542844D01*
X1130858Y2542438D01*
X1131570Y2541270D01*
X1134059Y2530754D01*
X1133551Y2530297D01*
X1131976Y2530906D01*
X1126744Y2534005D01*
X1123340Y2536850D01*
X1122121Y2538984D01*
X1121257Y2539288D01*
X1119936Y2538882D01*
X1113586Y2535275D01*
X1120648Y2532481D01*
X1124305Y2530500D01*
X1128623Y2527300D01*
X1132636Y2524861D01*
X1136243Y2523134D01*
X1138072Y2522778D01*
X1138174Y2523744D01*
X1137310Y2528824D01*
X1135634Y2535986D01*
X1134465Y2542438D01*
X1134059Y2546705D01*
G37*
G36*
X953922Y2535631D02*
G01*
X953820Y2535377D01*
X955141Y2533751D01*
X958748Y2530703D01*
X960424Y2529789D01*
X961390Y2529840D01*
X961745Y2530856D01*
X960780Y2532126D01*
X958545Y2533700D01*
X955954Y2535072D01*
G37*
G36*
X975410Y2535529D02*
G01*
X973378Y2535275D01*
X968654Y2533650D01*
X967994Y2533243D01*
X967841Y2532938D01*
X968908Y2532380D01*
X968857Y2531414D01*
X968095Y2529789D01*
X965301Y2525268D01*
X964387Y2523134D01*
X963879Y2521305D01*
X963879Y2520035D01*
X965098Y2518054D01*
X966825Y2516886D01*
X968756Y2516632D01*
X970330Y2517495D01*
X970787Y2518156D01*
X970838Y2518664D01*
X970381Y2518918D01*
X969416Y2519019D01*
X967638Y2519629D01*
X967282Y2521254D01*
X968197Y2523642D01*
X970483Y2526538D01*
X972210Y2528214D01*
X973582Y2529027D01*
X974699Y2528976D01*
X977341Y2527198D01*
X977747Y2527300D01*
X977900Y2527757D01*
X977747Y2528417D01*
X976579Y2529738D01*
X974750Y2530754D01*
X974344Y2531414D01*
X974496Y2532227D01*
X976020Y2534869D01*
G37*
G36*
X1111808Y2533954D02*
G01*
X1110284Y2533650D01*
X1107795Y2532634D01*
X1105458Y2531211D01*
X1104087Y2529738D01*
X1103884Y2528570D01*
X1105103Y2528112D01*
X1107897Y2525877D01*
X1111808Y2520848D01*
X1115263Y2515108D01*
X1116787Y2510993D01*
X1116888Y2509875D01*
X1117498Y2509520D01*
X1118819Y2509926D01*
X1123035Y2512314D01*
X1124000Y2513177D01*
X1124051Y2513787D01*
X1123289Y2514142D01*
X1120140Y2516987D01*
X1116076Y2522778D01*
X1112824Y2528824D01*
X1111961Y2532481D01*
X1112316Y2533599D01*
G37*
G36*
X1100785Y2527909D02*
G01*
X1099058Y2527401D01*
X1094333Y2525014D01*
X1093520Y2524302D01*
X1093419Y2523896D01*
X1094130Y2523693D01*
X1096568Y2521966D01*
X1099667Y2518156D01*
X1102106Y2514193D01*
X1102664Y2511806D01*
X1101699Y2511856D01*
X1096365Y2513685D01*
X1088542Y2516784D01*
X1084986Y2517851D01*
X1082192Y2518410D01*
X1080363Y2518257D01*
X1078839Y2517648D01*
X1078331Y2517089D01*
X1078788Y2516225D01*
X1080211Y2514752D01*
X1083259Y2510688D01*
X1086307Y2505151D01*
X1088491Y2500020D01*
X1088796Y2497175D01*
X1088644Y2496769D01*
X1089050Y2496566D01*
X1096162Y2498039D01*
X1095146Y2499055D01*
X1092504Y2501036D01*
X1088948Y2505608D01*
X1087323Y2508351D01*
X1085342Y2512771D01*
X1085037Y2513888D01*
X1085392Y2513990D01*
X1090066Y2511755D01*
X1105357Y2505760D01*
X1108659Y2504897D01*
X1104493Y2514549D01*
X1101750Y2521610D01*
X1101090Y2524252D01*
X1101090Y2525826D01*
X1101394Y2527350D01*
G37*
G36*
X981456Y2524658D02*
G01*
X977595Y2522982D01*
X975918Y2520492D01*
X975309Y2517241D01*
X975609Y2515108D01*
X977849Y2515108D01*
X978560Y2518308D01*
X980897Y2521204D01*
X984046Y2523388D01*
X985012Y2523286D01*
X986586Y2522626D01*
X988568Y2520035D01*
X987806Y2516276D01*
X985062Y2512923D01*
X981100Y2511501D01*
X978662Y2512517D01*
X977849Y2515108D01*
X975609Y2515108D01*
X975766Y2513990D01*
X977341Y2511399D01*
X982116Y2509469D01*
X987247Y2510586D01*
X991006Y2513990D01*
X991819Y2518816D01*
X989685Y2522270D01*
X985875Y2524302D01*
G37*
G36*
X1014984Y2522067D02*
G01*
X1014221Y2521864D01*
X1013561Y2521356D01*
X1013104Y2520594D01*
X1012037Y2516378D01*
X1009802Y2511044D01*
X1007008Y2505405D01*
X1003909Y2500172D01*
X1003808Y2499309D01*
X1004163Y2498547D01*
X1004976Y2497785D01*
X1006652Y2496820D01*
X1007922Y2496464D01*
X1008583Y2496718D01*
X1008380Y2497632D01*
X1008735Y2499918D01*
X1010310Y2503576D01*
X1012342Y2506980D01*
X1013968Y2508453D01*
X1017168Y2506878D01*
X1018032Y2503373D01*
X1016762Y2499461D01*
X1013307Y2496616D01*
X1009599Y2495092D01*
X1013307Y2494991D01*
X1016253Y2495651D01*
X1019200Y2497531D01*
X1021486Y2499969D01*
X1022400Y2502408D01*
X1021537Y2504592D01*
X1019505Y2507081D01*
X1017016Y2509113D01*
X1014831Y2509977D01*
X1013714Y2510078D01*
X1013307Y2510536D01*
X1016406Y2516987D01*
X1016914Y2519629D01*
X1016457Y2521407D01*
G37*
G36*
X1072591Y2515819D02*
G01*
X1071016Y2515412D01*
X1066698Y2513330D01*
X1066038Y2512720D01*
X1066190Y2512314D01*
X1067104Y2511907D01*
X1069594Y2509418D01*
X1072184Y2504440D01*
X1074013Y2498953D01*
X1074318Y2494838D01*
X1073099Y2492705D01*
X1071067Y2491232D01*
X1068832Y2490622D01*
X1066901Y2491079D01*
X1064564Y2494280D01*
X1062024Y2499868D01*
X1060043Y2505506D01*
X1059637Y2509113D01*
X1059891Y2510231D01*
X1059535Y2510739D01*
X1058367Y2510536D01*
X1056233Y2509774D01*
X1053490Y2508402D01*
X1051407Y2506878D01*
X1050747Y2505811D01*
X1051966Y2505760D01*
X1052830Y2505354D01*
X1054100Y2503830D01*
X1061110Y2491587D01*
X1064818Y2487980D01*
X1068832Y2487523D01*
X1073759Y2489911D01*
X1076452Y2492400D01*
X1077518Y2495448D01*
X1076960Y2499614D01*
X1073099Y2510485D01*
X1072743Y2512568D01*
X1073099Y2515311D01*
G37*
G36*
X995527Y2511450D02*
G01*
X994613Y2511298D01*
X994359Y2510942D01*
X996035Y2509164D01*
X998524Y2507589D01*
X1000760Y2506980D01*
X1001674Y2507132D01*
X1001928Y2507488D01*
X1000252Y2509266D01*
X997762Y2510790D01*
X996543Y2511298D01*
G37*
G36*
X1031494Y2502357D02*
G01*
X1028344Y2501696D01*
X1025855Y2500020D01*
X1024331Y2497531D01*
X1023874Y2494889D01*
X1024483Y2492248D01*
X1026210Y2489809D01*
X1028801Y2488184D01*
X1031900Y2487422D01*
X1034745Y2487574D01*
X1036523Y2488793D01*
X1036624Y2489352D01*
X1036066Y2489657D01*
X1030325Y2489250D01*
X1028547Y2490520D01*
X1027887Y2493162D01*
X1028395Y2497226D01*
X1028953Y2499055D01*
X1029716Y2500172D01*
X1030782Y2500680D01*
X1032205Y2500630D01*
X1033475Y2500223D01*
X1034389Y2499563D01*
X1034897Y2498648D01*
X1035100Y2496464D01*
X1035456Y2495651D01*
X1036015Y2495092D01*
X1036726Y2494889D01*
X1038047Y2495397D01*
X1038504Y2496820D01*
X1038148Y2498648D01*
X1036980Y2500630D01*
X1034592Y2502001D01*
G37*
G36*
X1031036Y2497785D02*
G01*
X1029665Y2497480D01*
X1029716Y2497175D01*
X1030986Y2496616D01*
X1032357Y2496667D01*
X1032814Y2496972D01*
X1032916Y2497328D01*
X1032662Y2497582D01*
G37*
D49*
X1155700Y3987545D02*
G01*
X1173987Y3939794D01*
X1192021Y3987545D02*
G01*
X1173987Y3939794D01*
X1207007Y3987545D02*
G01*
X1207007Y3939794D01*
X1207007Y3987545D02*
G01*
X1227581Y3987545D01*
X1234439Y3985260D01*
X1236726Y3982973D01*
X1238757Y3978402D01*
X1238757Y3973829D01*
X1236726Y3969257D01*
X1234439Y3966971D01*
X1227581Y3964686D01*
X1207007Y3964686D01*
X1223010Y3964686D02*
G01*
X1238757Y3939794D01*
X1253997Y3987545D02*
G01*
X1253997Y3939794D01*
X1253997Y3987545D02*
G01*
X1283462Y3987545D01*
X1253997Y3964686D02*
G01*
X1272031Y3964686D01*
X1253997Y3939794D02*
G01*
X1283462Y3939794D01*
X1332484Y3976115D02*
G01*
X1330197Y3980687D01*
X1325626Y3985260D01*
X1321054Y3987545D01*
X1312163Y3987545D01*
X1307592Y3985260D01*
X1303020Y3980687D01*
X1300734Y3976115D01*
X1298447Y3969257D01*
X1298447Y3957828D01*
X1300734Y3950970D01*
X1303020Y3946652D01*
X1307592Y3942079D01*
X1312163Y3939794D01*
X1321054Y3939794D01*
X1325626Y3942079D01*
X1330197Y3946652D01*
X1332484Y3950970D01*
X1332484Y3957828D01*
X1321054Y3957828D02*
G01*
X1332484Y3957828D01*
X1187450Y3726687D02*
G01*
X1182878Y3731260D01*
X1176273Y3733545D01*
X1167129Y3733545D01*
X1160271Y3731260D01*
X1155700Y3726687D01*
X1155700Y3722115D01*
X1157986Y3717544D01*
X1160271Y3715257D01*
X1164844Y3712971D01*
X1178305Y3708400D01*
X1182878Y3706113D01*
X1185163Y3703828D01*
X1187450Y3699255D01*
X1187450Y3692652D01*
X1182878Y3688079D01*
X1176273Y3685794D01*
X1167129Y3685794D01*
X1160271Y3688079D01*
X1155700Y3692652D01*
X1202436Y3733545D02*
G01*
X1202436Y3685794D01*
X1202436Y3733545D02*
G01*
X1218437Y3733545D01*
X1225295Y3731260D01*
X1229868Y3726687D01*
X1232154Y3722115D01*
X1234439Y3715257D01*
X1234439Y3703828D01*
X1232154Y3696970D01*
X1229868Y3692652D01*
X1225295Y3688079D01*
X1218437Y3685794D01*
X1202436Y3685794D01*
X1267460Y3733545D02*
G01*
X1249426Y3685794D01*
X1267460Y3733545D02*
G01*
X1285747Y3685794D01*
X1256029Y3701542D02*
G01*
X1278889Y3701542D01*
X1200150Y3472687D02*
G01*
X1195578Y3477260D01*
X1188973Y3479545D01*
X1179829Y3479545D01*
X1172971Y3477260D01*
X1168400Y3472687D01*
X1168400Y3468115D01*
X1170686Y3463544D01*
X1172971Y3461257D01*
X1177544Y3458971D01*
X1191005Y3454400D01*
X1195578Y3452113D01*
X1197863Y3449828D01*
X1200150Y3445255D01*
X1200150Y3438652D01*
X1195578Y3434079D01*
X1188973Y3431794D01*
X1179829Y3431794D01*
X1172971Y3434079D01*
X1168400Y3438652D01*
X1249426Y3468115D02*
G01*
X1247139Y3472687D01*
X1242568Y3477260D01*
X1237995Y3479545D01*
X1228852Y3479545D01*
X1224279Y3477260D01*
X1219707Y3472687D01*
X1217421Y3468115D01*
X1215136Y3461257D01*
X1215136Y3449828D01*
X1217421Y3442970D01*
X1219707Y3438652D01*
X1224279Y3434079D01*
X1228852Y3431794D01*
X1237995Y3431794D01*
X1242568Y3434079D01*
X1247139Y3438652D01*
X1249426Y3442970D01*
X1264412Y3479545D02*
G01*
X1264412Y3431794D01*
X1264412Y3431794D02*
G01*
X1291589Y3431794D01*
X1168400Y3225545D02*
G01*
X1168400Y3177794D01*
X1183386Y3225545D02*
G01*
X1183386Y3177794D01*
X1183386Y3225545D02*
G01*
X1215136Y3177794D01*
X1215136Y3225545D02*
G01*
X1215136Y3177794D01*
X1246123Y3225545D02*
G01*
X1246123Y3177794D01*
X1230121Y3225545D02*
G01*
X1262126Y3225545D01*
D15*
X2819400Y1967229D02*
G01*
X2819400Y1776221D01*
X2819400Y1967229D02*
G01*
X2901188Y1967229D01*
X2928365Y1958086D01*
X2937509Y1948942D01*
X2946654Y1930654D01*
X2946654Y1912620D01*
X2937509Y1894331D01*
X2928365Y1885187D01*
X2901188Y1876297D01*
X2819400Y1876297D02*
G01*
X2901188Y1876297D01*
X2928365Y1867154D01*
X2937509Y1858010D01*
X2946654Y1839721D01*
X2946654Y1812544D01*
X2937509Y1794510D01*
X2928365Y1785365D01*
X2901188Y1776221D01*
X2819400Y1776221D01*
X3006597Y1858010D02*
G01*
X3170427Y1858010D01*
X6946900Y2030729D02*
G01*
X6946900Y1839721D01*
X6946900Y2030729D02*
G01*
X7028688Y2030729D01*
X7055865Y2021586D01*
X7065009Y2012442D01*
X7074154Y1994154D01*
X7074154Y1976120D01*
X7065009Y1957831D01*
X7055865Y1948687D01*
X7028688Y1939797D01*
X6946900Y1939797D02*
G01*
X7028688Y1939797D01*
X7055865Y1930654D01*
X7065009Y1921510D01*
X7074154Y1903221D01*
X7074154Y1876044D01*
X7065009Y1858010D01*
X7055865Y1848865D01*
X7028688Y1839721D01*
X6946900Y1839721D01*
X7215886Y2003297D02*
G01*
X7215886Y1839721D01*
X7134097Y1921510D02*
G01*
X7297927Y1921510D01*
D50*
X1361694Y1827276D02*
G01*
X1361694Y1745234D01*
X1320800Y1786381D02*
G01*
X1402587Y1786381D01*
X1487170Y1840737D02*
G01*
X1441704Y1840737D01*
X1437131Y1799844D01*
X1441704Y1804415D01*
X1455420Y1808987D01*
X1468881Y1808987D01*
X1482597Y1804415D01*
X1491742Y1795271D01*
X1496313Y1781810D01*
X1496313Y1772665D01*
X1491742Y1758950D01*
X1482597Y1749805D01*
X1468881Y1745234D01*
X1455420Y1745234D01*
X1441704Y1749805D01*
X1437131Y1754378D01*
X1432560Y1763521D01*
X1526286Y1840737D02*
G01*
X1562607Y1745234D01*
X1598929Y1840737D02*
G01*
X1562607Y1745234D01*
X1782571Y1818131D02*
G01*
X1778254Y1827276D01*
X1769110Y1836165D01*
X1759965Y1840737D01*
X1741678Y1840737D01*
X1732787Y1836165D01*
X1723644Y1827276D01*
X1719071Y1818131D01*
X1714500Y1804415D01*
X1714500Y1781810D01*
X1719071Y1768094D01*
X1723644Y1758950D01*
X1732787Y1749805D01*
X1741678Y1745234D01*
X1759965Y1745234D01*
X1769110Y1749805D01*
X1778254Y1758950D01*
X1782571Y1768094D01*
X1782571Y1781810D01*
X1759965Y1781810D02*
G01*
X1782571Y1781810D01*
X1812797Y1840737D02*
G01*
X1812797Y1745234D01*
X1812797Y1840737D02*
G01*
X1876297Y1745234D01*
X1876297Y1840737D02*
G01*
X1876297Y1745234D01*
X1906270Y1840737D02*
G01*
X1906270Y1745234D01*
X1906270Y1840737D02*
G01*
X1938020Y1840737D01*
X1951736Y1836165D01*
X1960879Y1827276D01*
X1965452Y1818131D01*
X1970024Y1804415D01*
X1970024Y1781810D01*
X1965452Y1768094D01*
X1960879Y1758950D01*
X1951736Y1749805D01*
X1938020Y1745234D01*
X1906270Y1745234D01*
D51*
X3883152Y4051554D02*
G01*
X3867404Y4067555D01*
X3843527Y4075429D01*
X3811777Y4075429D01*
X3787902Y4067555D01*
X3771900Y4051554D01*
X3771900Y4035805D01*
X3779774Y4019804D01*
X3787902Y4011929D01*
X3803650Y4003802D01*
X3851402Y3988054D01*
X3867404Y3979926D01*
X3875277Y3972052D01*
X3883152Y3956050D01*
X3883152Y3932428D01*
X3867404Y3916426D01*
X3843527Y3908552D01*
X3811777Y3908552D01*
X3787902Y3916426D01*
X3771900Y3932428D01*
X3935729Y4019804D02*
G01*
X3935729Y3908552D01*
X3935729Y3988054D02*
G01*
X3959606Y4011929D01*
X3975608Y4019804D01*
X3999484Y4019804D01*
X4015231Y4011929D01*
X4023359Y3988054D01*
X4023359Y3908552D01*
X4023359Y3988054D02*
G01*
X4047236Y4011929D01*
X4062984Y4019804D01*
X4086859Y4019804D01*
X4102861Y4011929D01*
X4110736Y3988054D01*
X4110736Y3908552D01*
X4258818Y4019804D02*
G01*
X4258818Y3908552D01*
X4258818Y3995928D02*
G01*
X4242815Y4011929D01*
X4226813Y4019804D01*
X4202938Y4019804D01*
X4187190Y4011929D01*
X4171188Y3995928D01*
X4163313Y3972052D01*
X4163313Y3956050D01*
X4171188Y3932428D01*
X4187190Y3916426D01*
X4202938Y3908552D01*
X4226813Y3908552D01*
X4242815Y3916426D01*
X4258818Y3932428D01*
X4311141Y4019804D02*
G01*
X4311141Y3908552D01*
X4311141Y3972052D02*
G01*
X4319270Y3995928D01*
X4335018Y4011929D01*
X4351020Y4019804D01*
X4374895Y4019804D01*
X4451095Y4075429D02*
G01*
X4451095Y3940302D01*
X4459224Y3916426D01*
X4474972Y3908552D01*
X4490974Y3908552D01*
X4427474Y4019804D02*
G01*
X4483100Y4019804D01*
X4543552Y4075429D02*
G01*
X4543552Y3908552D01*
X4543552Y4075429D02*
G01*
X4615179Y4075429D01*
X4639056Y4067555D01*
X4646929Y4059681D01*
X4654804Y4043679D01*
X4654804Y4027678D01*
X4646929Y4011929D01*
X4639056Y4003802D01*
X4615179Y3995928D01*
X4543552Y3995928D02*
G01*
X4615179Y3995928D01*
X4639056Y3988054D01*
X4646929Y3979926D01*
X4654804Y3964178D01*
X4654804Y3940302D01*
X4646929Y3924300D01*
X4639056Y3916426D01*
X4615179Y3908552D01*
X4543552Y3908552D01*
X4802886Y4019804D02*
G01*
X4802886Y3908552D01*
X4802886Y3995928D02*
G01*
X4786884Y4011929D01*
X4770881Y4019804D01*
X4747006Y4019804D01*
X4731258Y4011929D01*
X4715256Y3995928D01*
X4707381Y3972052D01*
X4707381Y3956050D01*
X4715256Y3932428D01*
X4731258Y3916426D01*
X4747006Y3908552D01*
X4770881Y3908552D01*
X4786884Y3916426D01*
X4802886Y3932428D01*
X4855209Y4019804D02*
G01*
X4855209Y3908552D01*
X4855209Y3988054D02*
G01*
X4879086Y4011929D01*
X4895088Y4019804D01*
X4918963Y4019804D01*
X4934965Y4011929D01*
X4942840Y3988054D01*
X4942840Y3908552D01*
X4995418Y4075429D02*
G01*
X4995418Y3908552D01*
X5074920Y4019804D02*
G01*
X4995418Y3940302D01*
X5027168Y3972052D02*
G01*
X5082793Y3908552D01*
D50*
X927100Y5053837D02*
G01*
X963421Y4958334D01*
X999744Y5053837D02*
G01*
X963421Y4958334D01*
X1034287Y5031231D02*
G01*
X1034287Y5035804D01*
X1038860Y5044694D01*
X1043431Y5049265D01*
X1052576Y5053837D01*
X1070610Y5053837D01*
X1079754Y5049265D01*
X1084326Y5044694D01*
X1088897Y5035804D01*
X1088897Y5026660D01*
X1084326Y5017515D01*
X1075181Y5003800D01*
X1029715Y4958334D01*
X1093470Y4958334D01*
X1128013Y4981194D02*
G01*
X1123442Y4976621D01*
X1128013Y4972050D01*
X1132586Y4976621D01*
X1128013Y4981194D01*
X1189736Y5053837D02*
G01*
X1176273Y5049265D01*
X1167129Y5035804D01*
X1162557Y5012944D01*
X1162557Y4999481D01*
X1167129Y4976621D01*
X1176273Y4962905D01*
X1189736Y4958334D01*
X1198879Y4958334D01*
X1212595Y4962905D01*
X1221739Y4976621D01*
X1226312Y4999481D01*
X1226312Y5012944D01*
X1221739Y5035804D01*
X1212595Y5049265D01*
X1198879Y5053837D01*
X1189736Y5053837D01*
D48*
X927100Y4892802D02*
G01*
X931671Y4895087D01*
X938529Y4901945D01*
X938529Y4854194D01*
X994410Y4910836D02*
G01*
X953515Y4838192D01*
X1023112Y4901945D02*
G01*
X1016254Y4899660D01*
X1011681Y4892802D01*
X1009395Y4881371D01*
X1009395Y4874513D01*
X1011681Y4863337D01*
X1016254Y4856479D01*
X1023112Y4854194D01*
X1027429Y4854194D01*
X1034287Y4856479D01*
X1038860Y4863337D01*
X1041145Y4874513D01*
X1041145Y4881371D01*
X1038860Y4892802D01*
X1034287Y4899660D01*
X1027429Y4901945D01*
X1023112Y4901945D01*
X1078992Y4901945D02*
G01*
X1056131Y4869942D01*
X1090168Y4869942D01*
X1078992Y4901945D02*
G01*
X1078992Y4854194D01*
X1146302Y4910836D02*
G01*
X1105407Y4838192D01*
X1163573Y4890515D02*
G01*
X1163573Y4892802D01*
X1165860Y4897373D01*
X1167892Y4899660D01*
X1172463Y4901945D01*
X1181607Y4901945D01*
X1186179Y4899660D01*
X1188465Y4897373D01*
X1190752Y4892802D01*
X1190752Y4888229D01*
X1188465Y4883657D01*
X1183894Y4876800D01*
X1161287Y4854194D01*
X1193037Y4854194D01*
X1210310Y4890515D02*
G01*
X1210310Y4892802D01*
X1212595Y4897373D01*
X1214881Y4899660D01*
X1219454Y4901945D01*
X1228344Y4901945D01*
X1232915Y4899660D01*
X1235202Y4897373D01*
X1237487Y4892802D01*
X1237487Y4888229D01*
X1235202Y4883657D01*
X1230629Y4876800D01*
X1208023Y4854194D01*
X1239773Y4854194D01*
X1709673Y3619245D02*
G01*
X1716531Y3622547D01*
X1723389Y3629405D01*
X1726692Y3636263D01*
X1726692Y3649726D01*
X1723389Y3656584D01*
X1716531Y3663442D01*
X1709673Y3666997D01*
X1699513Y3670300D01*
X1682242Y3670300D01*
X1672081Y3666997D01*
X1665223Y3663442D01*
X1658620Y3656584D01*
X1655063Y3649726D01*
X1655063Y3636263D01*
X1658620Y3629405D01*
X1665223Y3622547D01*
X1672081Y3619245D01*
X1712976Y3596639D02*
G01*
X1716531Y3589781D01*
X1726692Y3579621D01*
X1655063Y3579621D01*
X5923025Y4102354D02*
G01*
X5916168Y4099052D01*
X5909309Y4092194D01*
X5906008Y4085336D01*
X5906008Y4071873D01*
X5909309Y4065015D01*
X5916168Y4058157D01*
X5923025Y4054602D01*
X5933186Y4051300D01*
X5950458Y4051300D01*
X5960618Y4054602D01*
X5967475Y4058157D01*
X5974079Y4065015D01*
X5977636Y4071873D01*
X5977636Y4085336D01*
X5974079Y4092194D01*
X5967475Y4099052D01*
X5960618Y4102354D01*
X5906008Y4158995D02*
G01*
X5953759Y4124960D01*
X5953759Y4176013D01*
X5906008Y4158995D02*
G01*
X5977636Y4158995D01*
X6147054Y2319273D02*
G01*
X6143752Y2326131D01*
X6136893Y2332989D01*
X6130036Y2336292D01*
X6116574Y2336292D01*
X6109715Y2332989D01*
X6102858Y2326131D01*
X6099302Y2319273D01*
X6096000Y2309113D01*
X6096000Y2291842D01*
X6099302Y2281681D01*
X6102858Y2274823D01*
X6109715Y2268220D01*
X6116574Y2264663D01*
X6130036Y2264663D01*
X6136893Y2268220D01*
X6143752Y2274823D01*
X6147054Y2281681D01*
X6169659Y2336292D02*
G01*
X6169659Y2264663D01*
X6169659Y2336292D02*
G01*
X6200393Y2336292D01*
X6210554Y2332989D01*
X6213856Y2329434D01*
X6217411Y2322576D01*
X6217411Y2312415D01*
X6213856Y2305557D01*
X6210554Y2302255D01*
X6200393Y2298700D01*
X6169659Y2298700D01*
X6239763Y2322576D02*
G01*
X6246622Y2326131D01*
X6257036Y2336292D01*
X6257036Y2264663D01*
X6388354Y2319273D02*
G01*
X6385052Y2326131D01*
X6378193Y2332989D01*
X6371336Y2336292D01*
X6357874Y2336292D01*
X6351015Y2332989D01*
X6344158Y2326131D01*
X6340602Y2319273D01*
X6337300Y2309113D01*
X6337300Y2291842D01*
X6340602Y2281681D01*
X6344158Y2274823D01*
X6351015Y2268220D01*
X6357874Y2264663D01*
X6371336Y2264663D01*
X6378193Y2268220D01*
X6385052Y2274823D01*
X6388354Y2281681D01*
X6410959Y2336292D02*
G01*
X6410959Y2264663D01*
X6410959Y2336292D02*
G01*
X6441693Y2336292D01*
X6451854Y2332989D01*
X6455156Y2329434D01*
X6458711Y2322576D01*
X6458711Y2312415D01*
X6455156Y2305557D01*
X6451854Y2302255D01*
X6441693Y2298700D01*
X6410959Y2298700D01*
X6484620Y2319273D02*
G01*
X6484620Y2322576D01*
X6487922Y2329434D01*
X6491477Y2332989D01*
X6498336Y2336292D01*
X6511797Y2336292D01*
X6518656Y2332989D01*
X6521958Y2329434D01*
X6525513Y2322576D01*
X6525513Y2315718D01*
X6521958Y2309113D01*
X6515354Y2298700D01*
X6481063Y2264663D01*
X6528815Y2264663D01*
X6947154Y2319273D02*
G01*
X6943852Y2326131D01*
X6936993Y2332989D01*
X6930136Y2336292D01*
X6916674Y2336292D01*
X6909815Y2332989D01*
X6902958Y2326131D01*
X6899402Y2319273D01*
X6896100Y2309113D01*
X6896100Y2291842D01*
X6899402Y2281681D01*
X6902958Y2274823D01*
X6909815Y2268220D01*
X6916674Y2264663D01*
X6930136Y2264663D01*
X6936993Y2268220D01*
X6943852Y2274823D01*
X6947154Y2281681D01*
X6969759Y2336292D02*
G01*
X6969759Y2264663D01*
X6969759Y2336292D02*
G01*
X7000493Y2336292D01*
X7010654Y2332989D01*
X7013956Y2329434D01*
X7017511Y2322576D01*
X7017511Y2312415D01*
X7013956Y2305557D01*
X7010654Y2302255D01*
X7000493Y2298700D01*
X6969759Y2298700D01*
X7046722Y2336292D02*
G01*
X7084313Y2336292D01*
X7063740Y2309113D01*
X7074154Y2309113D01*
X7080758Y2305557D01*
X7084313Y2302255D01*
X7087615Y2291842D01*
X7087615Y2285237D01*
X7084313Y2274823D01*
X7077456Y2268220D01*
X7067295Y2264663D01*
X7057136Y2264663D01*
X7046722Y2268220D01*
X7043420Y2271521D01*
X7039863Y2278379D01*
X2895854Y2087879D02*
G01*
X2892552Y2094737D01*
X2885693Y2101595D01*
X2878836Y2104897D01*
X2865374Y2104897D01*
X2858515Y2101595D01*
X2851658Y2094737D01*
X2848102Y2087879D01*
X2844800Y2077720D01*
X2844800Y2060447D01*
X2848102Y2050287D01*
X2851658Y2043429D01*
X2858515Y2036826D01*
X2865374Y2033270D01*
X2878836Y2033270D01*
X2885693Y2036826D01*
X2892552Y2043429D01*
X2895854Y2050287D01*
X2918459Y2104897D02*
G01*
X2918459Y2033270D01*
X2918459Y2104897D02*
G01*
X2949193Y2104897D01*
X2959354Y2101595D01*
X2962656Y2098039D01*
X2966211Y2091181D01*
X2966211Y2081021D01*
X2962656Y2074163D01*
X2959354Y2070862D01*
X2949193Y2067305D01*
X2918459Y2067305D01*
X3022854Y2104897D02*
G01*
X2988563Y2057145D01*
X3039872Y2057145D01*
X3022854Y2104897D02*
G01*
X3022854Y2033270D01*
X3162554Y2090673D02*
G01*
X3159252Y2097531D01*
X3152393Y2104389D01*
X3145536Y2107692D01*
X3132074Y2107692D01*
X3125215Y2104389D01*
X3118358Y2097531D01*
X3114802Y2090673D01*
X3111500Y2080513D01*
X3111500Y2063242D01*
X3114802Y2053081D01*
X3118358Y2046223D01*
X3125215Y2039620D01*
X3132074Y2036063D01*
X3145536Y2036063D01*
X3152393Y2039620D01*
X3159252Y2046223D01*
X3162554Y2053081D01*
X3185159Y2107692D02*
G01*
X3185159Y2036063D01*
X3185159Y2107692D02*
G01*
X3215893Y2107692D01*
X3226054Y2104389D01*
X3229356Y2100834D01*
X3232911Y2093976D01*
X3232911Y2083815D01*
X3229356Y2076957D01*
X3226054Y2073655D01*
X3215893Y2070100D01*
X3185159Y2070100D01*
X3296158Y2107692D02*
G01*
X3262122Y2107692D01*
X3258820Y2076957D01*
X3262122Y2080513D01*
X3272536Y2083815D01*
X3282695Y2083815D01*
X3292856Y2080513D01*
X3299713Y2073655D01*
X3303015Y2063242D01*
X3303015Y2056637D01*
X3299713Y2046223D01*
X3292856Y2039620D01*
X3282695Y2036063D01*
X3272536Y2036063D01*
X3262122Y2039620D01*
X3258820Y2042921D01*
X3255263Y2049779D01*
X3429254Y2087879D02*
G01*
X3425952Y2094737D01*
X3419093Y2101595D01*
X3412236Y2104897D01*
X3398774Y2104897D01*
X3391915Y2101595D01*
X3385058Y2094737D01*
X3381502Y2087879D01*
X3378200Y2077720D01*
X3378200Y2060447D01*
X3381502Y2050287D01*
X3385058Y2043429D01*
X3391915Y2036826D01*
X3398774Y2033270D01*
X3412236Y2033270D01*
X3419093Y2036826D01*
X3425952Y2043429D01*
X3429254Y2050287D01*
X3451859Y2104897D02*
G01*
X3451859Y2033270D01*
X3451859Y2104897D02*
G01*
X3482593Y2104897D01*
X3492754Y2101595D01*
X3496056Y2098039D01*
X3499611Y2091181D01*
X3499611Y2081021D01*
X3496056Y2074163D01*
X3492754Y2070862D01*
X3482593Y2067305D01*
X3451859Y2067305D01*
X3562858Y2094737D02*
G01*
X3559556Y2101595D01*
X3549395Y2104897D01*
X3542538Y2104897D01*
X3532377Y2101595D01*
X3525520Y2091181D01*
X3521963Y2074163D01*
X3521963Y2057145D01*
X3525520Y2043429D01*
X3532377Y2036826D01*
X3542538Y2033270D01*
X3545840Y2033270D01*
X3556254Y2036826D01*
X3562858Y2043429D01*
X3566413Y2053844D01*
X3566413Y2057145D01*
X3562858Y2067305D01*
X3556254Y2074163D01*
X3545840Y2077720D01*
X3542538Y2077720D01*
X3532377Y2074163D01*
X3525520Y2067305D01*
X3521963Y2057145D01*
X1947925Y4115054D02*
G01*
X1941068Y4111752D01*
X1934209Y4104894D01*
X1930908Y4098036D01*
X1930908Y4084573D01*
X1934209Y4077715D01*
X1941068Y4070857D01*
X1947925Y4067302D01*
X1958086Y4064000D01*
X1975358Y4064000D01*
X1985518Y4067302D01*
X1992375Y4070857D01*
X1998979Y4077715D01*
X2002536Y4084573D01*
X2002536Y4098036D01*
X1998979Y4104894D01*
X1992375Y4111752D01*
X1985518Y4115054D01*
X1930908Y4137660D02*
G01*
X2002536Y4137660D01*
X1930908Y4137660D02*
G01*
X1930908Y4168394D01*
X1934209Y4178554D01*
X1937765Y4181855D01*
X1944624Y4185412D01*
X1954784Y4185412D01*
X1961641Y4181855D01*
X1964943Y4178554D01*
X1968500Y4168394D01*
X1968500Y4137660D01*
X1930908Y4255515D02*
G01*
X2002536Y4221479D01*
X1930908Y4207763D02*
G01*
X1930908Y4255515D01*
X1981454Y3576573D02*
G01*
X1978152Y3583431D01*
X1971293Y3590289D01*
X1964436Y3593592D01*
X1950974Y3593592D01*
X1944115Y3590289D01*
X1937258Y3583431D01*
X1933702Y3576573D01*
X1930400Y3566413D01*
X1930400Y3549142D01*
X1933702Y3538981D01*
X1937258Y3532123D01*
X1944115Y3525520D01*
X1950974Y3521963D01*
X1964436Y3521963D01*
X1971293Y3525520D01*
X1978152Y3532123D01*
X1981454Y3538981D01*
X2004059Y3593592D02*
G01*
X2004059Y3521963D01*
X2004059Y3593592D02*
G01*
X2034793Y3593592D01*
X2044954Y3590289D01*
X2048256Y3586734D01*
X2051811Y3579876D01*
X2051811Y3569715D01*
X2048256Y3562857D01*
X2044954Y3559555D01*
X2034793Y3556000D01*
X2004059Y3556000D01*
X2091436Y3593592D02*
G01*
X2081022Y3590289D01*
X2077720Y3583431D01*
X2077720Y3576573D01*
X2081022Y3569715D01*
X2087879Y3566413D01*
X2101595Y3562857D01*
X2111756Y3559555D01*
X2118613Y3552697D01*
X2121915Y3545839D01*
X2121915Y3535679D01*
X2118613Y3528821D01*
X2115058Y3525520D01*
X2104897Y3521963D01*
X2091436Y3521963D01*
X2081022Y3525520D01*
X2077720Y3528821D01*
X2074163Y3535679D01*
X2074163Y3545839D01*
X2077720Y3552697D01*
X2084577Y3559555D01*
X2094738Y3562857D01*
X2108454Y3566413D01*
X2115058Y3569715D01*
X2118613Y3576573D01*
X2118613Y3583431D01*
X2115058Y3590289D01*
X2104897Y3593592D01*
X2091436Y3593592D01*
X6354825Y4051554D02*
G01*
X6347968Y4048252D01*
X6341109Y4041394D01*
X6337808Y4034536D01*
X6337808Y4021073D01*
X6341109Y4014215D01*
X6347968Y4007357D01*
X6354825Y4003802D01*
X6364986Y4000500D01*
X6382258Y4000500D01*
X6392418Y4003802D01*
X6399275Y4007357D01*
X6405879Y4014215D01*
X6409436Y4021073D01*
X6409436Y4034536D01*
X6405879Y4041394D01*
X6399275Y4048252D01*
X6392418Y4051554D01*
X6337808Y4074160D02*
G01*
X6409436Y4074160D01*
X6337808Y4074160D02*
G01*
X6337808Y4104894D01*
X6341109Y4115054D01*
X6344665Y4118355D01*
X6351524Y4121912D01*
X6361684Y4121912D01*
X6368541Y4118355D01*
X6371843Y4115054D01*
X6375400Y4104894D01*
X6375400Y4074160D01*
X6361684Y4188713D02*
G01*
X6371843Y4185157D01*
X6378702Y4178554D01*
X6382258Y4168139D01*
X6382258Y4164837D01*
X6378702Y4154678D01*
X6371843Y4147820D01*
X6361684Y4144263D01*
X6358381Y4144263D01*
X6347968Y4147820D01*
X6341109Y4154678D01*
X6337808Y4164837D01*
X6337808Y4168139D01*
X6341109Y4178554D01*
X6347968Y4185157D01*
X6361684Y4188713D01*
X6378702Y4188713D01*
X6395720Y4185157D01*
X6405879Y4178554D01*
X6409436Y4168139D01*
X6409436Y4161536D01*
X6405879Y4151121D01*
X6399275Y4147820D01*
X3459225Y4340860D02*
G01*
X3452368Y4337557D01*
X3445509Y4330700D01*
X3442208Y4323842D01*
X3442208Y4310379D01*
X3445509Y4303521D01*
X3452368Y4296663D01*
X3459225Y4293107D01*
X3469386Y4289805D01*
X3486658Y4289805D01*
X3496818Y4293107D01*
X3503675Y4296663D01*
X3510279Y4303521D01*
X3513836Y4310379D01*
X3513836Y4323842D01*
X3510279Y4330700D01*
X3503675Y4337557D01*
X3496818Y4340860D01*
X3442208Y4363465D02*
G01*
X3513836Y4363465D01*
X3442208Y4363465D02*
G01*
X3442208Y4394200D01*
X3445509Y4404360D01*
X3449065Y4407662D01*
X3455924Y4411218D01*
X3466084Y4411218D01*
X3472941Y4407662D01*
X3476243Y4404360D01*
X3479800Y4394200D01*
X3479800Y4363465D01*
X3455924Y4433570D02*
G01*
X3452368Y4440428D01*
X3442208Y4450842D01*
X3513836Y4450842D01*
X3442208Y4493768D02*
G01*
X3445509Y4483354D01*
X3455924Y4476750D01*
X3472941Y4473194D01*
X3483102Y4473194D01*
X3500120Y4476750D01*
X3510279Y4483354D01*
X3513836Y4493768D01*
X3513836Y4500371D01*
X3510279Y4510786D01*
X3500120Y4517644D01*
X3483102Y4520945D01*
X3472941Y4520945D01*
X3455924Y4517644D01*
X3445509Y4510786D01*
X3442208Y4500371D01*
X3442208Y4493768D01*
X3962654Y2089277D02*
G01*
X3959352Y2096135D01*
X3952493Y2102993D01*
X3945636Y2106295D01*
X3932174Y2106295D01*
X3925315Y2102993D01*
X3918458Y2096135D01*
X3914902Y2089277D01*
X3911600Y2079117D01*
X3911600Y2061845D01*
X3914902Y2051685D01*
X3918458Y2044827D01*
X3925315Y2038222D01*
X3932174Y2034667D01*
X3945636Y2034667D01*
X3952493Y2038222D01*
X3959352Y2044827D01*
X3962654Y2051685D01*
X3985259Y2106295D02*
G01*
X3985259Y2034667D01*
X3985259Y2106295D02*
G01*
X4015993Y2106295D01*
X4026154Y2102993D01*
X4029456Y2099437D01*
X4033011Y2092579D01*
X4033011Y2082419D01*
X4029456Y2075561D01*
X4026154Y2072259D01*
X4015993Y2068703D01*
X3985259Y2068703D01*
X4055363Y2092579D02*
G01*
X4062222Y2096135D01*
X4072636Y2106295D01*
X4072636Y2034667D01*
X4094988Y2092579D02*
G01*
X4101845Y2096135D01*
X4112006Y2106295D01*
X4112006Y2034667D01*
X4729225Y4480560D02*
G01*
X4722368Y4477257D01*
X4715509Y4470400D01*
X4712208Y4463542D01*
X4712208Y4450079D01*
X4715509Y4443221D01*
X4722368Y4436363D01*
X4729225Y4432807D01*
X4739386Y4429505D01*
X4756658Y4429505D01*
X4766818Y4432807D01*
X4773675Y4436363D01*
X4780279Y4443221D01*
X4783836Y4450079D01*
X4783836Y4463542D01*
X4780279Y4470400D01*
X4773675Y4477257D01*
X4766818Y4480560D01*
X4712208Y4503165D02*
G01*
X4783836Y4503165D01*
X4712208Y4503165D02*
G01*
X4712208Y4533900D01*
X4715509Y4544060D01*
X4719065Y4547362D01*
X4725924Y4550918D01*
X4736084Y4550918D01*
X4742941Y4547362D01*
X4746243Y4544060D01*
X4749800Y4533900D01*
X4749800Y4503165D01*
X4725924Y4573270D02*
G01*
X4722368Y4580128D01*
X4712208Y4590542D01*
X4783836Y4590542D01*
X4712208Y4619752D02*
G01*
X4712208Y4657344D01*
X4739386Y4636770D01*
X4739386Y4646929D01*
X4742941Y4653787D01*
X4746243Y4657344D01*
X4756658Y4660645D01*
X4763261Y4660645D01*
X4773675Y4657344D01*
X4780279Y4650486D01*
X4783836Y4640071D01*
X4783836Y4629912D01*
X4780279Y4619752D01*
X4776977Y4616450D01*
X4770120Y4612894D01*
X6655054Y2319273D02*
G01*
X6651752Y2326131D01*
X6644893Y2332989D01*
X6638036Y2336292D01*
X6624574Y2336292D01*
X6617715Y2332989D01*
X6610858Y2326131D01*
X6607302Y2319273D01*
X6604000Y2309113D01*
X6604000Y2291842D01*
X6607302Y2281681D01*
X6610858Y2274823D01*
X6617715Y2268220D01*
X6624574Y2264663D01*
X6638036Y2264663D01*
X6644893Y2268220D01*
X6651752Y2274823D01*
X6655054Y2281681D01*
X6677659Y2336292D02*
G01*
X6677659Y2264663D01*
X6677659Y2336292D02*
G01*
X6708393Y2336292D01*
X6718554Y2332989D01*
X6721856Y2329434D01*
X6725411Y2322576D01*
X6725411Y2312415D01*
X6721856Y2305557D01*
X6718554Y2302255D01*
X6708393Y2298700D01*
X6677659Y2298700D01*
X6747763Y2322576D02*
G01*
X6754622Y2326131D01*
X6765036Y2336292D01*
X6765036Y2264663D01*
X6821424Y2336292D02*
G01*
X6787388Y2288539D01*
X6838441Y2288539D01*
X6821424Y2336292D02*
G01*
X6821424Y2264663D01*
X1714754Y3297173D02*
G01*
X1711452Y3304031D01*
X1704594Y3310889D01*
X1697736Y3314192D01*
X1684273Y3314192D01*
X1677415Y3310889D01*
X1670557Y3304031D01*
X1667002Y3297173D01*
X1663700Y3287013D01*
X1663700Y3269742D01*
X1667002Y3259581D01*
X1670557Y3252723D01*
X1677415Y3246120D01*
X1684273Y3242563D01*
X1697736Y3242563D01*
X1704594Y3246120D01*
X1711452Y3252723D01*
X1714754Y3259581D01*
X1737360Y3314192D02*
G01*
X1737360Y3242563D01*
X1737360Y3314192D02*
G01*
X1768094Y3314192D01*
X1778254Y3310889D01*
X1781555Y3307334D01*
X1785112Y3300476D01*
X1785112Y3290315D01*
X1781555Y3283457D01*
X1778254Y3280155D01*
X1768094Y3276600D01*
X1737360Y3276600D01*
X1807463Y3300476D02*
G01*
X1814321Y3304031D01*
X1824736Y3314192D01*
X1824736Y3242563D01*
X1850644Y3297173D02*
G01*
X1850644Y3300476D01*
X1853945Y3307334D01*
X1857247Y3310889D01*
X1864105Y3314192D01*
X1877821Y3314192D01*
X1884679Y3310889D01*
X1887981Y3307334D01*
X1891537Y3300476D01*
X1891537Y3293618D01*
X1887981Y3287013D01*
X1881123Y3276600D01*
X1847087Y3242563D01*
X1894839Y3242563D01*
X7569200Y3034792D02*
G01*
X7569200Y2963163D01*
X7569200Y3034792D02*
G01*
X7593075Y3034792D01*
X7603236Y3031489D01*
X7610093Y3024631D01*
X7613395Y3017773D01*
X7616952Y3007613D01*
X7616952Y2990342D01*
X7613395Y2980181D01*
X7610093Y2973323D01*
X7603236Y2966720D01*
X7593075Y2963163D01*
X7569200Y2963163D01*
X7639304Y3021076D02*
G01*
X7646161Y3024631D01*
X7656575Y3034792D01*
X7656575Y2963163D01*
X7569200Y3276092D02*
G01*
X7569200Y3204463D01*
X7569200Y3276092D02*
G01*
X7593075Y3276092D01*
X7603236Y3272789D01*
X7610093Y3265931D01*
X7613395Y3259073D01*
X7616952Y3248913D01*
X7616952Y3231642D01*
X7613395Y3221481D01*
X7610093Y3214623D01*
X7603236Y3208020D01*
X7593075Y3204463D01*
X7569200Y3204463D01*
X7642859Y3259073D02*
G01*
X7642859Y3262376D01*
X7646161Y3269234D01*
X7649718Y3272789D01*
X7656575Y3276092D01*
X7670038Y3276092D01*
X7676895Y3272789D01*
X7680452Y3269234D01*
X7683754Y3262376D01*
X7683754Y3255518D01*
X7680452Y3248913D01*
X7673593Y3238500D01*
X7639304Y3204463D01*
X7687056Y3204463D01*
X7569200Y3491992D02*
G01*
X7569200Y3420363D01*
X7569200Y3491992D02*
G01*
X7593075Y3491992D01*
X7603236Y3488689D01*
X7610093Y3481831D01*
X7613395Y3474973D01*
X7616952Y3464813D01*
X7616952Y3447542D01*
X7613395Y3437381D01*
X7610093Y3430523D01*
X7603236Y3423920D01*
X7593075Y3420363D01*
X7569200Y3420363D01*
X7646161Y3491992D02*
G01*
X7683754Y3491992D01*
X7663179Y3464813D01*
X7673593Y3464813D01*
X7680452Y3461257D01*
X7683754Y3457955D01*
X7687056Y3447542D01*
X7687056Y3440937D01*
X7683754Y3430523D01*
X7676895Y3423920D01*
X7666736Y3420363D01*
X7656575Y3420363D01*
X7646161Y3423920D01*
X7642859Y3427221D01*
X7639304Y3434079D01*
X7569200Y3720592D02*
G01*
X7569200Y3648963D01*
X7569200Y3720592D02*
G01*
X7593075Y3720592D01*
X7603236Y3717289D01*
X7610093Y3710431D01*
X7613395Y3703573D01*
X7616952Y3693413D01*
X7616952Y3676142D01*
X7613395Y3665981D01*
X7610093Y3659123D01*
X7603236Y3652520D01*
X7593075Y3648963D01*
X7569200Y3648963D01*
X7673593Y3720592D02*
G01*
X7639304Y3672839D01*
X7690611Y3672839D01*
X7673593Y3720592D02*
G01*
X7673593Y3648963D01*
X7136891Y3390900D02*
G01*
X7065263Y3390900D01*
X7136891Y3390900D02*
G01*
X7136891Y3367023D01*
X7133590Y3356863D01*
X7126731Y3350005D01*
X7119874Y3346704D01*
X7109713Y3343147D01*
X7092441Y3343147D01*
X7082281Y3346704D01*
X7075424Y3350005D01*
X7068820Y3356863D01*
X7065263Y3367023D01*
X7065263Y3390900D01*
X7136891Y3303523D02*
G01*
X7133590Y3313937D01*
X7126731Y3317239D01*
X7119874Y3317239D01*
X7113015Y3313937D01*
X7109713Y3307079D01*
X7106158Y3293363D01*
X7102856Y3283204D01*
X7095997Y3276345D01*
X7089140Y3273044D01*
X7078979Y3273044D01*
X7072122Y3276345D01*
X7068820Y3279647D01*
X7065263Y3290062D01*
X7065263Y3303523D01*
X7068820Y3313937D01*
X7072122Y3317239D01*
X7078979Y3320795D01*
X7089140Y3320795D01*
X7095997Y3317239D01*
X7102856Y3310381D01*
X7106158Y3300221D01*
X7109713Y3286505D01*
X7113015Y3279647D01*
X7119874Y3276345D01*
X7126731Y3276345D01*
X7133590Y3279647D01*
X7136891Y3290062D01*
X7136891Y3303523D01*
X965200Y4279137D02*
G01*
X965200Y4183634D01*
X1028954Y4279137D02*
G01*
X1028954Y4183634D01*
X965200Y4233671D02*
G01*
X1028954Y4233671D01*
X1058926Y4261104D02*
G01*
X1067815Y4265676D01*
X1081531Y4279137D01*
X1081531Y4183634D01*
D52*
X7480300Y4926837D02*
G01*
X7480300Y4831334D01*
X7544054Y4926837D02*
G01*
X7480300Y4863337D01*
X7502906Y4885944D02*
G01*
X7544054Y4831334D01*
X7574025Y4926837D02*
G01*
X7574025Y4831334D01*
X7574025Y4926837D02*
G01*
X7632954Y4926837D01*
X7574025Y4881371D02*
G01*
X7610347Y4881371D01*
X7574025Y4831334D02*
G01*
X7632954Y4831334D01*
X7662925Y4926837D02*
G01*
X7699502Y4881371D01*
X7699502Y4831334D01*
X7735824Y4926837D02*
G01*
X7699502Y4881371D01*
X7765795Y4908804D02*
G01*
X7774940Y4913376D01*
X7788402Y4926837D01*
X7788402Y4831334D01*
D53*
X5181600Y2348484D02*
G01*
X5181600Y2205228D01*
X5181600Y2205228D02*
G01*
X5263388Y2205228D01*
X5308345Y2321305D02*
G01*
X5322061Y2327910D01*
X5342636Y2348484D01*
X5342636Y2205228D01*
D48*
X2729991Y4170426D02*
G01*
X2726690Y4177284D01*
X2719831Y4184142D01*
X2712974Y4187697D01*
X2702813Y4191000D01*
X2685541Y4191000D01*
X2675381Y4187697D01*
X2668524Y4184142D01*
X2661920Y4177284D01*
X2658363Y4170426D01*
X2658363Y4156963D01*
X2661920Y4150105D01*
X2668524Y4143247D01*
X2675381Y4139945D01*
X2685541Y4136389D01*
X2702813Y4136389D01*
X2712974Y4139945D01*
X2719831Y4143247D01*
X2726690Y4150105D01*
X2729991Y4156963D01*
X2729991Y4170426D01*
X2672079Y4160265D02*
G01*
X2651506Y4139945D01*
X2716275Y4114037D02*
G01*
X2719831Y4107179D01*
X2729991Y4097020D01*
X2658363Y4097020D01*
X7136891Y4170426D02*
G01*
X7133590Y4177284D01*
X7126731Y4184142D01*
X7119874Y4187697D01*
X7109713Y4191000D01*
X7092441Y4191000D01*
X7082281Y4187697D01*
X7075424Y4184142D01*
X7068820Y4177284D01*
X7065263Y4170426D01*
X7065263Y4156963D01*
X7068820Y4150105D01*
X7075424Y4143247D01*
X7082281Y4139945D01*
X7092441Y4136389D01*
X7109713Y4136389D01*
X7119874Y4139945D01*
X7126731Y4143247D01*
X7133590Y4150105D01*
X7136891Y4156963D01*
X7136891Y4170426D01*
X7078979Y4160265D02*
G01*
X7058406Y4139945D01*
X7136891Y4107179D02*
G01*
X7136891Y4069587D01*
X7109713Y4090162D01*
X7109713Y4079747D01*
X7106158Y4073144D01*
X7102856Y4069587D01*
X7092441Y4066286D01*
X7085838Y4066286D01*
X7075424Y4069587D01*
X7068820Y4076445D01*
X7065263Y4086605D01*
X7065263Y4097020D01*
X7068820Y4107179D01*
X7072122Y4110481D01*
X7078979Y4114037D01*
X4241291Y4462526D02*
G01*
X4237990Y4469384D01*
X4231131Y4476242D01*
X4224274Y4479797D01*
X4214113Y4483100D01*
X4196841Y4483100D01*
X4186681Y4479797D01*
X4179824Y4476242D01*
X4173220Y4469384D01*
X4169663Y4462526D01*
X4169663Y4449063D01*
X4173220Y4442205D01*
X4179824Y4435347D01*
X4186681Y4432045D01*
X4196841Y4428489D01*
X4214113Y4428489D01*
X4224274Y4432045D01*
X4231131Y4435347D01*
X4237990Y4442205D01*
X4241291Y4449063D01*
X4241291Y4462526D01*
X4183379Y4452365D02*
G01*
X4162806Y4432045D01*
X4224274Y4402581D02*
G01*
X4227575Y4402581D01*
X4234434Y4399279D01*
X4237990Y4395723D01*
X4241291Y4389120D01*
X4241291Y4375404D01*
X4237990Y4368545D01*
X4234434Y4365244D01*
X4227575Y4361687D01*
X4220718Y4361687D01*
X4214113Y4365244D01*
X4203700Y4371847D01*
X4169663Y4406137D01*
X4169663Y4358386D01*
X5485891Y4665726D02*
G01*
X5482590Y4672584D01*
X5475731Y4679442D01*
X5468874Y4682997D01*
X5458713Y4686300D01*
X5441441Y4686300D01*
X5431281Y4682997D01*
X5424424Y4679442D01*
X5417820Y4672584D01*
X5414263Y4665726D01*
X5414263Y4652263D01*
X5417820Y4645405D01*
X5424424Y4638547D01*
X5431281Y4635245D01*
X5441441Y4631689D01*
X5458713Y4631689D01*
X5468874Y4635245D01*
X5475731Y4638547D01*
X5482590Y4645405D01*
X5485891Y4652263D01*
X5485891Y4665726D01*
X5427979Y4655565D02*
G01*
X5407406Y4635245D01*
X5485891Y4575047D02*
G01*
X5438140Y4609337D01*
X5438140Y4558029D01*
X5485891Y4575047D02*
G01*
X5414263Y4575047D01*
X2653791Y3479800D02*
G01*
X2582163Y3479800D01*
X2653791Y3479800D02*
G01*
X2653791Y3449065D01*
X2650490Y3438905D01*
X2646934Y3435604D01*
X2640075Y3432047D01*
X2633218Y3432047D01*
X2626613Y3435604D01*
X2623058Y3438905D01*
X2619756Y3449065D01*
X2619756Y3479800D01*
X2619756Y3455923D02*
G01*
X2582163Y3432047D01*
X2640075Y3409695D02*
G01*
X2643631Y3402837D01*
X2653791Y3392423D01*
X2582163Y3392423D01*
X6578600Y2907792D02*
G01*
X6578600Y2836163D01*
X6578600Y2907792D02*
G01*
X6609334Y2907792D01*
X6619493Y2904489D01*
X6622795Y2900934D01*
X6626352Y2894076D01*
X6626352Y2887218D01*
X6622795Y2880613D01*
X6619493Y2877057D01*
X6609334Y2873755D01*
X6578600Y2873755D01*
X6602475Y2873755D02*
G01*
X6626352Y2836163D01*
X6652259Y2890773D02*
G01*
X6652259Y2894076D01*
X6655561Y2900934D01*
X6659118Y2904489D01*
X6665975Y2907792D01*
X6679438Y2907792D01*
X6686295Y2904489D01*
X6689852Y2900934D01*
X6693154Y2894076D01*
X6693154Y2887218D01*
X6689852Y2880613D01*
X6682993Y2870200D01*
X6648704Y2836163D01*
X6696456Y2836163D01*
X6654291Y3378200D02*
G01*
X6582663Y3378200D01*
X6654291Y3378200D02*
G01*
X6654291Y3347465D01*
X6650990Y3337305D01*
X6647434Y3334004D01*
X6640575Y3330447D01*
X6633718Y3330447D01*
X6627113Y3334004D01*
X6623558Y3337305D01*
X6620256Y3347465D01*
X6620256Y3378200D01*
X6620256Y3354323D02*
G01*
X6582663Y3330447D01*
X6654291Y3266947D02*
G01*
X6654291Y3301237D01*
X6623558Y3304539D01*
X6627113Y3301237D01*
X6630415Y3290823D01*
X6630415Y3280663D01*
X6627113Y3270504D01*
X6620256Y3263645D01*
X6609841Y3260344D01*
X6603238Y3260344D01*
X6592824Y3263645D01*
X6586220Y3270504D01*
X6582663Y3280663D01*
X6582663Y3290823D01*
X6586220Y3301237D01*
X6589522Y3304539D01*
X6596379Y3308095D01*
X7277100Y4723892D02*
G01*
X7277100Y4652263D01*
X7277100Y4723892D02*
G01*
X7307834Y4723892D01*
X7317993Y4720589D01*
X7321295Y4717034D01*
X7324852Y4710176D01*
X7324852Y4703318D01*
X7321295Y4696713D01*
X7317993Y4693157D01*
X7307834Y4689855D01*
X7277100Y4689855D01*
X7300975Y4689855D02*
G01*
X7324852Y4652263D01*
X7388352Y4713731D02*
G01*
X7384795Y4720589D01*
X7374636Y4723892D01*
X7367777Y4723892D01*
X7357618Y4720589D01*
X7350759Y4710176D01*
X7347204Y4693157D01*
X7347204Y4676139D01*
X7350759Y4662423D01*
X7357618Y4655820D01*
X7367777Y4652263D01*
X7371079Y4652263D01*
X7381493Y4655820D01*
X7388352Y4662423D01*
X7391654Y4672837D01*
X7391654Y4676139D01*
X7388352Y4686300D01*
X7381493Y4693157D01*
X7371079Y4696713D01*
X7367777Y4696713D01*
X7357618Y4693157D01*
X7350759Y4686300D01*
X7347204Y4676139D01*
X6921500Y2907792D02*
G01*
X6921500Y2836163D01*
X6921500Y2907792D02*
G01*
X6952234Y2907792D01*
X6962393Y2904489D01*
X6965695Y2900934D01*
X6969252Y2894076D01*
X6969252Y2887218D01*
X6965695Y2880613D01*
X6962393Y2877057D01*
X6952234Y2873755D01*
X6921500Y2873755D01*
X6945375Y2873755D02*
G01*
X6969252Y2836163D01*
X7039356Y2907792D02*
G01*
X7005320Y2836163D01*
X6991604Y2907792D02*
G01*
X7039356Y2907792D01*
X3187700Y4495292D02*
G01*
X3187700Y4423663D01*
X3187700Y4495292D02*
G01*
X3218434Y4495292D01*
X3228593Y4491989D01*
X3231895Y4488434D01*
X3235452Y4481576D01*
X3235452Y4474718D01*
X3231895Y4468113D01*
X3228593Y4464557D01*
X3218434Y4461255D01*
X3187700Y4461255D01*
X3211575Y4461255D02*
G01*
X3235452Y4423663D01*
X3275075Y4495292D02*
G01*
X3264661Y4491989D01*
X3261359Y4485131D01*
X3261359Y4478273D01*
X3264661Y4471415D01*
X3271520Y4468113D01*
X3285236Y4464557D01*
X3295395Y4461255D01*
X3302254Y4454397D01*
X3305556Y4447539D01*
X3305556Y4437379D01*
X3302254Y4430521D01*
X3298952Y4427220D01*
X3288538Y4423663D01*
X3275075Y4423663D01*
X3264661Y4427220D01*
X3261359Y4430521D01*
X3257804Y4437379D01*
X3257804Y4447539D01*
X3261359Y4454397D01*
X3268218Y4461255D01*
X3278377Y4464557D01*
X3292093Y4468113D01*
X3298952Y4471415D01*
X3302254Y4478273D01*
X3302254Y4485131D01*
X3298952Y4491989D01*
X3288538Y4495292D01*
X3275075Y4495292D01*
X4457700Y4685792D02*
G01*
X4457700Y4614163D01*
X4457700Y4685792D02*
G01*
X4488434Y4685792D01*
X4498593Y4682489D01*
X4501895Y4678934D01*
X4505452Y4672076D01*
X4505452Y4665218D01*
X4501895Y4658613D01*
X4498593Y4655057D01*
X4488434Y4651755D01*
X4457700Y4651755D01*
X4481575Y4651755D02*
G01*
X4505452Y4614163D01*
X4572254Y4661915D02*
G01*
X4568952Y4651755D01*
X4562093Y4644897D01*
X4551679Y4641342D01*
X4548377Y4641342D01*
X4538218Y4644897D01*
X4531359Y4651755D01*
X4527804Y4661915D01*
X4527804Y4665218D01*
X4531359Y4675631D01*
X4538218Y4682489D01*
X4548377Y4685792D01*
X4551679Y4685792D01*
X4562093Y4682489D01*
X4568952Y4675631D01*
X4572254Y4661915D01*
X4572254Y4644897D01*
X4568952Y4627879D01*
X4562093Y4617720D01*
X4551679Y4614163D01*
X4545075Y4614163D01*
X4534661Y4617720D01*
X4531359Y4624323D01*
X5588000Y4888992D02*
G01*
X5588000Y4817363D01*
X5588000Y4888992D02*
G01*
X5618734Y4888992D01*
X5628893Y4885689D01*
X5632195Y4882134D01*
X5635752Y4875276D01*
X5635752Y4868418D01*
X5632195Y4861813D01*
X5628893Y4858257D01*
X5618734Y4854955D01*
X5588000Y4854955D01*
X5611875Y4854955D02*
G01*
X5635752Y4817363D01*
X5658104Y4875276D02*
G01*
X5664961Y4878831D01*
X5675375Y4888992D01*
X5675375Y4817363D01*
X5718302Y4888992D02*
G01*
X5707888Y4885689D01*
X5701284Y4875276D01*
X5697727Y4858257D01*
X5697727Y4848097D01*
X5701284Y4831079D01*
X5707888Y4820920D01*
X5718302Y4817363D01*
X5725159Y4817363D01*
X5735320Y4820920D01*
X5742177Y4831079D01*
X5745479Y4848097D01*
X5745479Y4858257D01*
X5742177Y4875276D01*
X5735320Y4885689D01*
X5725159Y4888992D01*
X5718302Y4888992D01*
X3886200Y1802892D02*
G01*
X3886200Y1731263D01*
X3886200Y1802892D02*
G01*
X3916934Y1802892D01*
X3927093Y1799589D01*
X3930395Y1796034D01*
X3933952Y1789176D01*
X3933952Y1782318D01*
X3930395Y1775713D01*
X3927093Y1772157D01*
X3916934Y1768855D01*
X3886200Y1768855D01*
X3910075Y1768855D02*
G01*
X3933952Y1731263D01*
X3956304Y1789176D02*
G01*
X3963161Y1792731D01*
X3973575Y1802892D01*
X3973575Y1731263D01*
X3999484Y1785873D02*
G01*
X3999484Y1789176D01*
X4002786Y1796034D01*
X4006088Y1799589D01*
X4012945Y1802892D01*
X4026661Y1802892D01*
X4033520Y1799589D01*
X4036822Y1796034D01*
X4040377Y1789176D01*
X4040377Y1782318D01*
X4036822Y1775713D01*
X4029963Y1765300D01*
X3995927Y1731263D01*
X4043679Y1731263D01*
X3886200Y3657092D02*
G01*
X3886200Y3606037D01*
X3889502Y3595623D01*
X3896359Y3589020D01*
X3906774Y3585463D01*
X3913377Y3585463D01*
X3923791Y3589020D01*
X3930395Y3595623D01*
X3933952Y3606037D01*
X3933952Y3657092D01*
X3956304Y3643376D02*
G01*
X3963161Y3646931D01*
X3973575Y3657092D01*
X3973575Y3585463D01*
D52*
X1955800Y4876037D02*
G01*
X1955800Y4807965D01*
X1960372Y4794250D01*
X1969515Y4785105D01*
X1982977Y4780534D01*
X1992122Y4780534D01*
X2005838Y4785105D01*
X2014981Y4794250D01*
X2019554Y4807965D01*
X2019554Y4876037D01*
X2113025Y4862576D02*
G01*
X2103881Y4871465D01*
X2090420Y4876037D01*
X2072131Y4876037D01*
X2058415Y4871465D01*
X2049525Y4862576D01*
X2049525Y4853431D01*
X2054097Y4844287D01*
X2058415Y4839715D01*
X2067559Y4835144D01*
X2094991Y4826000D01*
X2103881Y4821681D01*
X2108454Y4817110D01*
X2113025Y4807965D01*
X2113025Y4794250D01*
X2103881Y4785105D01*
X2090420Y4780534D01*
X2072131Y4780534D01*
X2058415Y4785105D01*
X2049525Y4794250D01*
X2142997Y4876037D02*
G01*
X2142997Y4780534D01*
X2142997Y4876037D02*
G01*
X2183891Y4876037D01*
X2197608Y4871465D01*
X2202179Y4866894D01*
X2206752Y4858004D01*
X2206752Y4848860D01*
X2202179Y4839715D01*
X2197608Y4835144D01*
X2183891Y4830571D01*
X2142997Y4830571D02*
G01*
X2183891Y4830571D01*
X2197608Y4826000D01*
X2202179Y4821681D01*
X2206752Y4812537D01*
X2206752Y4798821D01*
X2202179Y4789678D01*
X2197608Y4785105D01*
X2183891Y4780534D01*
X2142997Y4780534D01*
X2236724Y4858004D02*
G01*
X2245868Y4862576D01*
X2259329Y4876037D01*
X2259329Y4780534D01*
X6362700Y4863337D02*
G01*
X6362700Y4795265D01*
X6367272Y4781550D01*
X6376415Y4772405D01*
X6389877Y4767834D01*
X6399022Y4767834D01*
X6412738Y4772405D01*
X6421881Y4781550D01*
X6426454Y4795265D01*
X6426454Y4863337D01*
X6519925Y4849876D02*
G01*
X6510781Y4858765D01*
X6497320Y4863337D01*
X6479031Y4863337D01*
X6465315Y4858765D01*
X6456425Y4849876D01*
X6456425Y4840731D01*
X6460997Y4831587D01*
X6465315Y4827015D01*
X6474459Y4822444D01*
X6501891Y4813300D01*
X6510781Y4808981D01*
X6515354Y4804410D01*
X6519925Y4795265D01*
X6519925Y4781550D01*
X6510781Y4772405D01*
X6497320Y4767834D01*
X6479031Y4767834D01*
X6465315Y4772405D01*
X6456425Y4781550D01*
X6549897Y4863337D02*
G01*
X6549897Y4767834D01*
X6549897Y4863337D02*
G01*
X6590791Y4863337D01*
X6604508Y4858765D01*
X6609079Y4854194D01*
X6613652Y4845304D01*
X6613652Y4836160D01*
X6609079Y4827015D01*
X6604508Y4822444D01*
X6590791Y4817871D01*
X6549897Y4817871D02*
G01*
X6590791Y4817871D01*
X6604508Y4813300D01*
X6609079Y4808981D01*
X6613652Y4799837D01*
X6613652Y4786121D01*
X6609079Y4776978D01*
X6604508Y4772405D01*
X6590791Y4767834D01*
X6549897Y4767834D01*
X6648195Y4840731D02*
G01*
X6648195Y4845304D01*
X6652768Y4854194D01*
X6657340Y4858765D01*
X6666229Y4863337D01*
X6684518Y4863337D01*
X6693661Y4858765D01*
X6698234Y4854194D01*
X6702806Y4845304D01*
X6702806Y4836160D01*
X6698234Y4827015D01*
X6689090Y4813300D01*
X6643624Y4767834D01*
X6707124Y4767834D01*
X3568700Y5193537D02*
G01*
X3568700Y5125465D01*
X3573272Y5111750D01*
X3582415Y5102605D01*
X3595877Y5098034D01*
X3605022Y5098034D01*
X3618738Y5102605D01*
X3627881Y5111750D01*
X3632454Y5125465D01*
X3632454Y5193537D01*
X3725925Y5180076D02*
G01*
X3716781Y5188965D01*
X3703320Y5193537D01*
X3685031Y5193537D01*
X3671315Y5188965D01*
X3662425Y5180076D01*
X3662425Y5170931D01*
X3666997Y5161787D01*
X3671315Y5157215D01*
X3680459Y5152644D01*
X3707891Y5143500D01*
X3716781Y5139181D01*
X3721354Y5134610D01*
X3725925Y5125465D01*
X3725925Y5111750D01*
X3716781Y5102605D01*
X3703320Y5098034D01*
X3685031Y5098034D01*
X3671315Y5102605D01*
X3662425Y5111750D01*
X3755897Y5193537D02*
G01*
X3755897Y5098034D01*
X3755897Y5193537D02*
G01*
X3796791Y5193537D01*
X3810508Y5188965D01*
X3815079Y5184394D01*
X3819652Y5175504D01*
X3819652Y5166360D01*
X3815079Y5157215D01*
X3810508Y5152644D01*
X3796791Y5148071D01*
X3755897Y5148071D02*
G01*
X3796791Y5148071D01*
X3810508Y5143500D01*
X3815079Y5139181D01*
X3819652Y5130037D01*
X3819652Y5116321D01*
X3815079Y5107178D01*
X3810508Y5102605D01*
X3796791Y5098034D01*
X3755897Y5098034D01*
X3858768Y5193537D02*
G01*
X3908806Y5193537D01*
X3881374Y5157215D01*
X3895090Y5157215D01*
X3904234Y5152644D01*
X3908806Y5148071D01*
X3913124Y5134610D01*
X3913124Y5125465D01*
X3908806Y5111750D01*
X3899661Y5102605D01*
X3885945Y5098034D01*
X3872229Y5098034D01*
X3858768Y5102605D01*
X3854195Y5107178D01*
X3849624Y5116321D01*
X4927600Y5346192D02*
G01*
X4927600Y5295137D01*
X4930902Y5284723D01*
X4937759Y5278120D01*
X4948174Y5274563D01*
X4954777Y5274563D01*
X4965191Y5278120D01*
X4971795Y5284723D01*
X4975352Y5295137D01*
X4975352Y5346192D01*
X5045456Y5336031D02*
G01*
X5038852Y5342889D01*
X5028438Y5346192D01*
X5014975Y5346192D01*
X5004561Y5342889D01*
X4997704Y5336031D01*
X4997704Y5329173D01*
X5001259Y5322315D01*
X5004561Y5319013D01*
X5011420Y5315457D01*
X5031993Y5308600D01*
X5038852Y5305297D01*
X5042154Y5301742D01*
X5045456Y5295137D01*
X5045456Y5284723D01*
X5038852Y5278120D01*
X5028438Y5274563D01*
X5014975Y5274563D01*
X5004561Y5278120D01*
X4997704Y5284723D01*
X5068061Y5346192D02*
G01*
X5068061Y5274563D01*
X5068061Y5346192D02*
G01*
X5098795Y5346192D01*
X5108956Y5342889D01*
X5112258Y5339334D01*
X5115813Y5332476D01*
X5115813Y5325618D01*
X5112258Y5319013D01*
X5108956Y5315457D01*
X5098795Y5312155D01*
X5068061Y5312155D02*
G01*
X5098795Y5312155D01*
X5108956Y5308600D01*
X5112258Y5305297D01*
X5115813Y5298439D01*
X5115813Y5288279D01*
X5112258Y5281421D01*
X5108956Y5278120D01*
X5098795Y5274563D01*
X5068061Y5274563D01*
X5172456Y5346192D02*
G01*
X5138165Y5298439D01*
X5189474Y5298439D01*
X5172456Y5346192D02*
G01*
X5172456Y5274563D01*
D48*
X3734054Y2089277D02*
G01*
X3730752Y2096135D01*
X3723893Y2102993D01*
X3717036Y2106295D01*
X3703574Y2106295D01*
X3696715Y2102993D01*
X3689858Y2096135D01*
X3686302Y2089277D01*
X3683000Y2079117D01*
X3683000Y2061845D01*
X3686302Y2051685D01*
X3689858Y2044827D01*
X3696715Y2038222D01*
X3703574Y2034667D01*
X3717036Y2034667D01*
X3723893Y2038222D01*
X3730752Y2044827D01*
X3734054Y2051685D01*
X3763518Y2106295D02*
G01*
X3800856Y2106295D01*
X3780536Y2079117D01*
X3790695Y2079117D01*
X3797554Y2075561D01*
X3800856Y2072259D01*
X3804411Y2061845D01*
X3804411Y2055240D01*
X3800856Y2044827D01*
X3794252Y2038222D01*
X3783838Y2034667D01*
X3773677Y2034667D01*
X3763518Y2038222D01*
X3759961Y2041525D01*
X3756659Y2048382D01*
X4737354Y3665473D02*
G01*
X4734052Y3672331D01*
X4727193Y3679189D01*
X4720336Y3682492D01*
X4706874Y3682492D01*
X4700015Y3679189D01*
X4693158Y3672331D01*
X4689602Y3665473D01*
X4686300Y3655313D01*
X4686300Y3638042D01*
X4689602Y3627881D01*
X4693158Y3621023D01*
X4700015Y3614420D01*
X4706874Y3610863D01*
X4720336Y3610863D01*
X4727193Y3614420D01*
X4734052Y3621023D01*
X4737354Y3627881D01*
X4800854Y3672331D02*
G01*
X4797552Y3679189D01*
X4787138Y3682492D01*
X4780279Y3682492D01*
X4770120Y3679189D01*
X4763261Y3668776D01*
X4759959Y3651757D01*
X4759959Y3634739D01*
X4763261Y3621023D01*
X4770120Y3614420D01*
X4780279Y3610863D01*
X4783836Y3610863D01*
X4793995Y3614420D01*
X4800854Y3621023D01*
X4804156Y3631437D01*
X4804156Y3634739D01*
X4800854Y3644900D01*
X4793995Y3651757D01*
X4783836Y3655313D01*
X4780279Y3655313D01*
X4770120Y3651757D01*
X4763261Y3644900D01*
X4759959Y3634739D01*
X7239254Y2319273D02*
G01*
X7235952Y2326131D01*
X7229093Y2332989D01*
X7222236Y2336292D01*
X7208774Y2336292D01*
X7201915Y2332989D01*
X7195058Y2326131D01*
X7191502Y2319273D01*
X7188200Y2309113D01*
X7188200Y2291842D01*
X7191502Y2281681D01*
X7195058Y2274823D01*
X7201915Y2268220D01*
X7208774Y2264663D01*
X7222236Y2264663D01*
X7229093Y2268220D01*
X7235952Y2274823D01*
X7239254Y2281681D01*
X7265161Y2319273D02*
G01*
X7265161Y2322576D01*
X7268718Y2329434D01*
X7272020Y2332989D01*
X7278877Y2336292D01*
X7292593Y2336292D01*
X7299452Y2332989D01*
X7302754Y2329434D01*
X7306056Y2322576D01*
X7306056Y2315718D01*
X7302754Y2309113D01*
X7295895Y2298700D01*
X7261859Y2264663D01*
X7309611Y2264663D01*
X3390900Y1790192D02*
G01*
X3390900Y1718563D01*
X3390900Y1790192D02*
G01*
X3421634Y1790192D01*
X3431793Y1786889D01*
X3435095Y1783334D01*
X3438652Y1776476D01*
X3438652Y1769618D01*
X3435095Y1763013D01*
X3431793Y1759457D01*
X3421634Y1756155D01*
X3390900Y1756155D01*
X3414775Y1756155D02*
G01*
X3438652Y1718563D01*
X3461004Y1790192D02*
G01*
X3461004Y1718563D01*
X3461004Y1790192D02*
G01*
X3508756Y1718563D01*
X3508756Y1790192D02*
G01*
X3508756Y1718563D01*
X3555238Y1790192D02*
G01*
X3555238Y1718563D01*
X3531361Y1790192D02*
G01*
X3579113Y1790192D01*
X3652774Y1773173D02*
G01*
X3649218Y1780031D01*
X3642613Y1786889D01*
X3635756Y1790192D01*
X3622040Y1790192D01*
X3615181Y1786889D01*
X3608324Y1780031D01*
X3605022Y1773173D01*
X3601465Y1763013D01*
X3601465Y1745742D01*
X3605022Y1735581D01*
X3608324Y1728723D01*
X3615181Y1722120D01*
X3622040Y1718563D01*
X3635756Y1718563D01*
X3642613Y1722120D01*
X3649218Y1728723D01*
X3652774Y1735581D01*
X3675125Y1776476D02*
G01*
X3681984Y1780031D01*
X3692143Y1790192D01*
X3692143Y1718563D01*
G36*
X1453896Y2984652D02*
G01*
X1453896Y2959760D01*
X1553514Y2959760D01*
X1553514Y2984652D01*
G37*
G36*
X2129485Y2984652D02*
G01*
X2129485Y2959760D01*
X2229104Y2959760D01*
X2229104Y2984652D01*
G37*
G36*
X2166874Y3055213D02*
G01*
X2166874Y2889199D01*
X2191766Y2889199D01*
X2191766Y3055213D01*
G37*
G36*
X7329576Y3045917D02*
G01*
X7328611Y2973933D01*
X7354570Y3009900D01*
G37*
G36*
X7329576Y3274517D02*
G01*
X7328611Y3202533D01*
X7354570Y3238500D01*
G37*
G36*
X7329576Y3490417D02*
G01*
X7328611Y3418433D01*
X7354570Y3454400D01*
G37*
G36*
X7329576Y3719017D02*
G01*
X7328611Y3647033D01*
X7354570Y3683000D01*
G37*
G36*
X6959600Y3354070D02*
G01*
X6923582Y3329076D01*
X6995617Y3328111D01*
G37*
D10*
X1509422Y3745801D02*
G01*
X1589425Y3745801D01*
X1478437Y3634826D02*
G01*
X1478437Y3714823D01*
X1620403Y3634826D02*
G01*
X1620403Y3714823D01*
X1477855Y3577236D02*
G01*
X1477855Y3497237D01*
X1508838Y3466254D02*
G01*
X1588836Y3466254D01*
X1619816Y3577236D02*
G01*
X1619816Y3497237D01*
X6056022Y4253801D02*
G01*
X6136025Y4253801D01*
X6025037Y4142826D02*
G01*
X6025037Y4222823D01*
X6167003Y4142826D02*
G01*
X6167003Y4222823D01*
X6024455Y4085236D02*
G01*
X6024455Y4005237D01*
X6055438Y3974254D02*
G01*
X6135436Y3974254D01*
X6166416Y4085236D02*
G01*
X6166416Y4005237D01*
D47*
X6275260Y2409680D02*
G01*
X6275260Y2550680D01*
X6094539Y2550680D02*
G01*
X6094539Y2409680D01*
X6109779Y2394440D02*
G01*
X6260020Y2394440D01*
X6275260Y2771919D02*
G01*
X6275260Y2630919D01*
X6094539Y2630919D02*
G01*
X6094539Y2771919D01*
X6109779Y2787159D02*
G01*
X6260020Y2787159D01*
X6541960Y2409680D02*
G01*
X6541960Y2550680D01*
X6361239Y2550680D02*
G01*
X6361239Y2409680D01*
X6376479Y2394440D02*
G01*
X6526720Y2394440D01*
X6541960Y2771919D02*
G01*
X6541960Y2630919D01*
X6361239Y2630919D02*
G01*
X6361239Y2771919D01*
X6376479Y2787159D02*
G01*
X6526720Y2787159D01*
X7075360Y2409680D02*
G01*
X7075360Y2550680D01*
X6894639Y2550680D02*
G01*
X6894639Y2409680D01*
X6909879Y2394440D02*
G01*
X7060120Y2394440D01*
X7075360Y2771919D02*
G01*
X7075360Y2630919D01*
X6894639Y2630919D02*
G01*
X6894639Y2771919D01*
X6909879Y2787159D02*
G01*
X7060120Y2787159D01*
X2856039Y2517919D02*
G01*
X2856039Y2376919D01*
X3036760Y2376919D02*
G01*
X3036760Y2517919D01*
X3021520Y2533159D02*
G01*
X2871279Y2533159D01*
X2856039Y2155680D02*
G01*
X2856039Y2296680D01*
X3036760Y2296680D02*
G01*
X3036760Y2155680D01*
X3021520Y2140440D02*
G01*
X2871279Y2140440D01*
X3122739Y2517919D02*
G01*
X3122739Y2376919D01*
X3303460Y2376919D02*
G01*
X3303460Y2517919D01*
X3288220Y2533159D02*
G01*
X3137979Y2533159D01*
X3122739Y2155680D02*
G01*
X3122739Y2296680D01*
X3303460Y2296680D02*
G01*
X3303460Y2155680D01*
X3288220Y2140440D02*
G01*
X3137979Y2140440D01*
X3389439Y2517919D02*
G01*
X3389439Y2376919D01*
X3570160Y2376919D02*
G01*
X3570160Y2517919D01*
X3554920Y2533159D02*
G01*
X3404679Y2533159D01*
X3389439Y2155680D02*
G01*
X3389439Y2296680D01*
X3570160Y2296680D02*
G01*
X3570160Y2155680D01*
X3554920Y2140440D02*
G01*
X3404679Y2140440D01*
X2043239Y4334019D02*
G01*
X2043239Y4193019D01*
X2223960Y4193019D02*
G01*
X2223960Y4334019D01*
X2208720Y4349259D02*
G01*
X2058479Y4349259D01*
X2043239Y3971780D02*
G01*
X2043239Y4112780D01*
X2223960Y4112780D02*
G01*
X2223960Y3971780D01*
X2208720Y3956540D02*
G01*
X2058479Y3956540D01*
X1850880Y3643439D02*
G01*
X1991880Y3643439D01*
X1991880Y3824160D02*
G01*
X1850880Y3824160D01*
X1835640Y3808920D02*
G01*
X1835640Y3658679D01*
X2213119Y3643439D02*
G01*
X2072119Y3643439D01*
X2072119Y3824160D02*
G01*
X2213119Y3824160D01*
X2228359Y3808920D02*
G01*
X2228359Y3658679D01*
X6450139Y4295919D02*
G01*
X6450139Y4154919D01*
X6630860Y4154919D02*
G01*
X6630860Y4295919D01*
X6615620Y4311159D02*
G01*
X6465379Y4311159D01*
X6450139Y3933680D02*
G01*
X6450139Y4074680D01*
X6630860Y4074680D02*
G01*
X6630860Y3933680D01*
X6615620Y3918440D02*
G01*
X6465379Y3918440D01*
X3554539Y4600719D02*
G01*
X3554539Y4459719D01*
X3735260Y4459719D02*
G01*
X3735260Y4600719D01*
X3720020Y4615959D02*
G01*
X3569779Y4615959D01*
X3554539Y4238480D02*
G01*
X3554539Y4379480D01*
X3735260Y4379480D02*
G01*
X3735260Y4238480D01*
X3720020Y4223240D02*
G01*
X3569779Y4223240D01*
X3922839Y2517919D02*
G01*
X3922839Y2376919D01*
X4103560Y2376919D02*
G01*
X4103560Y2517919D01*
X4088320Y2533159D02*
G01*
X3938079Y2533159D01*
X3922839Y2155680D02*
G01*
X3922839Y2296680D01*
X4103560Y2296680D02*
G01*
X4103560Y2155680D01*
X4088320Y2140440D02*
G01*
X3938079Y2140440D01*
X4824539Y4803919D02*
G01*
X4824539Y4662919D01*
X5005260Y4662919D02*
G01*
X5005260Y4803919D01*
X4990020Y4819159D02*
G01*
X4839779Y4819159D01*
X4824539Y4441680D02*
G01*
X4824539Y4582680D01*
X5005260Y4582680D02*
G01*
X5005260Y4441680D01*
X4990020Y4426440D02*
G01*
X4839779Y4426440D01*
X6821360Y2409680D02*
G01*
X6821360Y2550680D01*
X6640639Y2550680D02*
G01*
X6640639Y2409680D01*
X6655879Y2394440D02*
G01*
X6806120Y2394440D01*
X6821360Y2771919D02*
G01*
X6821360Y2630919D01*
X6640639Y2630919D02*
G01*
X6640639Y2771919D01*
X6655879Y2787159D02*
G01*
X6806120Y2787159D01*
X1421376Y2859539D02*
G01*
X1421376Y3203922D01*
X2087996Y3203922D01*
X2261623Y3030296D01*
X2261623Y2859539D01*
X1421376Y2703060D02*
G01*
X1421376Y2358677D01*
X2087996Y2358677D01*
X2261623Y2532303D01*
X2261623Y2703060D01*
D48*
X7377600Y3082899D02*
G01*
X7492598Y3082899D01*
X7492598Y2937901D01*
X7372598Y2937901D01*
X7310600Y2936900D02*
G01*
X7186599Y2936900D01*
X7186599Y3081898D01*
X7310600Y3081898D01*
X7492598Y3082899D02*
G01*
X7495600Y3082899D01*
X7515600Y3062899D01*
X7515600Y2960900D01*
X7512598Y2957901D01*
X7492598Y2937901D01*
X7377600Y3311499D02*
G01*
X7492598Y3311499D01*
X7492598Y3166501D01*
X7372598Y3166501D01*
X7310600Y3165500D02*
G01*
X7186599Y3165500D01*
X7186599Y3310498D01*
X7310600Y3310498D01*
X7492598Y3311499D02*
G01*
X7495600Y3311499D01*
X7515600Y3291499D01*
X7515600Y3189500D01*
X7512598Y3186501D01*
X7492598Y3166501D01*
X7377600Y3527399D02*
G01*
X7492598Y3527399D01*
X7492598Y3382401D01*
X7372598Y3382401D01*
X7310600Y3381400D02*
G01*
X7186599Y3381400D01*
X7186599Y3526398D01*
X7310600Y3526398D01*
X7492598Y3527399D02*
G01*
X7495600Y3527399D01*
X7515600Y3507399D01*
X7515600Y3405400D01*
X7512598Y3402401D01*
X7492598Y3382401D01*
X7377600Y3755999D02*
G01*
X7492598Y3755999D01*
X7492598Y3611001D01*
X7372598Y3611001D01*
X7310600Y3610000D02*
G01*
X7186599Y3610000D01*
X7186599Y3754998D01*
X7310600Y3754998D01*
X7492598Y3755999D02*
G01*
X7495600Y3755999D01*
X7515600Y3735999D01*
X7515600Y3634000D01*
X7512598Y3631001D01*
X7492598Y3611001D01*
X6886600Y3377100D02*
G01*
X6886600Y3492098D01*
X7031598Y3492098D01*
X7031598Y3372098D01*
X7032599Y3310100D02*
G01*
X7032599Y3186099D01*
X6887601Y3186099D01*
X6887601Y3310100D01*
X6886600Y3492098D02*
G01*
X6886600Y3495100D01*
X6906600Y3515100D01*
X7008599Y3515100D01*
X7011598Y3512098D01*
X7031598Y3492098D01*
D10*
X901700Y4123100D02*
G01*
X1155700Y4123100D01*
X901700Y3065099D02*
G01*
X901700Y4123100D01*
X901700Y3342452D02*
G01*
X1155700Y3342452D01*
X1155700Y3065099D02*
G01*
X1155700Y4123100D01*
X901700Y3065099D02*
G01*
X1155700Y3065099D01*
X7805275Y4498621D02*
G01*
X7909102Y4498621D01*
X7909102Y4189399D01*
X7805275Y4189399D01*
X7805275Y4155848D02*
G01*
X7805275Y4106517D01*
X7805275Y4529617D02*
G01*
X7805275Y4580282D01*
X7662481Y4737399D02*
G01*
X7554902Y4737399D01*
X7554902Y4621512D01*
X7662486Y3948399D02*
G01*
X7560901Y3948399D01*
X7560901Y4065287D01*
X7555900Y4485284D02*
G01*
X7555900Y4202399D01*
X7805275Y4155848D02*
G01*
X7805275Y4529617D01*
X5820097Y1785998D02*
G01*
X4670102Y1786001D01*
X4670102Y2786001D02*
G01*
X5820097Y2785998D01*
X4670102Y2786001D02*
G01*
X4670102Y2514114D01*
X4670102Y2057885D02*
G01*
X4670102Y1786001D01*
X5820097Y1785998D02*
G01*
X5820097Y2057885D01*
X5820097Y2514114D02*
G01*
X5820097Y2785998D01*
D47*
X2617419Y4052592D02*
G01*
X2617419Y4227832D01*
X2513258Y4227832D01*
X2310180Y4052592D02*
G01*
X2310180Y4227832D01*
X2414341Y4227832D01*
X2509339Y4052592D02*
G01*
X2418260Y4052592D01*
X7024319Y4039892D02*
G01*
X7024319Y4215132D01*
X6920158Y4215132D01*
X6717080Y4039892D02*
G01*
X6717080Y4215132D01*
X6821241Y4215132D01*
X6916239Y4039892D02*
G01*
X6825160Y4039892D01*
X4127720Y4346978D02*
G01*
X4127720Y4492221D01*
X4024558Y4492221D01*
X3822479Y4346978D02*
G01*
X3822479Y4492221D01*
X3925641Y4492221D01*
X4020639Y4346978D02*
G01*
X3929560Y4346978D01*
X5385020Y4550178D02*
G01*
X5385020Y4695421D01*
X5281858Y4695421D01*
X5079779Y4550178D02*
G01*
X5079779Y4695421D01*
X5182941Y4695421D01*
X5277939Y4550178D02*
G01*
X5186860Y4550178D01*
X2533609Y3524120D02*
G01*
X2533609Y3660112D01*
X2317790Y3660112D01*
X2317790Y3524120D01*
X2533609Y3333879D02*
G01*
X2533609Y3197887D01*
X2317790Y3197887D01*
X2317790Y3333879D01*
X6586778Y3075960D02*
G01*
X6490891Y3075960D01*
X6490891Y2943839D01*
X6586778Y2943839D01*
X6672021Y3075960D02*
G01*
X6767908Y3075960D01*
X6767908Y2943839D01*
X6672021Y2943839D01*
X6690339Y3284778D02*
G01*
X6690339Y3188891D01*
X6822460Y3188891D01*
X6822460Y3284778D01*
X6690339Y3370021D02*
G01*
X6690339Y3465908D01*
X6822460Y3465908D01*
X6822460Y3370021D01*
X7406660Y4525721D02*
G01*
X7406660Y4621608D01*
X7274539Y4621608D01*
X7274539Y4525721D01*
X7406660Y4440478D02*
G01*
X7406660Y4344591D01*
X7274539Y4344591D01*
X7274539Y4440478D01*
X6929678Y3075960D02*
G01*
X6833791Y3075960D01*
X6833791Y2943839D01*
X6929678Y2943839D01*
X7014921Y3075960D02*
G01*
X7110808Y3075960D01*
X7110808Y2943839D01*
X7014921Y2943839D01*
X3172439Y4199178D02*
G01*
X3172439Y4103291D01*
X3304560Y4103291D01*
X3304560Y4199178D01*
X3172439Y4284421D02*
G01*
X3172439Y4380308D01*
X3304560Y4380308D01*
X3304560Y4284421D01*
X4442439Y4389678D02*
G01*
X4442439Y4293791D01*
X4574560Y4293791D01*
X4574560Y4389678D01*
X4442439Y4474921D02*
G01*
X4442439Y4570808D01*
X4574560Y4570808D01*
X4574560Y4474921D01*
X5730260Y4678121D02*
G01*
X5730260Y4774008D01*
X5598139Y4774008D01*
X5598139Y4678121D01*
X5730260Y4592878D02*
G01*
X5730260Y4496991D01*
X5598139Y4496991D01*
X5598139Y4592878D01*
X3992321Y1838939D02*
G01*
X4088208Y1838939D01*
X4088208Y1971060D01*
X3992321Y1971060D01*
X3907078Y1838939D02*
G01*
X3811191Y1838939D01*
X3811191Y1971060D01*
X3907078Y1971060D01*
X3616680Y3458448D02*
G01*
X3616680Y3508019D01*
X3666251Y3508019D01*
X4231919Y3458448D02*
G01*
X4231919Y3508019D01*
X4182348Y3508019D01*
X3616680Y2942351D02*
G01*
X3616680Y2892780D01*
X3666251Y2892780D01*
X4231919Y2942351D02*
G01*
X4231919Y2892780D01*
X4182348Y2892780D01*
D10*
X1737362Y4997013D02*
G01*
X1795777Y5502478D01*
X1981200Y5502478D01*
X2039365Y4997775D01*
X2006089Y4995240D01*
X1940562Y5451678D01*
X1846577Y5451678D01*
X1767842Y4991935D01*
X1737362Y4997013D01*
X1996442Y5088455D02*
G01*
X1788162Y5088455D01*
X1963420Y5263713D02*
G01*
X1818642Y5263713D01*
X2410462Y5268798D02*
G01*
X2265677Y5268798D01*
X2443477Y5093535D02*
G01*
X2235200Y5093535D01*
X2184400Y5002098D02*
G01*
X2214877Y4997013D01*
X2293620Y5456755D01*
X2387600Y5456755D01*
X2453131Y5000317D01*
X2486408Y5002855D01*
X2428242Y5507555D01*
X2242820Y5507555D01*
X2184400Y5002098D01*
X2743187Y4494098D02*
G01*
X1473187Y4494098D01*
X1473187Y5637098D01*
X2743187Y5637098D01*
X2743187Y4494098D01*
X6156962Y4997013D02*
G01*
X6215377Y5502478D01*
X6400800Y5502478D01*
X6458965Y4997775D01*
X6425689Y4995240D01*
X6360162Y5451678D01*
X6266177Y5451678D01*
X6187442Y4991935D01*
X6156962Y4997013D01*
X6416042Y5088455D02*
G01*
X6207762Y5088455D01*
X6383020Y5263713D02*
G01*
X6238242Y5263713D01*
X6830062Y5268798D02*
G01*
X6685277Y5268798D01*
X6863077Y5093535D02*
G01*
X6654800Y5093535D01*
X6604000Y5002098D02*
G01*
X6634477Y4997013D01*
X6713220Y5456755D01*
X6807200Y5456755D01*
X6872731Y5000317D01*
X6906008Y5002855D01*
X6847842Y5507555D01*
X6662420Y5507555D01*
X6604000Y5002098D01*
X7162787Y4494098D02*
G01*
X5892787Y4494098D01*
X5892787Y5637098D01*
X7162787Y5637098D01*
X7162787Y4494098D01*
X3302002Y5245107D02*
G01*
X3302002Y5092707D01*
X4165602Y5486407D02*
G01*
X4165602Y5638807D01*
X3302002Y5638807D01*
X3302002Y5486407D01*
X4165602Y5092707D02*
G01*
X4165602Y5245107D01*
X4165602Y4813307D02*
G01*
X3302002Y4813307D01*
D48*
X4873947Y5092001D02*
G01*
X4799898Y5092001D01*
X5279900Y5092001D02*
G01*
X5209852Y5092001D01*
X5422900Y5230200D02*
G01*
X5422900Y5636600D01*
X4660900Y5636600D01*
X4660900Y5230200D01*
X4947920Y5554273D02*
G01*
X4940300Y5554273D01*
X4940300Y5559351D01*
X4940300Y5566973D01*
X4940300Y5589831D01*
X4874257Y5589831D01*
X4874257Y5566973D01*
X4874257Y5559351D01*
X4940300Y5559351D01*
X4958079Y5544111D02*
G01*
X4958079Y5518711D01*
X4940300Y5498388D02*
G01*
X4940300Y5422188D01*
X4930142Y5412031D02*
G01*
X4884420Y5412031D01*
X4874257Y5422188D02*
G01*
X4874257Y5498388D01*
X4856479Y5518711D02*
G01*
X4856479Y5544111D01*
X4866642Y5554273D02*
G01*
X4874257Y5554273D01*
X4874257Y5559351D01*
X4874257Y5566973D02*
G01*
X4940300Y5566973D01*
X5209542Y5554273D02*
G01*
X5201920Y5554273D01*
X5201920Y5559351D01*
X5201920Y5566973D01*
X5201920Y5589831D01*
X5135879Y5589831D01*
X5135879Y5566973D01*
X5135879Y5559351D01*
X5201920Y5559351D01*
X5219700Y5544111D02*
G01*
X5219700Y5518711D01*
X5201920Y5498388D02*
G01*
X5201920Y5422188D01*
X5191757Y5412031D02*
G01*
X5146042Y5412031D01*
X5135879Y5422188D02*
G01*
X5135879Y5498388D01*
X5118100Y5518711D02*
G01*
X5118100Y5544111D01*
X5128257Y5554273D02*
G01*
X5135879Y5554273D01*
X5135879Y5559351D01*
X5135879Y5566973D02*
G01*
X5201920Y5566973D01*
D47*
X3836860Y2155680D02*
G01*
X3836860Y2296680D01*
X3656139Y2296680D02*
G01*
X3656139Y2155680D01*
X3671379Y2140440D02*
G01*
X3821620Y2140440D01*
X3836860Y2517919D02*
G01*
X3836860Y2376919D01*
X3656139Y2376919D02*
G01*
X3656139Y2517919D01*
X3671379Y2533159D02*
G01*
X3821620Y2533159D01*
X4918219Y3557460D02*
G01*
X4777219Y3557460D01*
X4777219Y3376739D02*
G01*
X4918219Y3376739D01*
X4933459Y3391979D02*
G01*
X4933459Y3542220D01*
X4555980Y3557460D02*
G01*
X4696980Y3557460D01*
X4696980Y3376739D02*
G01*
X4555980Y3376739D01*
X4540740Y3391979D02*
G01*
X4540740Y3542220D01*
X7161339Y2771919D02*
G01*
X7161339Y2630919D01*
X7342060Y2630919D02*
G01*
X7342060Y2771919D01*
X7326820Y2787159D02*
G01*
X7176579Y2787159D01*
X7161339Y2409680D02*
G01*
X7161339Y2550680D01*
X7342060Y2550680D02*
G01*
X7342060Y2409680D01*
X7326820Y2394440D02*
G01*
X7176579Y2394440D01*
X3590919Y1813290D02*
G01*
X3719413Y1813290D01*
X3719413Y1996709D01*
X3590919Y1996709D01*
X3495680Y1813290D02*
G01*
X3367186Y1813290D01*
X3367186Y1996709D01*
X3495680Y1996709D01*
D10*
G75*
G01*
X1508839Y3466249D02*
G02*
X1477856Y3497232I0J30983D01*
G75*
G01*
X1619822Y3497232D02*
G02*
X1588836Y3466249I-30983J0D01*
G75*
G01*
X1478437Y3714819D02*
G02*
X1509423Y3745801I30983J0D01*
G75*
G01*
X1589420Y3745801D02*
G02*
X1620403Y3714819I0J-30982D01*
G75*
G01*
X6055439Y3974249D02*
G02*
X6024456Y4005232I0J30983D01*
G75*
G01*
X6166422Y4005232D02*
G02*
X6135436Y3974249I-30983J0D01*
G75*
G01*
X6025037Y4222819D02*
G02*
X6056023Y4253801I30983J0D01*
G75*
G01*
X6136020Y4253801D02*
G02*
X6167003Y4222819I0J-30982D01*
D47*
G75*
G01*
X6094540Y2409680D02*
G03*
X6109779Y2394440I15240J0D01*
G75*
G01*
X6260021Y2394440D02*
G03*
X6275260Y2409680I-1J15240D01*
G75*
G01*
X6094540Y2771920D02*
G02*
X6109779Y2787160I15240J0D01*
G75*
G01*
X6260021Y2787160D02*
G02*
X6275260Y2771920I-1J-15240D01*
G75*
G01*
X6361240Y2409680D02*
G03*
X6376479Y2394440I15240J0D01*
G75*
G01*
X6526721Y2394440D02*
G03*
X6541960Y2409680I-1J15240D01*
G75*
G01*
X6361240Y2771920D02*
G02*
X6376479Y2787160I15240J0D01*
G75*
G01*
X6526721Y2787160D02*
G02*
X6541960Y2771920I-1J-15240D01*
G75*
G01*
X6894640Y2409680D02*
G03*
X6909879Y2394440I15240J0D01*
G75*
G01*
X7060121Y2394440D02*
G03*
X7075360Y2409680I-1J15240D01*
G75*
G01*
X6894640Y2771920D02*
G02*
X6909879Y2787160I15240J0D01*
G75*
G01*
X7060121Y2787160D02*
G02*
X7075360Y2771920I-1J-15240D01*
G75*
G01*
X3036760Y2517920D02*
G03*
X3021521Y2533160I-15240J0D01*
G75*
G01*
X2871279Y2533160D02*
G03*
X2856040Y2517920I1J-15240D01*
G75*
G01*
X3036760Y2155680D02*
G02*
X3021521Y2140440I-15240J0D01*
G75*
G01*
X2871279Y2140440D02*
G02*
X2856040Y2155680I1J15240D01*
G75*
G01*
X3303460Y2517920D02*
G03*
X3288221Y2533160I-15240J0D01*
G75*
G01*
X3137979Y2533160D02*
G03*
X3122740Y2517920I1J-15240D01*
G75*
G01*
X3303460Y2155680D02*
G02*
X3288221Y2140440I-15240J0D01*
G75*
G01*
X3137979Y2140440D02*
G02*
X3122740Y2155680I1J15240D01*
G75*
G01*
X3570160Y2517920D02*
G03*
X3554921Y2533160I-15240J0D01*
G75*
G01*
X3404679Y2533160D02*
G03*
X3389440Y2517920I1J-15240D01*
G75*
G01*
X3570160Y2155680D02*
G02*
X3554921Y2140440I-15240J0D01*
G75*
G01*
X3404679Y2140440D02*
G02*
X3389440Y2155680I1J15240D01*
G75*
G01*
X2223960Y4334020D02*
G03*
X2208721Y4349260I-15240J0D01*
G75*
G01*
X2058479Y4349260D02*
G03*
X2043240Y4334020I1J-15240D01*
G75*
G01*
X2223960Y3971780D02*
G02*
X2208721Y3956540I-15240J0D01*
G75*
G01*
X2058479Y3956540D02*
G02*
X2043240Y3971780I1J15240D01*
G75*
G01*
X1850880Y3824160D02*
G03*
X1835640Y3808920I0J-15240D01*
G75*
G01*
X1835640Y3658680D02*
G03*
X1850880Y3643440I15240J0D01*
G75*
G01*
X2213120Y3824160D02*
G02*
X2228360Y3808920I0J-15240D01*
G75*
G01*
X2228360Y3658680D02*
G02*
X2213120Y3643440I-15240J0D01*
G75*
G01*
X6630860Y4295920D02*
G03*
X6615621Y4311160I-15240J0D01*
G75*
G01*
X6465379Y4311160D02*
G03*
X6450140Y4295920I1J-15240D01*
G75*
G01*
X6630860Y3933680D02*
G02*
X6615621Y3918440I-15240J0D01*
G75*
G01*
X6465379Y3918440D02*
G02*
X6450140Y3933680I1J15240D01*
G75*
G01*
X3735260Y4600720D02*
G03*
X3720021Y4615960I-15240J0D01*
G75*
G01*
X3569779Y4615960D02*
G03*
X3554540Y4600720I1J-15240D01*
G75*
G01*
X3735260Y4238480D02*
G02*
X3720021Y4223240I-15240J0D01*
G75*
G01*
X3569779Y4223240D02*
G02*
X3554540Y4238480I1J15240D01*
G75*
G01*
X4103560Y2517920D02*
G03*
X4088321Y2533160I-15240J0D01*
G75*
G01*
X3938079Y2533160D02*
G03*
X3922840Y2517920I1J-15240D01*
G75*
G01*
X4103560Y2155680D02*
G02*
X4088321Y2140440I-15240J0D01*
G75*
G01*
X3938079Y2140440D02*
G02*
X3922840Y2155680I1J15240D01*
G75*
G01*
X5005260Y4803920D02*
G03*
X4990021Y4819160I-15240J0D01*
G75*
G01*
X4839779Y4819160D02*
G03*
X4824540Y4803920I1J-15240D01*
G75*
G01*
X5005260Y4441680D02*
G02*
X4990021Y4426440I-15240J0D01*
G75*
G01*
X4839779Y4426440D02*
G02*
X4824540Y4441680I1J15240D01*
G75*
G01*
X6640640Y2409680D02*
G03*
X6655879Y2394440I15240J0D01*
G75*
G01*
X6806121Y2394440D02*
G03*
X6821360Y2409680I-1J15240D01*
G75*
G01*
X6640640Y2771920D02*
G02*
X6655879Y2787160I15240J0D01*
G75*
G01*
X6806121Y2787160D02*
G02*
X6821360Y2771920I-1J-15240D01*
D48*
G75*
G01*
X4957559Y5543070D02*
G03*
X4947559Y5553072I-10007J-5D01*
G75*
G01*
X4948758Y5508071D02*
G03*
X4940074Y5498170I1298J-9897D01*
G75*
G01*
X4930059Y5413073D02*
G03*
X4940059Y5423073I-8J10007D01*
G75*
G01*
X4875060Y5423073D02*
G03*
X4885060Y5413073I10008J7D01*
G75*
G01*
X4875060Y5498170D02*
G03*
X4866259Y5508094I-10007J-10D01*
G75*
G01*
X4947760Y5508170D02*
G03*
X4957760Y5518170I-8J10008D01*
G75*
G01*
X4867460Y5552971D02*
G03*
X4857460Y5542971I8J-10008D01*
G75*
G01*
X4857659Y5518170D02*
G03*
X4867659Y5508170I10007J8D01*
G75*
G01*
X5219179Y5543070D02*
G03*
X5209179Y5553072I-10007J-5D01*
G75*
G01*
X5210378Y5508071D02*
G03*
X5201694Y5498170I1298J-9897D01*
G75*
G01*
X5191679Y5413073D02*
G03*
X5201679Y5423073I-8J10007D01*
G75*
G01*
X5136680Y5423073D02*
G03*
X5146680Y5413073I10008J7D01*
G75*
G01*
X5136680Y5498170D02*
G03*
X5127879Y5508094I-10007J-10D01*
G75*
G01*
X5209380Y5508170D02*
G03*
X5219380Y5518170I-8J10008D01*
G75*
G01*
X5129080Y5552971D02*
G03*
X5119080Y5542971I8J-10008D01*
G75*
G01*
X5119279Y5518170D02*
G03*
X5129279Y5508170I10007J8D01*
D47*
G75*
G01*
X3656140Y2155680D02*
G03*
X3671379Y2140440I15240J0D01*
G75*
G01*
X3821621Y2140440D02*
G03*
X3836860Y2155680I-1J15240D01*
G75*
G01*
X3656140Y2517920D02*
G02*
X3671379Y2533160I15240J0D01*
G75*
G01*
X3821621Y2533160D02*
G02*
X3836860Y2517920I-1J-15240D01*
G75*
G01*
X4918220Y3376740D02*
G03*
X4933460Y3391980I0J15240D01*
G75*
G01*
X4933460Y3542220D02*
G03*
X4918220Y3557460I-15240J0D01*
G75*
G01*
X4555980Y3376740D02*
G02*
X4540740Y3391980I0J15240D01*
G75*
G01*
X4540740Y3542220D02*
G02*
X4555980Y3557460I15240J0D01*
G75*
G01*
X7342060Y2771920D02*
G03*
X7326821Y2787160I-15240J0D01*
G75*
G01*
X7176579Y2787160D02*
G03*
X7161340Y2771920I1J-15240D01*
G75*
G01*
X7342060Y2409680D02*
G02*
X7326821Y2394440I-15240J0D01*
G75*
G01*
X7176579Y2394440D02*
G02*
X7161340Y2409680I1J15240D01*
D48*
G75*
G01
X3706800Y2846400D02*
G03X3706800Y2846400I-7493J0D01*
M02*
