G04 Layer: BottomLayer*
G04 EasyEDA v6.5.1, 2022-04-03 23:05:39*
G04 0caac7c7161345fe919d254c63c90933,10*
G04 Gerber Generator version 0.2*
G04 Scale: 100 percent, Rotated: No, Reflected: No *
G04 Dimensions in millimeters *
G04 leading zeros omitted , absolute positions ,4 integer and 5 decimal *
%FSLAX45Y45*%
%MOMM*%

%ADD10C,0.2540*%
%ADD12C,1.0000*%
%ADD16C,0.6096*%
%ADD39R,1.7000X1.7000*%
%ADD40C,1.7000*%
%ADD41C,1.5240*%
%ADD42R,1.5240X1.5240*%
%ADD43C,4.0000*%
%ADD44R,6.0000X4.0000*%
%ADD46C,1.1999*%

%LPD*%
G36*
X810768Y1651507D02*
G01*
X806856Y1652270D01*
X803605Y1654505D01*
X801370Y1657756D01*
X800608Y1661668D01*
X800608Y5602732D01*
X801370Y5606643D01*
X803605Y5609894D01*
X806856Y5612130D01*
X810768Y5612892D01*
X7825231Y5612892D01*
X7829143Y5612130D01*
X7832394Y5609894D01*
X7834630Y5606643D01*
X7835392Y5602732D01*
X7835392Y1661668D01*
X7834630Y1657756D01*
X7832394Y1654505D01*
X7829143Y1652270D01*
X7825231Y1651507D01*
G37*

%LPC*%
G36*
X4677714Y5464403D02*
G01*
X4725466Y5464403D01*
X4725466Y5525820D01*
X4715357Y5520334D01*
X4705553Y5512968D01*
X4696917Y5504281D01*
X4689551Y5494477D01*
X4683658Y5483758D01*
X4679391Y5472277D01*
G37*
G36*
X2113584Y1755292D02*
G01*
X2256637Y1755292D01*
X2256637Y1874824D01*
X2087118Y1874824D01*
X2087118Y1781759D01*
X2087829Y1775460D01*
X2089708Y1769973D01*
X2092807Y1765096D01*
X2096871Y1760982D01*
X2101799Y1757934D01*
X2107234Y1756003D01*
G37*
G36*
X6177584Y1755292D02*
G01*
X6776415Y1755292D01*
X6782765Y1756003D01*
X6788200Y1757934D01*
X6793128Y1760982D01*
X6797192Y1765096D01*
X6800291Y1769973D01*
X6802170Y1775460D01*
X6802932Y1781759D01*
X6802932Y2180640D01*
X6802170Y2186940D01*
X6800291Y2192426D01*
X6797192Y2197303D01*
X6793128Y2201418D01*
X6788200Y2204466D01*
X6782765Y2206396D01*
X6776415Y2207107D01*
X6177584Y2207107D01*
X6171234Y2206396D01*
X6165799Y2204466D01*
X6160871Y2201418D01*
X6156807Y2197303D01*
X6153708Y2192426D01*
X6151829Y2186940D01*
X6151118Y2180640D01*
X6151118Y2029968D01*
X6150305Y2026056D01*
X6148120Y2022805D01*
X6144818Y2020570D01*
X6140958Y2019807D01*
X4592218Y2019807D01*
X4588306Y2020570D01*
X4585004Y2022805D01*
X4562805Y2045004D01*
X4560570Y2048306D01*
X4559808Y2052218D01*
X4559808Y3517392D01*
X4558995Y3525418D01*
X4556810Y3532632D01*
X4553254Y3539337D01*
X4548124Y3545535D01*
X4492040Y3601669D01*
X4489856Y3604920D01*
X4489094Y3608832D01*
X4489856Y3612743D01*
X4492040Y3615994D01*
X4495342Y3618229D01*
X4499254Y3618992D01*
X7035292Y3618992D01*
X7043318Y3619804D01*
X7050531Y3621989D01*
X7057237Y3625545D01*
X7063435Y3630676D01*
X7367524Y3934764D01*
X7372654Y3940962D01*
X7376210Y3947668D01*
X7378395Y3954881D01*
X7379208Y3962908D01*
X7379208Y4222191D01*
X7379970Y4226102D01*
X7382205Y4229404D01*
X7383780Y4230979D01*
X7389418Y4239006D01*
X7393533Y4247946D01*
X7396073Y4257395D01*
X7396937Y4267200D01*
X7396073Y4277004D01*
X7393533Y4286453D01*
X7389418Y4295394D01*
X7383780Y4303420D01*
X7376820Y4310380D01*
X7368794Y4316018D01*
X7359853Y4320133D01*
X7350404Y4322673D01*
X7340600Y4323537D01*
X7330795Y4322673D01*
X7321346Y4320133D01*
X7312406Y4316018D01*
X7304379Y4310380D01*
X7297420Y4303420D01*
X7291781Y4295394D01*
X7287666Y4286453D01*
X7285126Y4277004D01*
X7284262Y4267200D01*
X7285126Y4257395D01*
X7287666Y4247946D01*
X7291781Y4239006D01*
X7297420Y4230979D01*
X7298994Y4229404D01*
X7301230Y4226102D01*
X7301992Y4222191D01*
X7301992Y3982618D01*
X7301230Y3978706D01*
X7298994Y3975404D01*
X7022795Y3699205D01*
X7019493Y3696970D01*
X7015581Y3696208D01*
X4599432Y3696208D01*
X4595266Y3697122D01*
X4591862Y3699611D01*
X4589729Y3703320D01*
X4589322Y3707536D01*
X4590694Y3711600D01*
X4593590Y3714699D01*
X4595520Y3716020D01*
X4602480Y3722979D01*
X4608118Y3731006D01*
X4612233Y3739946D01*
X4614773Y3749395D01*
X4615484Y3757422D01*
X4616399Y3760825D01*
X4618431Y3763721D01*
X4827524Y3972864D01*
X4832654Y3979062D01*
X4836210Y3985768D01*
X4838395Y3992981D01*
X4839208Y4001008D01*
X4839208Y4272381D01*
X4839970Y4276293D01*
X4842205Y4279595D01*
X4915204Y4352594D01*
X4918506Y4354830D01*
X4922418Y4355592D01*
X5231892Y4355592D01*
X5239918Y4356404D01*
X5247132Y4358589D01*
X5253837Y4362145D01*
X5260035Y4367276D01*
X5410504Y4517694D01*
X5413806Y4519930D01*
X5417718Y4520692D01*
X5479491Y4520692D01*
X5483402Y4519930D01*
X5486704Y4517694D01*
X5488279Y4516120D01*
X5496306Y4510481D01*
X5505246Y4506366D01*
X5514695Y4503826D01*
X5524500Y4502962D01*
X5534304Y4503826D01*
X5543753Y4506366D01*
X5552694Y4510481D01*
X5560720Y4516120D01*
X5567680Y4523079D01*
X5573318Y4531106D01*
X5577433Y4540046D01*
X5579973Y4549495D01*
X5580837Y4559300D01*
X5579973Y4569104D01*
X5577433Y4578553D01*
X5573318Y4587494D01*
X5567680Y4595520D01*
X5560720Y4602480D01*
X5552694Y4608118D01*
X5543753Y4612233D01*
X5534304Y4614773D01*
X5524500Y4615637D01*
X5514695Y4614773D01*
X5505246Y4612233D01*
X5496306Y4608118D01*
X5488279Y4602480D01*
X5486704Y4600905D01*
X5483402Y4598670D01*
X5479491Y4597908D01*
X5398008Y4597908D01*
X5389981Y4597095D01*
X5382768Y4594910D01*
X5376062Y4591354D01*
X5369864Y4586224D01*
X5219395Y4435805D01*
X5216093Y4433570D01*
X5212181Y4432808D01*
X4902708Y4432808D01*
X4894681Y4431995D01*
X4887468Y4429810D01*
X4880762Y4426254D01*
X4874564Y4421124D01*
X4793030Y4339640D01*
X4789779Y4337456D01*
X4785868Y4336694D01*
X4781956Y4337456D01*
X4778705Y4339640D01*
X4776470Y4342942D01*
X4775708Y4346854D01*
X4775708Y4539691D01*
X4776470Y4543602D01*
X4778705Y4546904D01*
X4780280Y4548479D01*
X4785918Y4556506D01*
X4790033Y4565446D01*
X4792573Y4574895D01*
X4793437Y4584700D01*
X4792573Y4594504D01*
X4790033Y4603953D01*
X4785918Y4612894D01*
X4780280Y4620920D01*
X4773320Y4627880D01*
X4771390Y4629200D01*
X4768494Y4632299D01*
X4767122Y4636363D01*
X4767529Y4640580D01*
X4769662Y4644288D01*
X4773066Y4646777D01*
X4777232Y4647692D01*
X5707481Y4647692D01*
X5711393Y4646930D01*
X5714695Y4644694D01*
X5813094Y4546295D01*
X5815330Y4542993D01*
X5816092Y4539081D01*
X5816092Y4458208D01*
X5816904Y4450181D01*
X5819089Y4442968D01*
X5822645Y4436262D01*
X5827776Y4430064D01*
X5992164Y4265676D01*
X5998362Y4260545D01*
X6005068Y4256989D01*
X6012281Y4254804D01*
X6020308Y4253992D01*
X6292291Y4253992D01*
X6296202Y4253230D01*
X6299504Y4250994D01*
X6301079Y4249420D01*
X6309106Y4243781D01*
X6318046Y4239666D01*
X6327495Y4237126D01*
X6337300Y4236262D01*
X6347104Y4237126D01*
X6356553Y4239666D01*
X6365494Y4243781D01*
X6373520Y4249420D01*
X6380480Y4256379D01*
X6386118Y4264406D01*
X6390233Y4273346D01*
X6392773Y4282795D01*
X6393637Y4292600D01*
X6392773Y4302404D01*
X6390233Y4311853D01*
X6386118Y4320794D01*
X6380480Y4328820D01*
X6373520Y4335780D01*
X6365494Y4341418D01*
X6356553Y4345533D01*
X6347104Y4348073D01*
X6337300Y4348937D01*
X6327495Y4348073D01*
X6318046Y4345533D01*
X6309106Y4341418D01*
X6301079Y4335780D01*
X6299504Y4334205D01*
X6296202Y4331970D01*
X6292291Y4331208D01*
X6259982Y4331208D01*
X6255918Y4332071D01*
X6252514Y4334459D01*
X6250381Y4338015D01*
X6249822Y4342130D01*
X6250990Y4346092D01*
X6253632Y4349292D01*
X6257340Y4351172D01*
X6267653Y4353966D01*
X6276594Y4358081D01*
X6284620Y4363720D01*
X6291580Y4370679D01*
X6297218Y4378706D01*
X6301333Y4387646D01*
X6303873Y4397095D01*
X6304737Y4406900D01*
X6303873Y4416704D01*
X6301333Y4426153D01*
X6297218Y4435094D01*
X6291580Y4443120D01*
X6284620Y4450080D01*
X6276594Y4455718D01*
X6267653Y4459833D01*
X6258204Y4462373D01*
X6248400Y4463237D01*
X6238595Y4462373D01*
X6229146Y4459833D01*
X6220206Y4455718D01*
X6212179Y4450080D01*
X6210604Y4448505D01*
X6207302Y4446270D01*
X6203391Y4445508D01*
X6001918Y4445508D01*
X5998006Y4446270D01*
X5994704Y4448505D01*
X5947105Y4496104D01*
X5944870Y4499406D01*
X5944108Y4503318D01*
X5944108Y4584192D01*
X5943295Y4592218D01*
X5941110Y4599432D01*
X5937554Y4606137D01*
X5932424Y4612335D01*
X5812840Y4731969D01*
X5810656Y4735220D01*
X5809894Y4739132D01*
X5810656Y4743043D01*
X5812840Y4746294D01*
X5816142Y4748530D01*
X5820054Y4749292D01*
X5936691Y4749292D01*
X5940602Y4748530D01*
X5943904Y4746294D01*
X5945479Y4744720D01*
X5953506Y4739081D01*
X5962446Y4734966D01*
X5971895Y4732426D01*
X5981700Y4731562D01*
X5991504Y4732426D01*
X6000953Y4734966D01*
X6009894Y4739081D01*
X6017920Y4744720D01*
X6024880Y4751679D01*
X6030518Y4759706D01*
X6034633Y4768646D01*
X6037173Y4778095D01*
X6038037Y4787900D01*
X6037173Y4797704D01*
X6036564Y4799990D01*
X6036259Y4803698D01*
X6037326Y4807254D01*
X6039612Y4810201D01*
X6042761Y4812131D01*
X6046368Y4812792D01*
X6304381Y4812792D01*
X6308293Y4812030D01*
X6311595Y4809794D01*
X6386118Y4735271D01*
X6388354Y4731969D01*
X6389116Y4728057D01*
X6389116Y4721910D01*
X6388404Y4718151D01*
X6386322Y4714951D01*
X6383223Y4712716D01*
X6378702Y4710633D01*
X6367221Y4703267D01*
X6356807Y4694478D01*
X6347663Y4684369D01*
X6339941Y4673142D01*
X6333794Y4660950D01*
X6329324Y4648047D01*
X6326632Y4634687D01*
X6325717Y4621072D01*
X6326632Y4607509D01*
X6329324Y4594148D01*
X6333794Y4581245D01*
X6339941Y4569053D01*
X6347663Y4557826D01*
X6356807Y4547717D01*
X6367221Y4538929D01*
X6378702Y4531563D01*
X6391097Y4525822D01*
X6404102Y4521809D01*
X6417564Y4519523D01*
X6431178Y4519066D01*
X6444792Y4520438D01*
X6458051Y4523587D01*
X6470751Y4528515D01*
X6482740Y4535068D01*
X6493713Y4543145D01*
X6503517Y4552645D01*
X6511950Y4563313D01*
X6519164Y4575505D01*
X6522110Y4578705D01*
X6526123Y4580331D01*
X6530390Y4580178D01*
X6534251Y4578299D01*
X6536994Y4574946D01*
X6539941Y4569053D01*
X6547662Y4557826D01*
X6556806Y4547717D01*
X6567220Y4538929D01*
X6578701Y4531563D01*
X6591096Y4525822D01*
X6604101Y4521809D01*
X6617563Y4519523D01*
X6631178Y4519066D01*
X6644792Y4520438D01*
X6658051Y4523587D01*
X6670751Y4528515D01*
X6682740Y4535068D01*
X6693712Y4543145D01*
X6703517Y4552645D01*
X6711950Y4563313D01*
X6718909Y4575048D01*
X6724243Y4587595D01*
X6727850Y4600752D01*
X6729628Y4614265D01*
X6729628Y4627930D01*
X6727850Y4641443D01*
X6724243Y4654600D01*
X6718909Y4667148D01*
X6711950Y4678883D01*
X6703517Y4689551D01*
X6693712Y4699050D01*
X6682740Y4707128D01*
X6670751Y4713681D01*
X6658051Y4718608D01*
X6644792Y4721758D01*
X6631178Y4723130D01*
X6617563Y4722672D01*
X6604101Y4720386D01*
X6591096Y4716373D01*
X6578701Y4710633D01*
X6567220Y4703267D01*
X6556806Y4694478D01*
X6547662Y4684369D01*
X6539941Y4673142D01*
X6536994Y4667250D01*
X6534251Y4663897D01*
X6530390Y4662017D01*
X6526123Y4661865D01*
X6522110Y4663490D01*
X6519164Y4666640D01*
X6511950Y4678883D01*
X6503517Y4689551D01*
X6493713Y4699050D01*
X6482740Y4707128D01*
X6471615Y4713224D01*
X6468821Y4715510D01*
X6466992Y4718608D01*
X6466332Y4722164D01*
X6466332Y4747768D01*
X6465519Y4755794D01*
X6463334Y4763008D01*
X6459778Y4769713D01*
X6454648Y4775911D01*
X6352235Y4878324D01*
X6346037Y4883454D01*
X6339332Y4887010D01*
X6332118Y4889195D01*
X6324092Y4890008D01*
X5081168Y4890008D01*
X5077561Y4890668D01*
X5074412Y4892598D01*
X5072126Y4895545D01*
X5071059Y4899101D01*
X5071364Y4902809D01*
X5071973Y4905095D01*
X5072837Y4914900D01*
X5071973Y4924704D01*
X5069433Y4934153D01*
X5065318Y4943094D01*
X5059680Y4951120D01*
X5052720Y4958080D01*
X5044694Y4963718D01*
X5035753Y4967833D01*
X5028590Y4969764D01*
X5025390Y4971237D01*
X5022900Y4973777D01*
X5021427Y4976977D01*
X5021122Y4980482D01*
X5022037Y4991100D01*
X5021173Y5000904D01*
X5018633Y5010353D01*
X5014518Y5019294D01*
X5008880Y5027320D01*
X5001920Y5034280D01*
X4993894Y5039918D01*
X4984953Y5044033D01*
X4975504Y5046573D01*
X4965700Y5047437D01*
X4955895Y5046573D01*
X4946446Y5044033D01*
X4937506Y5039918D01*
X4929479Y5034280D01*
X4927904Y5032705D01*
X4924602Y5030470D01*
X4920691Y5029708D01*
X4516018Y5029708D01*
X4512106Y5030470D01*
X4508804Y5032705D01*
X4320235Y5221224D01*
X4314037Y5226354D01*
X4307332Y5229910D01*
X4300118Y5232095D01*
X4292092Y5232908D01*
X4147718Y5232908D01*
X4143806Y5233670D01*
X4140504Y5235905D01*
X4137456Y5238953D01*
X4135221Y5242255D01*
X4134459Y5246166D01*
X4134459Y5315712D01*
X4090771Y5315712D01*
X4091838Y5311089D01*
X4091889Y5306771D01*
X4090111Y5302808D01*
X4086860Y5299964D01*
X4082694Y5298694D01*
X4078376Y5299303D01*
X4074769Y5301640D01*
X3837635Y5538724D01*
X3831437Y5543854D01*
X3824732Y5547410D01*
X3817518Y5549595D01*
X3809492Y5550408D01*
X3239008Y5550408D01*
X3230981Y5549595D01*
X3223768Y5547410D01*
X3217062Y5543854D01*
X3210864Y5538724D01*
X3160776Y5488635D01*
X3155645Y5482437D01*
X3152089Y5475732D01*
X3149904Y5468518D01*
X3149092Y5460492D01*
X3149092Y5303418D01*
X3148330Y5299506D01*
X3146094Y5296204D01*
X3033776Y5183835D01*
X3028645Y5177637D01*
X3025089Y5170932D01*
X3022904Y5163718D01*
X3022092Y5155692D01*
X3022092Y5014468D01*
X3021330Y5010556D01*
X3019094Y5007305D01*
X3015843Y5005070D01*
X3011932Y5004308D01*
X2839618Y5004308D01*
X2835706Y5005070D01*
X2832404Y5007305D01*
X2770835Y5068824D01*
X2764637Y5073954D01*
X2757932Y5077510D01*
X2750718Y5079695D01*
X2742692Y5080508D01*
X1549908Y5080508D01*
X1541881Y5079695D01*
X1534668Y5077510D01*
X1527962Y5073954D01*
X1521764Y5068824D01*
X1344676Y4891735D01*
X1339545Y4885537D01*
X1335989Y4878832D01*
X1333804Y4871618D01*
X1332992Y4863592D01*
X1332992Y3711854D01*
X1332230Y3707942D01*
X1329994Y3704640D01*
X1326743Y3702456D01*
X1322832Y3701694D01*
X1318920Y3702456D01*
X1315669Y3704640D01*
X1272235Y3748024D01*
X1266037Y3753154D01*
X1259332Y3756710D01*
X1252118Y3758895D01*
X1244092Y3759708D01*
X1139494Y3759708D01*
X1135888Y3760368D01*
X1132738Y3762298D01*
X1130452Y3765194D01*
X1123543Y3778605D01*
X1115415Y3790238D01*
X1105865Y3800754D01*
X1095044Y3809949D01*
X1083106Y3817721D01*
X1070305Y3823868D01*
X1056843Y3828338D01*
X1042873Y3831082D01*
X1028700Y3831996D01*
X1014526Y3831082D01*
X1000556Y3828338D01*
X987094Y3823868D01*
X974293Y3817721D01*
X962355Y3809949D01*
X951534Y3800754D01*
X941984Y3790238D01*
X933856Y3778605D01*
X927303Y3766007D01*
X922375Y3752646D01*
X919226Y3738778D01*
X917854Y3724656D01*
X918311Y3710432D01*
X920597Y3696411D01*
X924661Y3682796D01*
X930402Y3669792D01*
X937768Y3657650D01*
X946607Y3646525D01*
X956818Y3636670D01*
X968197Y3628186D01*
X980592Y3621176D01*
X993749Y3615842D01*
X1007516Y3612235D01*
X1021587Y3610457D01*
X1035812Y3610457D01*
X1049883Y3612235D01*
X1063650Y3615842D01*
X1076807Y3621176D01*
X1089202Y3628186D01*
X1100582Y3636670D01*
X1110792Y3646525D01*
X1119632Y3657650D01*
X1126998Y3669792D01*
X1129944Y3676446D01*
X1132179Y3679647D01*
X1135430Y3681729D01*
X1139240Y3682492D01*
X1224381Y3682492D01*
X1228293Y3681729D01*
X1231595Y3679494D01*
X1266494Y3644595D01*
X1268730Y3641293D01*
X1269492Y3637381D01*
X1269492Y3470554D01*
X1268730Y3466642D01*
X1266494Y3463340D01*
X1263243Y3461156D01*
X1259332Y3460394D01*
X1255420Y3461156D01*
X1252169Y3463340D01*
X1221435Y3494024D01*
X1215237Y3499154D01*
X1208532Y3502710D01*
X1201318Y3504895D01*
X1193292Y3505708D01*
X1139494Y3505708D01*
X1135888Y3506368D01*
X1132738Y3508298D01*
X1130452Y3511194D01*
X1123543Y3524605D01*
X1115415Y3536238D01*
X1105865Y3546754D01*
X1095044Y3555949D01*
X1083106Y3563721D01*
X1070305Y3569868D01*
X1056843Y3574338D01*
X1042873Y3577082D01*
X1028700Y3577996D01*
X1014526Y3577082D01*
X1000556Y3574338D01*
X987094Y3569868D01*
X974293Y3563721D01*
X962355Y3555949D01*
X951534Y3546754D01*
X941984Y3536238D01*
X933856Y3524605D01*
X927303Y3512007D01*
X922375Y3498646D01*
X919226Y3484778D01*
X917854Y3470656D01*
X918311Y3456432D01*
X920597Y3442411D01*
X924661Y3428796D01*
X930402Y3415792D01*
X937768Y3403650D01*
X946607Y3392525D01*
X956818Y3382670D01*
X968197Y3374186D01*
X980592Y3367176D01*
X993749Y3361842D01*
X1007516Y3358235D01*
X1021587Y3356457D01*
X1035812Y3356457D01*
X1049883Y3358235D01*
X1063650Y3361842D01*
X1076807Y3367176D01*
X1089202Y3374186D01*
X1100582Y3382670D01*
X1110792Y3392525D01*
X1119632Y3403650D01*
X1126998Y3415792D01*
X1129944Y3422446D01*
X1132179Y3425647D01*
X1135430Y3427729D01*
X1139240Y3428492D01*
X1173581Y3428492D01*
X1177493Y3427729D01*
X1180795Y3425494D01*
X1215694Y3390595D01*
X1217930Y3387293D01*
X1218692Y3383381D01*
X1218692Y3112008D01*
X1219504Y3103981D01*
X1221689Y3096768D01*
X1225245Y3090062D01*
X1230376Y3083864D01*
X2093264Y2220976D01*
X2097430Y2217521D01*
X2100072Y2214219D01*
X2101138Y2210104D01*
X2100427Y2205939D01*
X2098040Y2202383D01*
X2092756Y2197252D01*
X2089708Y2192426D01*
X2087829Y2186940D01*
X2087118Y2180640D01*
X2087118Y2087524D01*
X2256637Y2087524D01*
X2256637Y2199132D01*
X2257399Y2203043D01*
X2259634Y2206294D01*
X2262936Y2208530D01*
X2266797Y2209292D01*
X2559202Y2209292D01*
X2563063Y2208530D01*
X2566365Y2206294D01*
X2568600Y2203043D01*
X2569362Y2199132D01*
X2569362Y2087524D01*
X2738932Y2087524D01*
X2738932Y2180640D01*
X2738170Y2186940D01*
X2736291Y2192426D01*
X2735478Y2193747D01*
X2734005Y2197760D01*
X2734310Y2202078D01*
X2736392Y2205837D01*
X2739847Y2208377D01*
X2744063Y2209292D01*
X4107281Y2209292D01*
X4111193Y2208530D01*
X4114495Y2206294D01*
X4301794Y2018995D01*
X4304030Y2015693D01*
X4304792Y2011781D01*
X4304792Y1911908D01*
X4304030Y1907997D01*
X4301794Y1904695D01*
X4300220Y1903120D01*
X4294581Y1895093D01*
X4290466Y1886153D01*
X4287926Y1876704D01*
X4287062Y1866900D01*
X4287926Y1857095D01*
X4290466Y1847646D01*
X4294581Y1838706D01*
X4300220Y1830679D01*
X4307179Y1823720D01*
X4315206Y1818081D01*
X4324146Y1813966D01*
X4333595Y1811426D01*
X4343400Y1810562D01*
X4353204Y1811426D01*
X4362653Y1813966D01*
X4371594Y1818081D01*
X4379620Y1823720D01*
X4386580Y1830679D01*
X4392218Y1838706D01*
X4396333Y1847646D01*
X4398873Y1857095D01*
X4399737Y1866900D01*
X4398975Y1875840D01*
X4399381Y1879803D01*
X4401312Y1883257D01*
X4404410Y1885746D01*
X4408220Y1886864D01*
X4416704Y1887626D01*
X4426153Y1890166D01*
X4435094Y1894281D01*
X4443120Y1899920D01*
X4450080Y1906879D01*
X4455718Y1914906D01*
X4459833Y1923846D01*
X4462373Y1933295D01*
X4463237Y1943100D01*
X4462373Y1952904D01*
X4459833Y1962353D01*
X4455718Y1971293D01*
X4450080Y1979320D01*
X4448505Y1980895D01*
X4446270Y1984197D01*
X4445508Y1988108D01*
X4445508Y2044192D01*
X4444695Y2052218D01*
X4442510Y2059432D01*
X4438954Y2066137D01*
X4433824Y2072335D01*
X4199940Y2306269D01*
X4197756Y2309520D01*
X4196994Y2313432D01*
X4197756Y2317343D01*
X4199940Y2320594D01*
X4203242Y2322830D01*
X4207154Y2323592D01*
X4216095Y2323592D01*
X4222140Y2324252D01*
X4227626Y2326182D01*
X4232554Y2329281D01*
X4234942Y2331364D01*
X4463135Y2559558D01*
X4464862Y2561539D01*
X4468114Y2563926D01*
X4472076Y2564892D01*
X4476038Y2564231D01*
X4479493Y2562047D01*
X4481779Y2558745D01*
X4482592Y2554732D01*
X4482592Y2032507D01*
X4483404Y2024481D01*
X4485589Y2017268D01*
X4489145Y2010562D01*
X4494276Y2004364D01*
X4544364Y1954275D01*
X4550562Y1949145D01*
X4557268Y1945589D01*
X4564481Y1943404D01*
X4572508Y1942592D01*
X6140958Y1942592D01*
X6144818Y1941830D01*
X6148120Y1939594D01*
X6150305Y1936343D01*
X6151118Y1932432D01*
X6151118Y1781759D01*
X6151829Y1775460D01*
X6153708Y1769973D01*
X6156807Y1765096D01*
X6160871Y1760982D01*
X6165799Y1757934D01*
X6171234Y1756003D01*
G37*
G36*
X5237886Y5464403D02*
G01*
X5285638Y5464403D01*
X5285638Y5525770D01*
X5275580Y5520283D01*
X5265775Y5512917D01*
X5257088Y5504281D01*
X5249773Y5494477D01*
X5243880Y5483707D01*
X5239613Y5472226D01*
G37*
G36*
X7675575Y1832914D02*
G01*
X7688122Y1839925D01*
X7705344Y1851710D01*
X7721396Y1865071D01*
X7736128Y1879803D01*
X7749489Y1895856D01*
X7761274Y1913077D01*
X7768285Y1925624D01*
X7675575Y1925624D01*
G37*
G36*
X1173175Y1832914D02*
G01*
X1185722Y1839925D01*
X1202944Y1851710D01*
X1218996Y1865071D01*
X1233728Y1879803D01*
X1247089Y1895856D01*
X1258874Y1913077D01*
X1265885Y1925624D01*
X1173175Y1925624D01*
G37*
G36*
X960475Y1832914D02*
G01*
X960475Y1925624D01*
X867714Y1925624D01*
X874725Y1913077D01*
X886510Y1895856D01*
X899871Y1879803D01*
X914603Y1865071D01*
X930656Y1851710D01*
X947877Y1839925D01*
G37*
G36*
X7462875Y1832914D02*
G01*
X7462875Y1925624D01*
X7370114Y1925624D01*
X7377125Y1913077D01*
X7388910Y1895856D01*
X7402271Y1879803D01*
X7417003Y1865071D01*
X7433056Y1851710D01*
X7450277Y1839925D01*
G37*
G36*
X1741881Y1880311D02*
G01*
X1778711Y1880311D01*
X1778711Y1937359D01*
X1715414Y1937359D01*
X1715414Y1906778D01*
X1716125Y1900428D01*
X1718005Y1894992D01*
X1721104Y1890064D01*
X1725168Y1886000D01*
X1730095Y1882902D01*
X1735531Y1881022D01*
G37*
G36*
X1878888Y1880311D02*
G01*
X1915718Y1880311D01*
X1922068Y1881022D01*
X1927504Y1882902D01*
X1932432Y1886000D01*
X1936496Y1890064D01*
X1939594Y1894992D01*
X1941474Y1900428D01*
X1942185Y1906778D01*
X1942185Y1937359D01*
X1878888Y1937359D01*
G37*
G36*
X1398981Y1880311D02*
G01*
X1572818Y1880311D01*
X1579168Y1881022D01*
X1584604Y1882902D01*
X1589532Y1886000D01*
X1593596Y1890064D01*
X1596694Y1894992D01*
X1598574Y1900428D01*
X1599285Y1906778D01*
X1599285Y2055622D01*
X1598574Y2061972D01*
X1596694Y2067407D01*
X1593596Y2072335D01*
X1589532Y2076399D01*
X1584604Y2079498D01*
X1579168Y2081377D01*
X1572818Y2082088D01*
X1398981Y2082088D01*
X1392631Y2081377D01*
X1387195Y2079498D01*
X1382268Y2076399D01*
X1378204Y2072335D01*
X1375105Y2067407D01*
X1373225Y2061972D01*
X1372514Y2055622D01*
X1372514Y1906778D01*
X1373225Y1900428D01*
X1375105Y1894992D01*
X1378204Y1890064D01*
X1382268Y1886000D01*
X1387195Y1882902D01*
X1392631Y1881022D01*
G37*
G36*
X5358333Y5464403D02*
G01*
X5406085Y5464403D01*
X5404408Y5472226D01*
X5400141Y5483707D01*
X5394248Y5494477D01*
X5386882Y5504281D01*
X5378246Y5512917D01*
X5368442Y5520283D01*
X5358333Y5525770D01*
G37*
G36*
X1715414Y2025040D02*
G01*
X1778711Y2025040D01*
X1778711Y2082088D01*
X1741881Y2082088D01*
X1735531Y2081377D01*
X1730095Y2079498D01*
X1725168Y2076399D01*
X1721104Y2072335D01*
X1718005Y2067407D01*
X1716125Y2061972D01*
X1715414Y2055622D01*
G37*
G36*
X1878888Y2025040D02*
G01*
X1942185Y2025040D01*
X1942185Y2055622D01*
X1941474Y2061972D01*
X1939594Y2067407D01*
X1936496Y2072335D01*
X1932432Y2076399D01*
X1927504Y2079498D01*
X1922068Y2081377D01*
X1915718Y2082088D01*
X1878888Y2082088D01*
G37*
G36*
X4798161Y5464403D02*
G01*
X4845913Y5464403D01*
X4844186Y5472277D01*
X4839919Y5483758D01*
X4834026Y5494477D01*
X4826711Y5504281D01*
X4818024Y5512968D01*
X4808220Y5520334D01*
X4798161Y5525820D01*
G37*
G36*
X1173175Y5440324D02*
G01*
X1265885Y5440324D01*
X1258874Y5452922D01*
X1247089Y5470144D01*
X1233728Y5486196D01*
X1218996Y5500928D01*
X1202944Y5514289D01*
X1185722Y5526074D01*
X1173175Y5533085D01*
G37*
G36*
X7370114Y2138324D02*
G01*
X7462875Y2138324D01*
X7462875Y2231085D01*
X7450277Y2224074D01*
X7433056Y2212289D01*
X7417003Y2198928D01*
X7402271Y2184196D01*
X7388910Y2168144D01*
X7377125Y2150922D01*
G37*
G36*
X7675575Y2138324D02*
G01*
X7768285Y2138324D01*
X7761274Y2150922D01*
X7749489Y2168144D01*
X7736128Y2184196D01*
X7721396Y2198928D01*
X7705344Y2212289D01*
X7688122Y2224074D01*
X7675575Y2231085D01*
G37*
G36*
X1173175Y2138324D02*
G01*
X1265885Y2138324D01*
X1258874Y2150922D01*
X1247089Y2168144D01*
X1233728Y2184196D01*
X1218996Y2198928D01*
X1202944Y2212289D01*
X1185722Y2224074D01*
X1173175Y2231085D01*
G37*
G36*
X867714Y2138324D02*
G01*
X960475Y2138324D01*
X960475Y2231085D01*
X947877Y2224074D01*
X930656Y2212289D01*
X914603Y2198928D01*
X899871Y2184196D01*
X886510Y2168144D01*
X874725Y2150922D01*
G37*
G36*
X867714Y5440324D02*
G01*
X960475Y5440324D01*
X960475Y5533085D01*
X947877Y5526074D01*
X930656Y5514289D01*
X914603Y5500928D01*
X899871Y5486196D01*
X886510Y5470144D01*
X874725Y5452922D01*
G37*
G36*
X7675575Y5440324D02*
G01*
X7768285Y5440324D01*
X7761274Y5452922D01*
X7749489Y5470144D01*
X7736128Y5486196D01*
X7721396Y5500928D01*
X7705344Y5514289D01*
X7688122Y5526074D01*
X7675575Y5533085D01*
G37*
G36*
X7370114Y5440324D02*
G01*
X7462875Y5440324D01*
X7462875Y5533085D01*
X7450277Y5526074D01*
X7433056Y5514289D01*
X7417003Y5500928D01*
X7402271Y5486196D01*
X7388910Y5470144D01*
X7377125Y5452922D01*
G37*
G36*
X7199122Y5429961D02*
G01*
X7243724Y5429961D01*
X7243724Y5435701D01*
X7242809Y5447385D01*
X7240320Y5458460D01*
X7236155Y5469026D01*
X7230465Y5478830D01*
X7223404Y5487720D01*
X7215124Y5495391D01*
X7205725Y5501792D01*
X7199122Y5504992D01*
G37*
G36*
X5919165Y5429961D02*
G01*
X5963716Y5429961D01*
X5963716Y5435701D01*
X5962853Y5447385D01*
X5960313Y5458460D01*
X5956198Y5469026D01*
X5950508Y5478830D01*
X5943447Y5487720D01*
X5935116Y5495391D01*
X5925769Y5501792D01*
X5919165Y5504992D01*
G37*
G36*
X2779522Y5429961D02*
G01*
X2824124Y5429961D01*
X2824124Y5435701D01*
X2823210Y5447385D01*
X2820720Y5458460D01*
X2816555Y5469026D01*
X2810865Y5478830D01*
X2803804Y5487720D01*
X2795524Y5495391D01*
X2786126Y5501792D01*
X2779522Y5504992D01*
G37*
G36*
X5811926Y5429961D02*
G01*
X5856478Y5429961D01*
X5856478Y5504992D01*
X5849874Y5501792D01*
X5840476Y5495391D01*
X5832195Y5487720D01*
X5825134Y5478830D01*
X5819444Y5469026D01*
X5815279Y5458460D01*
X5812790Y5447385D01*
X5811926Y5435701D01*
G37*
G36*
X2672283Y5429961D02*
G01*
X2716834Y5429961D01*
X2716834Y5504992D01*
X2710230Y5501792D01*
X2700883Y5495391D01*
X2692552Y5487720D01*
X2685491Y5478830D01*
X2679801Y5469026D01*
X2675686Y5458460D01*
X2673146Y5447385D01*
X2672283Y5435701D01*
G37*
G36*
X6820408Y2780792D02*
G01*
X7124192Y2780792D01*
X7132218Y2781604D01*
X7139431Y2783789D01*
X7146137Y2787345D01*
X7152335Y2792476D01*
X7196988Y2837078D01*
X7200696Y2839415D01*
X7205014Y2840024D01*
X7213600Y2839262D01*
X7223404Y2840126D01*
X7232853Y2842666D01*
X7241794Y2846781D01*
X7249820Y2852420D01*
X7256780Y2859379D01*
X7262418Y2867406D01*
X7266533Y2876346D01*
X7269073Y2885795D01*
X7269937Y2895600D01*
X7269073Y2905404D01*
X7266533Y2914853D01*
X7262418Y2923794D01*
X7256780Y2931820D01*
X7249820Y2938780D01*
X7241794Y2944418D01*
X7232853Y2948533D01*
X7223404Y2951073D01*
X7213600Y2951937D01*
X7203795Y2951073D01*
X7194346Y2948533D01*
X7185406Y2944418D01*
X7177379Y2938780D01*
X7170420Y2931820D01*
X7169099Y2929890D01*
X7166000Y2926994D01*
X7161936Y2925622D01*
X7157720Y2926029D01*
X7154011Y2928162D01*
X7151522Y2931566D01*
X7150608Y2935732D01*
X7150608Y3409391D01*
X7151370Y3413302D01*
X7153605Y3416604D01*
X7155180Y3418179D01*
X7160818Y3426206D01*
X7164933Y3435146D01*
X7167473Y3444595D01*
X7168337Y3454400D01*
X7167473Y3464204D01*
X7164933Y3473653D01*
X7160818Y3482594D01*
X7155180Y3490620D01*
X7148220Y3497579D01*
X7140194Y3503218D01*
X7131253Y3507333D01*
X7121804Y3509873D01*
X7112000Y3510737D01*
X7102195Y3509873D01*
X7092746Y3507333D01*
X7083806Y3503218D01*
X7075779Y3497579D01*
X7068820Y3490620D01*
X7063181Y3482594D01*
X7059066Y3473653D01*
X7056526Y3464204D01*
X7055662Y3454400D01*
X7056526Y3444595D01*
X7059066Y3435146D01*
X7063181Y3426206D01*
X7068820Y3418179D01*
X7070394Y3416604D01*
X7072630Y3413302D01*
X7073392Y3409391D01*
X7073392Y2951276D01*
X7072884Y2948076D01*
X7071359Y2945231D01*
X7069074Y2942945D01*
X7063079Y2938780D01*
X7056120Y2931820D01*
X7050481Y2923794D01*
X7046366Y2914853D01*
X7043826Y2905404D01*
X7042962Y2895600D01*
X7043826Y2885795D01*
X7046366Y2876346D01*
X7048144Y2872486D01*
X7049109Y2868523D01*
X7048449Y2864510D01*
X7046264Y2861106D01*
X7042912Y2858820D01*
X7038949Y2858008D01*
X6840118Y2858008D01*
X6836206Y2858770D01*
X6832904Y2861005D01*
X6802831Y2891078D01*
X6800799Y2893974D01*
X6799884Y2897378D01*
X6799173Y2905404D01*
X6796633Y2914853D01*
X6792518Y2923794D01*
X6786880Y2931820D01*
X6779920Y2938780D01*
X6771894Y2944418D01*
X6762953Y2948533D01*
X6753504Y2951073D01*
X6743700Y2951937D01*
X6733895Y2951073D01*
X6724446Y2948533D01*
X6715506Y2944418D01*
X6707479Y2938780D01*
X6700520Y2931820D01*
X6694881Y2923794D01*
X6690766Y2914853D01*
X6688226Y2905404D01*
X6687362Y2895600D01*
X6688226Y2885795D01*
X6690766Y2876346D01*
X6694881Y2867406D01*
X6700520Y2859379D01*
X6707479Y2852420D01*
X6715506Y2846781D01*
X6724446Y2842666D01*
X6733895Y2840126D01*
X6741922Y2839415D01*
X6745325Y2838500D01*
X6748221Y2836468D01*
X6792264Y2792476D01*
X6798462Y2787345D01*
X6805168Y2783789D01*
X6812381Y2781604D01*
G37*
G36*
X7091883Y5429961D02*
G01*
X7136434Y5429961D01*
X7136434Y5504992D01*
X7129830Y5501792D01*
X7120483Y5495391D01*
X7112152Y5487720D01*
X7105091Y5478830D01*
X7099401Y5469026D01*
X7095286Y5458460D01*
X7092746Y5447385D01*
X7091883Y5435701D01*
G37*
G36*
X1392326Y5429961D02*
G01*
X1436878Y5429961D01*
X1436878Y5504992D01*
X1430274Y5501792D01*
X1420876Y5495391D01*
X1412595Y5487720D01*
X1405534Y5478830D01*
X1399844Y5469026D01*
X1395679Y5458460D01*
X1393190Y5447385D01*
X1392326Y5435701D01*
G37*
G36*
X1499565Y5429961D02*
G01*
X1544116Y5429961D01*
X1544116Y5435701D01*
X1543253Y5447385D01*
X1540713Y5458460D01*
X1536598Y5469026D01*
X1530908Y5478830D01*
X1523847Y5487720D01*
X1515516Y5495391D01*
X1506169Y5501792D01*
X1499565Y5504992D01*
G37*
G36*
X4197146Y5418378D02*
G01*
X4240834Y5418378D01*
X4238345Y5429402D01*
X4234180Y5439968D01*
X4228490Y5449773D01*
X4221429Y5458663D01*
X4213148Y5466384D01*
X4203750Y5472734D01*
X4197146Y5475935D01*
G37*
G36*
X4090771Y5418378D02*
G01*
X4134459Y5418378D01*
X4134459Y5475935D01*
X4127855Y5472734D01*
X4118508Y5466384D01*
X4110177Y5458663D01*
X4103115Y5449773D01*
X4097426Y5439968D01*
X4093311Y5429402D01*
G37*
G36*
X4725466Y5290312D02*
G01*
X4725466Y5351729D01*
X4677714Y5351729D01*
X4679391Y5343855D01*
X4683658Y5332374D01*
X4689551Y5321655D01*
X4696917Y5311800D01*
X4705553Y5303164D01*
X4715357Y5295798D01*
G37*
G36*
X1077569Y3102203D02*
G01*
X1113129Y3102203D01*
X1119428Y3102914D01*
X1124915Y3104794D01*
X1129792Y3107893D01*
X1133906Y3112008D01*
X1137005Y3116884D01*
X1138885Y3122371D01*
X1139596Y3128670D01*
X1139596Y3164230D01*
X1077569Y3164230D01*
G37*
G36*
X944270Y3102203D02*
G01*
X979830Y3102203D01*
X979830Y3164230D01*
X917803Y3164230D01*
X917803Y3128670D01*
X918514Y3122371D01*
X920394Y3116884D01*
X923493Y3112008D01*
X927608Y3107893D01*
X932484Y3104794D01*
X937971Y3102914D01*
G37*
G36*
X4798161Y5290312D02*
G01*
X4808220Y5295798D01*
X4818024Y5303164D01*
X4826711Y5311800D01*
X4834026Y5321655D01*
X4839919Y5332374D01*
X4844186Y5343855D01*
X4845913Y5351729D01*
X4798161Y5351729D01*
G37*
G36*
X5358333Y5290261D02*
G01*
X5368442Y5295798D01*
X5378246Y5303113D01*
X5386882Y5311800D01*
X5394248Y5321604D01*
X5400141Y5332374D01*
X5404408Y5343855D01*
X5406085Y5351678D01*
X5358333Y5351678D01*
G37*
G36*
X5285638Y5290261D02*
G01*
X5285638Y5351678D01*
X5237886Y5351678D01*
X5239613Y5343855D01*
X5243880Y5332374D01*
X5249773Y5321604D01*
X5257088Y5311800D01*
X5265775Y5303113D01*
X5275580Y5295798D01*
G37*
G36*
X4197146Y5258155D02*
G01*
X4203750Y5261305D01*
X4213148Y5267706D01*
X4221429Y5275427D01*
X4228490Y5284317D01*
X4234180Y5294122D01*
X4238345Y5304688D01*
X4240834Y5315712D01*
X4197146Y5315712D01*
G37*
G36*
X1077569Y3261969D02*
G01*
X1139596Y3261969D01*
X1139596Y3297529D01*
X1138885Y3303828D01*
X1137005Y3309315D01*
X1133906Y3314192D01*
X1129792Y3318306D01*
X1124915Y3321405D01*
X1119428Y3323285D01*
X1113129Y3323996D01*
X1077569Y3323996D01*
G37*
G36*
X917803Y3261969D02*
G01*
X979830Y3261969D01*
X979830Y3323996D01*
X944270Y3323996D01*
X937971Y3323285D01*
X932484Y3321405D01*
X927608Y3318306D01*
X923493Y3314192D01*
X920394Y3309315D01*
X918514Y3303828D01*
X917803Y3297529D01*
G37*
G36*
X7199122Y5217210D02*
G01*
X7205725Y5220360D01*
X7215124Y5226761D01*
X7223404Y5234482D01*
X7230465Y5243322D01*
X7236155Y5253177D01*
X7240320Y5263743D01*
X7242809Y5274767D01*
X7243724Y5286451D01*
X7243724Y5292242D01*
X7199122Y5292242D01*
G37*
G36*
X5856478Y5217210D02*
G01*
X5856478Y5292242D01*
X5811926Y5292242D01*
X5811926Y5286451D01*
X5812790Y5274767D01*
X5815279Y5263743D01*
X5819444Y5253177D01*
X5825134Y5243322D01*
X5832195Y5234482D01*
X5840476Y5226761D01*
X5849874Y5220360D01*
G37*
G36*
X2779522Y5217210D02*
G01*
X2786126Y5220360D01*
X2795524Y5226761D01*
X2803804Y5234482D01*
X2810865Y5243322D01*
X2816555Y5253177D01*
X2820720Y5263743D01*
X2823210Y5274767D01*
X2824124Y5286451D01*
X2824124Y5292242D01*
X2779522Y5292242D01*
G37*
G36*
X2716834Y5217210D02*
G01*
X2716834Y5292242D01*
X2672283Y5292242D01*
X2672283Y5286451D01*
X2673146Y5274767D01*
X2675686Y5263743D01*
X2679801Y5253177D01*
X2685491Y5243322D01*
X2692552Y5234482D01*
X2700883Y5226761D01*
X2710230Y5220360D01*
G37*
G36*
X5919165Y5217210D02*
G01*
X5925769Y5220360D01*
X5935116Y5226761D01*
X5943447Y5234482D01*
X5950508Y5243322D01*
X5956198Y5253177D01*
X5960313Y5263743D01*
X5962853Y5274767D01*
X5963716Y5286451D01*
X5963716Y5292242D01*
X5919165Y5292242D01*
G37*
G36*
X7136434Y5217210D02*
G01*
X7136434Y5292242D01*
X7091883Y5292242D01*
X7091883Y5286451D01*
X7092746Y5274767D01*
X7095286Y5263743D01*
X7099401Y5253177D01*
X7105091Y5243322D01*
X7112152Y5234482D01*
X7120483Y5226761D01*
X7129830Y5220360D01*
G37*
G36*
X1499565Y5217210D02*
G01*
X1506169Y5220360D01*
X1515516Y5226761D01*
X1523847Y5234482D01*
X1530908Y5243322D01*
X1536598Y5253177D01*
X1540713Y5263743D01*
X1543253Y5274767D01*
X1544116Y5286451D01*
X1544116Y5292242D01*
X1499565Y5292242D01*
G37*
G36*
X1436878Y5217210D02*
G01*
X1436878Y5292242D01*
X1392326Y5292242D01*
X1392326Y5286451D01*
X1393190Y5274767D01*
X1395679Y5263743D01*
X1399844Y5253177D01*
X1405534Y5243322D01*
X1412595Y5234482D01*
X1420876Y5226761D01*
X1430274Y5220360D01*
G37*
G36*
X7462875Y5134914D02*
G01*
X7462875Y5227624D01*
X7370114Y5227624D01*
X7377125Y5215077D01*
X7388910Y5197856D01*
X7402271Y5181803D01*
X7417003Y5167071D01*
X7433056Y5153710D01*
X7450277Y5141925D01*
G37*
G36*
X1173175Y5134914D02*
G01*
X1185722Y5141925D01*
X1202944Y5153710D01*
X1218996Y5167071D01*
X1233728Y5181803D01*
X1247089Y5197856D01*
X1258874Y5215077D01*
X1265885Y5227624D01*
X1173175Y5227624D01*
G37*
G36*
X960475Y5134914D02*
G01*
X960475Y5227624D01*
X867714Y5227624D01*
X874725Y5215077D01*
X886510Y5197856D01*
X899871Y5181803D01*
X914603Y5167071D01*
X930656Y5153710D01*
X947877Y5141925D01*
G37*
G36*
X1021587Y3864457D02*
G01*
X1035812Y3864457D01*
X1049883Y3866235D01*
X1063650Y3869842D01*
X1076807Y3875176D01*
X1089202Y3882186D01*
X1100582Y3890670D01*
X1110792Y3900525D01*
X1119632Y3911650D01*
X1126998Y3923792D01*
X1132789Y3936796D01*
X1136802Y3950411D01*
X1139088Y3964432D01*
X1139545Y3978656D01*
X1138174Y3992778D01*
X1135024Y4006646D01*
X1130096Y4020007D01*
X1123543Y4032605D01*
X1115415Y4044238D01*
X1105865Y4054754D01*
X1095044Y4063949D01*
X1083106Y4071721D01*
X1070305Y4077868D01*
X1056843Y4082338D01*
X1042873Y4085082D01*
X1028700Y4085996D01*
X1014526Y4085082D01*
X1000556Y4082338D01*
X987094Y4077868D01*
X974293Y4071721D01*
X962355Y4063949D01*
X951534Y4054754D01*
X941984Y4044238D01*
X933856Y4032605D01*
X927303Y4020007D01*
X922375Y4006646D01*
X919226Y3992778D01*
X917854Y3978656D01*
X918311Y3964432D01*
X920597Y3950411D01*
X924661Y3936796D01*
X930402Y3923792D01*
X937768Y3911650D01*
X946607Y3900525D01*
X956818Y3890670D01*
X968197Y3882186D01*
X980592Y3875176D01*
X993749Y3869842D01*
X1007516Y3866235D01*
G37*
G36*
X7675575Y5134914D02*
G01*
X7688122Y5141925D01*
X7705344Y5153710D01*
X7721396Y5167071D01*
X7736128Y5181803D01*
X7749489Y5197856D01*
X7761274Y5215077D01*
X7768285Y5227624D01*
X7675575Y5227624D01*
G37*
G36*
X7705598Y4160012D02*
G01*
X7716266Y4160875D01*
X7726680Y4163364D01*
X7736636Y4167479D01*
X7745780Y4173067D01*
X7753908Y4180027D01*
X7760868Y4188206D01*
X7766507Y4197350D01*
X7770622Y4207256D01*
X7773111Y4217670D01*
X7773924Y4228388D01*
X7773111Y4239107D01*
X7770622Y4249521D01*
X7766507Y4259427D01*
X7760868Y4268571D01*
X7753908Y4276750D01*
X7745780Y4283710D01*
X7736636Y4289298D01*
X7726680Y4293412D01*
X7716266Y4295902D01*
X7705598Y4296765D01*
X7694879Y4295902D01*
X7684465Y4293412D01*
X7674508Y4289298D01*
X7665364Y4283710D01*
X7657236Y4276750D01*
X7650276Y4268571D01*
X7644638Y4259427D01*
X7640523Y4249521D01*
X7638034Y4239107D01*
X7637221Y4228388D01*
X7638034Y4217670D01*
X7640523Y4207256D01*
X7644638Y4197350D01*
X7650276Y4188206D01*
X7657236Y4180027D01*
X7665364Y4173067D01*
X7674508Y4167479D01*
X7684465Y4163364D01*
X7694879Y4160875D01*
G37*
G36*
X5244388Y5129682D02*
G01*
X5254193Y5130952D01*
X5263642Y5133848D01*
X5272481Y5138318D01*
X5280456Y5144160D01*
X5287314Y5151323D01*
X5292852Y5159552D01*
X5296916Y5168544D01*
X5299456Y5178145D01*
X5300268Y5188000D01*
X5299456Y5197856D01*
X5296916Y5207457D01*
X5292852Y5216448D01*
X5287314Y5224678D01*
X5280456Y5231841D01*
X5272481Y5237683D01*
X5263642Y5242153D01*
X5254193Y5245049D01*
X5244388Y5246319D01*
X5234482Y5245912D01*
X5224830Y5243830D01*
X5215636Y5240121D01*
X5207203Y5234940D01*
X5199735Y5228386D01*
X5193538Y5220665D01*
X5188712Y5212029D01*
X5185410Y5202732D01*
X5183733Y5192928D01*
X5183733Y5183073D01*
X5185410Y5173268D01*
X5188712Y5163972D01*
X5193538Y5155336D01*
X5199735Y5147614D01*
X5207203Y5141061D01*
X5215636Y5135880D01*
X5224830Y5132171D01*
X5234482Y5130088D01*
G37*
G36*
X4844389Y5129682D02*
G01*
X4854194Y5130952D01*
X4863642Y5133848D01*
X4872482Y5138318D01*
X4880457Y5144160D01*
X4887315Y5151323D01*
X4892852Y5159552D01*
X4896916Y5168544D01*
X4899456Y5178145D01*
X4900269Y5188000D01*
X4899456Y5197856D01*
X4896916Y5207457D01*
X4892852Y5216448D01*
X4887315Y5224678D01*
X4880457Y5231841D01*
X4872482Y5237683D01*
X4863642Y5242153D01*
X4854194Y5245049D01*
X4844389Y5246319D01*
X4834483Y5245912D01*
X4824831Y5243830D01*
X4815636Y5240121D01*
X4807204Y5234940D01*
X4799736Y5228386D01*
X4793538Y5220665D01*
X4788712Y5212029D01*
X4785410Y5202732D01*
X4783734Y5192928D01*
X4783734Y5183073D01*
X4785410Y5173268D01*
X4788712Y5163972D01*
X4793538Y5155336D01*
X4799736Y5147614D01*
X4807204Y5141061D01*
X4815636Y5135880D01*
X4824831Y5132171D01*
X4834483Y5130088D01*
G37*
G36*
X6222238Y4665522D02*
G01*
X6269583Y4665522D01*
X6268923Y4667148D01*
X6261963Y4678883D01*
X6253530Y4689551D01*
X6243726Y4699050D01*
X6232753Y4707128D01*
X6222238Y4712868D01*
G37*
G36*
X6086144Y4665522D02*
G01*
X6133338Y4665522D01*
X6133338Y4712766D01*
X6128715Y4710633D01*
X6117234Y4703267D01*
X6106820Y4694478D01*
X6097676Y4684369D01*
X6089954Y4673142D01*
G37*
G36*
X6133338Y4529429D02*
G01*
X6133338Y4576622D01*
X6086144Y4576622D01*
X6089954Y4569053D01*
X6097676Y4557826D01*
X6106820Y4547717D01*
X6117234Y4538929D01*
X6128715Y4531563D01*
G37*
G36*
X7705598Y4390034D02*
G01*
X7716266Y4390898D01*
X7726680Y4393387D01*
X7736636Y4397502D01*
X7745780Y4403090D01*
X7753908Y4410049D01*
X7760868Y4418228D01*
X7766507Y4427372D01*
X7770622Y4437278D01*
X7773111Y4447692D01*
X7773924Y4458411D01*
X7773111Y4469130D01*
X7770622Y4479544D01*
X7766507Y4489450D01*
X7760868Y4498594D01*
X7753908Y4506772D01*
X7745780Y4513732D01*
X7736636Y4519320D01*
X7726680Y4523435D01*
X7716266Y4525924D01*
X7705598Y4526788D01*
X7694879Y4525924D01*
X7684465Y4523435D01*
X7674508Y4519320D01*
X7665364Y4513732D01*
X7657236Y4506772D01*
X7650276Y4498594D01*
X7644638Y4489450D01*
X7640523Y4479544D01*
X7638034Y4469130D01*
X7637221Y4458411D01*
X7638034Y4447692D01*
X7640523Y4437278D01*
X7644638Y4427372D01*
X7650276Y4418228D01*
X7657236Y4410049D01*
X7665364Y4403090D01*
X7674508Y4397502D01*
X7684465Y4393387D01*
X7694879Y4390898D01*
G37*
G36*
X6222238Y4529328D02*
G01*
X6232753Y4535068D01*
X6243726Y4543145D01*
X6253530Y4552645D01*
X6261963Y4563313D01*
X6268923Y4575048D01*
X6269583Y4576622D01*
X6222238Y4576622D01*
G37*
G36*
X2569362Y1755292D02*
G01*
X2712415Y1755292D01*
X2718765Y1756003D01*
X2724200Y1757934D01*
X2729128Y1760982D01*
X2733192Y1765096D01*
X2736291Y1769973D01*
X2738170Y1775460D01*
X2738932Y1781759D01*
X2738932Y1874824D01*
X2569362Y1874824D01*
G37*
G36*
X6802170Y4518964D02*
G01*
X6953453Y4518964D01*
X6959752Y4519726D01*
X6965188Y4521606D01*
X6970115Y4524705D01*
X6974179Y4528769D01*
X6977278Y4533696D01*
X6979208Y4539132D01*
X6979920Y4545482D01*
X6979920Y4696714D01*
X6979208Y4703064D01*
X6977278Y4708499D01*
X6974179Y4713427D01*
X6970115Y4717491D01*
X6965188Y4720590D01*
X6959752Y4722469D01*
X6953453Y4723180D01*
X6802170Y4723180D01*
X6795871Y4722469D01*
X6790385Y4720590D01*
X6785508Y4717491D01*
X6781393Y4713427D01*
X6778294Y4708499D01*
X6776415Y4703064D01*
X6775703Y4696714D01*
X6775703Y4545482D01*
X6776415Y4539132D01*
X6778294Y4533696D01*
X6781393Y4528769D01*
X6785508Y4524705D01*
X6790385Y4521606D01*
X6795871Y4519726D01*
G37*

%LPD*%
G36*
X3280613Y5258308D02*
G01*
X3276752Y5259070D01*
X3273450Y5261305D01*
X3271215Y5264556D01*
X3270453Y5268468D01*
X3270453Y5315712D01*
X3236468Y5315712D01*
X3232556Y5316474D01*
X3229305Y5318658D01*
X3227070Y5321960D01*
X3226308Y5325872D01*
X3226308Y5408218D01*
X3227070Y5412130D01*
X3229305Y5415432D01*
X3232556Y5417616D01*
X3236468Y5418378D01*
X3270453Y5418378D01*
X3270453Y5463032D01*
X3271215Y5466943D01*
X3273450Y5470194D01*
X3276752Y5472430D01*
X3280613Y5473192D01*
X3322980Y5473192D01*
X3326892Y5472430D01*
X3330194Y5470194D01*
X3332378Y5466943D01*
X3333140Y5463032D01*
X3333140Y5418378D01*
X3376828Y5418378D01*
X3374339Y5429402D01*
X3370173Y5439968D01*
X3364484Y5449773D01*
X3358997Y5456682D01*
X3357219Y5460034D01*
X3356813Y5463794D01*
X3357778Y5467451D01*
X3360013Y5470499D01*
X3363214Y5472480D01*
X3366922Y5473192D01*
X3789781Y5473192D01*
X3793693Y5472430D01*
X3796995Y5470194D01*
X3953459Y5313730D01*
X3955643Y5310479D01*
X3956405Y5306568D01*
X3955643Y5302656D01*
X3953459Y5299405D01*
X3950157Y5297170D01*
X3946245Y5296408D01*
X3493008Y5296408D01*
X3484981Y5295595D01*
X3477768Y5293410D01*
X3471062Y5289854D01*
X3464864Y5284724D01*
X3441395Y5261305D01*
X3438093Y5259070D01*
X3434181Y5258308D01*
X3364839Y5258308D01*
X3361131Y5259019D01*
X3357930Y5261000D01*
X3355695Y5264048D01*
X3354730Y5267706D01*
X3355136Y5271465D01*
X3356914Y5274818D01*
X3364484Y5284317D01*
X3370173Y5294122D01*
X3374339Y5304688D01*
X3376828Y5315712D01*
X3333140Y5315712D01*
X3333140Y5268468D01*
X3332378Y5264556D01*
X3330194Y5261305D01*
X3326892Y5259070D01*
X3322980Y5258308D01*
G37*

%LPD*%
G36*
X3216554Y4788408D02*
G01*
X3212642Y4789170D01*
X3209340Y4791405D01*
X3207156Y4794656D01*
X3206394Y4798568D01*
X3207156Y4802479D01*
X3209340Y4805730D01*
X3240379Y4836820D01*
X3242513Y4838395D01*
X3245510Y4839563D01*
X3249828Y4839766D01*
X3253841Y4838141D01*
X3263849Y4831334D01*
X3270453Y4828184D01*
X3270453Y4893208D01*
X3261867Y4893208D01*
X3257956Y4893970D01*
X3254705Y4896154D01*
X3252470Y4899456D01*
X3251708Y4903368D01*
X3251708Y5000752D01*
X3252470Y5004612D01*
X3254705Y5007914D01*
X3257956Y5010150D01*
X3261867Y5010912D01*
X3270453Y5010912D01*
X3270453Y5056632D01*
X3271215Y5060543D01*
X3273399Y5063794D01*
X3276701Y5066030D01*
X3280613Y5066792D01*
X3322980Y5066792D01*
X3326892Y5066030D01*
X3330143Y5063794D01*
X3332378Y5060543D01*
X3333140Y5056632D01*
X3333140Y5010912D01*
X3376472Y5010912D01*
X3380384Y5010150D01*
X3383686Y5007914D01*
X3385870Y5004612D01*
X3386632Y5000752D01*
X3386632Y4997094D01*
X3388309Y4987340D01*
X3391611Y4977993D01*
X3396437Y4969357D01*
X3402634Y4961636D01*
X3410102Y4955133D01*
X3418535Y4949952D01*
X3427729Y4946243D01*
X3437382Y4944160D01*
X3447287Y4943754D01*
X3457092Y4944973D01*
X3466541Y4947869D01*
X3475380Y4952339D01*
X3483356Y4958232D01*
X3490214Y4965395D01*
X3495751Y4973574D01*
X3497986Y4978501D01*
X3500221Y4981702D01*
X3503574Y4983784D01*
X3507435Y4984445D01*
X3511245Y4983632D01*
X3514496Y4981397D01*
X3516629Y4978146D01*
X3517392Y4974285D01*
X3517392Y4808118D01*
X3516629Y4804206D01*
X3514394Y4800904D01*
X3504895Y4791405D01*
X3501593Y4789170D01*
X3497681Y4788408D01*
G37*

%LPC*%
G36*
X3333140Y4828184D02*
G01*
X3339744Y4831334D01*
X3349091Y4837734D01*
X3357422Y4845456D01*
X3364484Y4854295D01*
X3370173Y4864150D01*
X3374288Y4874666D01*
X3376828Y4885740D01*
X3377387Y4893208D01*
X3333140Y4893208D01*
G37*

%LPD*%
G36*
X3647084Y4648708D02*
G01*
X3643071Y4649520D01*
X3639667Y4651908D01*
X3637534Y4655464D01*
X3636975Y4659528D01*
X3638042Y4663490D01*
X3640632Y4666742D01*
X3647135Y4672076D01*
X3887724Y4912664D01*
X3892854Y4918862D01*
X3896410Y4925568D01*
X3898595Y4932781D01*
X3899408Y4940808D01*
X3899408Y5085181D01*
X3900170Y5089093D01*
X3902405Y5092395D01*
X3919778Y5109768D01*
X3922674Y5111800D01*
X3926078Y5112715D01*
X3934104Y5113426D01*
X3943553Y5115966D01*
X3952494Y5120081D01*
X3960520Y5125720D01*
X3967479Y5132679D01*
X3973118Y5140706D01*
X3977233Y5149646D01*
X3979773Y5159095D01*
X3980027Y5161940D01*
X3981094Y5165648D01*
X3983431Y5168646D01*
X3986682Y5170627D01*
X3990441Y5171236D01*
X3994200Y5170373D01*
X3997350Y5168239D01*
X4061764Y5103876D01*
X4067962Y5098745D01*
X4074668Y5095189D01*
X4081881Y5093004D01*
X4089908Y5092192D01*
X4123690Y5092192D01*
X4127500Y5091430D01*
X4130751Y5089347D01*
X4132986Y5086146D01*
X4133850Y5082336D01*
X4133189Y5078526D01*
X4131208Y5075224D01*
X4118508Y5066385D01*
X4110177Y5058664D01*
X4103115Y5049824D01*
X4097426Y5039969D01*
X4093260Y5029301D01*
X4091127Y5025999D01*
X4087876Y5023713D01*
X4084015Y5022850D01*
X4080154Y5023510D01*
X4076801Y5025593D01*
X4074515Y5028844D01*
X4073753Y5030520D01*
X4068216Y5038699D01*
X4061358Y5045862D01*
X4053382Y5051755D01*
X4044543Y5056225D01*
X4035094Y5059121D01*
X4025290Y5060340D01*
X4015384Y5059934D01*
X4005732Y5057851D01*
X3996537Y5054142D01*
X3988104Y5048961D01*
X3980637Y5042458D01*
X3974439Y5034737D01*
X3969613Y5026101D01*
X3966311Y5016754D01*
X3964635Y5007000D01*
X3964635Y4997094D01*
X3966311Y4987340D01*
X3969613Y4977993D01*
X3974439Y4969357D01*
X3980637Y4961636D01*
X3988104Y4955133D01*
X3996537Y4949952D01*
X4005732Y4946243D01*
X4015384Y4944160D01*
X4025290Y4943754D01*
X4035094Y4944973D01*
X4044543Y4947869D01*
X4053382Y4952339D01*
X4061358Y4958232D01*
X4068216Y4965395D01*
X4073753Y4973574D01*
X4077817Y4982616D01*
X4080357Y4992166D01*
X4081119Y5001615D01*
X4082135Y5005222D01*
X4084370Y5008219D01*
X4087571Y5010200D01*
X4091279Y5010912D01*
X4134459Y5010912D01*
X4134459Y5082032D01*
X4135221Y5085943D01*
X4137406Y5089194D01*
X4140708Y5091430D01*
X4144619Y5092192D01*
X4186986Y5092192D01*
X4190898Y5091430D01*
X4194149Y5089194D01*
X4196384Y5085943D01*
X4197146Y5082032D01*
X4197146Y5010912D01*
X4241393Y5010912D01*
X4240834Y5018379D01*
X4238294Y5029403D01*
X4234180Y5039969D01*
X4228490Y5049824D01*
X4221429Y5058664D01*
X4213098Y5066385D01*
X4203496Y5072888D01*
X4200398Y5075224D01*
X4198366Y5078526D01*
X4197756Y5082336D01*
X4198620Y5086146D01*
X4200855Y5089347D01*
X4204106Y5091430D01*
X4207916Y5092192D01*
X4234281Y5092192D01*
X4238193Y5091430D01*
X4241495Y5089194D01*
X4442764Y4887976D01*
X4448962Y4882845D01*
X4455668Y4879289D01*
X4462881Y4877104D01*
X4468266Y4876546D01*
X4471924Y4875479D01*
X4474921Y4873142D01*
X4476851Y4869840D01*
X4477410Y4866132D01*
X4476597Y4862423D01*
X4474464Y4859274D01*
X4266895Y4651705D01*
X4263593Y4649470D01*
X4259681Y4648708D01*
G37*

%LPC*%
G36*
X4134459Y4828184D02*
G01*
X4134459Y4893208D01*
X4090212Y4893208D01*
X4090771Y4885740D01*
X4093311Y4874666D01*
X4097426Y4864150D01*
X4103115Y4854295D01*
X4110177Y4845456D01*
X4118508Y4837734D01*
X4127855Y4831334D01*
G37*
G36*
X4197146Y4828184D02*
G01*
X4203750Y4831334D01*
X4213098Y4837734D01*
X4221429Y4845456D01*
X4228490Y4854295D01*
X4234180Y4864150D01*
X4238294Y4874666D01*
X4240834Y4885740D01*
X4241393Y4893208D01*
X4197146Y4893208D01*
G37*

%LPD*%
G36*
X1674368Y4336694D02*
G01*
X1670456Y4337456D01*
X1667205Y4339640D01*
X1664970Y4342942D01*
X1664207Y4346854D01*
X1664207Y4546803D01*
X1665020Y4550765D01*
X1667306Y4554118D01*
X1670710Y4556252D01*
X1674723Y4556963D01*
X1678635Y4555998D01*
X1681886Y4553610D01*
X1687220Y4547717D01*
X1697634Y4538929D01*
X1709115Y4531563D01*
X1713738Y4529429D01*
X1713738Y4576622D01*
X1674368Y4576622D01*
X1670456Y4577435D01*
X1667205Y4579620D01*
X1664970Y4582922D01*
X1664207Y4586782D01*
X1664207Y4655362D01*
X1664970Y4659274D01*
X1667205Y4662576D01*
X1670456Y4664760D01*
X1674368Y4665522D01*
X1713738Y4665522D01*
X1713738Y4713732D01*
X1714500Y4717643D01*
X1716735Y4720894D01*
X1720037Y4723130D01*
X1723898Y4723892D01*
X1792478Y4723892D01*
X1796389Y4723130D01*
X1799691Y4720894D01*
X1801875Y4717643D01*
X1802638Y4713732D01*
X1802638Y4665522D01*
X1849983Y4665522D01*
X1849323Y4667148D01*
X1842363Y4678883D01*
X1833930Y4689551D01*
X1824126Y4699050D01*
X1815287Y4705553D01*
X1812493Y4708702D01*
X1811223Y4712716D01*
X1811680Y4716881D01*
X1813763Y4720539D01*
X1817217Y4723028D01*
X1821332Y4723892D01*
X1945132Y4723892D01*
X1949348Y4722977D01*
X1952802Y4720386D01*
X1954885Y4716576D01*
X1955190Y4712258D01*
X1953666Y4708194D01*
X1950567Y4705146D01*
X1947621Y4703267D01*
X1937207Y4694478D01*
X1928063Y4684369D01*
X1920341Y4673142D01*
X1914194Y4660950D01*
X1909724Y4648047D01*
X1907032Y4634687D01*
X1906117Y4621072D01*
X1907032Y4607509D01*
X1909724Y4594148D01*
X1914194Y4581245D01*
X1920341Y4569053D01*
X1928063Y4557826D01*
X1937207Y4547717D01*
X1946808Y4539640D01*
X1949297Y4536389D01*
X1950364Y4532426D01*
X1949754Y4528362D01*
X1947621Y4524908D01*
X1944268Y4522520D01*
X1940204Y4521708D01*
X1880107Y4521708D01*
X1872081Y4520895D01*
X1864868Y4518710D01*
X1858162Y4515154D01*
X1851964Y4510024D01*
X1681530Y4339640D01*
X1678279Y4337456D01*
G37*

%LPC*%
G36*
X1802638Y4529328D02*
G01*
X1813153Y4535068D01*
X1824126Y4543145D01*
X1833930Y4552645D01*
X1842363Y4563313D01*
X1849323Y4575048D01*
X1849983Y4576622D01*
X1802638Y4576622D01*
G37*

%LPD*%
G36*
X2230018Y3137408D02*
G01*
X2226106Y3138170D01*
X2222804Y3140405D01*
X1933905Y3429304D01*
X1931670Y3432606D01*
X1930907Y3436518D01*
X1930907Y4018991D01*
X1931670Y4022902D01*
X1933905Y4026204D01*
X1935480Y4027779D01*
X1941118Y4035806D01*
X1945233Y4044746D01*
X1947773Y4054195D01*
X1948637Y4064000D01*
X1947773Y4073804D01*
X1945233Y4083253D01*
X1941118Y4092194D01*
X1935480Y4100220D01*
X1928520Y4107179D01*
X1920493Y4112818D01*
X1911553Y4116933D01*
X1902104Y4119473D01*
X1892300Y4120337D01*
X1882495Y4119473D01*
X1873046Y4116933D01*
X1869186Y4115155D01*
X1865223Y4114190D01*
X1861210Y4114850D01*
X1857806Y4117035D01*
X1855520Y4120387D01*
X1854707Y4124350D01*
X1854707Y4196181D01*
X1855470Y4200093D01*
X1857705Y4203395D01*
X1862378Y4208068D01*
X1865274Y4210100D01*
X1868678Y4211015D01*
X1876704Y4211726D01*
X1886153Y4214266D01*
X1895093Y4218381D01*
X1903120Y4224020D01*
X1910080Y4230979D01*
X1915718Y4239006D01*
X1919833Y4247946D01*
X1922373Y4257395D01*
X1923237Y4267200D01*
X1922373Y4277004D01*
X1919833Y4286453D01*
X1915718Y4295394D01*
X1910080Y4303420D01*
X1903120Y4310380D01*
X1895093Y4316018D01*
X1886153Y4320133D01*
X1876704Y4322673D01*
X1866900Y4323537D01*
X1863191Y4323232D01*
X1859127Y4323689D01*
X1855571Y4325772D01*
X1853082Y4329074D01*
X1852168Y4333036D01*
X1852879Y4337100D01*
X1855114Y4340555D01*
X1892604Y4377994D01*
X1895906Y4380230D01*
X1899818Y4380992D01*
X2133092Y4380992D01*
X2141118Y4381804D01*
X2148332Y4383989D01*
X2155037Y4387545D01*
X2161235Y4392676D01*
X2235200Y4466640D01*
X2240330Y4472838D01*
X2243886Y4479544D01*
X2246071Y4486757D01*
X2246884Y4494784D01*
X2246884Y4520133D01*
X2247544Y4523689D01*
X2249373Y4526788D01*
X2252167Y4529023D01*
X2263140Y4535068D01*
X2274112Y4543145D01*
X2283917Y4552645D01*
X2292350Y4563313D01*
X2299309Y4575048D01*
X2304643Y4587595D01*
X2308250Y4600752D01*
X2310028Y4614265D01*
X2310028Y4627930D01*
X2308250Y4641443D01*
X2304643Y4654600D01*
X2299309Y4667148D01*
X2292350Y4678883D01*
X2283917Y4689551D01*
X2274112Y4699050D01*
X2265273Y4705553D01*
X2262479Y4708702D01*
X2261209Y4712716D01*
X2261666Y4716881D01*
X2263749Y4720539D01*
X2267204Y4723028D01*
X2271318Y4723892D01*
X2350008Y4723892D01*
X2354173Y4722977D01*
X2357577Y4720488D01*
X2359710Y4716780D01*
X2360066Y4712563D01*
X2356815Y4703064D01*
X2356104Y4696714D01*
X2356104Y4545482D01*
X2356815Y4539132D01*
X2358694Y4533696D01*
X2361793Y4528769D01*
X2365908Y4524705D01*
X2370785Y4521606D01*
X2376271Y4519726D01*
X2382570Y4518964D01*
X2533853Y4518964D01*
X2540152Y4519726D01*
X2545588Y4521606D01*
X2550515Y4524705D01*
X2554579Y4528769D01*
X2557678Y4533696D01*
X2559608Y4539132D01*
X2560320Y4545482D01*
X2560320Y4696714D01*
X2559608Y4703064D01*
X2556306Y4712563D01*
X2556713Y4716780D01*
X2558796Y4720488D01*
X2562250Y4722977D01*
X2566416Y4723892D01*
X2634081Y4723892D01*
X2637993Y4723130D01*
X2641295Y4720894D01*
X2690164Y4672076D01*
X2696362Y4666945D01*
X2703068Y4663389D01*
X2710281Y4661204D01*
X2718308Y4660392D01*
X3096615Y4660392D01*
X3100628Y4659528D01*
X3104032Y4657191D01*
X3106166Y4653635D01*
X3106724Y4649571D01*
X3105658Y4645609D01*
X3103067Y4642358D01*
X3096564Y4637024D01*
X2843276Y4383735D01*
X2838145Y4377537D01*
X2834589Y4370832D01*
X2832404Y4363618D01*
X2831592Y4355592D01*
X2831592Y3245408D01*
X2830830Y3241497D01*
X2828594Y3238195D01*
X2827020Y3236620D01*
X2821381Y3228594D01*
X2817266Y3219653D01*
X2814726Y3210204D01*
X2813862Y3200400D01*
X2814726Y3190595D01*
X2817266Y3181146D01*
X2821381Y3172206D01*
X2827020Y3164179D01*
X2833979Y3157220D01*
X2835910Y3155899D01*
X2838805Y3152800D01*
X2840177Y3148736D01*
X2839770Y3144520D01*
X2837637Y3140811D01*
X2834233Y3138322D01*
X2830068Y3137408D01*
G37*

%LPC*%
G36*
X2425700Y3520541D02*
G01*
X2435504Y3521405D01*
X2444953Y3523945D01*
X2453894Y3528060D01*
X2461920Y3533698D01*
X2468880Y3540658D01*
X2474518Y3548684D01*
X2478633Y3557625D01*
X2481173Y3567074D01*
X2482037Y3576878D01*
X2481173Y3586683D01*
X2478633Y3596132D01*
X2474518Y3605072D01*
X2468880Y3613099D01*
X2461920Y3620058D01*
X2453894Y3625697D01*
X2444953Y3629812D01*
X2435504Y3632352D01*
X2425700Y3633215D01*
X2415895Y3632352D01*
X2406446Y3629812D01*
X2397506Y3625697D01*
X2389479Y3620058D01*
X2382520Y3613099D01*
X2376881Y3605072D01*
X2372766Y3596132D01*
X2370226Y3586683D01*
X2369362Y3576878D01*
X2370226Y3567074D01*
X2372766Y3557625D01*
X2376881Y3548684D01*
X2382520Y3540658D01*
X2389479Y3533698D01*
X2397506Y3528060D01*
X2406446Y3523945D01*
X2415895Y3521405D01*
G37*
G36*
X2425700Y3224784D02*
G01*
X2435504Y3225647D01*
X2444953Y3228187D01*
X2453894Y3232302D01*
X2461920Y3237941D01*
X2468880Y3244900D01*
X2474518Y3252927D01*
X2478633Y3261867D01*
X2481173Y3271316D01*
X2482037Y3281121D01*
X2481173Y3290925D01*
X2478633Y3300374D01*
X2474518Y3309315D01*
X2468880Y3317341D01*
X2461920Y3324301D01*
X2453894Y3329940D01*
X2444953Y3334054D01*
X2435504Y3336594D01*
X2425700Y3337458D01*
X2415895Y3336594D01*
X2406446Y3334054D01*
X2397506Y3329940D01*
X2389479Y3324301D01*
X2382520Y3317341D01*
X2376881Y3309315D01*
X2372766Y3300374D01*
X2370226Y3290925D01*
X2369362Y3281121D01*
X2370226Y3271316D01*
X2372766Y3261867D01*
X2376881Y3252927D01*
X2382520Y3244900D01*
X2389479Y3237941D01*
X2397506Y3232302D01*
X2406446Y3228187D01*
X2415895Y3225647D01*
G37*

%LPD*%
G36*
X3965854Y2565908D02*
G01*
X3961942Y2566670D01*
X3958640Y2568905D01*
X3956456Y2572156D01*
X3955694Y2576068D01*
X3956456Y2579979D01*
X3958640Y2583230D01*
X3970578Y2595168D01*
X3973474Y2597200D01*
X3976878Y2598115D01*
X3984904Y2598826D01*
X3994353Y2601366D01*
X4003294Y2605481D01*
X4011320Y2611120D01*
X4018279Y2618079D01*
X4023918Y2626106D01*
X4028033Y2635046D01*
X4030573Y2644495D01*
X4031437Y2654300D01*
X4030573Y2664104D01*
X4028033Y2673553D01*
X4023918Y2682494D01*
X4018279Y2690520D01*
X4011320Y2697480D01*
X4003294Y2703118D01*
X3994353Y2707233D01*
X3984904Y2709773D01*
X3975100Y2710637D01*
X3965295Y2709773D01*
X3955846Y2707233D01*
X3946906Y2703118D01*
X3934561Y2694228D01*
X3930650Y2693466D01*
X3926738Y2694228D01*
X3914394Y2703118D01*
X3905453Y2707233D01*
X3896004Y2709773D01*
X3886200Y2710637D01*
X3876395Y2709773D01*
X3866946Y2707233D01*
X3858006Y2703118D01*
X3845661Y2694228D01*
X3841750Y2693466D01*
X3837838Y2694228D01*
X3825494Y2703118D01*
X3816553Y2707233D01*
X3807104Y2709773D01*
X3797300Y2710637D01*
X3787495Y2709773D01*
X3778046Y2707233D01*
X3769106Y2703118D01*
X3761079Y2697480D01*
X3753662Y2690063D01*
X3750411Y2687878D01*
X3746500Y2687116D01*
X3742588Y2687878D01*
X3739337Y2690063D01*
X3731920Y2697480D01*
X3723894Y2703118D01*
X3714953Y2707233D01*
X3705504Y2709773D01*
X3695700Y2710637D01*
X3685895Y2709773D01*
X3676446Y2707233D01*
X3667506Y2703118D01*
X3659479Y2697480D01*
X3652520Y2690520D01*
X3646881Y2682443D01*
X3644087Y2679750D01*
X3640480Y2678277D01*
X3636619Y2678277D01*
X3633012Y2679750D01*
X3630218Y2682443D01*
X3624579Y2690520D01*
X3617620Y2697480D01*
X3609594Y2703118D01*
X3600653Y2707233D01*
X3591204Y2709773D01*
X3581400Y2710637D01*
X3571595Y2709773D01*
X3562146Y2707233D01*
X3553206Y2703118D01*
X3545179Y2697480D01*
X3543604Y2695905D01*
X3540302Y2693670D01*
X3536391Y2692908D01*
X3442868Y2692908D01*
X3439261Y2693568D01*
X3436112Y2695498D01*
X3433826Y2698445D01*
X3432759Y2702001D01*
X3433064Y2705709D01*
X3433673Y2707995D01*
X3434537Y2717800D01*
X3433673Y2727604D01*
X3431133Y2737053D01*
X3427018Y2745994D01*
X3421379Y2754020D01*
X3414420Y2760980D01*
X3406394Y2766618D01*
X3397453Y2770733D01*
X3388004Y2773273D01*
X3378200Y2774137D01*
X3368395Y2773273D01*
X3358946Y2770733D01*
X3350006Y2766618D01*
X3341979Y2760980D01*
X3340404Y2759405D01*
X3337102Y2757170D01*
X3333191Y2756408D01*
X2230018Y2756408D01*
X2226106Y2757170D01*
X2222804Y2759405D01*
X2155240Y2826969D01*
X2153056Y2830220D01*
X2152294Y2834132D01*
X2153056Y2838043D01*
X2155240Y2841294D01*
X2158542Y2843530D01*
X2162454Y2844292D01*
X3314192Y2844292D01*
X3322218Y2845104D01*
X3329432Y2847289D01*
X3336137Y2850845D01*
X3342335Y2855976D01*
X3373678Y2887268D01*
X3376574Y2889300D01*
X3379978Y2890215D01*
X3388004Y2890926D01*
X3397453Y2893466D01*
X3406394Y2897581D01*
X3414420Y2903220D01*
X3421379Y2910179D01*
X3427018Y2918206D01*
X3431133Y2927146D01*
X3433673Y2936595D01*
X3434537Y2946400D01*
X3433673Y2956204D01*
X3431133Y2965653D01*
X3427018Y2974594D01*
X3421379Y2982620D01*
X3414420Y2989580D01*
X3406394Y2995218D01*
X3397453Y2999333D01*
X3388004Y3001873D01*
X3378200Y3002737D01*
X3368395Y3001873D01*
X3357727Y2999028D01*
X3353714Y2998673D01*
X3349853Y2999892D01*
X3346805Y3002534D01*
X3345027Y3006140D01*
X3342233Y3016453D01*
X3338118Y3025394D01*
X3332479Y3033420D01*
X3325520Y3040380D01*
X3317494Y3046018D01*
X3308553Y3050133D01*
X3299104Y3052673D01*
X3289300Y3053537D01*
X3279495Y3052673D01*
X3268827Y3049828D01*
X3264814Y3049473D01*
X3260953Y3050692D01*
X3257905Y3053334D01*
X3256127Y3056940D01*
X3253333Y3067253D01*
X3249218Y3076194D01*
X3243580Y3084220D01*
X3236620Y3091180D01*
X3228594Y3096818D01*
X3219653Y3100933D01*
X3210204Y3103473D01*
X3200400Y3104337D01*
X3190595Y3103473D01*
X3179927Y3100628D01*
X3175914Y3100273D01*
X3172053Y3101492D01*
X3169005Y3104134D01*
X3167227Y3107740D01*
X3164433Y3118053D01*
X3160318Y3126994D01*
X3154680Y3135020D01*
X3147720Y3141980D01*
X3139694Y3147618D01*
X3130753Y3151733D01*
X3121304Y3154273D01*
X3111500Y3155137D01*
X3101695Y3154273D01*
X3092246Y3151733D01*
X3083306Y3147618D01*
X3075279Y3141980D01*
X3073704Y3140405D01*
X3070402Y3138170D01*
X3066491Y3137408D01*
X3024632Y3137408D01*
X3020466Y3138322D01*
X3017062Y3140811D01*
X3014929Y3144520D01*
X3014522Y3148736D01*
X3015894Y3152800D01*
X3018790Y3155899D01*
X3020720Y3157220D01*
X3027680Y3164179D01*
X3033318Y3172206D01*
X3037433Y3181146D01*
X3039973Y3190595D01*
X3040837Y3200400D01*
X3039973Y3210204D01*
X3037433Y3219653D01*
X3033318Y3228594D01*
X3027680Y3236620D01*
X3026105Y3238195D01*
X3023870Y3241497D01*
X3023108Y3245408D01*
X3023108Y3290417D01*
X3023971Y3294481D01*
X3026359Y3297885D01*
X3029915Y3300018D01*
X3034030Y3300577D01*
X3037992Y3299409D01*
X3041192Y3296767D01*
X3043072Y3293059D01*
X3045866Y3282746D01*
X3049981Y3273806D01*
X3055620Y3265779D01*
X3062579Y3258820D01*
X3070606Y3253181D01*
X3079546Y3249066D01*
X3088995Y3246526D01*
X3098800Y3245662D01*
X3108604Y3246526D01*
X3118053Y3249066D01*
X3126994Y3253181D01*
X3135020Y3258820D01*
X3141980Y3265779D01*
X3147618Y3273806D01*
X3151733Y3282746D01*
X3154273Y3292195D01*
X3155137Y3302000D01*
X3154273Y3311804D01*
X3151632Y3321812D01*
X3151327Y3325672D01*
X3152546Y3329330D01*
X3155035Y3332327D01*
X3158439Y3334156D01*
X3172104Y3335426D01*
X3181553Y3337966D01*
X3190494Y3342081D01*
X3198520Y3347720D01*
X3205480Y3354679D01*
X3211118Y3362706D01*
X3215233Y3371646D01*
X3217773Y3381095D01*
X3218637Y3390900D01*
X3217773Y3400704D01*
X3217316Y3402533D01*
X3217011Y3406343D01*
X3218180Y3410000D01*
X3220567Y3412947D01*
X3223920Y3414826D01*
X3227679Y3415334D01*
X3241395Y3411626D01*
X3251200Y3410762D01*
X3261004Y3411626D01*
X3270453Y3414166D01*
X3279394Y3418281D01*
X3287420Y3423920D01*
X3294379Y3430879D01*
X3300018Y3438906D01*
X3304133Y3447846D01*
X3306673Y3457295D01*
X3306978Y3460699D01*
X3308045Y3464407D01*
X3310382Y3467404D01*
X3313633Y3469386D01*
X3317392Y3469995D01*
X3321151Y3469182D01*
X3324301Y3466998D01*
X3329279Y3462020D01*
X3337306Y3456381D01*
X3346246Y3452266D01*
X3355695Y3449726D01*
X3365500Y3448862D01*
X3375304Y3449726D01*
X3384753Y3452266D01*
X3393694Y3456381D01*
X3401720Y3462020D01*
X3408679Y3468979D01*
X3414318Y3477006D01*
X3418433Y3485946D01*
X3420973Y3495395D01*
X3421837Y3505200D01*
X3420973Y3515004D01*
X3418433Y3524453D01*
X3414268Y3533444D01*
X3410610Y3538931D01*
X3406394Y3544011D01*
X3404717Y3547008D01*
X3404108Y3550462D01*
X3404108Y4132681D01*
X3404870Y4136593D01*
X3407105Y4139895D01*
X3506724Y4239564D01*
X3511854Y4245762D01*
X3515410Y4252468D01*
X3517595Y4259681D01*
X3518408Y4267708D01*
X3518408Y4272991D01*
X3519170Y4276902D01*
X3521405Y4280204D01*
X3522979Y4281779D01*
X3528618Y4289806D01*
X3532733Y4298746D01*
X3535273Y4308195D01*
X3536137Y4318000D01*
X3535273Y4327804D01*
X3532733Y4337253D01*
X3528618Y4346194D01*
X3522979Y4354220D01*
X3516020Y4361180D01*
X3507994Y4366818D01*
X3499053Y4370933D01*
X3488740Y4373727D01*
X3485032Y4375607D01*
X3482390Y4378807D01*
X3481222Y4382770D01*
X3481781Y4386884D01*
X3483914Y4390440D01*
X3487318Y4392828D01*
X3491382Y4393692D01*
X4342892Y4393692D01*
X4350918Y4394504D01*
X4358132Y4396689D01*
X4364837Y4400245D01*
X4371035Y4405376D01*
X4610404Y4644694D01*
X4613706Y4646930D01*
X4617618Y4647692D01*
X4696968Y4647692D01*
X4701133Y4646777D01*
X4704537Y4644288D01*
X4706670Y4640580D01*
X4707077Y4636363D01*
X4705705Y4632299D01*
X4702810Y4629200D01*
X4700879Y4627880D01*
X4693920Y4620920D01*
X4688281Y4612894D01*
X4684166Y4603953D01*
X4681626Y4594504D01*
X4680762Y4584700D01*
X4681626Y4574895D01*
X4682083Y4573066D01*
X4682388Y4569256D01*
X4681220Y4565599D01*
X4678832Y4562652D01*
X4675479Y4560773D01*
X4671720Y4560265D01*
X4658004Y4563973D01*
X4648200Y4564837D01*
X4638395Y4563973D01*
X4628946Y4561433D01*
X4620006Y4557318D01*
X4611979Y4551680D01*
X4605020Y4544720D01*
X4599381Y4536694D01*
X4595266Y4527753D01*
X4592726Y4518304D01*
X4591862Y4508500D01*
X4592726Y4498695D01*
X4595266Y4489246D01*
X4599381Y4480306D01*
X4605020Y4472279D01*
X4606594Y4470704D01*
X4608830Y4467402D01*
X4609592Y4463491D01*
X4609592Y4046118D01*
X4608830Y4042206D01*
X4606594Y4038904D01*
X4520895Y3953205D01*
X4517593Y3950970D01*
X4513681Y3950208D01*
X3632708Y3950208D01*
X3624681Y3949395D01*
X3617468Y3947210D01*
X3610762Y3943654D01*
X3604564Y3938524D01*
X3478276Y3812235D01*
X3473145Y3806037D01*
X3469589Y3799332D01*
X3467404Y3792118D01*
X3466592Y3784092D01*
X3466592Y3512108D01*
X3465829Y3508197D01*
X3463594Y3504895D01*
X3462020Y3503320D01*
X3456381Y3495294D01*
X3452266Y3486353D01*
X3449726Y3476904D01*
X3448862Y3467100D01*
X3449726Y3457295D01*
X3452266Y3447846D01*
X3456381Y3438906D01*
X3462020Y3430879D01*
X3468979Y3423920D01*
X3477006Y3418281D01*
X3485946Y3414166D01*
X3495395Y3411626D01*
X3505200Y3410762D01*
X3515004Y3411626D01*
X3524453Y3414166D01*
X3533394Y3418281D01*
X3541420Y3423920D01*
X3548379Y3430879D01*
X3554018Y3438906D01*
X3558133Y3447846D01*
X3560673Y3457295D01*
X3561537Y3467100D01*
X3560673Y3476904D01*
X3558133Y3486353D01*
X3554018Y3495294D01*
X3548379Y3503320D01*
X3546805Y3504895D01*
X3544570Y3508197D01*
X3543808Y3512108D01*
X3543808Y3533749D01*
X3544620Y3537712D01*
X3546906Y3541064D01*
X3550310Y3543249D01*
X3554323Y3543909D01*
X3558286Y3542944D01*
X3562146Y3541166D01*
X3571595Y3538626D01*
X3581400Y3537762D01*
X3591204Y3538626D01*
X3600653Y3541166D01*
X3609594Y3545281D01*
X3617620Y3550920D01*
X3624579Y3557879D01*
X3630218Y3565906D01*
X3634333Y3574846D01*
X3636873Y3584295D01*
X3637737Y3594100D01*
X3636873Y3603904D01*
X3634333Y3613353D01*
X3630218Y3622294D01*
X3624579Y3630320D01*
X3623005Y3631895D01*
X3620770Y3635197D01*
X3620008Y3639108D01*
X3620008Y3658717D01*
X3620871Y3662781D01*
X3623259Y3666185D01*
X3626815Y3668318D01*
X3630929Y3668877D01*
X3634892Y3667709D01*
X3638092Y3665067D01*
X3639972Y3661359D01*
X3642766Y3651046D01*
X3646881Y3642106D01*
X3652520Y3634079D01*
X3659479Y3627120D01*
X3667506Y3621481D01*
X3676446Y3617366D01*
X3685895Y3614826D01*
X3695700Y3613962D01*
X3705504Y3614826D01*
X3714953Y3617366D01*
X3723894Y3621481D01*
X3731920Y3627120D01*
X3733495Y3628694D01*
X3736797Y3630929D01*
X3740708Y3631692D01*
X3898392Y3631692D01*
X3906418Y3632504D01*
X3913632Y3634689D01*
X3920337Y3638245D01*
X3926535Y3643376D01*
X3944569Y3661359D01*
X3947820Y3663543D01*
X3951732Y3664305D01*
X3955643Y3663543D01*
X3958894Y3661359D01*
X3961129Y3658057D01*
X3961892Y3654145D01*
X3961892Y3556558D01*
X3962603Y3550259D01*
X3964533Y3544773D01*
X3967581Y3539896D01*
X3971696Y3535781D01*
X3976573Y3532733D01*
X3982059Y3530803D01*
X3988358Y3530092D01*
X4176064Y3530092D01*
X4179925Y3529329D01*
X4183227Y3527094D01*
X4276394Y3433927D01*
X4278630Y3430625D01*
X4279392Y3426764D01*
X4279392Y2656535D01*
X4278630Y2652674D01*
X4276394Y2649372D01*
X4195927Y2568905D01*
X4192625Y2566670D01*
X4188764Y2565908D01*
G37*

%LPD*%
G36*
X3928516Y2349500D02*
G01*
X3924604Y2350262D01*
X3921302Y2352497D01*
X3914597Y2359202D01*
X3912362Y2362504D01*
X3911600Y2366416D01*
X3911600Y2523083D01*
X3912362Y2526995D01*
X3914597Y2530297D01*
X3921302Y2537002D01*
X3924604Y2539238D01*
X3928516Y2540000D01*
X4202684Y2540000D01*
X4204411Y2540711D01*
X4304588Y2640888D01*
X4305300Y2642616D01*
X4305300Y3440684D01*
X4304588Y3442411D01*
X4191711Y3555288D01*
X4189984Y3556000D01*
X3997960Y3556000D01*
X3994048Y3556762D01*
X3990797Y3558997D01*
X3988562Y3562248D01*
X3987800Y3566160D01*
X3987800Y3666083D01*
X3988562Y3669995D01*
X3990797Y3673297D01*
X3997502Y3680002D01*
X4000804Y3682237D01*
X4004716Y3683000D01*
X4250283Y3683000D01*
X4254195Y3682237D01*
X4257497Y3680002D01*
X4442002Y3495497D01*
X4444238Y3492195D01*
X4445000Y3488283D01*
X4445000Y2582316D01*
X4444238Y2578404D01*
X4442002Y2575102D01*
X4219397Y2352497D01*
X4216095Y2350262D01*
X4212183Y2349500D01*
G37*

%LPD*%
G36*
X3708400Y3416300D02*
G01*
X3708400Y2984500D01*
X4140200Y2984500D01*
X4140200Y3416300D01*
G37*
D10*
X1943100Y4343400D02*
G01*
X1943100Y4140200D01*
X2033397Y4049903D01*
X2133600Y4049903D01*
X3378200Y2946400D02*
G01*
X3314700Y2882900D01*
X2120900Y2882900D01*
X1701800Y3302000D01*
X1701800Y4305300D01*
X1879600Y4483100D01*
X1968500Y4483100D01*
X2008124Y4522723D01*
X2008124Y4621021D01*
X3289300Y2997200D02*
G01*
X3238500Y2946400D01*
X2159000Y2946400D01*
X1752600Y3352800D01*
X1752600Y4292600D01*
X1879600Y4419600D01*
X2133600Y4419600D01*
X2208275Y4494276D01*
X2208275Y4621021D01*
X4559300Y3759200D02*
G01*
X4800600Y4000500D01*
X4800600Y4292600D01*
X4902200Y4394200D01*
X5232400Y4394200D01*
X5397500Y4559300D01*
X5524500Y4559300D01*
X1028700Y3467100D02*
G01*
X1193800Y3467100D01*
X1257300Y3403600D01*
X1257300Y3111500D01*
X2120900Y2247900D01*
X4127500Y2247900D01*
X4343400Y2032000D01*
X4343400Y1866900D01*
X1028700Y3721100D02*
G01*
X1244600Y3721100D01*
X1308100Y3657600D01*
X1308100Y3124200D01*
X2133600Y2298700D01*
X4152900Y2298700D01*
X4406900Y2044700D01*
X4406900Y1943100D01*
X3975100Y2654300D02*
G01*
X3733800Y2413000D01*
X2133600Y2413000D01*
X1371600Y3175000D01*
X1371600Y4864100D01*
X1549400Y5041900D01*
X2743200Y5041900D01*
X2819400Y4965700D01*
X3035300Y4965700D01*
X3060700Y4991100D01*
X3060700Y5156200D01*
X3187700Y5283200D01*
X3187700Y5461000D01*
X3238500Y5511800D01*
X3810000Y5511800D01*
X4127500Y5194300D01*
X4292600Y5194300D01*
X4495800Y4991100D01*
X4965700Y4991100D01*
X3886200Y2654300D02*
G01*
X3695700Y2463800D01*
X2159000Y2463800D01*
X1422400Y3200400D01*
X1422400Y4838700D01*
X1574800Y4991100D01*
X2730500Y4991100D01*
X2819400Y4902200D01*
X3073400Y4902200D01*
X3111500Y4940300D01*
X3111500Y5118100D01*
X3213100Y5219700D01*
X3454400Y5219700D01*
X3492500Y5257800D01*
X3962400Y5257800D01*
X4089400Y5130800D01*
X4254500Y5130800D01*
X4470400Y4914900D01*
X5016500Y4914900D01*
X3378200Y2717800D02*
G01*
X2209800Y2717800D01*
X1625600Y3302000D01*
X1625600Y4699000D01*
X1689100Y4762500D01*
X2654300Y4762500D01*
X2717800Y4699000D01*
X3619500Y4699000D01*
X3860800Y4940300D01*
X3860800Y5105400D01*
X3924300Y5168900D01*
X3581400Y2654300D02*
G01*
X2197100Y2654300D01*
X1574800Y3276600D01*
X1574800Y4737100D01*
X1663700Y4826000D01*
X2662427Y4826000D01*
X2738627Y4749800D01*
X3517900Y4749800D01*
X3556000Y4787900D01*
X3556000Y5029200D01*
X2870200Y3200400D02*
G01*
X2870200Y4356100D01*
X3124200Y4610100D01*
X4279900Y4610100D01*
X4521200Y4851400D01*
X6324600Y4851400D01*
X6427724Y4748276D01*
X6427724Y4621021D01*
X7099300Y2895600D02*
G01*
X7112000Y2908300D01*
X7112000Y3454400D01*
X6743700Y2895600D02*
G01*
X6819900Y2819400D01*
X7124700Y2819400D01*
X7200900Y2895600D01*
X7213600Y2895600D01*
X3835400Y3759200D02*
G01*
X3848100Y3771900D01*
X4356100Y3771900D01*
X4470400Y3657600D01*
X7035800Y3657600D01*
X7340600Y3962400D01*
X7340600Y4267200D01*
X3695700Y3670300D02*
G01*
X3898900Y3670300D01*
X3949700Y3721100D01*
X4318000Y3721100D01*
X4521200Y3517900D01*
X4521200Y2032000D01*
X4572000Y1981200D01*
X6477000Y1981200D01*
X2984500Y3200400D02*
G01*
X2984500Y4343400D01*
X3200400Y4559300D01*
X4305300Y4559300D01*
X4533900Y4787900D01*
X5981700Y4787900D01*
X3098800Y3302000D02*
G01*
X3098800Y4343400D01*
X3251200Y4495800D01*
X4318000Y4495800D01*
X4559300Y4737100D01*
X5753100Y4737100D01*
X5905500Y4584700D01*
X5905500Y4483100D01*
X5981700Y4406900D01*
X6248400Y4406900D01*
X3162300Y3390900D02*
G01*
X3162300Y4318000D01*
X3276600Y4432300D01*
X4343400Y4432300D01*
X4597400Y4686300D01*
X5727700Y4686300D01*
X5854700Y4559300D01*
X5854700Y4457700D01*
X6019800Y4292600D01*
X6337300Y4292600D01*
X3365500Y3505200D02*
G01*
X3365500Y4152900D01*
X3479800Y4267200D01*
X3479800Y4318000D01*
X3581400Y3594100D02*
G01*
X3581400Y3784600D01*
X3657600Y3860800D01*
X4572000Y3860800D01*
X4737100Y4025900D01*
X4737100Y4584700D01*
X3797300Y2654300D02*
G01*
X3657600Y2514600D01*
X2184400Y2514600D01*
X1473200Y3225800D01*
X1473200Y4813300D01*
X1600200Y4940300D01*
X2705100Y4940300D01*
X2794000Y4851400D01*
X3111500Y4851400D01*
X3162300Y4902200D01*
X3162300Y5092700D01*
X3238500Y5168900D01*
X3556000Y5168900D01*
X3695700Y2654300D02*
G01*
X3619500Y2578100D01*
X2197100Y2578100D01*
X1524000Y3251200D01*
X1524000Y4775200D01*
X1638300Y4889500D01*
X2682747Y4889500D01*
X2771647Y4800600D01*
X3149600Y4800600D01*
X3213100Y4864100D01*
X3213100Y5067300D01*
X3251200Y5105400D01*
X3721100Y5105400D01*
X3784600Y5041900D01*
X3200400Y3048000D02*
G01*
X3175000Y3022600D01*
X2184400Y3022600D01*
X1816100Y3390900D01*
X1816100Y4216400D01*
X1866900Y4267200D01*
X3111500Y3098800D02*
G01*
X2209800Y3098800D01*
X1892300Y3416300D01*
X1892300Y4064000D01*
X3365500Y3505200D02*
G01*
X3378200Y3517900D01*
X3251200Y3467100D02*
G01*
X3251200Y4191000D01*
X3378200Y4318000D01*
D12*
X4178300Y3632200D02*
G01*
X4229100Y3632200D01*
X4394200Y3467100D01*
X4394200Y2603500D01*
X4230502Y2439794D01*
X4013200Y2439794D01*
D10*
X3505200Y3467100D02*
G01*
X3505200Y3784600D01*
X3632200Y3911600D01*
X4533900Y3911600D01*
X4648200Y4025900D01*
X4648200Y4508500D01*
D39*
G01*
X1028700Y3213100D03*
D40*
G01*
X1028700Y3467100D03*
G01*
X1028700Y3721100D03*
G01*
X1028700Y3975100D03*
D41*
G01*
X1758213Y4621098D03*
G01*
X2008200Y4621098D03*
G01*
X2208199Y4621098D03*
D42*
G01*
X2458186Y4621098D03*
D41*
G01*
X6177813Y4621098D03*
G01*
X6427800Y4621098D03*
G01*
X6627799Y4621098D03*
D42*
G01*
X6877811Y4621098D03*
D43*
G01*
X1066800Y5334000D03*
G01*
X7569200Y5334000D03*
G01*
X1066800Y2032000D03*
G01*
X7569200Y2032000D03*
D44*
G01*
X6477000Y1981200D03*
G01*
X2413000Y1981200D03*
G36*
X1741299Y2056201D02*
G01*
X1916300Y2056201D01*
X1916300Y1906198D01*
X1741299Y1906198D01*
G37*
G36*
X1398399Y2056201D02*
G01*
X1573400Y2056201D01*
X1573400Y1906198D01*
X1398399Y1906198D01*
G37*
D16*
G01*
X3974312Y3250387D03*
G01*
X3874312Y3250387D03*
G01*
X3874312Y3150387D03*
G01*
X3974312Y3150387D03*
G01*
X6184900Y2693796D03*
G01*
X6451600Y2693796D03*
G01*
X6731000Y2693796D03*
G01*
X6985000Y2693796D03*
G01*
X7251700Y2693796D03*
G01*
X1892300Y4064000D03*
G01*
X3378200Y4318000D03*
G01*
X4648200Y4508500D03*
G01*
X2425700Y3576878D03*
G01*
X2425700Y3281121D03*
G01*
X4025900Y3632200D03*
G01*
X4102100Y3632200D03*
G01*
X4178300Y3632200D03*
G01*
X4013200Y2439796D03*
G01*
X3695700Y3670300D03*
G01*
X3581400Y3594100D03*
G01*
X3505200Y3467100D03*
G01*
X4737100Y4584700D03*
G01*
X3365500Y3505200D03*
G01*
X3251200Y3467100D03*
G01*
X3162300Y3390900D03*
G01*
X3098800Y3302000D03*
G01*
X3111500Y3098800D03*
G01*
X3200400Y3048000D03*
G01*
X3289300Y2997200D03*
G01*
X3378200Y2946400D03*
G01*
X3975100Y2654300D03*
G01*
X3886200Y2654300D03*
G01*
X3695700Y2654300D03*
G01*
X3797300Y2654300D03*
G01*
X3378200Y2717800D03*
G01*
X3581400Y2654300D03*
G01*
X3479800Y4318000D03*
G01*
X1866900Y4267200D03*
G01*
X6337300Y4292600D03*
G01*
X3784600Y5041900D03*
G01*
X3556000Y5168900D03*
G01*
X3924300Y5168900D03*
G01*
X3556000Y5029200D03*
G01*
X5016500Y4914900D03*
G01*
X4965700Y4991100D03*
G01*
X2984500Y3200400D03*
G01*
X2870200Y3200400D03*
G01*
X6248400Y4406900D03*
G01*
X5981700Y4787900D03*
G01*
X4559300Y3759200D03*
G01*
X5524500Y4559300D03*
G01*
X3835400Y3759200D03*
G01*
X7340600Y4267200D03*
G01*
X6743700Y2895600D03*
G01*
X7099300Y2895600D03*
G01*
X7213600Y2895600D03*
G01*
X7112000Y3454400D03*
G01*
X4343400Y1866900D03*
G01*
X4406900Y1943100D03*
G01*
X5334000Y3454400D03*
G01*
X5461000Y3454400D03*
G01*
X5588000Y3454400D03*
G01*
X5715000Y3454400D03*
G01*
X5842000Y3454400D03*
G01*
X5969000Y3454400D03*
G01*
X6096000Y3454400D03*
G01*
X6223000Y3454400D03*
G01*
X6350000Y3454400D03*
G01*
X6350000Y3302000D03*
G01*
X6223000Y3302000D03*
G01*
X6096000Y3302000D03*
G01*
X5969000Y3302000D03*
G01*
X5842000Y3302000D03*
G01*
X5715000Y3302000D03*
G01*
X5588000Y3302000D03*
G01*
X5461000Y3302000D03*
G01*
X5334000Y3302000D03*
G01*
X6350000Y3048000D03*
G01*
X6223000Y3048000D03*
G01*
X6096000Y3048000D03*
G01*
X5969000Y3048000D03*
G01*
X5842000Y3048000D03*
G01*
X5715000Y3048000D03*
G01*
X5588000Y3048000D03*
G01*
X5461000Y3048000D03*
G01*
X5334000Y3048000D03*
G01*
X6350000Y3175000D03*
G01*
X6223000Y3175000D03*
G01*
X6096000Y3175000D03*
G01*
X5969000Y3175000D03*
G01*
X5842000Y3175000D03*
G01*
X5715000Y3175000D03*
G01*
X5588000Y3175000D03*
G01*
X5461000Y3175000D03*
G01*
X5334000Y3175000D03*
G01*
X3784600Y3251200D03*
G01*
X3784600Y3149600D03*
G01*
X3784600Y3048000D03*
G01*
X3873500Y3048000D03*
G01*
X3975100Y3048000D03*
G01*
X4064000Y3048000D03*
G01*
X4064000Y3149600D03*
G01*
X4064000Y3251200D03*
G01*
X4064000Y3340100D03*
G01*
X3975100Y3340100D03*
G01*
X3873500Y3340100D03*
G01*
X3784600Y3340100D03*
G01*
X2133600Y4049903D03*
G01*
X3644900Y4316603D03*
G01*
X4914900Y4519803D03*
G01*
X6540500Y4011803D03*
G01*
X1943100Y4343400D03*
D12*
X2748203Y5286100D02*
G01*
X2748203Y5436100D01*
X1468221Y5286100D02*
G01*
X1468221Y5436100D01*
X7167803Y5286100D02*
G01*
X7167803Y5436100D01*
X5887821Y5286100D02*
G01*
X5887821Y5436100D01*
X4165803Y5327045D02*
G01*
X4165803Y5407045D01*
X3301796Y4897059D02*
G01*
X3301796Y5007061D01*
X4165803Y4897059D02*
G01*
X4165803Y5007061D01*
X3301796Y5327045D02*
G01*
X3301796Y5407045D01*
D46*
X5321909Y5447969D02*
G01*
X5321909Y5367959D01*
X4761890Y5447995D02*
G01*
X4761890Y5367985D01*
M02*
