G04 Layer: TopSolderMaskLayer*
G04 EasyEDA v6.5.1, 2022-04-03 23:05:39*
G04 0caac7c7161345fe919d254c63c90933,10*
G04 Gerber Generator version 0.2*
G04 Scale: 100 percent, Rotated: No, Reflected: No *
G04 Dimensions in millimeters *
G04 leading zeros omitted , absolute positions ,4 integer and 5 decimal *
%FSLAX45Y45*%
%MOMM*%

%ADD54C,1.1016*%
%ADD55C,1.3015*%
%ADD63C,1.8016*%
%ADD75C,1.6256*%
%ADD82C,4.1016*%

%LPD*%
D54*
X2748203Y5286100D02*
G01*
X2748203Y5436100D01*
X1468221Y5286100D02*
G01*
X1468221Y5436100D01*
X7167803Y5286100D02*
G01*
X7167803Y5436100D01*
X5887821Y5286100D02*
G01*
X5887821Y5436100D01*
X4165803Y5327045D02*
G01*
X4165803Y5407045D01*
X3301796Y4897059D02*
G01*
X3301796Y5007061D01*
X4165803Y4897059D02*
G01*
X4165803Y5007061D01*
X3301796Y5327045D02*
G01*
X3301796Y5407045D01*
D55*
X5321909Y5447969D02*
G01*
X5321909Y5367959D01*
X4761890Y5447995D02*
G01*
X4761890Y5367985D01*
G36*
X1499362Y3631692D02*
G01*
X1499362Y3721862D01*
X1599437Y3721862D01*
X1599437Y3631692D01*
G37*
G36*
X1499362Y3491737D02*
G01*
X1499362Y3581907D01*
X1599437Y3581907D01*
X1599437Y3491737D01*
G37*
G36*
X6045961Y4139692D02*
G01*
X6045961Y4229862D01*
X6146038Y4229862D01*
X6146038Y4139692D01*
G37*
G36*
X6045961Y3999737D02*
G01*
X6045961Y4089907D01*
X6146038Y4089907D01*
X6146038Y3999737D01*
G37*
G36*
X6112256Y2412237D02*
G01*
X6112256Y2563368D01*
X6257543Y2563368D01*
X6257543Y2412237D01*
G37*
G36*
X6112256Y2618231D02*
G01*
X6112256Y2769362D01*
X6257543Y2769362D01*
X6257543Y2618231D01*
G37*
G36*
X6378956Y2412237D02*
G01*
X6378956Y2563368D01*
X6524243Y2563368D01*
X6524243Y2412237D01*
G37*
G36*
X6378956Y2618231D02*
G01*
X6378956Y2769362D01*
X6524243Y2769362D01*
X6524243Y2618231D01*
G37*
G36*
X6912356Y2412237D02*
G01*
X6912356Y2563368D01*
X7057643Y2563368D01*
X7057643Y2412237D01*
G37*
G36*
X6912356Y2618231D02*
G01*
X6912356Y2769362D01*
X7057643Y2769362D01*
X7057643Y2618231D01*
G37*
G36*
X2873756Y2364231D02*
G01*
X2873756Y2515362D01*
X3019043Y2515362D01*
X3019043Y2364231D01*
G37*
G36*
X2873756Y2158237D02*
G01*
X2873756Y2309368D01*
X3019043Y2309368D01*
X3019043Y2158237D01*
G37*
G36*
X3140456Y2364231D02*
G01*
X3140456Y2515362D01*
X3285743Y2515362D01*
X3285743Y2364231D01*
G37*
G36*
X3140456Y2158237D02*
G01*
X3140456Y2309368D01*
X3285743Y2309368D01*
X3285743Y2158237D01*
G37*
G36*
X3407156Y2364231D02*
G01*
X3407156Y2515362D01*
X3552443Y2515362D01*
X3552443Y2364231D01*
G37*
G36*
X3407156Y2158237D02*
G01*
X3407156Y2309368D01*
X3552443Y2309368D01*
X3552443Y2158237D01*
G37*
G36*
X2060956Y4180331D02*
G01*
X2060956Y4331462D01*
X2206243Y4331462D01*
X2206243Y4180331D01*
G37*
G36*
X2060956Y3974337D02*
G01*
X2060956Y4125468D01*
X2206243Y4125468D01*
X2206243Y3974337D01*
G37*
G36*
X1853437Y3661155D02*
G01*
X1853437Y3806444D01*
X2004568Y3806444D01*
X2004568Y3661155D01*
G37*
G36*
X2059431Y3661155D02*
G01*
X2059431Y3806444D01*
X2210561Y3806444D01*
X2210561Y3661155D01*
G37*
G36*
X6467856Y4142231D02*
G01*
X6467856Y4293362D01*
X6613143Y4293362D01*
X6613143Y4142231D01*
G37*
G36*
X6467856Y3936237D02*
G01*
X6467856Y4087368D01*
X6613143Y4087368D01*
X6613143Y3936237D01*
G37*
G36*
X3572256Y4447031D02*
G01*
X3572256Y4598162D01*
X3717543Y4598162D01*
X3717543Y4447031D01*
G37*
G36*
X3572256Y4241037D02*
G01*
X3572256Y4392168D01*
X3717543Y4392168D01*
X3717543Y4241037D01*
G37*
G36*
X3940556Y2364231D02*
G01*
X3940556Y2515362D01*
X4085843Y2515362D01*
X4085843Y2364231D01*
G37*
G36*
X3940556Y2158237D02*
G01*
X3940556Y2309368D01*
X4085843Y2309368D01*
X4085843Y2158237D01*
G37*
G36*
X4842256Y4650231D02*
G01*
X4842256Y4801362D01*
X4987543Y4801362D01*
X4987543Y4650231D01*
G37*
G36*
X4842256Y4444237D02*
G01*
X4842256Y4595368D01*
X4987543Y4595368D01*
X4987543Y4444237D01*
G37*
G36*
X6658356Y2412237D02*
G01*
X6658356Y2563368D01*
X6803643Y2563368D01*
X6803643Y2412237D01*
G37*
G36*
X6658356Y2618231D02*
G01*
X6658356Y2769362D01*
X6803643Y2769362D01*
X6803643Y2618231D01*
G37*
G36*
X1953006Y2706115D02*
G01*
X1953006Y2856484D01*
X2383281Y2856484D01*
X2383281Y2706115D01*
G37*
G36*
X1299718Y2706115D02*
G01*
X1299718Y2856484D01*
X1729994Y2856484D01*
X1729994Y2706115D01*
G37*
G36*
X7375397Y2954781D02*
G01*
X7375397Y3065018D01*
X7475727Y3065018D01*
X7475727Y2954781D01*
G37*
G36*
X7205472Y2954781D02*
G01*
X7205472Y3065018D01*
X7305547Y3065018D01*
X7305547Y2954781D01*
G37*
G36*
X7375397Y3183381D02*
G01*
X7375397Y3293618D01*
X7475727Y3293618D01*
X7475727Y3183381D01*
G37*
G36*
X7205472Y3183381D02*
G01*
X7205472Y3293618D01*
X7305547Y3293618D01*
X7305547Y3183381D01*
G37*
G36*
X7375397Y3399281D02*
G01*
X7375397Y3509518D01*
X7475727Y3509518D01*
X7475727Y3399281D01*
G37*
G36*
X7205472Y3399281D02*
G01*
X7205472Y3509518D01*
X7305547Y3509518D01*
X7305547Y3399281D01*
G37*
G36*
X7375397Y3627881D02*
G01*
X7375397Y3738118D01*
X7475727Y3738118D01*
X7475727Y3627881D01*
G37*
G36*
X7205472Y3627881D02*
G01*
X7205472Y3738118D01*
X7305547Y3738118D01*
X7305547Y3627881D01*
G37*
G36*
X6904481Y3374897D02*
G01*
X6904481Y3475228D01*
X7014718Y3475228D01*
X7014718Y3374897D01*
G37*
G36*
X6904481Y3204971D02*
G01*
X6904481Y3305047D01*
X7014718Y3305047D01*
X7014718Y3204971D01*
G37*
G36*
X938529Y3122929D02*
G01*
X938529Y3303270D01*
X1118870Y3303270D01*
X1118870Y3122929D01*
G37*
D63*
G01*
X1028700Y3467100D03*
G01*
X1028700Y3721100D03*
G01*
X1028700Y3975100D03*
G36*
X7680452Y3928363D02*
G01*
X7680452Y4088384D01*
X7840725Y4088384D01*
X7840725Y3928363D01*
G37*
G36*
X7680452Y4598415D02*
G01*
X7680452Y4758436D01*
X7840725Y4758436D01*
X7840725Y4598415D01*
G37*
G36*
X7475474Y4083304D02*
G01*
X7475474Y4183379D01*
X7635747Y4183379D01*
X7635747Y4083304D01*
G37*
G36*
X7475474Y4503420D02*
G01*
X7475474Y4603495D01*
X7635747Y4603495D01*
X7635747Y4503420D01*
G37*
G36*
X4565141Y2075942D02*
G01*
X4565141Y2496057D01*
X4980177Y2496057D01*
X4980177Y2075942D01*
G37*
G36*
X5510022Y2075942D02*
G01*
X5510022Y2496057D01*
X5925058Y2496057D01*
X5925058Y2075942D01*
G37*
G36*
X2333752Y3958081D02*
G01*
X2333752Y4075176D01*
X2403856Y4075176D01*
X2403856Y3958081D01*
G37*
G36*
X2523743Y3958081D02*
G01*
X2523743Y4075176D01*
X2593847Y4075176D01*
X2593847Y3958081D01*
G37*
G36*
X2428747Y4205223D02*
G01*
X2428747Y4322318D01*
X2498852Y4322318D01*
X2498852Y4205223D01*
G37*
G36*
X6740652Y3945381D02*
G01*
X6740652Y4062476D01*
X6810756Y4062476D01*
X6810756Y3945381D01*
G37*
G36*
X6930643Y3945381D02*
G01*
X6930643Y4062476D01*
X7000747Y4062476D01*
X7000747Y3945381D01*
G37*
G36*
X6835647Y4192523D02*
G01*
X6835647Y4309618D01*
X6905752Y4309618D01*
X6905752Y4192523D01*
G37*
G36*
X3839972Y4251960D02*
G01*
X3839972Y4387087D01*
X3920236Y4387087D01*
X3920236Y4251960D01*
G37*
G36*
X4029963Y4251960D02*
G01*
X4029963Y4387087D01*
X4110227Y4387087D01*
X4110227Y4251960D01*
G37*
G36*
X3934968Y4452112D02*
G01*
X3934968Y4587239D01*
X4015231Y4587239D01*
X4015231Y4452112D01*
G37*
G36*
X5097272Y4455160D02*
G01*
X5097272Y4590287D01*
X5177536Y4590287D01*
X5177536Y4455160D01*
G37*
G36*
X5287263Y4455160D02*
G01*
X5287263Y4590287D01*
X5367527Y4590287D01*
X5367527Y4455160D01*
G37*
G36*
X5192268Y4655312D02*
G01*
X5192268Y4790439D01*
X5272531Y4790439D01*
X5272531Y4655312D01*
G37*
G36*
X2335529Y3511295D02*
G01*
X2335529Y3642360D01*
X2515870Y3642360D01*
X2515870Y3511295D01*
G37*
G36*
X2335529Y3215639D02*
G01*
X2335529Y3346704D01*
X2515870Y3346704D01*
X2515870Y3215639D01*
G37*
G36*
X6508750Y2961639D02*
G01*
X6508750Y3058160D01*
X6599427Y3058160D01*
X6599427Y2961639D01*
G37*
G36*
X6659372Y2961639D02*
G01*
X6659372Y3058160D01*
X6750050Y3058160D01*
X6750050Y2961639D01*
G37*
G36*
X6708140Y3206750D02*
G01*
X6708140Y3297428D01*
X6804659Y3297428D01*
X6804659Y3206750D01*
G37*
G36*
X6708140Y3357371D02*
G01*
X6708140Y3448050D01*
X6804659Y3448050D01*
X6804659Y3357371D01*
G37*
G36*
X7292340Y4513071D02*
G01*
X7292340Y4603750D01*
X7388859Y4603750D01*
X7388859Y4513071D01*
G37*
G36*
X7292340Y4362450D02*
G01*
X7292340Y4453128D01*
X7388859Y4453128D01*
X7388859Y4362450D01*
G37*
G36*
X6851650Y2961639D02*
G01*
X6851650Y3058160D01*
X6942327Y3058160D01*
X6942327Y2961639D01*
G37*
G36*
X7002272Y2961639D02*
G01*
X7002272Y3058160D01*
X7092950Y3058160D01*
X7092950Y2961639D01*
G37*
G36*
X3190240Y4121150D02*
G01*
X3190240Y4211828D01*
X3286759Y4211828D01*
X3286759Y4121150D01*
G37*
G36*
X3190240Y4271771D02*
G01*
X3190240Y4362450D01*
X3286759Y4362450D01*
X3286759Y4271771D01*
G37*
G36*
X4460240Y4311650D02*
G01*
X4460240Y4402328D01*
X4556759Y4402328D01*
X4556759Y4311650D01*
G37*
G36*
X4460240Y4462271D02*
G01*
X4460240Y4552950D01*
X4556759Y4552950D01*
X4556759Y4462271D01*
G37*
G36*
X5615940Y4665471D02*
G01*
X5615940Y4756150D01*
X5712459Y4756150D01*
X5712459Y4665471D01*
G37*
G36*
X5615940Y4514850D02*
G01*
X5615940Y4605528D01*
X5712459Y4605528D01*
X5712459Y4514850D01*
G37*
G36*
X3979672Y1856739D02*
G01*
X3979672Y1953260D01*
X4070350Y1953260D01*
X4070350Y1856739D01*
G37*
G36*
X3829050Y1856739D02*
G01*
X3829050Y1953260D01*
X3919727Y1953260D01*
X3919727Y1856739D01*
G37*
G36*
X3680206Y2871215D02*
G01*
X3680206Y2947923D01*
X3718306Y2947923D01*
X3718306Y2871215D01*
G37*
G36*
X3730243Y2871215D02*
G01*
X3730243Y2947923D01*
X3768343Y2947923D01*
X3768343Y2871215D01*
G37*
G36*
X3780281Y2871215D02*
G01*
X3780281Y2947923D01*
X3818381Y2947923D01*
X3818381Y2871215D01*
G37*
G36*
X3830320Y2871215D02*
G01*
X3830320Y2947923D01*
X3868420Y2947923D01*
X3868420Y2871215D01*
G37*
G36*
X3880104Y2871215D02*
G01*
X3880104Y2947923D01*
X3918458Y2947923D01*
X3918458Y2871215D01*
G37*
G36*
X3930141Y2871215D02*
G01*
X3930141Y2947923D01*
X3968495Y2947923D01*
X3968495Y2871215D01*
G37*
G36*
X3980179Y2871215D02*
G01*
X3980179Y2947923D01*
X4018279Y2947923D01*
X4018279Y2871215D01*
G37*
G36*
X4030218Y2871215D02*
G01*
X4030218Y2947923D01*
X4068318Y2947923D01*
X4068318Y2871215D01*
G37*
G36*
X4080256Y2871215D02*
G01*
X4080256Y2947923D01*
X4118356Y2947923D01*
X4118356Y2871215D01*
G37*
G36*
X4130293Y2871215D02*
G01*
X4130293Y2947923D01*
X4168393Y2947923D01*
X4168393Y2871215D01*
G37*
G36*
X4176775Y2956305D02*
G01*
X4176775Y2994405D01*
X4253484Y2994405D01*
X4253484Y2956305D01*
G37*
G36*
X4176775Y3006344D02*
G01*
X4176775Y3044444D01*
X4253484Y3044444D01*
X4253484Y3006344D01*
G37*
G36*
X4176775Y3056381D02*
G01*
X4176775Y3094481D01*
X4253484Y3094481D01*
X4253484Y3056381D01*
G37*
G36*
X4176775Y3106420D02*
G01*
X4176775Y3144520D01*
X4253484Y3144520D01*
X4253484Y3106420D01*
G37*
G36*
X4176775Y3156204D02*
G01*
X4176775Y3194557D01*
X4253484Y3194557D01*
X4253484Y3156204D01*
G37*
G36*
X4176775Y3206242D02*
G01*
X4176775Y3244595D01*
X4253484Y3244595D01*
X4253484Y3206242D01*
G37*
G36*
X4176775Y3256279D02*
G01*
X4176775Y3294379D01*
X4253484Y3294379D01*
X4253484Y3256279D01*
G37*
G36*
X4176775Y3306318D02*
G01*
X4176775Y3344418D01*
X4253484Y3344418D01*
X4253484Y3306318D01*
G37*
G36*
X4176775Y3356355D02*
G01*
X4176775Y3394455D01*
X4253484Y3394455D01*
X4253484Y3356355D01*
G37*
G36*
X4176775Y3406394D02*
G01*
X4176775Y3444494D01*
X4253484Y3444494D01*
X4253484Y3406394D01*
G37*
G36*
X4130293Y3452876D02*
G01*
X4130293Y3529584D01*
X4168393Y3529584D01*
X4168393Y3452876D01*
G37*
G36*
X4080256Y3452876D02*
G01*
X4080256Y3529584D01*
X4118356Y3529584D01*
X4118356Y3452876D01*
G37*
G36*
X4030218Y3452876D02*
G01*
X4030218Y3529584D01*
X4068318Y3529584D01*
X4068318Y3452876D01*
G37*
G36*
X3980179Y3452876D02*
G01*
X3980179Y3529584D01*
X4018279Y3529584D01*
X4018279Y3452876D01*
G37*
G36*
X3930141Y3452876D02*
G01*
X3930141Y3529584D01*
X3968495Y3529584D01*
X3968495Y3452876D01*
G37*
G36*
X3880104Y3452876D02*
G01*
X3880104Y3529584D01*
X3918458Y3529584D01*
X3918458Y3452876D01*
G37*
G36*
X3830320Y3452876D02*
G01*
X3830320Y3529584D01*
X3868420Y3529584D01*
X3868420Y3452876D01*
G37*
G36*
X3780281Y3452876D02*
G01*
X3780281Y3529584D01*
X3818381Y3529584D01*
X3818381Y3452876D01*
G37*
G36*
X3730243Y3452876D02*
G01*
X3730243Y3529584D01*
X3768343Y3529584D01*
X3768343Y3452876D01*
G37*
G36*
X3680206Y3452876D02*
G01*
X3680206Y3529584D01*
X3718306Y3529584D01*
X3718306Y3452876D01*
G37*
G36*
X3595115Y3406394D02*
G01*
X3595115Y3444494D01*
X3671824Y3444494D01*
X3671824Y3406394D01*
G37*
G36*
X3595115Y3356355D02*
G01*
X3595115Y3394455D01*
X3671824Y3394455D01*
X3671824Y3356355D01*
G37*
G36*
X3595115Y3306318D02*
G01*
X3595115Y3344418D01*
X3671824Y3344418D01*
X3671824Y3306318D01*
G37*
G36*
X3595115Y3256279D02*
G01*
X3595115Y3294379D01*
X3671824Y3294379D01*
X3671824Y3256279D01*
G37*
G36*
X3595115Y3206242D02*
G01*
X3595115Y3244595D01*
X3671824Y3244595D01*
X3671824Y3206242D01*
G37*
G36*
X3595115Y3156204D02*
G01*
X3595115Y3194557D01*
X3671824Y3194557D01*
X3671824Y3156204D01*
G37*
G36*
X3595115Y3106420D02*
G01*
X3595115Y3144520D01*
X3671824Y3144520D01*
X3671824Y3106420D01*
G37*
G36*
X3595115Y3056381D02*
G01*
X3595115Y3094481D01*
X3671824Y3094481D01*
X3671824Y3056381D01*
G37*
G36*
X3595115Y3006344D02*
G01*
X3595115Y3044444D01*
X3671824Y3044444D01*
X3671824Y3006344D01*
G37*
G36*
X3595115Y2956305D02*
G01*
X3595115Y2994405D01*
X3671824Y2994405D01*
X3671824Y2956305D01*
G37*
G36*
X3698240Y2974339D02*
G01*
X3698240Y3426460D01*
X4150359Y3426460D01*
X4150359Y2974339D01*
G37*
D75*
G01*
X1758213Y4621098D03*
G01*
X2008200Y4621098D03*
G01*
X2208199Y4621098D03*
G36*
X2376931Y4539742D02*
G01*
X2376931Y4702302D01*
X2539491Y4702302D01*
X2539491Y4539742D01*
G37*
G01*
X6177813Y4621098D03*
G01*
X6427800Y4621098D03*
G01*
X6627799Y4621098D03*
G36*
X6796531Y4539742D02*
G01*
X6796531Y4702302D01*
X6959091Y4702302D01*
X6959091Y4539742D01*
G37*
G36*
X4018788Y4832095D02*
G01*
X4018788Y4957063D01*
X4088891Y4957063D01*
X4088891Y4832095D01*
G37*
G36*
X3938777Y4832095D02*
G01*
X3938777Y4957063D01*
X4008881Y4957063D01*
X4008881Y4832095D01*
G37*
G36*
X3378708Y4832095D02*
G01*
X3378708Y4957063D01*
X3448811Y4957063D01*
X3448811Y4832095D01*
G37*
G36*
X3458718Y4832095D02*
G01*
X3458718Y4957063D01*
X3528822Y4957063D01*
X3528822Y4832095D01*
G37*
G36*
X3538727Y4832095D02*
G01*
X3538727Y4957063D01*
X3578859Y4957063D01*
X3578859Y4832095D01*
G37*
G36*
X3588765Y4832095D02*
G01*
X3588765Y4957063D01*
X3628897Y4957063D01*
X3628897Y4832095D01*
G37*
G36*
X3638804Y4832095D02*
G01*
X3638804Y4957063D01*
X3678936Y4957063D01*
X3678936Y4832095D01*
G37*
G36*
X3688841Y4832095D02*
G01*
X3688841Y4957063D01*
X3728974Y4957063D01*
X3728974Y4832095D01*
G37*
G36*
X3738625Y4832095D02*
G01*
X3738625Y4957063D01*
X3779011Y4957063D01*
X3779011Y4832095D01*
G37*
G36*
X3788663Y4832095D02*
G01*
X3788663Y4957063D01*
X3828795Y4957063D01*
X3828795Y4832095D01*
G37*
G36*
X3838702Y4832095D02*
G01*
X3838702Y4957063D01*
X3878834Y4957063D01*
X3878834Y4832095D01*
G37*
G36*
X3888740Y4832095D02*
G01*
X3888740Y4957063D01*
X3928872Y4957063D01*
X3928872Y4832095D01*
G37*
G36*
X5146802Y5057902D02*
G01*
X5146802Y5208015D01*
X5197093Y5208015D01*
X5197093Y5057902D01*
G37*
G36*
X5081777Y5057902D02*
G01*
X5081777Y5208015D01*
X5132070Y5208015D01*
X5132070Y5057902D01*
G37*
G36*
X5016754Y5057902D02*
G01*
X5016754Y5208015D01*
X5067045Y5208015D01*
X5067045Y5057902D01*
G37*
G36*
X4951729Y5057902D02*
G01*
X4951729Y5208015D01*
X5002022Y5208015D01*
X5002022Y5057902D01*
G37*
G36*
X4886706Y5057902D02*
G01*
X4886706Y5208015D01*
X4936997Y5208015D01*
X4936997Y5057902D01*
G37*
G36*
X5291836Y5092954D02*
G01*
X5291836Y5223002D01*
X5441950Y5223002D01*
X5441950Y5092954D01*
G37*
G36*
X4641850Y5092954D02*
G01*
X4641850Y5223002D01*
X4791963Y5223002D01*
X4791963Y5092954D01*
G37*
G36*
X3673856Y2158237D02*
G01*
X3673856Y2309368D01*
X3819143Y2309368D01*
X3819143Y2158237D01*
G37*
G36*
X3673856Y2364231D02*
G01*
X3673856Y2515362D01*
X3819143Y2515362D01*
X3819143Y2364231D01*
G37*
G36*
X4764531Y3394455D02*
G01*
X4764531Y3539744D01*
X4915661Y3539744D01*
X4915661Y3394455D01*
G37*
G36*
X4558538Y3394455D02*
G01*
X4558538Y3539744D01*
X4709668Y3539744D01*
X4709668Y3394455D01*
G37*
G36*
X7179056Y2618231D02*
G01*
X7179056Y2769362D01*
X7324343Y2769362D01*
X7324343Y2618231D01*
G37*
G36*
X7179056Y2412237D02*
G01*
X7179056Y2563368D01*
X7324343Y2563368D01*
X7324343Y2412237D01*
G37*
G36*
X3578097Y1831086D02*
G01*
X3578097Y1978913D01*
X3701541Y1978913D01*
X3701541Y1831086D01*
G37*
G36*
X3385058Y1831086D02*
G01*
X3385058Y1978913D01*
X3508502Y1978913D01*
X3508502Y1831086D01*
G37*
D82*
G01*
X1066800Y5334000D03*
G01*
X7569200Y5334000D03*
G01*
X1066800Y2032000D03*
G01*
X7569200Y2032000D03*
G36*
X6171945Y1776221D02*
G01*
X6171945Y2186178D01*
X6782054Y2186178D01*
X6782054Y1776221D01*
G37*
G36*
X2107945Y1776221D02*
G01*
X2107945Y2186178D01*
X2718054Y2186178D01*
X2718054Y1776221D01*
G37*
G36*
X1736344Y1901189D02*
G01*
X1736344Y2061210D01*
X1921255Y2061210D01*
X1921255Y1901189D01*
G37*
G36*
X1393444Y1901189D02*
G01*
X1393444Y2061210D01*
X1578355Y2061210D01*
X1578355Y1901189D01*
G37*
M02*
