G04 Layer: BottomSolderMaskLayer*
G04 EasyEDA v6.5.1, 2022-04-03 23:05:39*
G04 0caac7c7161345fe919d254c63c90933,10*
G04 Gerber Generator version 0.2*
G04 Scale: 100 percent, Rotated: No, Reflected: No *
G04 Dimensions in millimeters *
G04 leading zeros omitted , absolute positions ,4 integer and 5 decimal *
%FSLAX45Y45*%
%MOMM*%

%ADD54C,1.1016*%
%ADD55C,1.3015*%
%ADD63C,1.8016*%
%ADD75C,1.6256*%
%ADD82C,4.1016*%

%LPD*%
G36*
X3708400Y3416300D02*
G01*
X3708400Y2984500D01*
X4140200Y2984500D01*
X4140200Y3416300D01*
G37*
D54*
X2748203Y5286100D02*
G01*
X2748203Y5436100D01*
X1468221Y5286100D02*
G01*
X1468221Y5436100D01*
X7167803Y5286100D02*
G01*
X7167803Y5436100D01*
X5887821Y5286100D02*
G01*
X5887821Y5436100D01*
X4165803Y5327045D02*
G01*
X4165803Y5407045D01*
X3301796Y4897059D02*
G01*
X3301796Y5007061D01*
X4165803Y4897059D02*
G01*
X4165803Y5007061D01*
X3301796Y5327045D02*
G01*
X3301796Y5407045D01*
D55*
X5321909Y5447969D02*
G01*
X5321909Y5367959D01*
X4761890Y5447995D02*
G01*
X4761890Y5367985D01*
G36*
X938529Y3122929D02*
G01*
X938529Y3303270D01*
X1118870Y3303270D01*
X1118870Y3122929D01*
G37*
D63*
G01*
X1028700Y3467100D03*
G01*
X1028700Y3721100D03*
G01*
X1028700Y3975100D03*
D75*
G01*
X1758213Y4621098D03*
G01*
X2008200Y4621098D03*
G01*
X2208199Y4621098D03*
G36*
X2376931Y4539742D02*
G01*
X2376931Y4702302D01*
X2539491Y4702302D01*
X2539491Y4539742D01*
G37*
G01*
X6177813Y4621098D03*
G01*
X6427800Y4621098D03*
G01*
X6627799Y4621098D03*
G36*
X6796531Y4539742D02*
G01*
X6796531Y4702302D01*
X6959091Y4702302D01*
X6959091Y4539742D01*
G37*
D82*
G01*
X1066800Y5334000D03*
G01*
X7569200Y5334000D03*
G01*
X1066800Y2032000D03*
G01*
X7569200Y2032000D03*
G36*
X6171945Y1776221D02*
G01*
X6171945Y2186178D01*
X6782054Y2186178D01*
X6782054Y1776221D01*
G37*
G36*
X2107945Y1776221D02*
G01*
X2107945Y2186178D01*
X2718054Y2186178D01*
X2718054Y1776221D01*
G37*
G36*
X1736344Y1901189D02*
G01*
X1736344Y2061210D01*
X1921255Y2061210D01*
X1921255Y1901189D01*
G37*
G36*
X1393444Y1901189D02*
G01*
X1393444Y2061210D01*
X1578355Y2061210D01*
X1578355Y1901189D01*
G37*
M02*
