G04 Layer: TopLayer*
G04 EasyEDA v6.5.1, 2022-04-03 23:05:39*
G04 0caac7c7161345fe919d254c63c90933,10*
G04 Gerber Generator version 0.2*
G04 Scale: 100 percent, Rotated: No, Reflected: No *
G04 Dimensions in millimeters *
G04 leading zeros omitted , absolute positions ,4 integer and 5 decimal *
%FSLAX45Y45*%
%MOMM*%

%ADD10C,0.2540*%
%ADD11C,0.4000*%
%ADD12C,1.0000*%
%ADD13C,1.5000*%
%ADD14C,1.2500*%
%ADD15C,0.5000*%
%ADD16C,0.6096*%
%ADD17R,0.9000X0.8000*%
%ADD18R,1.3500X1.4100*%
%ADD20R,4.2000X1.4000*%
%ADD21R,0.8999X1.0000*%
%ADD23R,1.5000X1.5000*%
%ADD24R,1.5000X0.9000*%
%ADD26R,0.6000X1.0700*%
%ADD27R,0.7000X1.2500*%
%ADD28R,1.7010X1.2075*%
%ADD30R,0.8640X0.8065*%
%ADD34R,0.6000X1.1500*%
%ADD35R,0.3000X1.1500*%
%ADD36R,0.4000X1.4000*%
%ADD37R,1.4000X1.1999*%
%ADD39R,1.7000X1.7000*%
%ADD40C,1.7000*%
%ADD41C,1.5240*%
%ADD42R,1.5240X1.5240*%
%ADD43C,4.0000*%
%ADD44R,6.0000X4.0000*%
%ADD46C,1.1999*%

%LPD*%
G36*
X4817516Y4635500D02*
G01*
X4813604Y4636262D01*
X4810302Y4638497D01*
X4803597Y4645202D01*
X4801362Y4648504D01*
X4800600Y4652416D01*
X4800600Y4821783D01*
X4801362Y4825695D01*
X4803597Y4828997D01*
X4823002Y4848402D01*
X4826304Y4850638D01*
X4830216Y4851400D01*
X5104384Y4851400D01*
X5106111Y4852111D01*
X5142788Y4888788D01*
X5143500Y4890516D01*
X5143500Y5039055D01*
X5144262Y5042916D01*
X5147106Y5046878D01*
X5150205Y5051806D01*
X5152136Y5057241D01*
X5152847Y5063591D01*
X5152847Y5133340D01*
X5153609Y5137251D01*
X5155793Y5140502D01*
X5159095Y5142738D01*
X5163007Y5143500D01*
X5196840Y5143500D01*
X5200751Y5142738D01*
X5204002Y5140502D01*
X5206238Y5137251D01*
X5207000Y5133340D01*
X5207000Y5042916D01*
X5207711Y5041188D01*
X5280202Y4968697D01*
X5282438Y4965395D01*
X5283200Y4961483D01*
X5283200Y4645660D01*
X5282438Y4641748D01*
X5280202Y4638497D01*
X5276951Y4636262D01*
X5273040Y4635500D01*
G37*

%LPD*%
G36*
X3509416Y4432300D02*
G01*
X3505504Y4433062D01*
X3502202Y4435297D01*
X3470097Y4467402D01*
X3467862Y4470704D01*
X3467100Y4474616D01*
X3467100Y4790440D01*
X3467862Y4794351D01*
X3470097Y4797602D01*
X3473348Y4799838D01*
X3477260Y4800600D01*
X3507740Y4800600D01*
X3511651Y4799838D01*
X3514902Y4797602D01*
X3517137Y4794351D01*
X3518103Y4787950D01*
X3518611Y4787188D01*
X3555288Y4750511D01*
X3557015Y4749800D01*
X3677818Y4749800D01*
X3683508Y4749292D01*
X3733292Y4749292D01*
X3738981Y4749800D01*
X3897884Y4749800D01*
X3899611Y4750511D01*
X3946702Y4797602D01*
X3950004Y4799838D01*
X3953916Y4800600D01*
X4015740Y4800600D01*
X4019651Y4799838D01*
X4022902Y4797602D01*
X4025137Y4794351D01*
X4025900Y4790440D01*
X4025900Y4442460D01*
X4025137Y4438548D01*
X4022902Y4435297D01*
X4019651Y4433062D01*
X4015740Y4432300D01*
G37*

%LPD*%
G36*
X4722215Y4414723D02*
G01*
X4718354Y4415485D01*
X4715052Y4417669D01*
X4697069Y4435652D01*
X4694885Y4438954D01*
X4694123Y4442815D01*
X4694123Y4472990D01*
X4694580Y4476038D01*
X4697018Y4480306D01*
X4701133Y4489246D01*
X4703673Y4498695D01*
X4704537Y4508500D01*
X4703673Y4518304D01*
X4703216Y4520133D01*
X4702911Y4523943D01*
X4704080Y4527600D01*
X4706467Y4530547D01*
X4709820Y4532426D01*
X4713579Y4532934D01*
X4727295Y4529226D01*
X4737100Y4528362D01*
X4746904Y4529226D01*
X4756353Y4531766D01*
X4765294Y4535881D01*
X4773320Y4541520D01*
X4780280Y4548479D01*
X4785918Y4556506D01*
X4790033Y4565446D01*
X4792573Y4574895D01*
X4793437Y4584700D01*
X4792573Y4594606D01*
X4791506Y4599076D01*
X4791405Y4603292D01*
X4792980Y4607204D01*
X4796028Y4610100D01*
X4799990Y4611522D01*
X4804206Y4611217D01*
X4810404Y4609795D01*
X4813198Y4609592D01*
X4816856Y4608728D01*
X4819904Y4606594D01*
X4821986Y4603445D01*
X4822799Y4599787D01*
X4821478Y4589729D01*
X4821478Y4561382D01*
X4874818Y4561382D01*
X4874818Y4599432D01*
X4875580Y4603343D01*
X4877765Y4606594D01*
X4881067Y4608830D01*
X4884978Y4609592D01*
X4944821Y4609592D01*
X4948732Y4608830D01*
X4952034Y4606594D01*
X4954219Y4603343D01*
X4954981Y4599432D01*
X4954981Y4561382D01*
X5008321Y4561382D01*
X5008321Y4589729D01*
X5007051Y4599889D01*
X5007914Y4603648D01*
X5010150Y4606798D01*
X5013401Y4608880D01*
X5017160Y4609592D01*
X5069382Y4609592D01*
X5073142Y4608880D01*
X5076393Y4606798D01*
X5078628Y4603648D01*
X5079542Y4599889D01*
X5078984Y4596079D01*
X5077206Y4591050D01*
X5076494Y4584750D01*
X5076494Y4460900D01*
X5077206Y4454550D01*
X5079136Y4449114D01*
X5081066Y4445965D01*
X5082387Y4442815D01*
X5082590Y4439412D01*
X5081625Y4436160D01*
X5079644Y4433366D01*
X5063947Y4417669D01*
X5060645Y4415485D01*
X5056784Y4414723D01*
X5008676Y4414723D01*
X5004765Y4415485D01*
X5001463Y4417669D01*
X4999278Y4420971D01*
X4998516Y4424883D01*
X4999278Y4428744D01*
X5002580Y4433163D01*
X5005679Y4438091D01*
X5007610Y4443526D01*
X5008321Y4449876D01*
X5008321Y4478223D01*
X4954981Y4478223D01*
X4954981Y4424883D01*
X4954219Y4420971D01*
X4952034Y4417669D01*
X4948732Y4415485D01*
X4944821Y4414723D01*
X4884978Y4414723D01*
X4881067Y4415485D01*
X4877765Y4417669D01*
X4875580Y4420971D01*
X4874818Y4424883D01*
X4874818Y4478223D01*
X4821478Y4478223D01*
X4821478Y4449876D01*
X4822190Y4443526D01*
X4824120Y4438091D01*
X4827219Y4433163D01*
X4830521Y4428744D01*
X4831283Y4424883D01*
X4830521Y4420971D01*
X4828336Y4417669D01*
X4825034Y4415485D01*
X4821123Y4414723D01*
G37*

%LPD*%
G36*
X3477615Y4224223D02*
G01*
X3473754Y4224985D01*
X3470452Y4227169D01*
X3448913Y4248708D01*
X3446678Y4252061D01*
X3445916Y4256024D01*
X3446779Y4259986D01*
X3449065Y4263288D01*
X3452469Y4265422D01*
X3456482Y4266082D01*
X3469995Y4262526D01*
X3479800Y4261662D01*
X3489604Y4262526D01*
X3499053Y4265066D01*
X3507994Y4269181D01*
X3516020Y4274820D01*
X3522979Y4281779D01*
X3528618Y4289806D01*
X3532733Y4298746D01*
X3535273Y4308195D01*
X3536137Y4318000D01*
X3535273Y4327804D01*
X3532733Y4337253D01*
X3528618Y4346194D01*
X3522979Y4354220D01*
X3521405Y4355795D01*
X3519170Y4359097D01*
X3518408Y4363008D01*
X3518408Y4396232D01*
X3519170Y4400143D01*
X3521405Y4403394D01*
X3524656Y4405630D01*
X3528568Y4406392D01*
X3542639Y4406392D01*
X3546398Y4405680D01*
X3549650Y4403598D01*
X3551885Y4400448D01*
X3552748Y4396689D01*
X3551478Y4386529D01*
X3551478Y4358182D01*
X3604818Y4358182D01*
X3604818Y4396232D01*
X3605580Y4400143D01*
X3607765Y4403394D01*
X3611067Y4405630D01*
X3614978Y4406392D01*
X3674821Y4406392D01*
X3678732Y4405630D01*
X3682034Y4403394D01*
X3684219Y4400143D01*
X3684981Y4396232D01*
X3684981Y4358182D01*
X3738321Y4358182D01*
X3738321Y4386529D01*
X3737051Y4396689D01*
X3737914Y4400448D01*
X3740150Y4403598D01*
X3743401Y4405680D01*
X3747160Y4406392D01*
X3812082Y4406392D01*
X3815842Y4405680D01*
X3819093Y4403598D01*
X3821328Y4400448D01*
X3822242Y4396689D01*
X3821684Y4392879D01*
X3819906Y4387850D01*
X3819194Y4381550D01*
X3819194Y4257700D01*
X3819906Y4251350D01*
X3821836Y4245914D01*
X3823766Y4242765D01*
X3825087Y4239615D01*
X3825290Y4236212D01*
X3824325Y4232960D01*
X3822344Y4230166D01*
X3819347Y4227169D01*
X3816045Y4224985D01*
X3812184Y4224223D01*
X3746246Y4224223D01*
X3742486Y4224934D01*
X3739235Y4227017D01*
X3737000Y4230166D01*
X3736136Y4233926D01*
X3736695Y4237736D01*
X3737610Y4240326D01*
X3738321Y4246676D01*
X3738321Y4275023D01*
X3684981Y4275023D01*
X3684981Y4234383D01*
X3684219Y4230471D01*
X3682034Y4227169D01*
X3678732Y4224985D01*
X3674821Y4224223D01*
X3614978Y4224223D01*
X3611067Y4224985D01*
X3607765Y4227169D01*
X3605580Y4230471D01*
X3604818Y4234383D01*
X3604818Y4275023D01*
X3551478Y4275023D01*
X3551478Y4246676D01*
X3552190Y4240326D01*
X3553104Y4237736D01*
X3553663Y4233926D01*
X3552799Y4230166D01*
X3550564Y4227017D01*
X3547313Y4224934D01*
X3543554Y4224223D01*
G37*

%LPD*%
G36*
X2036216Y4165600D02*
G01*
X2032304Y4166362D01*
X2029002Y4168597D01*
X2009597Y4188002D01*
X2007362Y4191304D01*
X2006600Y4195216D01*
X2006600Y4351883D01*
X2007362Y4355795D01*
X2009597Y4359097D01*
X2029002Y4378502D01*
X2032304Y4380738D01*
X2036216Y4381500D01*
X2297684Y4381500D01*
X2299411Y4382211D01*
X2361488Y4444288D01*
X2362200Y4446016D01*
X2362200Y4714240D01*
X2362962Y4718151D01*
X2365197Y4721402D01*
X2368448Y4723638D01*
X2372360Y4724400D01*
X2555240Y4724400D01*
X2559151Y4723638D01*
X2562402Y4721402D01*
X2564638Y4718151D01*
X2565400Y4714240D01*
X2565400Y4175760D01*
X2564638Y4171848D01*
X2562402Y4168597D01*
X2559151Y4166362D01*
X2555240Y4165600D01*
G37*

%LPD*%
G36*
X6443116Y4127500D02*
G01*
X6439204Y4128262D01*
X6435902Y4130497D01*
X6416497Y4149902D01*
X6414262Y4153204D01*
X6413500Y4157116D01*
X6413500Y4301083D01*
X6414262Y4304995D01*
X6416497Y4308297D01*
X6448602Y4340402D01*
X6451904Y4342638D01*
X6455816Y4343400D01*
X6717284Y4343400D01*
X6719011Y4344111D01*
X6781088Y4406188D01*
X6781800Y4407916D01*
X6781800Y4714240D01*
X6782562Y4718151D01*
X6784797Y4721402D01*
X6788048Y4723638D01*
X6791959Y4724400D01*
X6962140Y4724400D01*
X6966051Y4723638D01*
X6969302Y4721402D01*
X6971538Y4718151D01*
X6972300Y4714240D01*
X6972300Y4137660D01*
X6971538Y4133748D01*
X6969302Y4130497D01*
X6966051Y4128262D01*
X6962140Y4127500D01*
G37*

%LPD*%
G36*
X6347815Y3932123D02*
G01*
X6343954Y3932885D01*
X6340652Y3935069D01*
X6297269Y3978452D01*
X6295085Y3981754D01*
X6294323Y3985615D01*
X6294323Y4234738D01*
X6295136Y4238752D01*
X6297422Y4242054D01*
X6300825Y4244238D01*
X6304838Y4244898D01*
X6308750Y4243984D01*
X6318046Y4239666D01*
X6327495Y4237126D01*
X6337300Y4236262D01*
X6347104Y4237126D01*
X6356553Y4239666D01*
X6365494Y4243781D01*
X6371590Y4248099D01*
X6375654Y4249775D01*
X6380073Y4249572D01*
X6383985Y4247540D01*
X6386626Y4244086D01*
X6387592Y4239768D01*
X6387592Y4153204D01*
X6388252Y4147159D01*
X6390182Y4141673D01*
X6393281Y4136745D01*
X6395364Y4134358D01*
X6420358Y4109364D01*
X6425133Y4105554D01*
X6430365Y4103065D01*
X6436004Y4101795D01*
X6438798Y4101592D01*
X6442456Y4100728D01*
X6445504Y4098594D01*
X6447586Y4095445D01*
X6448399Y4091787D01*
X6447078Y4081729D01*
X6447078Y4053382D01*
X6500418Y4053382D01*
X6500418Y4091432D01*
X6501180Y4095343D01*
X6503365Y4098594D01*
X6506667Y4100829D01*
X6510578Y4101592D01*
X6570421Y4101592D01*
X6574332Y4100829D01*
X6577634Y4098594D01*
X6579819Y4095343D01*
X6580581Y4091432D01*
X6580581Y4053382D01*
X6633921Y4053382D01*
X6633921Y4081729D01*
X6632651Y4091889D01*
X6633514Y4095648D01*
X6635750Y4098798D01*
X6639001Y4100880D01*
X6642760Y4101592D01*
X6734098Y4101592D01*
X6738061Y4100779D01*
X6741414Y4098493D01*
X6743598Y4095089D01*
X6744258Y4091127D01*
X6743344Y4087164D01*
X6740956Y4083913D01*
X6737451Y4081830D01*
X6734505Y4080814D01*
X6729577Y4077715D01*
X6725513Y4073601D01*
X6722414Y4068724D01*
X6720484Y4063288D01*
X6719773Y4056938D01*
X6719773Y3969512D01*
X6719011Y3965651D01*
X6716826Y3962349D01*
X6689547Y3935069D01*
X6686245Y3932885D01*
X6682384Y3932123D01*
X6644081Y3932123D01*
X6640169Y3932885D01*
X6636867Y3935069D01*
X6634683Y3938371D01*
X6633921Y3942283D01*
X6633921Y3970223D01*
X6580581Y3970223D01*
X6580581Y3942283D01*
X6579819Y3938371D01*
X6577634Y3935069D01*
X6574332Y3932885D01*
X6570421Y3932123D01*
X6510578Y3932123D01*
X6506667Y3932885D01*
X6503365Y3935069D01*
X6501180Y3938371D01*
X6500418Y3942283D01*
X6500418Y3970223D01*
X6447078Y3970223D01*
X6447078Y3942283D01*
X6446316Y3938371D01*
X6444132Y3935069D01*
X6440830Y3932885D01*
X6436918Y3932123D01*
G37*

%LPD*%
G36*
X2008632Y3549294D02*
G01*
X2004720Y3550056D01*
X2001469Y3552240D01*
X1990039Y3563620D01*
X1983841Y3568750D01*
X1977136Y3572306D01*
X1969922Y3574491D01*
X1961896Y3575304D01*
X1629359Y3575304D01*
X1625295Y3576167D01*
X1621891Y3578555D01*
X1619758Y3582111D01*
X1617675Y3588004D01*
X1614627Y3592931D01*
X1610512Y3596995D01*
X1608632Y3598214D01*
X1605686Y3601008D01*
X1604060Y3604768D01*
X1604060Y3608832D01*
X1605686Y3612591D01*
X1608632Y3615385D01*
X1610512Y3616604D01*
X1614627Y3620668D01*
X1617675Y3625596D01*
X1619605Y3631031D01*
X1620316Y3637381D01*
X1620316Y3650437D01*
X1578254Y3650437D01*
X1578254Y3612896D01*
X1577492Y3608984D01*
X1575257Y3605682D01*
X1571955Y3603498D01*
X1568094Y3602736D01*
X1530705Y3602736D01*
X1526844Y3603498D01*
X1523542Y3605682D01*
X1521307Y3608984D01*
X1520545Y3612896D01*
X1520545Y3650437D01*
X1478483Y3650437D01*
X1478483Y3637381D01*
X1479194Y3631031D01*
X1481124Y3625596D01*
X1484172Y3620668D01*
X1488287Y3616604D01*
X1490167Y3615385D01*
X1493113Y3612591D01*
X1494739Y3608832D01*
X1494739Y3604768D01*
X1493113Y3601008D01*
X1490167Y3598214D01*
X1488287Y3596995D01*
X1481277Y3589528D01*
X1478076Y3587902D01*
X1474470Y3587496D01*
X1470964Y3588359D01*
X1467967Y3590442D01*
X1438605Y3619804D01*
X1436370Y3623106D01*
X1435608Y3627018D01*
X1435608Y3784092D01*
X1434795Y3792118D01*
X1432610Y3799332D01*
X1429054Y3806037D01*
X1423924Y3812235D01*
X1234135Y4002024D01*
X1227937Y4007154D01*
X1221232Y4010710D01*
X1214018Y4012895D01*
X1205992Y4013708D01*
X1139494Y4013708D01*
X1135888Y4014368D01*
X1132738Y4016298D01*
X1130452Y4019194D01*
X1123543Y4032605D01*
X1115415Y4044238D01*
X1105865Y4054754D01*
X1095044Y4063949D01*
X1083106Y4071721D01*
X1070305Y4077868D01*
X1056843Y4082338D01*
X1042873Y4085082D01*
X1028700Y4085996D01*
X1014526Y4085082D01*
X1000556Y4082338D01*
X987094Y4077868D01*
X974293Y4071721D01*
X962355Y4063949D01*
X951534Y4054754D01*
X941984Y4044238D01*
X933856Y4032605D01*
X927303Y4020007D01*
X922375Y4006646D01*
X921867Y4004360D01*
X920089Y4000550D01*
X916940Y3997756D01*
X912926Y3996486D01*
X908761Y3996994D01*
X905154Y3999077D01*
X902665Y4002532D01*
X901801Y4006596D01*
X901801Y4140301D01*
X902563Y4144213D01*
X904798Y4147464D01*
X970635Y4213301D01*
X973886Y4215536D01*
X977798Y4216298D01*
X1840992Y4216298D01*
X1845310Y4215333D01*
X1847646Y4214266D01*
X1857095Y4211726D01*
X1866900Y4210862D01*
X1876704Y4211726D01*
X1886153Y4214266D01*
X1895093Y4218381D01*
X1903120Y4224020D01*
X1904695Y4225594D01*
X1907997Y4227830D01*
X1911908Y4228592D01*
X1970532Y4228592D01*
X1974443Y4227830D01*
X1977694Y4225594D01*
X1979930Y4222343D01*
X1980692Y4218432D01*
X1980692Y4191304D01*
X1981352Y4185259D01*
X1983282Y4179773D01*
X1986381Y4174845D01*
X1988464Y4172458D01*
X2013457Y4147464D01*
X2018233Y4143654D01*
X2023465Y4141165D01*
X2029104Y4139895D01*
X2031898Y4139692D01*
X2035556Y4138828D01*
X2038604Y4136694D01*
X2040686Y4133545D01*
X2041499Y4129887D01*
X2040178Y4119829D01*
X2040178Y4091482D01*
X2093518Y4091482D01*
X2093518Y4129532D01*
X2094280Y4133443D01*
X2096465Y4136694D01*
X2099767Y4138929D01*
X2103678Y4139692D01*
X2163521Y4139692D01*
X2167432Y4138929D01*
X2170734Y4136694D01*
X2172919Y4133443D01*
X2173681Y4129532D01*
X2173681Y4091482D01*
X2227021Y4091482D01*
X2227021Y4119829D01*
X2225751Y4129989D01*
X2226614Y4133748D01*
X2228850Y4136898D01*
X2232101Y4138980D01*
X2235860Y4139692D01*
X2443683Y4139692D01*
X2447442Y4138980D01*
X2450693Y4136898D01*
X2452928Y4133748D01*
X2453843Y4129989D01*
X2453284Y4126179D01*
X2451303Y4120540D01*
X2450592Y4114241D01*
X2450592Y3926535D01*
X2449830Y3922674D01*
X2447594Y3919372D01*
X2417927Y3889705D01*
X2414625Y3887470D01*
X2410764Y3886708D01*
X2363266Y3886708D01*
X2359355Y3887470D01*
X2356053Y3889705D01*
X2353868Y3892956D01*
X2353106Y3896868D01*
X2353868Y3900779D01*
X2356053Y3904030D01*
X2386330Y3934307D01*
X2389632Y3936542D01*
X2393543Y3937304D01*
X2398217Y3937304D01*
X2404567Y3938015D01*
X2410002Y3939946D01*
X2414930Y3942994D01*
X2418994Y3947109D01*
X2422093Y3951986D01*
X2423972Y3957472D01*
X2424684Y3963771D01*
X2424684Y4069638D01*
X2423972Y4075988D01*
X2422093Y4081424D01*
X2418994Y4086301D01*
X2414930Y4090415D01*
X2410002Y4093514D01*
X2404567Y4095394D01*
X2398217Y4096105D01*
X2339390Y4096105D01*
X2333040Y4095394D01*
X2327605Y4093514D01*
X2322677Y4090415D01*
X2318613Y4086301D01*
X2315514Y4081424D01*
X2313584Y4075988D01*
X2312873Y4069638D01*
X2312873Y3994912D01*
X2312111Y3991051D01*
X2309926Y3987749D01*
X2282647Y3960469D01*
X2279345Y3958285D01*
X2275484Y3957523D01*
X2234946Y3957523D01*
X2231186Y3958234D01*
X2227935Y3960317D01*
X2225700Y3963466D01*
X2224836Y3967226D01*
X2225395Y3971036D01*
X2226310Y3973626D01*
X2227021Y3979976D01*
X2227021Y4008323D01*
X2173681Y4008323D01*
X2173681Y3967683D01*
X2172919Y3963771D01*
X2170734Y3960469D01*
X2167432Y3958285D01*
X2163521Y3957523D01*
X2103678Y3957523D01*
X2099767Y3958285D01*
X2096465Y3960469D01*
X2094280Y3963771D01*
X2093518Y3967683D01*
X2093518Y4008323D01*
X2040178Y4008323D01*
X2040178Y3979976D01*
X2040889Y3973626D01*
X2041804Y3971036D01*
X2042363Y3967226D01*
X2041499Y3963466D01*
X2039264Y3960317D01*
X2036013Y3958234D01*
X2032254Y3957523D01*
X1991715Y3957523D01*
X1987854Y3958285D01*
X1984552Y3960469D01*
X1941169Y4003852D01*
X1938985Y4007154D01*
X1938223Y4011015D01*
X1938223Y4028490D01*
X1938680Y4031538D01*
X1941118Y4035806D01*
X1945233Y4044746D01*
X1947773Y4054195D01*
X1948637Y4064000D01*
X1947773Y4073804D01*
X1945233Y4083253D01*
X1941118Y4092194D01*
X1935480Y4100220D01*
X1928520Y4107179D01*
X1920493Y4112818D01*
X1911553Y4116933D01*
X1902104Y4119473D01*
X1892300Y4120337D01*
X1882495Y4119473D01*
X1873046Y4116933D01*
X1864106Y4112818D01*
X1856079Y4107179D01*
X1849120Y4100220D01*
X1843481Y4092194D01*
X1839366Y4083253D01*
X1836826Y4073804D01*
X1835962Y4064000D01*
X1836826Y4054195D01*
X1839366Y4044746D01*
X1843481Y4035806D01*
X1845919Y4031538D01*
X1846376Y4028490D01*
X1846427Y3986022D01*
X1847646Y3977284D01*
X1850339Y3969258D01*
X1854454Y3961892D01*
X1860194Y3954983D01*
X1937308Y3877919D01*
X1944370Y3872585D01*
X1951939Y3868826D01*
X1960067Y3866540D01*
X1968957Y3865676D01*
X2014829Y3865676D01*
X2018995Y3864813D01*
X2022398Y3862324D01*
X2024481Y3858615D01*
X2024938Y3854399D01*
X2023618Y3850386D01*
X2021332Y3846525D01*
X2019452Y3841140D01*
X2018792Y3835501D01*
X2017928Y3831844D01*
X2015794Y3828796D01*
X2012645Y3826713D01*
X2008987Y3825900D01*
X1998929Y3827221D01*
X1970582Y3827221D01*
X1970582Y3773881D01*
X2008632Y3773881D01*
X2012543Y3773119D01*
X2015794Y3770934D01*
X2018030Y3767632D01*
X2018792Y3763721D01*
X2018792Y3703878D01*
X2018030Y3699967D01*
X2015794Y3696665D01*
X2012543Y3694480D01*
X2008632Y3693718D01*
X1970582Y3693718D01*
X1970582Y3640378D01*
X1998929Y3640378D01*
X2009089Y3641648D01*
X2012848Y3640785D01*
X2015998Y3638550D01*
X2018080Y3635298D01*
X2018792Y3631539D01*
X2018792Y3559454D01*
X2018030Y3555542D01*
X2015794Y3552240D01*
X2012543Y3550056D01*
G37*

%LPC*%
G36*
X1832610Y3773881D02*
G01*
X1887423Y3773881D01*
X1887423Y3827221D01*
X1859076Y3827221D01*
X1852726Y3826510D01*
X1847291Y3824579D01*
X1842363Y3821480D01*
X1838299Y3817416D01*
X1835200Y3812489D01*
X1833321Y3807053D01*
X1832610Y3800754D01*
G37*
G36*
X1478483Y3703116D02*
G01*
X1520545Y3703116D01*
X1520545Y3742690D01*
X1504950Y3742690D01*
X1498650Y3741978D01*
X1493164Y3740099D01*
X1488287Y3737000D01*
X1484172Y3732885D01*
X1481124Y3728008D01*
X1479194Y3722522D01*
X1478483Y3716223D01*
G37*
G36*
X1578254Y3703116D02*
G01*
X1620316Y3703116D01*
X1620316Y3716223D01*
X1619605Y3722522D01*
X1617675Y3728008D01*
X1614627Y3732885D01*
X1610512Y3737000D01*
X1605635Y3740099D01*
X1600149Y3741978D01*
X1593850Y3742690D01*
X1578254Y3742690D01*
G37*
G36*
X1859076Y3640378D02*
G01*
X1887423Y3640378D01*
X1887423Y3693718D01*
X1832610Y3693718D01*
X1832610Y3666845D01*
X1833321Y3660546D01*
X1835200Y3655110D01*
X1838299Y3650183D01*
X1842363Y3646119D01*
X1847291Y3643020D01*
X1852726Y3641090D01*
G37*

%LPD*%
G36*
X2110181Y3505708D02*
G01*
X2107438Y3506063D01*
X2104948Y3507130D01*
X2049627Y3540353D01*
X2046986Y3542588D01*
X2045309Y3545636D01*
X2044700Y3549040D01*
X2044700Y3831183D01*
X2045462Y3835095D01*
X2047697Y3838397D01*
X2067102Y3857802D01*
X2070404Y3860037D01*
X2074316Y3860800D01*
X2424684Y3860800D01*
X2426411Y3861511D01*
X2475788Y3910888D01*
X2476500Y3912615D01*
X2476500Y4104640D01*
X2477262Y4108551D01*
X2479497Y4111802D01*
X2482748Y4114037D01*
X2486660Y4114800D01*
X3123184Y4114800D01*
X3124911Y4115511D01*
X3136188Y4126788D01*
X3136900Y4128515D01*
X3136900Y4206240D01*
X3137662Y4210151D01*
X3139897Y4213402D01*
X3143148Y4215638D01*
X3147060Y4216400D01*
X3317240Y4216400D01*
X3321151Y4215638D01*
X3324402Y4213402D01*
X3326637Y4210151D01*
X3327400Y4206240D01*
X3327400Y4128515D01*
X3328111Y4126788D01*
X3339388Y4115511D01*
X3341115Y4114800D01*
X3961384Y4114800D01*
X3963111Y4115511D01*
X3999788Y4152188D01*
X4000500Y4153915D01*
X4000500Y4396232D01*
X4001262Y4400143D01*
X4003497Y4403394D01*
X4006748Y4405630D01*
X4010660Y4406392D01*
X4025341Y4406392D01*
X4030421Y4406900D01*
X4123283Y4406900D01*
X4127195Y4406138D01*
X4130497Y4403902D01*
X4149902Y4384497D01*
X4152137Y4381195D01*
X4152900Y4377283D01*
X4152900Y4153915D01*
X4153611Y4152188D01*
X4190288Y4115511D01*
X4192015Y4114800D01*
X4393184Y4114800D01*
X4394911Y4115511D01*
X4418888Y4139488D01*
X4419600Y4141215D01*
X4419600Y4396740D01*
X4420362Y4400651D01*
X4422597Y4403902D01*
X4425848Y4406138D01*
X4429760Y4406900D01*
X4587240Y4406900D01*
X4591151Y4406138D01*
X4594402Y4403902D01*
X4596638Y4400651D01*
X4597400Y4396740D01*
X4597400Y4153915D01*
X4598111Y4152188D01*
X4634788Y4115511D01*
X4636516Y4114800D01*
X5180584Y4114800D01*
X5182311Y4115511D01*
X5231688Y4164888D01*
X5232400Y4166615D01*
X5232400Y4587240D01*
X5233162Y4591151D01*
X5235397Y4594402D01*
X5238648Y4596638D01*
X5242560Y4597400D01*
X5393283Y4597400D01*
X5397195Y4596638D01*
X5400497Y4594402D01*
X5419902Y4574997D01*
X5422138Y4571695D01*
X5422900Y4567783D01*
X5422900Y4166615D01*
X5423611Y4164888D01*
X5472988Y4115511D01*
X5474716Y4114800D01*
X5863183Y4114800D01*
X5867095Y4114037D01*
X5870397Y4111802D01*
X5968288Y4013911D01*
X5970016Y4013200D01*
X6142583Y4013200D01*
X6146495Y4012437D01*
X6149797Y4010202D01*
X6169202Y3990797D01*
X6171438Y3987495D01*
X6172200Y3983583D01*
X6172200Y3925315D01*
X6172911Y3923588D01*
X6273088Y3823411D01*
X6274816Y3822700D01*
X6806184Y3822700D01*
X6807911Y3823411D01*
X6882688Y3898188D01*
X6883400Y3899915D01*
X6883400Y4079240D01*
X6884162Y4083151D01*
X6886397Y4086402D01*
X6889648Y4088637D01*
X6893559Y4089400D01*
X7018883Y4089400D01*
X7022795Y4088637D01*
X7026097Y4086402D01*
X7058202Y4054297D01*
X7060438Y4050995D01*
X7061200Y4047083D01*
X7061200Y3699916D01*
X7060438Y3696004D01*
X7058202Y3692702D01*
X7026097Y3660597D01*
X7022795Y3658362D01*
X7018883Y3657600D01*
X5935116Y3657600D01*
X5931204Y3658362D01*
X5927902Y3660597D01*
X5766511Y3821988D01*
X5764784Y3822700D01*
X2998216Y3822700D01*
X2996539Y3822039D01*
X2670454Y3508552D01*
X2667254Y3506419D01*
X2663444Y3505708D01*
G37*

%LPD*%
G36*
X3746093Y3411677D02*
G01*
X3742232Y3412439D01*
X3738930Y3414674D01*
X3736746Y3417925D01*
X3735933Y3421837D01*
X3735933Y3443122D01*
X3736543Y3446526D01*
X3738473Y3452164D01*
X3739184Y3458413D01*
X3740505Y3462426D01*
X3743350Y3465525D01*
X3747211Y3467252D01*
X3751376Y3467252D01*
X3755237Y3465525D01*
X3758082Y3462426D01*
X3759403Y3458413D01*
X3760114Y3452164D01*
X3762095Y3446526D01*
X3762654Y3443122D01*
X3762654Y3421837D01*
X3761892Y3417925D01*
X3759657Y3414674D01*
X3756355Y3412439D01*
X3752494Y3411677D01*
G37*

%LPD*%
G36*
X3824274Y2966872D02*
G01*
X3819042Y2968091D01*
X3816451Y2968396D01*
X3812946Y2969463D01*
X3810050Y2971698D01*
X3808120Y2974848D01*
X3807460Y2978505D01*
X3807460Y3083560D01*
X3702405Y3083560D01*
X3698748Y3084220D01*
X3695598Y3086150D01*
X3693363Y3089046D01*
X3692296Y3092551D01*
X3690772Y3100374D01*
X3691991Y3105658D01*
X3692702Y3111957D01*
X3692702Y3138830D01*
X3691991Y3145129D01*
X3690772Y3150412D01*
X3691991Y3155645D01*
X3692702Y3161944D01*
X3692702Y3188817D01*
X3691991Y3195167D01*
X3690772Y3200400D01*
X3691991Y3205632D01*
X3692702Y3211982D01*
X3692702Y3238855D01*
X3691991Y3245154D01*
X3690772Y3250387D01*
X3691991Y3255670D01*
X3692702Y3261969D01*
X3692702Y3288842D01*
X3691991Y3295142D01*
X3690772Y3300425D01*
X3691991Y3305657D01*
X3692296Y3308248D01*
X3693363Y3311753D01*
X3695598Y3314649D01*
X3698748Y3316579D01*
X3702405Y3317240D01*
X3807460Y3317240D01*
X3807460Y3422294D01*
X3808120Y3425951D01*
X3810050Y3429101D01*
X3812946Y3431336D01*
X3816451Y3432403D01*
X3824274Y3433927D01*
X3829558Y3432708D01*
X3835857Y3431997D01*
X3862730Y3431997D01*
X3869029Y3432708D01*
X3874312Y3433927D01*
X3879545Y3432708D01*
X3885844Y3431997D01*
X3912717Y3431997D01*
X3919067Y3432708D01*
X3924300Y3433927D01*
X3929532Y3432708D01*
X3935882Y3431997D01*
X3962755Y3431997D01*
X3969054Y3432708D01*
X3974287Y3433927D01*
X3979570Y3432708D01*
X3985869Y3431997D01*
X4012742Y3431997D01*
X4019042Y3432708D01*
X4024325Y3433927D01*
X4029557Y3432708D01*
X4032148Y3432403D01*
X4035653Y3431336D01*
X4038549Y3429101D01*
X4040479Y3425951D01*
X4041140Y3422294D01*
X4041140Y3317240D01*
X4142232Y3317240D01*
X4146143Y3316478D01*
X4149394Y3314293D01*
X4151629Y3310991D01*
X4152392Y3307079D01*
X4152392Y3112058D01*
X4153103Y3105759D01*
X4155033Y3100273D01*
X4157218Y3095091D01*
X4156862Y3090773D01*
X4155744Y3088741D01*
X4163822Y3088741D01*
X4167174Y3088182D01*
X4172559Y3086303D01*
X4178909Y3085592D01*
X4181297Y3085541D01*
X4185564Y3084576D01*
X4188968Y3081934D01*
X4191000Y3078073D01*
X4191203Y3073704D01*
X4189577Y3069691D01*
X4186428Y3066694D01*
X4182313Y3065322D01*
X4176064Y3064611D01*
X4170426Y3062630D01*
X4167022Y3062071D01*
X4145737Y3062071D01*
X4141825Y3062833D01*
X4138574Y3065018D01*
X4136339Y3068320D01*
X4135577Y3072231D01*
X4135577Y3078581D01*
X4136339Y3082493D01*
X4137050Y3083560D01*
X4041140Y3083560D01*
X4041140Y2978505D01*
X4040479Y2974848D01*
X4038549Y2971698D01*
X4035653Y2969463D01*
X4032148Y2968396D01*
X4024325Y2966872D01*
X4019042Y2968091D01*
X4012742Y2968802D01*
X3985869Y2968802D01*
X3979570Y2968091D01*
X3974287Y2966872D01*
X3969054Y2968091D01*
X3962755Y2968802D01*
X3935882Y2968802D01*
X3929532Y2968091D01*
X3927652Y2967431D01*
X3924300Y2966872D01*
X3919067Y2968091D01*
X3912717Y2968802D01*
X3885844Y2968802D01*
X3879545Y2968091D01*
X3874312Y2966872D01*
X3869029Y2968091D01*
X3862730Y2968802D01*
X3835857Y2968802D01*
X3829558Y2968091D01*
G37*

%LPD*%
G36*
X1953260Y2349500D02*
G01*
X1949348Y2350262D01*
X1946097Y2352497D01*
X1943862Y2355748D01*
X1943100Y2359660D01*
X1943100Y3056483D01*
X1943862Y3060395D01*
X1946097Y3063697D01*
X2232202Y3349802D01*
X2235504Y3352037D01*
X2239416Y3352800D01*
X2560523Y3352800D01*
X2564942Y3351784D01*
X2568448Y3348990D01*
X2613964Y3292094D01*
X2615641Y3289096D01*
X2616200Y3285744D01*
X2616200Y2706116D01*
X2616911Y2704388D01*
X2729788Y2591511D01*
X2731516Y2590800D01*
X4110583Y2590800D01*
X4114495Y2590038D01*
X4117797Y2587802D01*
X4149902Y2555697D01*
X4152137Y2552395D01*
X4152900Y2548483D01*
X4152900Y2379116D01*
X4152137Y2375204D01*
X4149902Y2371902D01*
X4130497Y2352497D01*
X4127195Y2350262D01*
X4123283Y2349500D01*
G37*

%LPD*%
G36*
X4525416Y2032000D02*
G01*
X4521504Y2032762D01*
X4518202Y2034997D01*
X4499305Y2053894D01*
X4497070Y2057196D01*
X4496308Y2061108D01*
X4496308Y2983992D01*
X4495800Y2989681D01*
X4495800Y3008884D01*
X4495088Y3010611D01*
X4394911Y3110788D01*
X4393184Y3111500D01*
X4272534Y3111500D01*
X4268216Y3112008D01*
X4262170Y3112211D01*
X4259173Y3112820D01*
X4254042Y3114598D01*
X4247743Y3115310D01*
X4188460Y3115310D01*
X4184548Y3116072D01*
X4181297Y3118307D01*
X4179062Y3121558D01*
X4178300Y3125470D01*
X4178300Y3325317D01*
X4179062Y3329228D01*
X4181297Y3332530D01*
X4184548Y3334715D01*
X4188460Y3335477D01*
X4247743Y3335477D01*
X4257497Y3336798D01*
X4541926Y3336798D01*
X4549952Y3337610D01*
X4556760Y3339642D01*
X4559706Y3340100D01*
X4710684Y3340100D01*
X4712411Y3340811D01*
X4736388Y3364788D01*
X4737100Y3366515D01*
X4737100Y3551783D01*
X4737862Y3555695D01*
X4740097Y3558997D01*
X4772202Y3591102D01*
X4775504Y3593337D01*
X4779416Y3594100D01*
X4986883Y3594100D01*
X4990795Y3593337D01*
X4994097Y3591102D01*
X5051602Y3533597D01*
X5053787Y3530295D01*
X5054549Y3526332D01*
X5041900Y2374950D01*
X5041900Y2061616D01*
X5041138Y2057704D01*
X5038902Y2054402D01*
X5019497Y2034997D01*
X5016195Y2032762D01*
X5012283Y2032000D01*
G37*

%LPD*%
G36*
X5458460Y1727200D02*
G01*
X5454548Y1727962D01*
X5451297Y1730197D01*
X5449062Y1733448D01*
X5448300Y1737360D01*
X5448300Y2472283D01*
X5449062Y2476195D01*
X5451297Y2479497D01*
X5559602Y2587802D01*
X5562904Y2590038D01*
X5566816Y2590800D01*
X7361783Y2590800D01*
X7365695Y2590038D01*
X7368997Y2587802D01*
X7426502Y2530297D01*
X7428738Y2526995D01*
X7429500Y2523083D01*
X7429500Y2353716D01*
X7428738Y2349804D01*
X7426502Y2346502D01*
X7368997Y2288997D01*
X7365695Y2286762D01*
X7361783Y2286000D01*
X6935216Y2286000D01*
X6933488Y2285288D01*
X6858711Y2210511D01*
X6858000Y2208784D01*
X6858000Y1744116D01*
X6857238Y1740204D01*
X6855002Y1736902D01*
X6848297Y1730197D01*
X6844995Y1727962D01*
X6841083Y1727200D01*
G37*

%LPD*%
G36*
X810768Y1651507D02*
G01*
X806856Y1652270D01*
X803605Y1654505D01*
X801370Y1657756D01*
X800608Y1661668D01*
X800608Y2366772D01*
X801370Y2370632D01*
X803605Y2373934D01*
X806856Y2376170D01*
X810768Y2376932D01*
X814679Y2376170D01*
X817930Y2373934D01*
X903630Y2288235D01*
X907084Y2285085D01*
X910590Y2282393D01*
X914349Y2280005D01*
X918311Y2277973D01*
X922375Y2276246D01*
X926642Y2274925D01*
X930960Y2273960D01*
X935380Y2273401D01*
X940003Y2273198D01*
X1155801Y2273198D01*
X1159713Y2272436D01*
X1162964Y2270201D01*
X1187094Y2246122D01*
X1189380Y2242667D01*
X1190040Y2238603D01*
X1189075Y2234590D01*
X1186586Y2231288D01*
X1183030Y2229256D01*
X1178915Y2228799D01*
X1174953Y2230069D01*
X1173175Y2231085D01*
X1173175Y2138324D01*
X1265885Y2138324D01*
X1264869Y2140153D01*
X1263599Y2144115D01*
X1264056Y2148230D01*
X1266088Y2151786D01*
X1269390Y2154275D01*
X1273403Y2155240D01*
X1277467Y2154580D01*
X1280922Y2152294D01*
X1292301Y2140864D01*
X1294536Y2137613D01*
X1295298Y2133701D01*
X1295298Y2070303D01*
X1295501Y2065680D01*
X1296060Y2061260D01*
X1297025Y2056942D01*
X1298346Y2052675D01*
X1300073Y2048611D01*
X1302105Y2044649D01*
X1304493Y2040889D01*
X1307185Y2037384D01*
X1310335Y2033930D01*
X1369517Y1974799D01*
X1371701Y1971497D01*
X1372514Y1967585D01*
X1372514Y1906778D01*
X1373225Y1900428D01*
X1375105Y1894992D01*
X1378204Y1890064D01*
X1382268Y1886000D01*
X1387195Y1882902D01*
X1392631Y1881022D01*
X1398981Y1880311D01*
X1572818Y1880311D01*
X1579168Y1881022D01*
X1584604Y1882902D01*
X1589532Y1886000D01*
X1593596Y1890064D01*
X1596694Y1894992D01*
X1598574Y1900428D01*
X1599285Y1906778D01*
X1599285Y2055622D01*
X1598574Y2061972D01*
X1596694Y2067407D01*
X1593596Y2072335D01*
X1589532Y2076399D01*
X1584604Y2079498D01*
X1579168Y2081377D01*
X1572818Y2082088D01*
X1410411Y2082088D01*
X1406499Y2082901D01*
X1403197Y2085086D01*
X1400098Y2088235D01*
X1397863Y2091486D01*
X1397101Y2095398D01*
X1397101Y2158796D01*
X1396898Y2163419D01*
X1396339Y2167839D01*
X1395374Y2172157D01*
X1394053Y2176424D01*
X1392326Y2180488D01*
X1390294Y2184450D01*
X1387906Y2188210D01*
X1385214Y2191715D01*
X1382064Y2195169D01*
X1217269Y2359964D01*
X1213815Y2363114D01*
X1210310Y2365806D01*
X1206550Y2368194D01*
X1202588Y2370226D01*
X1198524Y2371953D01*
X1194257Y2373274D01*
X1189939Y2374239D01*
X1185519Y2374798D01*
X1180896Y2375001D01*
X965098Y2375001D01*
X961186Y2375763D01*
X957935Y2377998D01*
X904798Y2431135D01*
X902563Y2434386D01*
X901801Y2438298D01*
X901801Y3111246D01*
X902716Y3115462D01*
X905357Y3118916D01*
X909167Y3120999D01*
X913485Y3121304D01*
X917549Y3119729D01*
X920546Y3116630D01*
X923493Y3112008D01*
X927608Y3107893D01*
X932484Y3104794D01*
X937971Y3102914D01*
X944270Y3102203D01*
X979830Y3102203D01*
X979830Y3164230D01*
X911961Y3164230D01*
X908100Y3165043D01*
X904798Y3167227D01*
X902563Y3170529D01*
X901801Y3174390D01*
X901801Y3251809D01*
X902563Y3255670D01*
X904798Y3258972D01*
X908100Y3261156D01*
X911961Y3261969D01*
X979830Y3261969D01*
X979830Y3323996D01*
X944270Y3323996D01*
X937971Y3323285D01*
X932484Y3321405D01*
X927608Y3318306D01*
X923493Y3314192D01*
X920546Y3309569D01*
X917549Y3306470D01*
X913485Y3304895D01*
X909167Y3305200D01*
X905357Y3307283D01*
X902716Y3310737D01*
X901801Y3314954D01*
X901801Y3435756D01*
X902665Y3439820D01*
X905002Y3443173D01*
X908507Y3445306D01*
X912571Y3445916D01*
X916533Y3444849D01*
X919784Y3442309D01*
X921715Y3438651D01*
X924661Y3428796D01*
X930402Y3415792D01*
X937768Y3403650D01*
X946607Y3392525D01*
X956818Y3382670D01*
X968197Y3374186D01*
X980592Y3367176D01*
X993749Y3361842D01*
X1007516Y3358235D01*
X1021587Y3356457D01*
X1035812Y3356457D01*
X1049883Y3358235D01*
X1063650Y3361842D01*
X1076807Y3367176D01*
X1089202Y3374186D01*
X1100582Y3382670D01*
X1110792Y3392525D01*
X1119632Y3403650D01*
X1126998Y3415792D01*
X1132789Y3428796D01*
X1136802Y3442411D01*
X1139088Y3456432D01*
X1139545Y3470656D01*
X1138174Y3484778D01*
X1135024Y3498646D01*
X1130096Y3512007D01*
X1123543Y3524605D01*
X1115415Y3536238D01*
X1105865Y3546754D01*
X1095044Y3555949D01*
X1083106Y3563721D01*
X1070305Y3569868D01*
X1056843Y3574338D01*
X1042873Y3577082D01*
X1028700Y3577996D01*
X1014526Y3577082D01*
X1000556Y3574338D01*
X987094Y3569868D01*
X974293Y3563721D01*
X962355Y3555949D01*
X951534Y3546754D01*
X941984Y3536238D01*
X933856Y3524605D01*
X927303Y3512007D01*
X922375Y3498646D01*
X921867Y3496360D01*
X920089Y3492550D01*
X916940Y3489756D01*
X912926Y3488486D01*
X908761Y3488994D01*
X905154Y3491077D01*
X902665Y3494532D01*
X901801Y3498596D01*
X901801Y3689756D01*
X902665Y3693820D01*
X905002Y3697173D01*
X908507Y3699306D01*
X912571Y3699916D01*
X916533Y3698849D01*
X919784Y3696309D01*
X921715Y3692651D01*
X924661Y3682796D01*
X930402Y3669792D01*
X937768Y3657650D01*
X946607Y3646525D01*
X956818Y3636670D01*
X968197Y3628186D01*
X980592Y3621176D01*
X993749Y3615842D01*
X1007516Y3612235D01*
X1021587Y3610457D01*
X1035812Y3610457D01*
X1049883Y3612235D01*
X1063650Y3615842D01*
X1076807Y3621176D01*
X1089202Y3628186D01*
X1100582Y3636670D01*
X1110792Y3646525D01*
X1119632Y3657650D01*
X1126998Y3669792D01*
X1132789Y3682796D01*
X1136802Y3696411D01*
X1139088Y3710432D01*
X1139545Y3724656D01*
X1138174Y3738778D01*
X1135024Y3752646D01*
X1130096Y3766007D01*
X1123543Y3778605D01*
X1115415Y3790238D01*
X1105865Y3800754D01*
X1095044Y3809949D01*
X1083106Y3817721D01*
X1070305Y3823868D01*
X1056843Y3828338D01*
X1042873Y3831082D01*
X1028700Y3831996D01*
X1014526Y3831082D01*
X1000556Y3828338D01*
X987094Y3823868D01*
X974293Y3817721D01*
X962355Y3809949D01*
X951534Y3800754D01*
X941984Y3790238D01*
X933856Y3778605D01*
X927303Y3766007D01*
X922375Y3752646D01*
X921867Y3750360D01*
X920089Y3746550D01*
X916940Y3743756D01*
X912926Y3742486D01*
X908761Y3742994D01*
X905154Y3745077D01*
X902665Y3748532D01*
X901801Y3752596D01*
X901801Y3943756D01*
X902665Y3947820D01*
X905002Y3951173D01*
X908507Y3953306D01*
X912571Y3953916D01*
X916533Y3952849D01*
X919784Y3950309D01*
X921715Y3946651D01*
X924661Y3936796D01*
X930402Y3923792D01*
X937768Y3911650D01*
X946607Y3900525D01*
X956818Y3890670D01*
X968197Y3882186D01*
X980592Y3875176D01*
X993749Y3869842D01*
X1007516Y3866235D01*
X1021587Y3864457D01*
X1035812Y3864457D01*
X1049883Y3866235D01*
X1063650Y3869842D01*
X1076807Y3875176D01*
X1089202Y3882186D01*
X1100582Y3890670D01*
X1110792Y3900525D01*
X1119632Y3911650D01*
X1126998Y3923792D01*
X1129944Y3930446D01*
X1132179Y3933647D01*
X1135430Y3935729D01*
X1139240Y3936492D01*
X1186281Y3936492D01*
X1190193Y3935729D01*
X1193495Y3933494D01*
X1355394Y3771595D01*
X1357630Y3768293D01*
X1358392Y3764381D01*
X1358392Y3607308D01*
X1359204Y3599281D01*
X1361389Y3592068D01*
X1364945Y3585362D01*
X1370076Y3579164D01*
X1439367Y3509822D01*
X1445564Y3504742D01*
X1452270Y3501186D01*
X1459484Y3498951D01*
X1467510Y3498189D01*
X1469491Y3498189D01*
X1473555Y3497326D01*
X1476959Y3494938D01*
X1479092Y3491382D01*
X1481124Y3485591D01*
X1484172Y3480714D01*
X1488287Y3476599D01*
X1493164Y3473500D01*
X1498650Y3471621D01*
X1504950Y3470910D01*
X1593850Y3470910D01*
X1600149Y3471621D01*
X1605635Y3473500D01*
X1610512Y3476599D01*
X1614627Y3480714D01*
X1617675Y3485591D01*
X1619656Y3491280D01*
X1621840Y3494836D01*
X1625193Y3497224D01*
X1629257Y3498087D01*
X1942185Y3498087D01*
X1946097Y3497326D01*
X1949399Y3495090D01*
X2004364Y3440176D01*
X2010562Y3435045D01*
X2017268Y3431489D01*
X2024481Y3429304D01*
X2032507Y3428492D01*
X2704592Y3428492D01*
X2712618Y3429304D01*
X2719832Y3431489D01*
X2726537Y3435045D01*
X2732735Y3440176D01*
X3022904Y3730294D01*
X3026206Y3732529D01*
X3030118Y3733292D01*
X3655568Y3733292D01*
X3659733Y3732377D01*
X3663137Y3729888D01*
X3665270Y3726179D01*
X3665677Y3721963D01*
X3664305Y3717899D01*
X3661410Y3714800D01*
X3659479Y3713479D01*
X3652520Y3706520D01*
X3646881Y3698494D01*
X3642766Y3689553D01*
X3640226Y3680104D01*
X3639362Y3670300D01*
X3640226Y3660495D01*
X3642766Y3651046D01*
X3646881Y3642106D01*
X3652520Y3634079D01*
X3659479Y3627120D01*
X3667506Y3621481D01*
X3676446Y3617366D01*
X3685895Y3614826D01*
X3695700Y3613962D01*
X3706114Y3614877D01*
X3710482Y3614267D01*
X3714191Y3611930D01*
X3757726Y3568395D01*
X3759911Y3565093D01*
X3760724Y3561181D01*
X3760724Y3533597D01*
X3760114Y3530142D01*
X3759403Y3523894D01*
X3758082Y3519881D01*
X3755237Y3516782D01*
X3751376Y3515055D01*
X3747211Y3515055D01*
X3743350Y3516782D01*
X3740505Y3519881D01*
X3739184Y3523894D01*
X3738473Y3530142D01*
X3736543Y3535781D01*
X3735933Y3539134D01*
X3735882Y3550310D01*
X3729532Y3549599D01*
X3724300Y3548379D01*
X3719068Y3549599D01*
X3712718Y3550310D01*
X3698951Y3550310D01*
X3695090Y3551072D01*
X3691788Y3553307D01*
X3637229Y3607815D01*
X3635654Y3609898D01*
X3634333Y3613353D01*
X3630218Y3622294D01*
X3624579Y3630320D01*
X3617620Y3637279D01*
X3609594Y3642918D01*
X3600653Y3647033D01*
X3591204Y3649573D01*
X3581400Y3650437D01*
X3571595Y3649573D01*
X3562146Y3647033D01*
X3553206Y3642918D01*
X3545179Y3637279D01*
X3538220Y3630320D01*
X3532581Y3622294D01*
X3528466Y3613353D01*
X3525926Y3603904D01*
X3525062Y3594100D01*
X3525926Y3584295D01*
X3528466Y3574846D01*
X3532581Y3565906D01*
X3538220Y3557879D01*
X3545179Y3550920D01*
X3553206Y3545281D01*
X3562146Y3541166D01*
X3571595Y3538626D01*
X3581400Y3537762D01*
X3592068Y3538677D01*
X3596386Y3538118D01*
X3600094Y3535730D01*
X3653231Y3482644D01*
X3655415Y3479342D01*
X3656177Y3475482D01*
X3655415Y3471570D01*
X3653231Y3468268D01*
X3649929Y3466084D01*
X3646017Y3465322D01*
X3600856Y3465322D01*
X3591102Y3464001D01*
X3576218Y3464001D01*
X3572306Y3464763D01*
X3569004Y3466998D01*
X3563213Y3472789D01*
X3561587Y3474872D01*
X3560572Y3477361D01*
X3558133Y3486353D01*
X3554018Y3495294D01*
X3548379Y3503320D01*
X3541420Y3510279D01*
X3533394Y3515918D01*
X3524453Y3520033D01*
X3515004Y3522573D01*
X3505200Y3523437D01*
X3495395Y3522573D01*
X3485946Y3520033D01*
X3477006Y3515918D01*
X3468979Y3510279D01*
X3462020Y3503320D01*
X3456381Y3495294D01*
X3454146Y3490417D01*
X3451860Y3487318D01*
X3448558Y3485235D01*
X3444748Y3484575D01*
X3440988Y3485387D01*
X3437737Y3487572D01*
X3424631Y3500678D01*
X3422599Y3503574D01*
X3421684Y3506978D01*
X3420973Y3515004D01*
X3418433Y3524453D01*
X3414318Y3533394D01*
X3408679Y3541420D01*
X3401720Y3548379D01*
X3393694Y3554018D01*
X3384753Y3558133D01*
X3375304Y3560673D01*
X3365500Y3561537D01*
X3355695Y3560673D01*
X3346246Y3558133D01*
X3337306Y3554018D01*
X3329279Y3548379D01*
X3322320Y3541420D01*
X3316681Y3533394D01*
X3312566Y3524453D01*
X3310026Y3515004D01*
X3309721Y3511600D01*
X3308654Y3507892D01*
X3306318Y3504895D01*
X3303066Y3502914D01*
X3299307Y3502304D01*
X3295548Y3503117D01*
X3292398Y3505301D01*
X3287420Y3510279D01*
X3279394Y3515918D01*
X3270453Y3520033D01*
X3261004Y3522573D01*
X3251200Y3523437D01*
X3241395Y3522573D01*
X3231946Y3520033D01*
X3223006Y3515918D01*
X3214979Y3510279D01*
X3208020Y3503320D01*
X3202381Y3495294D01*
X3198266Y3486353D01*
X3195726Y3476904D01*
X3194862Y3467100D01*
X3195726Y3457295D01*
X3196183Y3455466D01*
X3196488Y3451656D01*
X3195320Y3447999D01*
X3192932Y3445052D01*
X3189579Y3443173D01*
X3185820Y3442665D01*
X3172104Y3446373D01*
X3162300Y3447237D01*
X3152495Y3446373D01*
X3143046Y3443833D01*
X3134106Y3439718D01*
X3126079Y3434079D01*
X3119120Y3427120D01*
X3113481Y3419094D01*
X3109366Y3410153D01*
X3106826Y3400704D01*
X3105962Y3390900D01*
X3106826Y3381095D01*
X3109468Y3371087D01*
X3109772Y3367227D01*
X3108553Y3363569D01*
X3106064Y3360572D01*
X3102660Y3358743D01*
X3088995Y3357473D01*
X3079546Y3354933D01*
X3070606Y3350818D01*
X3062579Y3345179D01*
X3055620Y3338220D01*
X3049981Y3330194D01*
X3045866Y3321253D01*
X3043326Y3311804D01*
X3042462Y3302000D01*
X3043326Y3292195D01*
X3045866Y3282746D01*
X3049981Y3273806D01*
X3055620Y3265779D01*
X3062579Y3258820D01*
X3070606Y3253181D01*
X3079546Y3249066D01*
X3088995Y3246526D01*
X3097022Y3245815D01*
X3100425Y3244900D01*
X3103321Y3242868D01*
X3144977Y3201212D01*
X3147161Y3197961D01*
X3147923Y3194050D01*
X3147161Y3190138D01*
X3144977Y3186887D01*
X3116021Y3157931D01*
X3113125Y3155899D01*
X3109722Y3154984D01*
X3101695Y3154273D01*
X3092246Y3151733D01*
X3083306Y3147618D01*
X3075279Y3141980D01*
X3068320Y3135020D01*
X3062681Y3126994D01*
X3058566Y3118053D01*
X3056026Y3108604D01*
X3055162Y3098800D01*
X3055467Y3095091D01*
X3055010Y3091027D01*
X3052927Y3087471D01*
X3049625Y3084982D01*
X3045663Y3084068D01*
X3041599Y3084779D01*
X3038144Y3087014D01*
X3026105Y3099104D01*
X3023870Y3102406D01*
X3023108Y3106318D01*
X3023108Y3155391D01*
X3023870Y3159302D01*
X3026105Y3162604D01*
X3027680Y3164179D01*
X3033318Y3172206D01*
X3037433Y3181146D01*
X3039973Y3190595D01*
X3040837Y3200400D01*
X3039973Y3210204D01*
X3037433Y3219653D01*
X3033318Y3228594D01*
X3027680Y3236620D01*
X3020720Y3243580D01*
X3012694Y3249218D01*
X3003753Y3253333D01*
X2994304Y3255873D01*
X2984500Y3256737D01*
X2974695Y3255873D01*
X2965246Y3253333D01*
X2956306Y3249218D01*
X2948279Y3243580D01*
X2941320Y3236620D01*
X2935681Y3228543D01*
X2932887Y3225850D01*
X2929280Y3224377D01*
X2925419Y3224377D01*
X2921812Y3225850D01*
X2919018Y3228543D01*
X2913380Y3236620D01*
X2906420Y3243580D01*
X2898394Y3249218D01*
X2889453Y3253333D01*
X2880004Y3255873D01*
X2870200Y3256737D01*
X2860395Y3255873D01*
X2850946Y3253333D01*
X2842006Y3249218D01*
X2833979Y3243580D01*
X2827020Y3236620D01*
X2821381Y3228594D01*
X2817266Y3219653D01*
X2814726Y3210204D01*
X2813862Y3200400D01*
X2814726Y3190595D01*
X2817266Y3181146D01*
X2821381Y3172206D01*
X2827020Y3164179D01*
X2828594Y3162604D01*
X2830830Y3159302D01*
X2831592Y3155391D01*
X2831592Y3124708D01*
X2832404Y3116681D01*
X2834589Y3109468D01*
X2838145Y3102762D01*
X2843276Y3096564D01*
X3185464Y2754376D01*
X3191662Y2749245D01*
X3198368Y2745689D01*
X3205581Y2743504D01*
X3213608Y2742692D01*
X3313531Y2742692D01*
X3317138Y2742031D01*
X3320287Y2740101D01*
X3322574Y2737154D01*
X3323640Y2733598D01*
X3323336Y2729890D01*
X3322726Y2727604D01*
X3321862Y2717800D01*
X3322726Y2707995D01*
X3325266Y2698546D01*
X3329381Y2689606D01*
X3335020Y2681579D01*
X3341979Y2674620D01*
X3350006Y2668981D01*
X3358946Y2664866D01*
X3368395Y2662326D01*
X3378200Y2661462D01*
X3388004Y2662326D01*
X3397453Y2664866D01*
X3406394Y2668981D01*
X3414420Y2674620D01*
X3415995Y2676194D01*
X3419297Y2678430D01*
X3423208Y2679192D01*
X3516731Y2679192D01*
X3520338Y2678531D01*
X3523487Y2676601D01*
X3525774Y2673654D01*
X3526840Y2670098D01*
X3526536Y2666390D01*
X3525926Y2664104D01*
X3525062Y2654300D01*
X3525926Y2644495D01*
X3528466Y2635046D01*
X3530244Y2631186D01*
X3531209Y2627223D01*
X3530549Y2623210D01*
X3528364Y2619806D01*
X3525012Y2617520D01*
X3521049Y2616708D01*
X2745435Y2616708D01*
X2741574Y2617470D01*
X2738272Y2619705D01*
X2645105Y2712872D01*
X2642870Y2716174D01*
X2642108Y2720035D01*
X2642108Y3288741D01*
X2641396Y3295040D01*
X2639466Y3300526D01*
X2636113Y3305911D01*
X2585974Y3368548D01*
X2581503Y3373018D01*
X2576626Y3376066D01*
X2571140Y3377996D01*
X2564841Y3378708D01*
X2235504Y3378708D01*
X2229459Y3378047D01*
X2223973Y3376117D01*
X2219045Y3373018D01*
X2216658Y3370935D01*
X1924964Y3079242D01*
X1921154Y3074466D01*
X1918665Y3069234D01*
X1917395Y3063595D01*
X1917192Y3060395D01*
X1917192Y2350058D01*
X1917903Y2343759D01*
X1919833Y2338273D01*
X1922881Y2333396D01*
X1926996Y2329281D01*
X1931873Y2326233D01*
X1937359Y2324303D01*
X1943658Y2323592D01*
X2844139Y2323592D01*
X2847898Y2322880D01*
X2851150Y2320798D01*
X2853385Y2317648D01*
X2854248Y2313889D01*
X2852978Y2303729D01*
X2852978Y2275382D01*
X2906318Y2275382D01*
X2906318Y2313432D01*
X2907080Y2317343D01*
X2909265Y2320594D01*
X2912567Y2322830D01*
X2916478Y2323592D01*
X2976321Y2323592D01*
X2980232Y2322830D01*
X2983534Y2320594D01*
X2985719Y2317343D01*
X2986481Y2313432D01*
X2986481Y2275382D01*
X3039821Y2275382D01*
X3039821Y2303729D01*
X3038551Y2313889D01*
X3039414Y2317648D01*
X3041650Y2320798D01*
X3044901Y2322880D01*
X3048660Y2323592D01*
X3110839Y2323592D01*
X3114598Y2322880D01*
X3117850Y2320798D01*
X3120085Y2317648D01*
X3120948Y2313889D01*
X3119678Y2303729D01*
X3119678Y2275382D01*
X3173018Y2275382D01*
X3173018Y2313432D01*
X3173780Y2317343D01*
X3175965Y2320594D01*
X3179267Y2322830D01*
X3183178Y2323592D01*
X3243021Y2323592D01*
X3246932Y2322830D01*
X3250234Y2320594D01*
X3252419Y2317343D01*
X3253181Y2313432D01*
X3253181Y2275382D01*
X3306521Y2275382D01*
X3306521Y2303729D01*
X3305251Y2313889D01*
X3306114Y2317648D01*
X3308350Y2320798D01*
X3311601Y2322880D01*
X3315360Y2323592D01*
X3377539Y2323592D01*
X3381298Y2322880D01*
X3384550Y2320798D01*
X3386785Y2317648D01*
X3387648Y2313889D01*
X3386378Y2303729D01*
X3386378Y2275382D01*
X3439718Y2275382D01*
X3439718Y2313432D01*
X3440480Y2317343D01*
X3442665Y2320594D01*
X3445967Y2322830D01*
X3449878Y2323592D01*
X3509721Y2323592D01*
X3513632Y2322830D01*
X3516934Y2320594D01*
X3519119Y2317343D01*
X3519881Y2313432D01*
X3519881Y2275382D01*
X3573221Y2275382D01*
X3573221Y2303729D01*
X3571951Y2313889D01*
X3572814Y2317648D01*
X3575050Y2320798D01*
X3578301Y2322880D01*
X3582060Y2323592D01*
X3644239Y2323592D01*
X3647998Y2322880D01*
X3651250Y2320798D01*
X3653485Y2317648D01*
X3654348Y2313889D01*
X3653078Y2303729D01*
X3653078Y2275382D01*
X3706418Y2275382D01*
X3706418Y2313432D01*
X3707180Y2317343D01*
X3709365Y2320594D01*
X3712667Y2322830D01*
X3716578Y2323592D01*
X3776421Y2323592D01*
X3780332Y2322830D01*
X3783634Y2320594D01*
X3785819Y2317343D01*
X3786581Y2313432D01*
X3786581Y2275382D01*
X3839921Y2275382D01*
X3839921Y2303729D01*
X3838651Y2313889D01*
X3839514Y2317648D01*
X3841750Y2320798D01*
X3845001Y2322880D01*
X3848760Y2323592D01*
X3910939Y2323592D01*
X3914698Y2322880D01*
X3917950Y2320798D01*
X3920185Y2317648D01*
X3921048Y2313889D01*
X3919778Y2303729D01*
X3919778Y2275382D01*
X3973118Y2275382D01*
X3973118Y2313432D01*
X3973880Y2317343D01*
X3976065Y2320594D01*
X3979367Y2322830D01*
X3983278Y2323592D01*
X4043121Y2323592D01*
X4047032Y2322830D01*
X4050334Y2320594D01*
X4052519Y2317343D01*
X4053281Y2313432D01*
X4053281Y2275382D01*
X4106621Y2275382D01*
X4106621Y2303729D01*
X4105351Y2313889D01*
X4106214Y2317648D01*
X4108450Y2320798D01*
X4111701Y2322880D01*
X4115460Y2323592D01*
X4127195Y2323592D01*
X4133240Y2324252D01*
X4138726Y2326182D01*
X4143654Y2329281D01*
X4146042Y2331364D01*
X4171035Y2356358D01*
X4174845Y2361133D01*
X4177334Y2366365D01*
X4178604Y2372004D01*
X4178808Y2375204D01*
X4178808Y2552395D01*
X4178147Y2558440D01*
X4176217Y2563926D01*
X4173118Y2568854D01*
X4171035Y2571242D01*
X4143705Y2598572D01*
X4141470Y2601874D01*
X4140708Y2605735D01*
X4140708Y2840329D01*
X4141470Y2844241D01*
X4143705Y2847492D01*
X4146956Y2849727D01*
X4150868Y2850489D01*
X4162755Y2850489D01*
X4169054Y2851200D01*
X4174490Y2853131D01*
X4179417Y2856179D01*
X4183481Y2860294D01*
X4186936Y2865729D01*
X4189222Y2868269D01*
X4192219Y2869895D01*
X4195622Y2870454D01*
X4243933Y2869946D01*
X4247794Y2869133D01*
X4251045Y2866948D01*
X4253230Y2863646D01*
X4253992Y2859786D01*
X4253992Y2052218D01*
X4253230Y2048306D01*
X4250994Y2045004D01*
X4152595Y1946605D01*
X4149293Y1944370D01*
X4145381Y1943607D01*
X4100779Y1943607D01*
X4097172Y1944268D01*
X4094022Y1946198D01*
X4091736Y1949094D01*
X4090568Y1953971D01*
X4088637Y1959406D01*
X4085539Y1964334D01*
X4081475Y1968398D01*
X4076547Y1971497D01*
X4071112Y1973376D01*
X4064762Y1974088D01*
X3985260Y1974088D01*
X3978960Y1973376D01*
X3973474Y1971497D01*
X3968597Y1968398D01*
X3964482Y1964334D01*
X3961434Y1959406D01*
X3959301Y1953361D01*
X3957167Y1949805D01*
X3953764Y1947367D01*
X3949700Y1946554D01*
X3945636Y1947367D01*
X3942232Y1949805D01*
X3940098Y1953361D01*
X3937965Y1959406D01*
X3934917Y1964334D01*
X3930802Y1968398D01*
X3925925Y1971497D01*
X3920439Y1973376D01*
X3914140Y1974088D01*
X3900881Y1974088D01*
X3900881Y1932939D01*
X3948633Y1932939D01*
X3952544Y1932178D01*
X3955796Y1929993D01*
X3958031Y1926691D01*
X3958793Y1922780D01*
X3958793Y1887220D01*
X3958031Y1883308D01*
X3955796Y1880006D01*
X3952544Y1877822D01*
X3948633Y1877060D01*
X3900881Y1877060D01*
X3900881Y1826768D01*
X3900119Y1822856D01*
X3897934Y1819605D01*
X3894632Y1817370D01*
X3890721Y1816607D01*
X3858006Y1816607D01*
X3854145Y1817370D01*
X3850843Y1819605D01*
X3848658Y1822856D01*
X3847846Y1826768D01*
X3847846Y1877060D01*
X3808120Y1877060D01*
X3808120Y1862378D01*
X3808831Y1856028D01*
X3810762Y1850593D01*
X3813860Y1845665D01*
X3817924Y1841601D01*
X3822852Y1838502D01*
X3828999Y1836369D01*
X3832504Y1834286D01*
X3834892Y1831035D01*
X3835806Y1827072D01*
X3835146Y1823110D01*
X3832961Y1819706D01*
X3829608Y1817420D01*
X3825646Y1816607D01*
X3787140Y1816607D01*
X3783228Y1817370D01*
X3779926Y1819605D01*
X3725418Y1874062D01*
X3723233Y1877364D01*
X3722471Y1881276D01*
X3722471Y1973275D01*
X3721760Y1979625D01*
X3719829Y1985060D01*
X3716782Y1989988D01*
X3712667Y1994052D01*
X3707790Y1997151D01*
X3702304Y1999030D01*
X3696004Y1999742D01*
X3583889Y1999742D01*
X3577539Y1999030D01*
X3572103Y1997151D01*
X3567176Y1994052D01*
X3563112Y1989988D01*
X3560013Y1985060D01*
X3558082Y1979625D01*
X3557371Y1973275D01*
X3557371Y1836724D01*
X3558082Y1830374D01*
X3560013Y1824939D01*
X3563112Y1820011D01*
X3567176Y1815947D01*
X3572103Y1812848D01*
X3577539Y1810969D01*
X3583889Y1810257D01*
X3675887Y1810257D01*
X3679748Y1809445D01*
X3683050Y1807260D01*
X3739286Y1751075D01*
X3745484Y1745945D01*
X3752189Y1742389D01*
X3759403Y1740204D01*
X3767429Y1739392D01*
X3949192Y1739392D01*
X3957218Y1740204D01*
X3964432Y1742389D01*
X3971137Y1745945D01*
X3977335Y1751075D01*
X4051960Y1825701D01*
X4057294Y1832152D01*
X4060342Y1834642D01*
X4064050Y1835810D01*
X4071112Y1836623D01*
X4076547Y1838502D01*
X4081475Y1841601D01*
X4085539Y1845665D01*
X4088637Y1850593D01*
X4090568Y1856028D01*
X4091736Y1860905D01*
X4094022Y1863801D01*
X4097172Y1865731D01*
X4100779Y1866392D01*
X4165092Y1866392D01*
X4173118Y1867204D01*
X4180332Y1869389D01*
X4187037Y1872945D01*
X4193235Y1878075D01*
X4287469Y1972259D01*
X4290720Y1974443D01*
X4294632Y1975205D01*
X4298543Y1974443D01*
X4301794Y1972259D01*
X4304030Y1968957D01*
X4304792Y1965045D01*
X4304792Y1911908D01*
X4304030Y1907997D01*
X4301794Y1904695D01*
X4300220Y1903120D01*
X4294581Y1895093D01*
X4290466Y1886153D01*
X4287926Y1876704D01*
X4287062Y1866900D01*
X4287926Y1857095D01*
X4290466Y1847646D01*
X4294581Y1838706D01*
X4300220Y1830679D01*
X4307179Y1823720D01*
X4315206Y1818081D01*
X4324146Y1813966D01*
X4333595Y1811426D01*
X4343400Y1810562D01*
X4353204Y1811426D01*
X4362653Y1813966D01*
X4371594Y1818081D01*
X4379620Y1823720D01*
X4381195Y1825294D01*
X4384497Y1827530D01*
X4388408Y1828292D01*
X5282692Y1828292D01*
X5290718Y1829104D01*
X5297932Y1831289D01*
X5304637Y1834845D01*
X5310835Y1839975D01*
X5405069Y1934159D01*
X5408320Y1936343D01*
X5412232Y1937105D01*
X5416143Y1936343D01*
X5419394Y1934159D01*
X5421630Y1930857D01*
X5422392Y1926945D01*
X5422392Y1727758D01*
X5423103Y1721459D01*
X5425033Y1715973D01*
X5428081Y1711096D01*
X5432196Y1706981D01*
X5437073Y1703933D01*
X5442559Y1702003D01*
X5448858Y1701292D01*
X6844995Y1701292D01*
X6851040Y1701952D01*
X6856526Y1703882D01*
X6861454Y1706981D01*
X6863842Y1709064D01*
X6876135Y1721357D01*
X6879945Y1726133D01*
X6882434Y1731365D01*
X6883704Y1737004D01*
X6883908Y1740204D01*
X6883908Y2194864D01*
X6884670Y2198725D01*
X6886905Y2202027D01*
X6941972Y2257094D01*
X6945274Y2259330D01*
X6949135Y2260092D01*
X7365695Y2260092D01*
X7371740Y2260752D01*
X7377226Y2262682D01*
X7382154Y2265781D01*
X7384542Y2267864D01*
X7447635Y2330958D01*
X7451445Y2335733D01*
X7453934Y2340965D01*
X7455204Y2346604D01*
X7455408Y2349804D01*
X7455408Y2526995D01*
X7454747Y2533040D01*
X7452817Y2538526D01*
X7449718Y2543454D01*
X7447635Y2545842D01*
X7384542Y2608935D01*
X7379766Y2612745D01*
X7374534Y2615234D01*
X7368895Y2616504D01*
X7365695Y2616708D01*
X7355281Y2616708D01*
X7351369Y2617470D01*
X7348067Y2619705D01*
X7345883Y2622956D01*
X7345121Y2626868D01*
X7345121Y2652217D01*
X7291781Y2652217D01*
X7291781Y2626868D01*
X7291019Y2622956D01*
X7288834Y2619705D01*
X7285532Y2617470D01*
X7281621Y2616708D01*
X7221778Y2616708D01*
X7217867Y2617470D01*
X7214565Y2619705D01*
X7212380Y2622956D01*
X7211618Y2626868D01*
X7211618Y2652217D01*
X7158278Y2652217D01*
X7158278Y2626868D01*
X7157516Y2622956D01*
X7155332Y2619705D01*
X7152030Y2617470D01*
X7148118Y2616708D01*
X7088581Y2616708D01*
X7084669Y2617470D01*
X7081367Y2619705D01*
X7079183Y2622956D01*
X7078421Y2626868D01*
X7078421Y2652217D01*
X7025081Y2652217D01*
X7025081Y2626868D01*
X7024319Y2622956D01*
X7022134Y2619705D01*
X7018832Y2617470D01*
X7014921Y2616708D01*
X6955078Y2616708D01*
X6951167Y2617470D01*
X6947865Y2619705D01*
X6945680Y2622956D01*
X6944918Y2626868D01*
X6944918Y2652217D01*
X6891578Y2652217D01*
X6891578Y2626868D01*
X6890816Y2622956D01*
X6888632Y2619705D01*
X6885330Y2617470D01*
X6881418Y2616708D01*
X6834581Y2616708D01*
X6830669Y2617470D01*
X6827367Y2619705D01*
X6825183Y2622956D01*
X6824421Y2626868D01*
X6824421Y2652217D01*
X6771081Y2652217D01*
X6771081Y2626868D01*
X6770319Y2622956D01*
X6768134Y2619705D01*
X6764832Y2617470D01*
X6760921Y2616708D01*
X6701078Y2616708D01*
X6697167Y2617470D01*
X6693865Y2619705D01*
X6691680Y2622956D01*
X6690918Y2626868D01*
X6690918Y2652217D01*
X6637578Y2652217D01*
X6637578Y2626868D01*
X6636816Y2622956D01*
X6634632Y2619705D01*
X6631330Y2617470D01*
X6627418Y2616708D01*
X6555181Y2616708D01*
X6551269Y2617470D01*
X6547967Y2619705D01*
X6545783Y2622956D01*
X6545021Y2626868D01*
X6545021Y2652217D01*
X6491681Y2652217D01*
X6491681Y2626868D01*
X6490919Y2622956D01*
X6488734Y2619705D01*
X6485432Y2617470D01*
X6481521Y2616708D01*
X6421678Y2616708D01*
X6417767Y2617470D01*
X6414465Y2619705D01*
X6412280Y2622956D01*
X6411518Y2626868D01*
X6411518Y2652217D01*
X6358178Y2652217D01*
X6358178Y2626868D01*
X6357416Y2622956D01*
X6355232Y2619705D01*
X6351930Y2617470D01*
X6348018Y2616708D01*
X6288481Y2616708D01*
X6284569Y2617470D01*
X6281267Y2619705D01*
X6279083Y2622956D01*
X6278321Y2626868D01*
X6278321Y2652217D01*
X6224981Y2652217D01*
X6224981Y2626868D01*
X6224219Y2622956D01*
X6222034Y2619705D01*
X6218732Y2617470D01*
X6214821Y2616708D01*
X6154978Y2616708D01*
X6151067Y2617470D01*
X6147765Y2619705D01*
X6145580Y2622956D01*
X6144818Y2626868D01*
X6144818Y2652217D01*
X6091478Y2652217D01*
X6091478Y2626868D01*
X6090716Y2622956D01*
X6088532Y2619705D01*
X6085230Y2617470D01*
X6081318Y2616708D01*
X6010554Y2616708D01*
X6006642Y2617470D01*
X6003340Y2619705D01*
X6001156Y2622956D01*
X6000394Y2626868D01*
X6001156Y2630779D01*
X6003340Y2634030D01*
X6072124Y2702864D01*
X6077254Y2709062D01*
X6080810Y2715768D01*
X6082995Y2722981D01*
X6083350Y2726232D01*
X6084366Y2729788D01*
X6086602Y2732786D01*
X6089802Y2734716D01*
X6093460Y2735376D01*
X6144818Y2735376D01*
X6144818Y2783332D01*
X6145580Y2787243D01*
X6147765Y2790494D01*
X6151067Y2792730D01*
X6154978Y2793492D01*
X6214821Y2793492D01*
X6218732Y2792730D01*
X6222034Y2790494D01*
X6224219Y2787243D01*
X6224981Y2783332D01*
X6224981Y2735376D01*
X6278321Y2735376D01*
X6278321Y2763723D01*
X6277610Y2770073D01*
X6275679Y2775508D01*
X6274155Y2777947D01*
X6272682Y2781960D01*
X6273038Y2786278D01*
X6275120Y2790037D01*
X6278575Y2792577D01*
X6282791Y2793492D01*
X6353708Y2793492D01*
X6357924Y2792577D01*
X6361379Y2790037D01*
X6363462Y2786278D01*
X6363817Y2781960D01*
X6362344Y2777947D01*
X6360820Y2775508D01*
X6358890Y2770073D01*
X6358178Y2763723D01*
X6358178Y2735376D01*
X6411518Y2735376D01*
X6411518Y2783332D01*
X6412280Y2787243D01*
X6414465Y2790494D01*
X6417767Y2792730D01*
X6421678Y2793492D01*
X6481521Y2793492D01*
X6485432Y2792730D01*
X6488734Y2790494D01*
X6490919Y2787243D01*
X6491681Y2783332D01*
X6491681Y2735376D01*
X6545021Y2735376D01*
X6545021Y2763723D01*
X6544309Y2770073D01*
X6542379Y2775508D01*
X6540855Y2777947D01*
X6539382Y2781960D01*
X6539738Y2786278D01*
X6541820Y2790037D01*
X6545275Y2792577D01*
X6549491Y2793492D01*
X6633108Y2793492D01*
X6637324Y2792577D01*
X6640779Y2790037D01*
X6642862Y2786278D01*
X6643217Y2781960D01*
X6641744Y2777947D01*
X6640220Y2775508D01*
X6638290Y2770073D01*
X6637578Y2763723D01*
X6637578Y2735376D01*
X6690918Y2735376D01*
X6690918Y2783332D01*
X6691680Y2787243D01*
X6693865Y2790494D01*
X6697167Y2792730D01*
X6701078Y2793492D01*
X6760921Y2793492D01*
X6764832Y2792730D01*
X6768134Y2790494D01*
X6770319Y2787243D01*
X6771081Y2783332D01*
X6771081Y2735376D01*
X6824421Y2735376D01*
X6824421Y2763723D01*
X6823709Y2770073D01*
X6821779Y2775508D01*
X6819747Y2778760D01*
X6818325Y2782620D01*
X6818528Y2786684D01*
X6820306Y2790393D01*
X6823456Y2793034D01*
X6834631Y2796489D01*
X6841337Y2800045D01*
X6847535Y2805176D01*
X6923786Y2881426D01*
X6928916Y2887624D01*
X6932472Y2894330D01*
X6934657Y2901543D01*
X6935470Y2909570D01*
X6935470Y2931617D01*
X6936333Y2935681D01*
X6938721Y2939084D01*
X6942277Y2941218D01*
X6948525Y2943402D01*
X6953402Y2946501D01*
X6957517Y2950565D01*
X6960565Y2955493D01*
X6962698Y2961538D01*
X6964832Y2965094D01*
X6968236Y2967532D01*
X6972300Y2968345D01*
X6976364Y2967532D01*
X6979767Y2965094D01*
X6981901Y2961538D01*
X6984034Y2955493D01*
X6987082Y2950565D01*
X6991197Y2946501D01*
X6996074Y2943402D01*
X7001560Y2941523D01*
X7007859Y2940812D01*
X7042912Y2940812D01*
X7047179Y2939846D01*
X7050684Y2937154D01*
X7052716Y2933242D01*
X7052919Y2928874D01*
X7046366Y2914853D01*
X7043826Y2905404D01*
X7042962Y2895600D01*
X7043826Y2885795D01*
X7046366Y2876346D01*
X7050481Y2867406D01*
X7056120Y2859379D01*
X7063079Y2852420D01*
X7071106Y2846781D01*
X7080046Y2842666D01*
X7089495Y2840126D01*
X7099300Y2839262D01*
X7109104Y2840126D01*
X7118553Y2842666D01*
X7127494Y2846781D01*
X7135520Y2852420D01*
X7142480Y2859379D01*
X7148118Y2867456D01*
X7150912Y2870149D01*
X7154519Y2871622D01*
X7158380Y2871622D01*
X7161987Y2870149D01*
X7164781Y2867456D01*
X7170420Y2859379D01*
X7177379Y2852420D01*
X7185406Y2846781D01*
X7194346Y2842666D01*
X7203795Y2840126D01*
X7213600Y2839262D01*
X7223404Y2840126D01*
X7232853Y2842666D01*
X7241794Y2846781D01*
X7249820Y2852420D01*
X7256780Y2859379D01*
X7262418Y2867406D01*
X7266533Y2876346D01*
X7269073Y2885795D01*
X7269937Y2895600D01*
X7269073Y2905404D01*
X7266533Y2914853D01*
X7264400Y2919526D01*
X7263434Y2923489D01*
X7264095Y2927451D01*
X7266279Y2930906D01*
X7269632Y2933192D01*
X7273594Y2934004D01*
X7300010Y2934004D01*
X7306360Y2934716D01*
X7311796Y2936595D01*
X7316724Y2939694D01*
X7320788Y2943809D01*
X7323886Y2948686D01*
X7325766Y2954172D01*
X7326477Y2960471D01*
X7326477Y3021990D01*
X7327290Y3025902D01*
X7329474Y3029204D01*
X7338568Y3038297D01*
X7341870Y3040481D01*
X7345730Y3041243D01*
X7396734Y3041243D01*
X7396734Y3092246D01*
X7397496Y3096158D01*
X7399731Y3099409D01*
X7452512Y3152241D01*
X7457998Y3158896D01*
X7461503Y3161639D01*
X7465822Y3162604D01*
X7470038Y3162604D01*
X7476337Y3163316D01*
X7481824Y3165195D01*
X7486700Y3168294D01*
X7490815Y3172409D01*
X7493863Y3177286D01*
X7495794Y3182772D01*
X7496505Y3189071D01*
X7496505Y3287928D01*
X7495794Y3294227D01*
X7493863Y3299714D01*
X7490815Y3304590D01*
X7486700Y3308705D01*
X7481824Y3311804D01*
X7476337Y3313684D01*
X7470038Y3314395D01*
X7381189Y3314395D01*
X7374839Y3313684D01*
X7369403Y3311804D01*
X7364475Y3308705D01*
X7360412Y3304590D01*
X7357313Y3299714D01*
X7355382Y3294227D01*
X7354671Y3287928D01*
X7354671Y3189071D01*
X7355382Y3182772D01*
X7358786Y3173018D01*
X7358227Y3168548D01*
X7355840Y3164738D01*
X7279894Y3088792D01*
X7276592Y3086557D01*
X7272680Y3085795D01*
X7211161Y3085795D01*
X7204862Y3085084D01*
X7199375Y3083204D01*
X7194499Y3080105D01*
X7190384Y3075990D01*
X7187285Y3071114D01*
X7185406Y3065627D01*
X7184694Y3059328D01*
X7184694Y2996793D01*
X7184085Y2993390D01*
X7181545Y2989326D01*
X7177989Y2982671D01*
X7175804Y2975457D01*
X7174992Y2967431D01*
X7174992Y2940608D01*
X7174230Y2936697D01*
X7171994Y2933395D01*
X7170420Y2931820D01*
X7164781Y2923743D01*
X7161987Y2921050D01*
X7158380Y2919577D01*
X7154519Y2919577D01*
X7150912Y2921050D01*
X7148118Y2923743D01*
X7142480Y2931820D01*
X7140905Y2933395D01*
X7138670Y2936697D01*
X7137908Y2940608D01*
X7137908Y2957728D01*
X7137095Y2965754D01*
X7134910Y2972968D01*
X7131354Y2979674D01*
X7126224Y2985871D01*
X7116825Y2995320D01*
X7114641Y2998571D01*
X7113879Y3002483D01*
X7113879Y3052521D01*
X7113168Y3058871D01*
X7111238Y3064306D01*
X7108139Y3069234D01*
X7104075Y3073298D01*
X7099147Y3076397D01*
X7093712Y3078276D01*
X7087362Y3078988D01*
X7007859Y3078988D01*
X7001560Y3078276D01*
X6996074Y3076397D01*
X6991197Y3073298D01*
X6987082Y3069234D01*
X6984034Y3064306D01*
X6981901Y3058261D01*
X6979767Y3054705D01*
X6976364Y3052267D01*
X6972300Y3051454D01*
X6968236Y3052267D01*
X6964832Y3054705D01*
X6962698Y3058261D01*
X6960565Y3064306D01*
X6957517Y3069234D01*
X6953402Y3073298D01*
X6948525Y3076397D01*
X6943039Y3078276D01*
X6936740Y3078988D01*
X6857238Y3078988D01*
X6850888Y3078276D01*
X6845452Y3076397D01*
X6840524Y3073298D01*
X6836460Y3069234D01*
X6833362Y3064306D01*
X6831431Y3058871D01*
X6830720Y3052521D01*
X6830720Y2967278D01*
X6831431Y2960928D01*
X6833362Y2955493D01*
X6836460Y2950565D01*
X6840524Y2946501D01*
X6845452Y2943402D01*
X6851446Y2941320D01*
X6855002Y2939186D01*
X6857390Y2935782D01*
X6858253Y2931718D01*
X6858253Y2929280D01*
X6857492Y2925368D01*
X6855256Y2922066D01*
X6817055Y2883814D01*
X6813600Y2881579D01*
X6809536Y2880868D01*
X6805574Y2881833D01*
X6802272Y2884271D01*
X6800189Y2887827D01*
X6799732Y2891891D01*
X6800037Y2895600D01*
X6799173Y2905404D01*
X6796633Y2914853D01*
X6792518Y2923794D01*
X6786880Y2931820D01*
X6785305Y2933395D01*
X6783070Y2936697D01*
X6782308Y2940608D01*
X6782308Y2970428D01*
X6781495Y2978454D01*
X6779310Y2985668D01*
X6775754Y2992374D01*
X6773265Y2995422D01*
X6771538Y2998419D01*
X6770979Y3001873D01*
X6770979Y3052521D01*
X6770268Y3058871D01*
X6768338Y3064306D01*
X6765239Y3069234D01*
X6761175Y3073298D01*
X6756247Y3076397D01*
X6750812Y3078276D01*
X6744462Y3078988D01*
X6664959Y3078988D01*
X6658660Y3078276D01*
X6653174Y3076397D01*
X6648297Y3073298D01*
X6644182Y3069234D01*
X6641134Y3064306D01*
X6639001Y3058261D01*
X6636867Y3054705D01*
X6633464Y3052267D01*
X6629400Y3051454D01*
X6625336Y3052267D01*
X6621932Y3054705D01*
X6619798Y3058261D01*
X6617665Y3064306D01*
X6614617Y3069234D01*
X6610502Y3073298D01*
X6605625Y3076397D01*
X6600139Y3078276D01*
X6593840Y3078988D01*
X6514338Y3078988D01*
X6507988Y3078276D01*
X6502552Y3076397D01*
X6497624Y3073298D01*
X6493560Y3069234D01*
X6490462Y3064306D01*
X6488531Y3058871D01*
X6487820Y3052521D01*
X6487820Y2967278D01*
X6488531Y2960928D01*
X6490462Y2955493D01*
X6493560Y2950565D01*
X6497320Y2946806D01*
X6499555Y2943504D01*
X6500317Y2939592D01*
X6499555Y2935732D01*
X6497320Y2932430D01*
X6489395Y2924505D01*
X6486093Y2922270D01*
X6482181Y2921508D01*
X6058408Y2921508D01*
X6050381Y2920695D01*
X6043168Y2918510D01*
X6036462Y2914954D01*
X6030264Y2909824D01*
X5967476Y2847035D01*
X5962345Y2840837D01*
X5958789Y2834132D01*
X5956604Y2826918D01*
X5955792Y2818892D01*
X5955792Y2776118D01*
X5955030Y2772206D01*
X5952794Y2768904D01*
X5917895Y2734005D01*
X5914593Y2731770D01*
X5910681Y2731008D01*
X5512308Y2731008D01*
X5504281Y2730195D01*
X5497068Y2728010D01*
X5490362Y2724454D01*
X5484164Y2719324D01*
X5307076Y2542235D01*
X5301945Y2536037D01*
X5298389Y2529332D01*
X5296204Y2522118D01*
X5295392Y2514092D01*
X5295392Y2026818D01*
X5294630Y2022906D01*
X5292394Y2019604D01*
X5257495Y1984705D01*
X5254193Y1982470D01*
X5250281Y1981707D01*
X4455668Y1981707D01*
X4451756Y1982470D01*
X4448505Y1984705D01*
X4446270Y1987956D01*
X4445508Y1991868D01*
X4445508Y2945892D01*
X4444695Y2953918D01*
X4442510Y2961132D01*
X4438954Y2967837D01*
X4433824Y2974035D01*
X4358335Y3049524D01*
X4352137Y3054654D01*
X4345432Y3058210D01*
X4338218Y3060395D01*
X4330192Y3061208D01*
X4284370Y3061208D01*
X4280306Y3062071D01*
X4263034Y3062071D01*
X4259681Y3062630D01*
X4253992Y3064611D01*
X4247997Y3065322D01*
X4243882Y3066796D01*
X4240733Y3069793D01*
X4239158Y3073857D01*
X4239412Y3078226D01*
X4241495Y3082036D01*
X4244949Y3084677D01*
X4249216Y3085592D01*
X4379264Y3085592D01*
X4383125Y3084830D01*
X4386427Y3082594D01*
X4466894Y3002127D01*
X4469130Y2998825D01*
X4469892Y2994964D01*
X4469892Y2057704D01*
X4470552Y2051659D01*
X4472482Y2046173D01*
X4475581Y2041245D01*
X4477664Y2038857D01*
X4502658Y2013864D01*
X4507433Y2010054D01*
X4512665Y2007565D01*
X4518304Y2006295D01*
X4521504Y2006092D01*
X5016195Y2006092D01*
X5022240Y2006752D01*
X5027726Y2008682D01*
X5032654Y2011781D01*
X5035042Y2013864D01*
X5060035Y2038857D01*
X5063845Y2043633D01*
X5066334Y2048865D01*
X5067604Y2054504D01*
X5067808Y2057704D01*
X5067808Y2374798D01*
X5080508Y3529990D01*
X5079898Y3536035D01*
X5078069Y3541522D01*
X5075072Y3546500D01*
X5072684Y3549142D01*
X5032908Y3588969D01*
X5030673Y3592220D01*
X5029911Y3596132D01*
X5030673Y3600043D01*
X5032908Y3603294D01*
X5036210Y3605529D01*
X5040071Y3606292D01*
X5847181Y3606292D01*
X5851093Y3605529D01*
X5854395Y3603294D01*
X5890564Y3567176D01*
X5896762Y3562045D01*
X5903468Y3558489D01*
X5910681Y3556304D01*
X5918708Y3555492D01*
X6558381Y3555492D01*
X6562293Y3554729D01*
X6565595Y3552494D01*
X6684314Y3433775D01*
X6686499Y3430473D01*
X6687312Y3426612D01*
X6687312Y3362960D01*
X6688023Y3356660D01*
X6689902Y3351174D01*
X6693001Y3346297D01*
X6697065Y3342182D01*
X6701993Y3339134D01*
X6708038Y3337001D01*
X6711594Y3334867D01*
X6714032Y3331464D01*
X6714845Y3327400D01*
X6714032Y3323336D01*
X6711594Y3319932D01*
X6708038Y3317798D01*
X6701993Y3315665D01*
X6697065Y3312617D01*
X6693001Y3308502D01*
X6689902Y3303625D01*
X6688023Y3298139D01*
X6687312Y3291840D01*
X6687312Y3212338D01*
X6688023Y3205988D01*
X6689902Y3200552D01*
X6693001Y3195624D01*
X6697065Y3191560D01*
X6701993Y3188462D01*
X6707428Y3186531D01*
X6713778Y3185820D01*
X6799021Y3185820D01*
X6805371Y3186531D01*
X6810806Y3188462D01*
X6815734Y3191560D01*
X6819798Y3195624D01*
X6822897Y3200552D01*
X6824776Y3205988D01*
X6826046Y3210966D01*
X6828281Y3213912D01*
X6831431Y3215792D01*
X6835038Y3216452D01*
X6873951Y3216452D01*
X6877558Y3215792D01*
X6880707Y3213912D01*
X6882993Y3210966D01*
X6884060Y3207461D01*
X6884416Y3204362D01*
X6886295Y3198876D01*
X6889394Y3193999D01*
X6893509Y3189884D01*
X6898386Y3186785D01*
X6903872Y3184906D01*
X6910171Y3184194D01*
X7009028Y3184194D01*
X7015327Y3184906D01*
X7020814Y3186785D01*
X7025690Y3189884D01*
X7029805Y3193999D01*
X7032904Y3198876D01*
X7034784Y3204362D01*
X7035495Y3210661D01*
X7035495Y3299510D01*
X7034784Y3305860D01*
X7032904Y3311296D01*
X7029805Y3316224D01*
X7025690Y3320287D01*
X7020814Y3323386D01*
X7015327Y3325266D01*
X7009028Y3325977D01*
X6910171Y3325977D01*
X6903872Y3325266D01*
X6898386Y3323386D01*
X6893509Y3320287D01*
X6889394Y3316224D01*
X6886295Y3311296D01*
X6884416Y3305860D01*
X6884060Y3302711D01*
X6882993Y3299206D01*
X6880707Y3296259D01*
X6877558Y3294379D01*
X6873951Y3293668D01*
X6833565Y3293668D01*
X6829501Y3294532D01*
X6826097Y3296920D01*
X6823964Y3300476D01*
X6822897Y3303625D01*
X6819798Y3308502D01*
X6815734Y3312617D01*
X6810806Y3315665D01*
X6804761Y3317798D01*
X6801205Y3319932D01*
X6798767Y3323336D01*
X6797954Y3327400D01*
X6798767Y3331464D01*
X6801205Y3334867D01*
X6804761Y3337001D01*
X6810806Y3339134D01*
X6815734Y3342182D01*
X6819798Y3346297D01*
X6822897Y3351174D01*
X6824776Y3356660D01*
X6825488Y3362960D01*
X6825488Y3442462D01*
X6824776Y3448812D01*
X6822897Y3454247D01*
X6819798Y3459175D01*
X6815734Y3463239D01*
X6810806Y3466337D01*
X6805371Y3468268D01*
X6799021Y3468979D01*
X6762546Y3468979D01*
X6758686Y3469741D01*
X6755384Y3471926D01*
X6612940Y3614369D01*
X6610756Y3617620D01*
X6609994Y3621532D01*
X6610756Y3625443D01*
X6612940Y3628694D01*
X6616242Y3630929D01*
X6620154Y3631692D01*
X7022795Y3631692D01*
X7028840Y3632352D01*
X7034326Y3634282D01*
X7039254Y3637381D01*
X7041642Y3639464D01*
X7079335Y3677158D01*
X7083145Y3681933D01*
X7085634Y3687165D01*
X7086904Y3692804D01*
X7087108Y3696004D01*
X7087108Y4050995D01*
X7086447Y4057040D01*
X7084517Y4062526D01*
X7081418Y4067454D01*
X7079335Y4069842D01*
X7041642Y4107535D01*
X7036866Y4111345D01*
X7031634Y4113834D01*
X7025995Y4115104D01*
X7022795Y4115308D01*
X7008114Y4115308D01*
X7003999Y4116171D01*
X7000544Y4118711D01*
X6998462Y4122369D01*
X6998055Y4126585D01*
X6998208Y4128058D01*
X6998208Y4723841D01*
X6997496Y4730140D01*
X6995566Y4735626D01*
X6992518Y4740503D01*
X6988403Y4744618D01*
X6983526Y4747666D01*
X6978040Y4749596D01*
X6971741Y4750308D01*
X6782358Y4750308D01*
X6776059Y4749596D01*
X6770573Y4747666D01*
X6765696Y4744618D01*
X6761581Y4740503D01*
X6758533Y4735626D01*
X6756603Y4730140D01*
X6755892Y4723841D01*
X6755892Y4421835D01*
X6755130Y4417974D01*
X6752894Y4414672D01*
X6710527Y4372305D01*
X6707225Y4370070D01*
X6703364Y4369308D01*
X6451904Y4369308D01*
X6445859Y4368647D01*
X6440373Y4366717D01*
X6435445Y4363618D01*
X6433058Y4361535D01*
X6405727Y4334205D01*
X6402425Y4331970D01*
X6398564Y4331208D01*
X6382308Y4331208D01*
X6378397Y4331970D01*
X6375095Y4334205D01*
X6373520Y4335780D01*
X6365494Y4341418D01*
X6356553Y4345533D01*
X6347104Y4348073D01*
X6337300Y4348937D01*
X6327495Y4348073D01*
X6318046Y4345533D01*
X6308750Y4341215D01*
X6304838Y4340301D01*
X6300825Y4340961D01*
X6297422Y4343146D01*
X6295136Y4346448D01*
X6294323Y4350461D01*
X6294323Y4371390D01*
X6294780Y4374438D01*
X6297218Y4378706D01*
X6301333Y4387646D01*
X6303873Y4397095D01*
X6304737Y4406900D01*
X6303873Y4416704D01*
X6301333Y4426153D01*
X6297218Y4435094D01*
X6291580Y4443120D01*
X6284620Y4450080D01*
X6276594Y4455718D01*
X6267653Y4459833D01*
X6258204Y4462373D01*
X6248400Y4463237D01*
X6238595Y4462373D01*
X6229146Y4459833D01*
X6220206Y4455718D01*
X6212179Y4450080D01*
X6205220Y4443120D01*
X6199581Y4435094D01*
X6195466Y4426153D01*
X6192926Y4416704D01*
X6192062Y4406900D01*
X6192926Y4397095D01*
X6195466Y4387646D01*
X6199581Y4378706D01*
X6202019Y4374438D01*
X6202476Y4371390D01*
X6202476Y4018686D01*
X6201714Y4014774D01*
X6199530Y4011472D01*
X6196228Y4009288D01*
X6192316Y4008526D01*
X6188456Y4009288D01*
X6185154Y4011472D01*
X6174892Y4021734D01*
X6172657Y4025036D01*
X6171895Y4028948D01*
X6171895Y4044442D01*
X6171031Y4056126D01*
X6168491Y4067149D01*
X6167628Y4069435D01*
X6166916Y4073144D01*
X6166916Y4084218D01*
X6166205Y4090568D01*
X6164275Y4096004D01*
X6161227Y4100931D01*
X6157112Y4104995D01*
X6155232Y4106214D01*
X6152286Y4109008D01*
X6150660Y4112768D01*
X6150660Y4116832D01*
X6152286Y4120591D01*
X6155232Y4123385D01*
X6157112Y4124604D01*
X6161227Y4128668D01*
X6164275Y4133596D01*
X6166205Y4139031D01*
X6166916Y4145381D01*
X6166916Y4158437D01*
X6124854Y4158437D01*
X6124854Y4128770D01*
X6123940Y4124553D01*
X6121298Y4121099D01*
X6117488Y4119016D01*
X6113170Y4118711D01*
X6101689Y4120489D01*
X6090310Y4120489D01*
X6078829Y4118711D01*
X6074511Y4119016D01*
X6070701Y4121099D01*
X6068060Y4124553D01*
X6067145Y4128770D01*
X6067145Y4158437D01*
X6025083Y4158437D01*
X6025083Y4145381D01*
X6025794Y4139031D01*
X6027724Y4133596D01*
X6030772Y4128668D01*
X6034887Y4124604D01*
X6036767Y4123385D01*
X6039713Y4120591D01*
X6041339Y4116832D01*
X6041339Y4112768D01*
X6039713Y4109008D01*
X6036767Y4106214D01*
X6034887Y4104995D01*
X6030772Y4100931D01*
X6027724Y4096004D01*
X6025794Y4090568D01*
X6025083Y4084218D01*
X6025083Y4073144D01*
X6024372Y4069435D01*
X6023508Y4067149D01*
X6020968Y4056126D01*
X6020409Y4048506D01*
X6019444Y4044848D01*
X6017158Y4041800D01*
X6013958Y4039819D01*
X6010249Y4039108D01*
X5983935Y4039108D01*
X5980074Y4039870D01*
X5976772Y4042105D01*
X5885942Y4132935D01*
X5881166Y4136745D01*
X5875934Y4139234D01*
X5870295Y4140504D01*
X5867095Y4140708D01*
X5488635Y4140708D01*
X5484774Y4141470D01*
X5481472Y4143705D01*
X5451805Y4173372D01*
X5449570Y4176674D01*
X5448808Y4180535D01*
X5448808Y4547717D01*
X5449671Y4551781D01*
X5452059Y4555185D01*
X5455615Y4557318D01*
X5459730Y4557877D01*
X5463692Y4556709D01*
X5466892Y4554067D01*
X5468772Y4550359D01*
X5471566Y4540046D01*
X5475681Y4531106D01*
X5481320Y4523079D01*
X5488279Y4516120D01*
X5496306Y4510481D01*
X5505246Y4506366D01*
X5514695Y4503826D01*
X5524500Y4502962D01*
X5534304Y4503826D01*
X5543753Y4506366D01*
X5552694Y4510481D01*
X5560720Y4516120D01*
X5562549Y4517948D01*
X5565800Y4520133D01*
X5569661Y4520946D01*
X5586120Y4521047D01*
X5590184Y4520184D01*
X5593588Y4517796D01*
X5595772Y4514240D01*
X5597702Y4508652D01*
X5600801Y4503724D01*
X5604865Y4499660D01*
X5609793Y4496562D01*
X5615228Y4494631D01*
X5621578Y4493920D01*
X5706821Y4493920D01*
X5713171Y4494631D01*
X5718606Y4496562D01*
X5723534Y4499660D01*
X5727598Y4503724D01*
X5730697Y4508652D01*
X5732576Y4514088D01*
X5733288Y4520438D01*
X5733288Y4599940D01*
X5732576Y4606239D01*
X5730697Y4611725D01*
X5727598Y4616602D01*
X5723534Y4620717D01*
X5718606Y4623765D01*
X5712561Y4625898D01*
X5709005Y4628032D01*
X5706567Y4631436D01*
X5705754Y4635500D01*
X5706567Y4639564D01*
X5709005Y4642967D01*
X5712561Y4645101D01*
X5718606Y4647234D01*
X5723534Y4650282D01*
X5727598Y4654397D01*
X5730697Y4659274D01*
X5732576Y4664760D01*
X5733288Y4671060D01*
X5733288Y4684318D01*
X5692140Y4684318D01*
X5692140Y4636566D01*
X5691378Y4632655D01*
X5689193Y4629404D01*
X5685891Y4627168D01*
X5681980Y4626406D01*
X5646420Y4626406D01*
X5642508Y4627168D01*
X5639206Y4629404D01*
X5637022Y4632655D01*
X5636260Y4636566D01*
X5636260Y4684318D01*
X5595112Y4684318D01*
X5595112Y4671060D01*
X5595823Y4664760D01*
X5597702Y4659274D01*
X5600801Y4654397D01*
X5604865Y4650282D01*
X5609793Y4647234D01*
X5615838Y4645101D01*
X5619394Y4642967D01*
X5621832Y4639564D01*
X5622645Y4635500D01*
X5621832Y4631436D01*
X5619394Y4628032D01*
X5615838Y4625898D01*
X5609793Y4623765D01*
X5604865Y4620717D01*
X5600801Y4616602D01*
X5597702Y4611725D01*
X5595416Y4605070D01*
X5593283Y4601514D01*
X5589930Y4599127D01*
X5585866Y4598263D01*
X5569305Y4598162D01*
X5565394Y4598924D01*
X5562041Y4601108D01*
X5560720Y4602480D01*
X5552694Y4608118D01*
X5543753Y4612233D01*
X5534304Y4614773D01*
X5524500Y4615637D01*
X5514695Y4614773D01*
X5505246Y4612233D01*
X5496306Y4608118D01*
X5488279Y4602480D01*
X5481320Y4595520D01*
X5475681Y4587494D01*
X5471566Y4578553D01*
X5468772Y4568240D01*
X5466943Y4564583D01*
X5463844Y4561941D01*
X5459933Y4560773D01*
X5455869Y4561179D01*
X5452313Y4563211D01*
X5449824Y4566462D01*
X5448808Y4570425D01*
X5448604Y4574946D01*
X5447334Y4580534D01*
X5444845Y4585766D01*
X5441035Y4590542D01*
X5416042Y4615535D01*
X5411266Y4619345D01*
X5406034Y4621834D01*
X5400395Y4623104D01*
X5397195Y4623308D01*
X5319014Y4623308D01*
X5314899Y4624171D01*
X5311444Y4626711D01*
X5309362Y4630369D01*
X5308955Y4634585D01*
X5309108Y4636058D01*
X5309108Y4965395D01*
X5308447Y4971440D01*
X5306517Y4976926D01*
X5303418Y4981854D01*
X5301335Y4984242D01*
X5235905Y5049672D01*
X5233670Y5052974D01*
X5232908Y5056835D01*
X5232908Y5119573D01*
X5233720Y5123535D01*
X5236057Y5126888D01*
X5239461Y5129072D01*
X5254193Y5130952D01*
X5257850Y5132070D01*
X5261610Y5132476D01*
X5265216Y5131511D01*
X5268264Y5129225D01*
X5270296Y5126075D01*
X5271008Y5122367D01*
X5271008Y5098592D01*
X5271719Y5092293D01*
X5273598Y5086807D01*
X5276697Y5081930D01*
X5280761Y5077815D01*
X5285689Y5074767D01*
X5291124Y5072837D01*
X5297474Y5072126D01*
X5325567Y5072126D01*
X5325567Y5121706D01*
X5280863Y5121706D01*
X5276748Y5122570D01*
X5273344Y5125008D01*
X5271211Y5128666D01*
X5270754Y5132832D01*
X5272024Y5136845D01*
X5274818Y5139994D01*
X5280456Y5144160D01*
X5287314Y5151323D01*
X5292852Y5159552D01*
X5296916Y5168544D01*
X5299456Y5178145D01*
X5300014Y5185105D01*
X5301030Y5188712D01*
X5303266Y5191709D01*
X5306466Y5193690D01*
X5310124Y5194401D01*
X5325567Y5194401D01*
X5325567Y5243931D01*
X5297474Y5243931D01*
X5291124Y5243220D01*
X5285689Y5241290D01*
X5281472Y5238699D01*
X5278272Y5237378D01*
X5274818Y5237175D01*
X5271516Y5238191D01*
X5263642Y5242153D01*
X5254193Y5245049D01*
X5244388Y5246319D01*
X5234482Y5245912D01*
X5224830Y5243830D01*
X5215636Y5240121D01*
X5207203Y5234940D01*
X5202732Y5230977D01*
X5199024Y5228945D01*
X5194858Y5228539D01*
X5191353Y5228894D01*
X5152542Y5228894D01*
X5146192Y5228183D01*
X5142788Y5227015D01*
X5139436Y5226456D01*
X5136083Y5227015D01*
X5132679Y5228183D01*
X5126329Y5228894D01*
X5087518Y5228894D01*
X5081168Y5228183D01*
X5077764Y5227015D01*
X5074412Y5226456D01*
X5071059Y5227015D01*
X5067655Y5228183D01*
X5061305Y5228894D01*
X5022494Y5228894D01*
X5016144Y5228183D01*
X5012740Y5227015D01*
X5009388Y5226456D01*
X5006035Y5227015D01*
X5002631Y5228183D01*
X4996281Y5228894D01*
X4993233Y5228894D01*
X4993233Y5171135D01*
X4995265Y5167934D01*
X4995976Y5164175D01*
X4995976Y5101793D01*
X4995265Y5098084D01*
X4993233Y5094833D01*
X4993233Y5077409D01*
X4992471Y5073548D01*
X4990236Y5070246D01*
X4977892Y5057851D01*
X4974590Y5055666D01*
X4970678Y5054904D01*
X4966817Y5055666D01*
X4963515Y5057851D01*
X4961280Y5061153D01*
X4960518Y5065064D01*
X4960518Y5091633D01*
X4928209Y5091633D01*
X4928209Y5037175D01*
X4927447Y5033314D01*
X4925212Y5030012D01*
X4922520Y5027320D01*
X4916881Y5019294D01*
X4912766Y5010353D01*
X4910226Y5000904D01*
X4909362Y4991100D01*
X4910226Y4981295D01*
X4912766Y4971846D01*
X4916881Y4962906D01*
X4922520Y4954879D01*
X4929479Y4947920D01*
X4937506Y4942281D01*
X4946446Y4938166D01*
X4953609Y4936236D01*
X4956810Y4934762D01*
X4959299Y4932222D01*
X4960772Y4929022D01*
X4961077Y4925517D01*
X4960162Y4914900D01*
X4961026Y4905095D01*
X4963566Y4895646D01*
X4965344Y4891786D01*
X4966309Y4887823D01*
X4965649Y4883810D01*
X4963464Y4880406D01*
X4960112Y4878120D01*
X4956149Y4877308D01*
X4826304Y4877308D01*
X4820259Y4876647D01*
X4814773Y4874717D01*
X4809845Y4871618D01*
X4807458Y4869535D01*
X4782464Y4844542D01*
X4778654Y4839766D01*
X4776165Y4834534D01*
X4774895Y4828895D01*
X4774692Y4825695D01*
X4774692Y4766919D01*
X4774031Y4763363D01*
X4772152Y4760264D01*
X4769307Y4757978D01*
X4766462Y4756454D01*
X4760264Y4751324D01*
X4710176Y4701235D01*
X4705045Y4695037D01*
X4701489Y4688332D01*
X4699304Y4681118D01*
X4698492Y4673092D01*
X4698492Y4629708D01*
X4697730Y4625797D01*
X4695494Y4622495D01*
X4693920Y4620920D01*
X4688281Y4612894D01*
X4684166Y4603953D01*
X4681626Y4594504D01*
X4680762Y4584700D01*
X4681626Y4574895D01*
X4682083Y4573066D01*
X4682388Y4569256D01*
X4681220Y4565599D01*
X4678832Y4562652D01*
X4675479Y4560773D01*
X4671720Y4560265D01*
X4658004Y4563973D01*
X4648200Y4564837D01*
X4638395Y4563973D01*
X4628946Y4561433D01*
X4620006Y4557318D01*
X4615484Y4554677D01*
X4612487Y4554220D01*
X4583887Y4554067D01*
X4580483Y4554626D01*
X4577486Y4556252D01*
X4575200Y4558792D01*
X4571898Y4564075D01*
X4567834Y4568139D01*
X4562906Y4571238D01*
X4557471Y4573168D01*
X4551121Y4573879D01*
X4465878Y4573879D01*
X4459528Y4573168D01*
X4454093Y4571238D01*
X4449165Y4568139D01*
X4445101Y4564075D01*
X4442002Y4559147D01*
X4440123Y4553712D01*
X4439412Y4547362D01*
X4439412Y4467860D01*
X4440123Y4461560D01*
X4442002Y4456074D01*
X4445101Y4451197D01*
X4448352Y4446879D01*
X4449114Y4442968D01*
X4448352Y4439056D01*
X4446117Y4435805D01*
X4442815Y4433570D01*
X4438954Y4432808D01*
X4420158Y4432808D01*
X4413859Y4432096D01*
X4408373Y4430166D01*
X4403496Y4427118D01*
X4399381Y4423003D01*
X4396333Y4418126D01*
X4394403Y4412640D01*
X4393692Y4406341D01*
X4393692Y4155135D01*
X4392930Y4151274D01*
X4390694Y4147972D01*
X4386427Y4143705D01*
X4383125Y4141470D01*
X4379264Y4140708D01*
X4205935Y4140708D01*
X4202074Y4141470D01*
X4198772Y4143705D01*
X4181805Y4160672D01*
X4179570Y4163974D01*
X4178808Y4167835D01*
X4178808Y4381195D01*
X4178147Y4387240D01*
X4176217Y4392726D01*
X4173118Y4397654D01*
X4171035Y4400042D01*
X4146042Y4425035D01*
X4141266Y4428845D01*
X4136034Y4431334D01*
X4130395Y4432604D01*
X4127195Y4432808D01*
X4061968Y4432808D01*
X4058056Y4433570D01*
X4054805Y4435805D01*
X4052570Y4439056D01*
X4051808Y4442968D01*
X4051808Y4800041D01*
X4051096Y4806340D01*
X4049166Y4811826D01*
X4046118Y4816703D01*
X4042003Y4820818D01*
X4037228Y4823815D01*
X4034688Y4826101D01*
X4033012Y4829048D01*
X4032453Y4832451D01*
X4032453Y4862677D01*
X4030421Y4865878D01*
X4029710Y4869637D01*
X4029710Y4919472D01*
X4030421Y4923231D01*
X4032453Y4926431D01*
X4032453Y4936642D01*
X4033367Y4940858D01*
X4035907Y4944313D01*
X4039615Y4946396D01*
X4044543Y4947869D01*
X4053382Y4952339D01*
X4058970Y4956454D01*
X4063034Y4958232D01*
X4067454Y4958130D01*
X4069587Y4957064D01*
X4069587Y4964277D01*
X4069994Y4967224D01*
X4071315Y4969967D01*
X4073753Y4973574D01*
X4077817Y4982616D01*
X4080357Y4992166D01*
X4081119Y5001615D01*
X4082135Y5005222D01*
X4084370Y5008219D01*
X4087571Y5010200D01*
X4091279Y5010912D01*
X4134459Y5010912D01*
X4134459Y5075936D01*
X4127855Y5072786D01*
X4118508Y5066385D01*
X4110177Y5058664D01*
X4103115Y5049824D01*
X4097426Y5039969D01*
X4093260Y5029301D01*
X4091127Y5025999D01*
X4087876Y5023713D01*
X4084015Y5022850D01*
X4080154Y5023510D01*
X4076801Y5025593D01*
X4074515Y5028844D01*
X4073753Y5030520D01*
X4068216Y5038699D01*
X4061358Y5045862D01*
X4053382Y5051755D01*
X4044543Y5056225D01*
X4035094Y5059121D01*
X4025290Y5060340D01*
X4015384Y5059934D01*
X4005732Y5057851D01*
X3996537Y5054142D01*
X3988104Y5048961D01*
X3980637Y5042458D01*
X3974439Y5034737D01*
X3969613Y5026101D01*
X3966311Y5016754D01*
X3964635Y5007000D01*
X3964635Y4997094D01*
X3965905Y4989830D01*
X3965651Y4985461D01*
X3963619Y4981549D01*
X3960164Y4978908D01*
X3955846Y4977942D01*
X3944365Y4977942D01*
X3938066Y4977231D01*
X3933799Y4976368D01*
X3929532Y4977231D01*
X3923233Y4977942D01*
X3907586Y4977942D01*
X3903675Y4978755D01*
X3900424Y4980940D01*
X3898188Y4984242D01*
X3897426Y4988102D01*
X3897426Y5083200D01*
X3898188Y5087112D01*
X3900424Y5090414D01*
X3919778Y5109768D01*
X3922674Y5111800D01*
X3926078Y5112715D01*
X3934104Y5113426D01*
X3943553Y5115966D01*
X3952494Y5120081D01*
X3960520Y5125720D01*
X3967479Y5132679D01*
X3973118Y5140706D01*
X3977233Y5149646D01*
X3979773Y5159095D01*
X3980637Y5168900D01*
X3979773Y5178704D01*
X3977233Y5188153D01*
X3973118Y5197094D01*
X3967479Y5205120D01*
X3960520Y5212080D01*
X3952494Y5217718D01*
X3943553Y5221833D01*
X3934104Y5224373D01*
X3924300Y5225237D01*
X3914495Y5224373D01*
X3905046Y5221833D01*
X3896106Y5217718D01*
X3888079Y5212080D01*
X3881120Y5205120D01*
X3875481Y5197094D01*
X3871366Y5188153D01*
X3868826Y5178704D01*
X3868115Y5170678D01*
X3867200Y5167274D01*
X3865168Y5164378D01*
X3831844Y5131054D01*
X3826764Y5124856D01*
X3823208Y5118150D01*
X3821023Y5110937D01*
X3820160Y5102199D01*
X3819093Y5098491D01*
X3816654Y5095494D01*
X3813301Y5093563D01*
X3809492Y5093055D01*
X3805732Y5093970D01*
X3803853Y5094833D01*
X3794404Y5097373D01*
X3784600Y5098237D01*
X3774795Y5097373D01*
X3765346Y5094833D01*
X3756406Y5090718D01*
X3748379Y5085080D01*
X3741420Y5078120D01*
X3735781Y5070094D01*
X3731666Y5061153D01*
X3729126Y5051704D01*
X3728415Y5043678D01*
X3727500Y5040274D01*
X3725468Y5037378D01*
X3714750Y5026660D01*
X3711448Y5024475D01*
X3707587Y5023713D01*
X3703675Y5024475D01*
X3700424Y5026660D01*
X3698189Y5029962D01*
X3697427Y5033873D01*
X3697427Y5065572D01*
X3696614Y5073599D01*
X3694429Y5080863D01*
X3690874Y5087518D01*
X3685743Y5093716D01*
X3615131Y5164378D01*
X3613099Y5167274D01*
X3612184Y5170678D01*
X3611473Y5178704D01*
X3608933Y5188153D01*
X3604818Y5197094D01*
X3599179Y5205120D01*
X3592220Y5212080D01*
X3584194Y5217718D01*
X3575253Y5221833D01*
X3565804Y5224373D01*
X3556000Y5225237D01*
X3546195Y5224373D01*
X3536746Y5221833D01*
X3527806Y5217718D01*
X3519779Y5212080D01*
X3512820Y5205120D01*
X3507181Y5197094D01*
X3503066Y5188153D01*
X3500526Y5178704D01*
X3499662Y5168900D01*
X3500526Y5159095D01*
X3503066Y5149646D01*
X3507181Y5140706D01*
X3512820Y5132679D01*
X3519779Y5125720D01*
X3527806Y5120081D01*
X3536746Y5115966D01*
X3546195Y5113426D01*
X3554222Y5112715D01*
X3557625Y5111800D01*
X3560521Y5109768D01*
X3567785Y5102555D01*
X3570020Y5099100D01*
X3570732Y5095036D01*
X3569817Y5091074D01*
X3567328Y5087772D01*
X3563772Y5085689D01*
X3559708Y5085232D01*
X3556000Y5085537D01*
X3546195Y5084673D01*
X3536746Y5082133D01*
X3527806Y5078018D01*
X3519779Y5072380D01*
X3512820Y5065420D01*
X3507181Y5057394D01*
X3502863Y5047792D01*
X3500932Y5043982D01*
X3497579Y5041341D01*
X3493465Y5040274D01*
X3489248Y5041036D01*
X3485743Y5043424D01*
X3483356Y5045862D01*
X3475380Y5051755D01*
X3466541Y5056225D01*
X3457092Y5059121D01*
X3447287Y5060340D01*
X3437382Y5059934D01*
X3427729Y5057851D01*
X3418535Y5054142D01*
X3410102Y5048961D01*
X3402634Y5042458D01*
X3396437Y5034737D01*
X3392678Y5028031D01*
X3390239Y5025085D01*
X3386886Y5023307D01*
X3383127Y5022850D01*
X3379470Y5023815D01*
X3376371Y5026050D01*
X3374339Y5029250D01*
X3370173Y5039969D01*
X3364484Y5049774D01*
X3357422Y5058664D01*
X3349091Y5066385D01*
X3339744Y5072786D01*
X3333140Y5075936D01*
X3333140Y5010912D01*
X3376472Y5010912D01*
X3380384Y5010150D01*
X3383686Y5007914D01*
X3385870Y5004612D01*
X3386632Y5000752D01*
X3386632Y4997094D01*
X3388309Y4987340D01*
X3391611Y4977993D01*
X3396742Y4968849D01*
X3397707Y4966462D01*
X3398012Y4963871D01*
X3398012Y4957216D01*
X3401872Y4958283D01*
X3405835Y4957775D01*
X3418484Y4949952D01*
X3428746Y4945888D01*
X3432098Y4943703D01*
X3434384Y4940350D01*
X3435146Y4936439D01*
X3435146Y4926431D01*
X3437178Y4923231D01*
X3437890Y4919472D01*
X3437890Y4869637D01*
X3437178Y4865878D01*
X3435146Y4862677D01*
X3435146Y4810302D01*
X3438550Y4807864D01*
X3440684Y4804206D01*
X3441192Y4800041D01*
X3441192Y4470704D01*
X3441852Y4464659D01*
X3442868Y4461205D01*
X3443274Y4458258D01*
X3442004Y4452518D01*
X3441192Y4444492D01*
X3441192Y4363008D01*
X3440429Y4359097D01*
X3438194Y4355795D01*
X3436162Y4353763D01*
X3432911Y4351578D01*
X3429000Y4350816D01*
X3425088Y4351578D01*
X3421837Y4353763D01*
X3414420Y4361180D01*
X3406394Y4366818D01*
X3397453Y4370933D01*
X3388004Y4373473D01*
X3378200Y4374337D01*
X3368395Y4373473D01*
X3358946Y4370933D01*
X3350006Y4366818D01*
X3345738Y4364380D01*
X3342690Y4363923D01*
X3313582Y4363923D01*
X3310229Y4364482D01*
X3307232Y4366107D01*
X3304997Y4368647D01*
X3301898Y4373575D01*
X3297834Y4377639D01*
X3292906Y4380738D01*
X3287471Y4382668D01*
X3281121Y4383379D01*
X3195878Y4383379D01*
X3189528Y4382668D01*
X3184093Y4380738D01*
X3179165Y4377639D01*
X3175101Y4373575D01*
X3172002Y4368647D01*
X3170123Y4363212D01*
X3169412Y4356862D01*
X3169412Y4277360D01*
X3170123Y4271060D01*
X3172002Y4265574D01*
X3175101Y4260697D01*
X3178352Y4256379D01*
X3179114Y4252468D01*
X3178352Y4248556D01*
X3176117Y4245305D01*
X3172815Y4243070D01*
X3168954Y4242308D01*
X3137458Y4242308D01*
X3131159Y4241596D01*
X3125673Y4239666D01*
X3120796Y4236618D01*
X3116681Y4232503D01*
X3113633Y4227626D01*
X3111703Y4222140D01*
X3110992Y4215841D01*
X3110992Y4150868D01*
X3110230Y4146956D01*
X3107994Y4143705D01*
X3104743Y4141470D01*
X3100832Y4140708D01*
X2598216Y4140708D01*
X2594457Y4141419D01*
X2591206Y4143501D01*
X2588971Y4146651D01*
X2588056Y4150410D01*
X2588615Y4154220D01*
X2590596Y4159859D01*
X2591308Y4166158D01*
X2591308Y4723841D01*
X2590596Y4730140D01*
X2588666Y4735626D01*
X2585618Y4740503D01*
X2581503Y4744618D01*
X2576626Y4747666D01*
X2571140Y4749596D01*
X2564841Y4750308D01*
X2362758Y4750308D01*
X2356459Y4749596D01*
X2350973Y4747666D01*
X2346096Y4744618D01*
X2341981Y4740503D01*
X2338933Y4735626D01*
X2337003Y4730140D01*
X2336292Y4723841D01*
X2336292Y4459935D01*
X2335530Y4456074D01*
X2333294Y4452772D01*
X2290927Y4410405D01*
X2287625Y4408170D01*
X2283764Y4407408D01*
X2032304Y4407408D01*
X2026259Y4406747D01*
X2020773Y4404817D01*
X2015845Y4401718D01*
X2013457Y4399635D01*
X1988464Y4374642D01*
X1984654Y4369866D01*
X1982165Y4364634D01*
X1980895Y4358995D01*
X1980692Y4355795D01*
X1980692Y4315968D01*
X1979930Y4312056D01*
X1977694Y4308805D01*
X1974443Y4306570D01*
X1970532Y4305808D01*
X1911908Y4305808D01*
X1907997Y4306570D01*
X1904695Y4308805D01*
X1903120Y4310380D01*
X1895093Y4316018D01*
X1886153Y4320133D01*
X1876704Y4322673D01*
X1866900Y4323537D01*
X1857095Y4322673D01*
X1847646Y4320133D01*
X1845310Y4319066D01*
X1840992Y4318101D01*
X952703Y4318101D01*
X948080Y4317898D01*
X943660Y4317339D01*
X939342Y4316374D01*
X935075Y4315053D01*
X931011Y4313326D01*
X927049Y4311294D01*
X923290Y4308906D01*
X919784Y4306214D01*
X916330Y4303064D01*
X817930Y4204665D01*
X814679Y4202430D01*
X810768Y4201668D01*
X806856Y4202430D01*
X803605Y4204665D01*
X801370Y4207967D01*
X800608Y4211828D01*
X800608Y5602732D01*
X801370Y5606643D01*
X803605Y5609894D01*
X806856Y5612130D01*
X810768Y5612892D01*
X7825231Y5612892D01*
X7829143Y5612130D01*
X7832394Y5609894D01*
X7834630Y5606643D01*
X7835392Y5602732D01*
X7835392Y4789474D01*
X7834630Y4785563D01*
X7832394Y4782312D01*
X7829143Y4780076D01*
X7825231Y4779314D01*
X7686192Y4779314D01*
X7679842Y4778603D01*
X7674406Y4776673D01*
X7669479Y4773625D01*
X7665415Y4769510D01*
X7662316Y4764633D01*
X7660386Y4759147D01*
X7659674Y4752848D01*
X7659674Y4628845D01*
X7658811Y4624628D01*
X7656220Y4621174D01*
X7652461Y4619091D01*
X7648194Y4618786D01*
X7644130Y4620209D01*
X7641844Y4621682D01*
X7636357Y4623612D01*
X7630058Y4624324D01*
X7481163Y4624324D01*
X7474864Y4623612D01*
X7469378Y4621682D01*
X7464501Y4618583D01*
X7460386Y4614519D01*
X7457338Y4609592D01*
X7455408Y4604156D01*
X7455052Y4601057D01*
X7453985Y4597501D01*
X7451750Y4594606D01*
X7448600Y4592675D01*
X7444994Y4592015D01*
X7419492Y4592015D01*
X7415834Y4592675D01*
X7412736Y4594606D01*
X7410450Y4597501D01*
X7409383Y4601057D01*
X7408976Y4604512D01*
X7407097Y4609947D01*
X7403998Y4614875D01*
X7399934Y4618939D01*
X7395006Y4622038D01*
X7389571Y4623968D01*
X7383221Y4624679D01*
X7297978Y4624679D01*
X7291628Y4623968D01*
X7286193Y4622038D01*
X7281265Y4618939D01*
X7277201Y4614875D01*
X7274102Y4609947D01*
X7272223Y4604512D01*
X7271512Y4598162D01*
X7271512Y4518660D01*
X7272223Y4512360D01*
X7274102Y4506874D01*
X7277201Y4501997D01*
X7281265Y4497882D01*
X7286193Y4494834D01*
X7292238Y4492701D01*
X7295794Y4490567D01*
X7298232Y4487164D01*
X7299045Y4483100D01*
X7298232Y4479036D01*
X7295794Y4475632D01*
X7292238Y4473498D01*
X7286193Y4471365D01*
X7281265Y4468317D01*
X7277201Y4464202D01*
X7274102Y4459325D01*
X7272223Y4453839D01*
X7271512Y4447540D01*
X7271512Y4368038D01*
X7272223Y4361688D01*
X7274102Y4356252D01*
X7277201Y4351324D01*
X7281265Y4347260D01*
X7286193Y4344162D01*
X7291628Y4342231D01*
X7296505Y4341063D01*
X7299401Y4338777D01*
X7301331Y4335627D01*
X7301992Y4332020D01*
X7301992Y4312208D01*
X7301230Y4308297D01*
X7298994Y4304995D01*
X7297420Y4303420D01*
X7291781Y4295394D01*
X7287666Y4286453D01*
X7285126Y4277004D01*
X7284262Y4267200D01*
X7285126Y4257395D01*
X7287666Y4247946D01*
X7291781Y4239006D01*
X7297420Y4230979D01*
X7304379Y4224020D01*
X7312406Y4218381D01*
X7321346Y4214266D01*
X7330795Y4211726D01*
X7340600Y4210862D01*
X7350404Y4211726D01*
X7359853Y4214266D01*
X7368794Y4218381D01*
X7376820Y4224020D01*
X7383780Y4230979D01*
X7389418Y4239006D01*
X7393533Y4247946D01*
X7396073Y4257395D01*
X7396937Y4267200D01*
X7396073Y4277004D01*
X7393533Y4286453D01*
X7389418Y4295394D01*
X7383780Y4303420D01*
X7382205Y4304995D01*
X7379970Y4308297D01*
X7379208Y4312208D01*
X7379208Y4332020D01*
X7379868Y4335627D01*
X7381798Y4338777D01*
X7384694Y4341063D01*
X7389571Y4342231D01*
X7395006Y4344162D01*
X7399934Y4347260D01*
X7403998Y4351324D01*
X7407097Y4356252D01*
X7408976Y4361688D01*
X7409688Y4368038D01*
X7409688Y4447540D01*
X7408976Y4453839D01*
X7407097Y4459325D01*
X7403998Y4464202D01*
X7399934Y4468317D01*
X7395006Y4471365D01*
X7388961Y4473498D01*
X7385405Y4475632D01*
X7382967Y4479036D01*
X7382154Y4483100D01*
X7382967Y4487164D01*
X7385405Y4490567D01*
X7388961Y4492701D01*
X7395006Y4494834D01*
X7399934Y4497882D01*
X7403998Y4501997D01*
X7407097Y4506874D01*
X7409637Y4511548D01*
X7412990Y4513935D01*
X7417053Y4514799D01*
X7444943Y4514799D01*
X7448600Y4514138D01*
X7451750Y4512208D01*
X7453985Y4509312D01*
X7455052Y4505756D01*
X7455408Y4502658D01*
X7457338Y4497171D01*
X7460386Y4492294D01*
X7464501Y4488180D01*
X7469378Y4485132D01*
X7474864Y4483201D01*
X7481163Y4482490D01*
X7628381Y4482490D01*
X7631938Y4481830D01*
X7635087Y4479950D01*
X7637322Y4477105D01*
X7638440Y4473600D01*
X7637221Y4458411D01*
X7638034Y4447692D01*
X7640523Y4437278D01*
X7644638Y4427372D01*
X7650276Y4418228D01*
X7657236Y4410049D01*
X7665364Y4403090D01*
X7674508Y4397502D01*
X7684465Y4393387D01*
X7694879Y4390898D01*
X7705598Y4390034D01*
X7716266Y4390898D01*
X7726680Y4393387D01*
X7736636Y4397502D01*
X7745780Y4403090D01*
X7753908Y4410049D01*
X7760868Y4418228D01*
X7766507Y4427372D01*
X7770622Y4437278D01*
X7773111Y4447692D01*
X7773924Y4458411D01*
X7773111Y4469130D01*
X7770622Y4479544D01*
X7766507Y4489450D01*
X7760868Y4498594D01*
X7753908Y4506772D01*
X7745780Y4513732D01*
X7736636Y4519320D01*
X7726680Y4523435D01*
X7716266Y4525924D01*
X7705598Y4526788D01*
X7694879Y4525924D01*
X7684465Y4523435D01*
X7674508Y4519320D01*
X7671968Y4517796D01*
X7667955Y4516374D01*
X7663688Y4516729D01*
X7659979Y4518812D01*
X7657439Y4522266D01*
X7656525Y4526432D01*
X7656525Y4572965D01*
X7657439Y4577181D01*
X7659979Y4580636D01*
X7663738Y4582718D01*
X7668056Y4583023D01*
X7672070Y4581550D01*
X7674406Y4580128D01*
X7679842Y4578197D01*
X7686192Y4577486D01*
X7825231Y4577486D01*
X7829143Y4576724D01*
X7832394Y4574540D01*
X7834630Y4571238D01*
X7835392Y4567326D01*
X7835392Y4119473D01*
X7834630Y4115562D01*
X7832394Y4112260D01*
X7829143Y4110075D01*
X7825231Y4109313D01*
X7686192Y4109313D01*
X7679842Y4108602D01*
X7674406Y4106672D01*
X7672070Y4105249D01*
X7669022Y4103928D01*
X7665770Y4103725D01*
X7662570Y4104538D01*
X7599476Y4104538D01*
X7599476Y4062476D01*
X7630058Y4062476D01*
X7636357Y4063187D01*
X7641844Y4065117D01*
X7644130Y4066540D01*
X7648194Y4068013D01*
X7652461Y4067708D01*
X7656220Y4065625D01*
X7658811Y4062171D01*
X7659674Y4057954D01*
X7659674Y3933951D01*
X7660386Y3927652D01*
X7662316Y3922166D01*
X7665415Y3917289D01*
X7669479Y3913174D01*
X7674406Y3910126D01*
X7679842Y3908196D01*
X7686192Y3907485D01*
X7825231Y3907485D01*
X7829143Y3906723D01*
X7832394Y3904538D01*
X7834630Y3901236D01*
X7835392Y3897325D01*
X7835392Y1661668D01*
X7834630Y1657756D01*
X7832394Y1654505D01*
X7829143Y1652270D01*
X7825231Y1651507D01*
G37*

%LPC*%
G36*
X5358333Y5464403D02*
G01*
X5406085Y5464403D01*
X5404408Y5472226D01*
X5400141Y5483707D01*
X5394248Y5494477D01*
X5386882Y5504281D01*
X5378246Y5512917D01*
X5368442Y5520283D01*
X5358333Y5525770D01*
G37*
G36*
X5237886Y5464403D02*
G01*
X5285638Y5464403D01*
X5285638Y5525770D01*
X5275580Y5520283D01*
X5265775Y5512917D01*
X5257088Y5504281D01*
X5249773Y5494477D01*
X5243880Y5483707D01*
X5239613Y5472226D01*
G37*
G36*
X4677714Y5464403D02*
G01*
X4725466Y5464403D01*
X4725466Y5525820D01*
X4715357Y5520334D01*
X4705553Y5512968D01*
X4696917Y5504281D01*
X4689551Y5494477D01*
X4683658Y5483758D01*
X4679391Y5472277D01*
G37*
G36*
X2569362Y1755292D02*
G01*
X2712415Y1755292D01*
X2718765Y1756003D01*
X2724200Y1757934D01*
X2729128Y1760982D01*
X2733192Y1765096D01*
X2736291Y1769973D01*
X2738170Y1775460D01*
X2738932Y1781759D01*
X2738932Y1874824D01*
X2569362Y1874824D01*
G37*
G36*
X2113584Y1755292D02*
G01*
X2256637Y1755292D01*
X2256637Y1874824D01*
X2087118Y1874824D01*
X2087118Y1781759D01*
X2087829Y1775460D01*
X2089708Y1769973D01*
X2092807Y1765096D01*
X2096871Y1760982D01*
X2101799Y1757934D01*
X2107234Y1756003D01*
G37*
G36*
X3481324Y1810257D02*
G01*
X3502710Y1810257D01*
X3509060Y1810969D01*
X3514496Y1812848D01*
X3519424Y1815947D01*
X3523487Y1820011D01*
X3526586Y1824939D01*
X3528517Y1830374D01*
X3529228Y1836724D01*
X3529228Y1864207D01*
X3481324Y1864207D01*
G37*
G36*
X3390595Y1810257D02*
G01*
X3412032Y1810257D01*
X3412032Y1864207D01*
X3364128Y1864207D01*
X3364128Y1836724D01*
X3364839Y1830374D01*
X3366770Y1824939D01*
X3369818Y1820011D01*
X3373932Y1815947D01*
X3378809Y1812848D01*
X3384296Y1810969D01*
G37*
G36*
X4798161Y5464403D02*
G01*
X4845913Y5464403D01*
X4844186Y5472277D01*
X4839919Y5483758D01*
X4834026Y5494477D01*
X4826711Y5504281D01*
X4818024Y5512968D01*
X4808220Y5520334D01*
X4798161Y5525820D01*
G37*
G36*
X7675575Y5440324D02*
G01*
X7768285Y5440324D01*
X7761274Y5452922D01*
X7749489Y5470144D01*
X7736128Y5486196D01*
X7721396Y5500928D01*
X7705344Y5514289D01*
X7688122Y5526074D01*
X7675575Y5533085D01*
G37*
G36*
X1173175Y5440324D02*
G01*
X1265885Y5440324D01*
X1258874Y5452922D01*
X1247089Y5470144D01*
X1233728Y5486196D01*
X1218996Y5500928D01*
X1202944Y5514289D01*
X1185722Y5526074D01*
X1173175Y5533085D01*
G37*
G36*
X7675575Y1832914D02*
G01*
X7688122Y1839925D01*
X7705344Y1851710D01*
X7721396Y1865071D01*
X7736128Y1879803D01*
X7749489Y1895856D01*
X7761274Y1913077D01*
X7768285Y1925624D01*
X7675575Y1925624D01*
G37*
G36*
X1173175Y1832914D02*
G01*
X1185722Y1839925D01*
X1202944Y1851710D01*
X1218996Y1865071D01*
X1233728Y1879803D01*
X1247089Y1895856D01*
X1258874Y1913077D01*
X1265885Y1925624D01*
X1173175Y1925624D01*
G37*
G36*
X960475Y1832914D02*
G01*
X960475Y1925624D01*
X867714Y1925624D01*
X874725Y1913077D01*
X886510Y1895856D01*
X899871Y1879803D01*
X914603Y1865071D01*
X930656Y1851710D01*
X947877Y1839925D01*
G37*
G36*
X7462875Y1832914D02*
G01*
X7462875Y1925624D01*
X7370114Y1925624D01*
X7377125Y1913077D01*
X7388910Y1895856D01*
X7402271Y1879803D01*
X7417003Y1865071D01*
X7433056Y1851710D01*
X7450277Y1839925D01*
G37*
G36*
X1878888Y1880311D02*
G01*
X1915718Y1880311D01*
X1922068Y1881022D01*
X1927504Y1882902D01*
X1932432Y1886000D01*
X1936496Y1890064D01*
X1939594Y1894992D01*
X1941474Y1900428D01*
X1942185Y1906778D01*
X1942185Y1937359D01*
X1878888Y1937359D01*
G37*
G36*
X1741881Y1880311D02*
G01*
X1778711Y1880311D01*
X1778711Y1937359D01*
X1715414Y1937359D01*
X1715414Y1906778D01*
X1716125Y1900428D01*
X1718005Y1894992D01*
X1721104Y1890064D01*
X1725168Y1886000D01*
X1730095Y1882902D01*
X1735531Y1881022D01*
G37*
G36*
X867714Y5440324D02*
G01*
X960475Y5440324D01*
X960475Y5533085D01*
X947877Y5526074D01*
X930656Y5514289D01*
X914603Y5500928D01*
X899871Y5486196D01*
X886510Y5470144D01*
X874725Y5452922D01*
G37*
G36*
X3808120Y1932939D02*
G01*
X3847846Y1932939D01*
X3847846Y1974088D01*
X3834637Y1974088D01*
X3828287Y1973376D01*
X3822852Y1971497D01*
X3817924Y1968398D01*
X3813860Y1964334D01*
X3810762Y1959406D01*
X3808831Y1953971D01*
X3808120Y1947621D01*
G37*
G36*
X7370114Y5440324D02*
G01*
X7462875Y5440324D01*
X7462875Y5533085D01*
X7450277Y5526074D01*
X7433056Y5514289D01*
X7417003Y5500928D01*
X7402271Y5486196D01*
X7388910Y5470144D01*
X7377125Y5452922D01*
G37*
G36*
X3481324Y1945792D02*
G01*
X3529228Y1945792D01*
X3529228Y1973275D01*
X3528517Y1979625D01*
X3526586Y1985060D01*
X3523487Y1989988D01*
X3519424Y1994052D01*
X3514496Y1997151D01*
X3509060Y1999030D01*
X3502710Y1999742D01*
X3481324Y1999742D01*
G37*
G36*
X3364128Y1945792D02*
G01*
X3412032Y1945792D01*
X3412032Y1999742D01*
X3390595Y1999742D01*
X3384296Y1999030D01*
X3378809Y1997151D01*
X3373932Y1994052D01*
X3369818Y1989988D01*
X3366770Y1985060D01*
X3364839Y1979625D01*
X3364128Y1973275D01*
G37*
G36*
X2672283Y5429961D02*
G01*
X2716834Y5429961D01*
X2716834Y5504992D01*
X2710230Y5501792D01*
X2700883Y5495391D01*
X2692552Y5487720D01*
X2685491Y5478830D01*
X2679801Y5469026D01*
X2675686Y5458460D01*
X2673146Y5447385D01*
X2672283Y5435701D01*
G37*
G36*
X7091883Y5429961D02*
G01*
X7136434Y5429961D01*
X7136434Y5504992D01*
X7129830Y5501792D01*
X7120483Y5495391D01*
X7112152Y5487720D01*
X7105091Y5478830D01*
X7099401Y5469026D01*
X7095286Y5458460D01*
X7092746Y5447385D01*
X7091883Y5435701D01*
G37*
G36*
X7199122Y5429961D02*
G01*
X7243724Y5429961D01*
X7243724Y5435701D01*
X7242809Y5447385D01*
X7240320Y5458460D01*
X7236155Y5469026D01*
X7230465Y5478830D01*
X7223404Y5487720D01*
X7215124Y5495391D01*
X7205725Y5501792D01*
X7199122Y5504992D01*
G37*
G36*
X1715414Y2025040D02*
G01*
X1778711Y2025040D01*
X1778711Y2082088D01*
X1741881Y2082088D01*
X1735531Y2081377D01*
X1730095Y2079498D01*
X1725168Y2076399D01*
X1721104Y2072335D01*
X1718005Y2067407D01*
X1716125Y2061972D01*
X1715414Y2055622D01*
G37*
G36*
X1878888Y2025040D02*
G01*
X1942185Y2025040D01*
X1942185Y2055622D01*
X1941474Y2061972D01*
X1939594Y2067407D01*
X1936496Y2072335D01*
X1932432Y2076399D01*
X1927504Y2079498D01*
X1922068Y2081377D01*
X1915718Y2082088D01*
X1878888Y2082088D01*
G37*
G36*
X2779522Y5429961D02*
G01*
X2824124Y5429961D01*
X2824124Y5435701D01*
X2823210Y5447385D01*
X2820720Y5458460D01*
X2816555Y5469026D01*
X2810865Y5478830D01*
X2803804Y5487720D01*
X2795524Y5495391D01*
X2786126Y5501792D01*
X2779522Y5504992D01*
G37*
G36*
X2087118Y2087524D02*
G01*
X2256637Y2087524D01*
X2256637Y2207107D01*
X2113584Y2207107D01*
X2107234Y2206396D01*
X2101799Y2204466D01*
X2096871Y2201418D01*
X2092807Y2197303D01*
X2089708Y2192426D01*
X2087829Y2186940D01*
X2087118Y2180640D01*
G37*
G36*
X2569362Y2087524D02*
G01*
X2738932Y2087524D01*
X2738932Y2180640D01*
X2738170Y2186940D01*
X2736291Y2192426D01*
X2733192Y2197303D01*
X2729128Y2201418D01*
X2724200Y2204466D01*
X2718765Y2206396D01*
X2712415Y2207107D01*
X2569362Y2207107D01*
G37*
G36*
X3146145Y2137410D02*
G01*
X3173018Y2137410D01*
X3173018Y2192223D01*
X3119678Y2192223D01*
X3119678Y2163876D01*
X3120390Y2157526D01*
X3122320Y2152091D01*
X3125419Y2147163D01*
X3129483Y2143099D01*
X3134410Y2140000D01*
X3139846Y2138121D01*
G37*
G36*
X3786581Y2137410D02*
G01*
X3813454Y2137410D01*
X3819753Y2138121D01*
X3825189Y2140000D01*
X3830116Y2143099D01*
X3834180Y2147163D01*
X3837279Y2152091D01*
X3839210Y2157526D01*
X3839921Y2163876D01*
X3839921Y2192223D01*
X3786581Y2192223D01*
G37*
G36*
X2986481Y2137410D02*
G01*
X3013354Y2137410D01*
X3019653Y2138121D01*
X3025089Y2140000D01*
X3030016Y2143099D01*
X3034080Y2147163D01*
X3037179Y2152091D01*
X3039110Y2157526D01*
X3039821Y2163876D01*
X3039821Y2192223D01*
X2986481Y2192223D01*
G37*
G36*
X3412845Y2137410D02*
G01*
X3439718Y2137410D01*
X3439718Y2192223D01*
X3386378Y2192223D01*
X3386378Y2163876D01*
X3387090Y2157526D01*
X3389020Y2152091D01*
X3392119Y2147163D01*
X3396183Y2143099D01*
X3401110Y2140000D01*
X3406546Y2138121D01*
G37*
G36*
X3253181Y2137410D02*
G01*
X3280054Y2137410D01*
X3286353Y2138121D01*
X3291789Y2140000D01*
X3296716Y2143099D01*
X3300780Y2147163D01*
X3303879Y2152091D01*
X3305810Y2157526D01*
X3306521Y2163876D01*
X3306521Y2192223D01*
X3253181Y2192223D01*
G37*
G36*
X3946245Y2137410D02*
G01*
X3973118Y2137410D01*
X3973118Y2192223D01*
X3919778Y2192223D01*
X3919778Y2163876D01*
X3920490Y2157526D01*
X3922420Y2152091D01*
X3925519Y2147163D01*
X3929583Y2143099D01*
X3934510Y2140000D01*
X3939946Y2138121D01*
G37*
G36*
X3519881Y2137410D02*
G01*
X3546754Y2137410D01*
X3553053Y2138121D01*
X3558489Y2140000D01*
X3563416Y2143099D01*
X3567480Y2147163D01*
X3570579Y2152091D01*
X3572510Y2157526D01*
X3573221Y2163876D01*
X3573221Y2192223D01*
X3519881Y2192223D01*
G37*
G36*
X2879445Y2137410D02*
G01*
X2906318Y2137410D01*
X2906318Y2192223D01*
X2852978Y2192223D01*
X2852978Y2163876D01*
X2853690Y2157526D01*
X2855620Y2152091D01*
X2858719Y2147163D01*
X2862783Y2143099D01*
X2867710Y2140000D01*
X2873146Y2138121D01*
G37*
G36*
X4053281Y2137410D02*
G01*
X4080154Y2137410D01*
X4086453Y2138121D01*
X4091889Y2140000D01*
X4096816Y2143099D01*
X4100880Y2147163D01*
X4103979Y2152091D01*
X4105910Y2157526D01*
X4106621Y2163876D01*
X4106621Y2192223D01*
X4053281Y2192223D01*
G37*
G36*
X3679545Y2137410D02*
G01*
X3706418Y2137410D01*
X3706418Y2192223D01*
X3653078Y2192223D01*
X3653078Y2163876D01*
X3653790Y2157526D01*
X3655720Y2152091D01*
X3658819Y2147163D01*
X3662883Y2143099D01*
X3667810Y2140000D01*
X3673246Y2138121D01*
G37*
G36*
X7370114Y2138324D02*
G01*
X7462875Y2138324D01*
X7462875Y2231085D01*
X7450277Y2224074D01*
X7433056Y2212289D01*
X7417003Y2198928D01*
X7402271Y2184196D01*
X7388910Y2168144D01*
X7377125Y2150922D01*
G37*
G36*
X7675575Y2138324D02*
G01*
X7768285Y2138324D01*
X7761274Y2150922D01*
X7749489Y2168144D01*
X7736128Y2184196D01*
X7721396Y2198928D01*
X7705344Y2212289D01*
X7688122Y2224074D01*
X7675575Y2231085D01*
G37*
G36*
X867714Y2138324D02*
G01*
X960475Y2138324D01*
X960475Y2231085D01*
X947877Y2224074D01*
X930656Y2212289D01*
X914603Y2198928D01*
X899871Y2184196D01*
X886510Y2168144D01*
X874725Y2150922D01*
G37*
G36*
X5811926Y5429961D02*
G01*
X5856478Y5429961D01*
X5856478Y5504992D01*
X5849874Y5501792D01*
X5840476Y5495391D01*
X5832195Y5487720D01*
X5825134Y5478830D01*
X5819444Y5469026D01*
X5815279Y5458460D01*
X5812790Y5447385D01*
X5811926Y5435701D01*
G37*
G36*
X5919165Y5429961D02*
G01*
X5963716Y5429961D01*
X5963716Y5435701D01*
X5962853Y5447385D01*
X5960313Y5458460D01*
X5956198Y5469026D01*
X5950508Y5478830D01*
X5943447Y5487720D01*
X5935116Y5495391D01*
X5925769Y5501792D01*
X5919165Y5504992D01*
G37*
G36*
X1392326Y5429961D02*
G01*
X1436878Y5429961D01*
X1436878Y5504992D01*
X1430274Y5501792D01*
X1420876Y5495391D01*
X1412595Y5487720D01*
X1405534Y5478830D01*
X1399844Y5469026D01*
X1395679Y5458460D01*
X1393190Y5447385D01*
X1392326Y5435701D01*
G37*
G36*
X1499565Y5429961D02*
G01*
X1544116Y5429961D01*
X1544116Y5435701D01*
X1543253Y5447385D01*
X1540713Y5458460D01*
X1536598Y5469026D01*
X1530908Y5478830D01*
X1523847Y5487720D01*
X1515516Y5495391D01*
X1506169Y5501792D01*
X1499565Y5504992D01*
G37*
G36*
X3333140Y5418378D02*
G01*
X3376828Y5418378D01*
X3374339Y5429402D01*
X3370173Y5439968D01*
X3364484Y5449773D01*
X3357422Y5458663D01*
X3349091Y5466384D01*
X3339744Y5472734D01*
X3333140Y5475935D01*
G37*
G36*
X4197146Y5418378D02*
G01*
X4240834Y5418378D01*
X4238345Y5429402D01*
X4234180Y5439968D01*
X4228490Y5449773D01*
X4221429Y5458663D01*
X4213148Y5466384D01*
X4203750Y5472734D01*
X4197146Y5475935D01*
G37*
G36*
X4090771Y5418378D02*
G01*
X4134459Y5418378D01*
X4134459Y5475935D01*
X4127855Y5472734D01*
X4118508Y5466384D01*
X4110177Y5458663D01*
X4103115Y5449773D01*
X4097426Y5439968D01*
X4093311Y5429402D01*
G37*
G36*
X3226765Y5418378D02*
G01*
X3270453Y5418378D01*
X3270453Y5475935D01*
X3263849Y5472734D01*
X3254502Y5466384D01*
X3246170Y5458663D01*
X3239109Y5449773D01*
X3233420Y5439968D01*
X3229305Y5429402D01*
G37*
G36*
X4725466Y5290312D02*
G01*
X4725466Y5351729D01*
X4677714Y5351729D01*
X4679391Y5343855D01*
X4683658Y5332374D01*
X4689551Y5321655D01*
X4696917Y5311800D01*
X4705553Y5303164D01*
X4715357Y5295798D01*
G37*
G36*
X4798161Y5290312D02*
G01*
X4808220Y5295798D01*
X4818024Y5303164D01*
X4826711Y5311800D01*
X4834026Y5321655D01*
X4839919Y5332374D01*
X4844186Y5343855D01*
X4845913Y5351729D01*
X4798161Y5351729D01*
G37*
G36*
X5358333Y5290261D02*
G01*
X5368442Y5295798D01*
X5378246Y5303113D01*
X5386882Y5311800D01*
X5394248Y5321604D01*
X5400141Y5332374D01*
X5404408Y5343855D01*
X5406085Y5351678D01*
X5358333Y5351678D01*
G37*
G36*
X5285638Y5290261D02*
G01*
X5285638Y5351678D01*
X5237886Y5351678D01*
X5239613Y5343855D01*
X5243880Y5332374D01*
X5249773Y5321604D01*
X5257088Y5311800D01*
X5265775Y5303113D01*
X5275580Y5295798D01*
G37*
G36*
X3270453Y5258155D02*
G01*
X3270453Y5315712D01*
X3226765Y5315712D01*
X3229305Y5304688D01*
X3233420Y5294122D01*
X3239109Y5284317D01*
X3246170Y5275427D01*
X3254502Y5267706D01*
X3263849Y5261305D01*
G37*
G36*
X3333140Y5258155D02*
G01*
X3339744Y5261305D01*
X3349091Y5267706D01*
X3357422Y5275427D01*
X3364484Y5284317D01*
X3370173Y5294122D01*
X3374339Y5304688D01*
X3376828Y5315712D01*
X3333140Y5315712D01*
G37*
G36*
X4197146Y5258155D02*
G01*
X4203750Y5261305D01*
X4213148Y5267706D01*
X4221429Y5275427D01*
X4228490Y5284317D01*
X4234180Y5294122D01*
X4238345Y5304688D01*
X4240834Y5315712D01*
X4197146Y5315712D01*
G37*
G36*
X4134459Y5258155D02*
G01*
X4134459Y5315712D01*
X4090771Y5315712D01*
X4093311Y5304688D01*
X4097426Y5294122D01*
X4103115Y5284317D01*
X4110177Y5275427D01*
X4118508Y5267706D01*
X4127855Y5261305D01*
G37*
G36*
X5856478Y5217210D02*
G01*
X5856478Y5292242D01*
X5811926Y5292242D01*
X5811926Y5286451D01*
X5812790Y5274767D01*
X5815279Y5263743D01*
X5819444Y5253177D01*
X5825134Y5243322D01*
X5832195Y5234482D01*
X5840476Y5226761D01*
X5849874Y5220360D01*
G37*
G36*
X2779522Y5217210D02*
G01*
X2786126Y5220360D01*
X2795524Y5226761D01*
X2803804Y5234482D01*
X2810865Y5243322D01*
X2816555Y5253177D01*
X2820720Y5263743D01*
X2823210Y5274767D01*
X2824124Y5286451D01*
X2824124Y5292242D01*
X2779522Y5292242D01*
G37*
G36*
X7199122Y5217210D02*
G01*
X7205725Y5220360D01*
X7215124Y5226761D01*
X7223404Y5234482D01*
X7230465Y5243322D01*
X7236155Y5253177D01*
X7240320Y5263743D01*
X7242809Y5274767D01*
X7243724Y5286451D01*
X7243724Y5292242D01*
X7199122Y5292242D01*
G37*
G36*
X7136434Y5217210D02*
G01*
X7136434Y5292242D01*
X7091883Y5292242D01*
X7091883Y5286451D01*
X7092746Y5274767D01*
X7095286Y5263743D01*
X7099401Y5253177D01*
X7105091Y5243322D01*
X7112152Y5234482D01*
X7120483Y5226761D01*
X7129830Y5220360D01*
G37*
G36*
X2716834Y5217210D02*
G01*
X2716834Y5292242D01*
X2672283Y5292242D01*
X2672283Y5286451D01*
X2673146Y5274767D01*
X2675686Y5263743D01*
X2679801Y5253177D01*
X2685491Y5243322D01*
X2692552Y5234482D01*
X2700883Y5226761D01*
X2710230Y5220360D01*
G37*
G36*
X5919165Y5217210D02*
G01*
X5925769Y5220360D01*
X5935116Y5226761D01*
X5943447Y5234482D01*
X5950508Y5243322D01*
X5956198Y5253177D01*
X5960313Y5263743D01*
X5962853Y5274767D01*
X5963716Y5286451D01*
X5963716Y5292242D01*
X5919165Y5292242D01*
G37*
G36*
X1499565Y5217210D02*
G01*
X1506169Y5220360D01*
X1515516Y5226761D01*
X1523847Y5234482D01*
X1530908Y5243322D01*
X1536598Y5253177D01*
X1540713Y5263743D01*
X1543253Y5274767D01*
X1544116Y5286451D01*
X1544116Y5292242D01*
X1499565Y5292242D01*
G37*
G36*
X1436878Y5217210D02*
G01*
X1436878Y5292242D01*
X1392326Y5292242D01*
X1392326Y5286451D01*
X1393190Y5274767D01*
X1395679Y5263743D01*
X1399844Y5253177D01*
X1405534Y5243322D01*
X1412595Y5234482D01*
X1420876Y5226761D01*
X1430274Y5220360D01*
G37*
G36*
X4621022Y5194401D02*
G01*
X4675581Y5194401D01*
X4675581Y5243931D01*
X4647488Y5243931D01*
X4641138Y5243220D01*
X4635703Y5241290D01*
X4630775Y5238242D01*
X4626711Y5234127D01*
X4623612Y5229250D01*
X4621733Y5223764D01*
X4621022Y5217464D01*
G37*
G36*
X1626107Y2685389D02*
G01*
X1724202Y2685389D01*
X1730552Y2686100D01*
X1735988Y2688031D01*
X1740916Y2691079D01*
X1744980Y2695194D01*
X1748078Y2700070D01*
X1749958Y2705557D01*
X1750669Y2711856D01*
X1750669Y2739948D01*
X1626107Y2739948D01*
G37*
G36*
X1305356Y2685389D02*
G01*
X1403451Y2685389D01*
X1403451Y2739948D01*
X1278890Y2739948D01*
X1278890Y2711856D01*
X1279601Y2705557D01*
X1281480Y2700070D01*
X1284579Y2695194D01*
X1288643Y2691079D01*
X1293571Y2688031D01*
X1299006Y2686100D01*
G37*
G36*
X7158278Y2735376D02*
G01*
X7211618Y2735376D01*
X7211618Y2790190D01*
X7184745Y2790190D01*
X7178446Y2789478D01*
X7173010Y2787599D01*
X7168083Y2784500D01*
X7164019Y2780436D01*
X7160920Y2775508D01*
X7158990Y2770073D01*
X7158278Y2763723D01*
G37*
G36*
X7291781Y2735376D02*
G01*
X7345121Y2735376D01*
X7345121Y2763723D01*
X7344409Y2770073D01*
X7342479Y2775508D01*
X7339380Y2780436D01*
X7335316Y2784500D01*
X7330389Y2787599D01*
X7324953Y2789478D01*
X7318654Y2790190D01*
X7291781Y2790190D01*
G37*
G36*
X6891578Y2735376D02*
G01*
X6944918Y2735376D01*
X6944918Y2790190D01*
X6918045Y2790190D01*
X6911746Y2789478D01*
X6906310Y2787599D01*
X6901383Y2784500D01*
X6897319Y2780436D01*
X6894220Y2775508D01*
X6892290Y2770073D01*
X6891578Y2763723D01*
G37*
G36*
X7025081Y2735376D02*
G01*
X7078421Y2735376D01*
X7078421Y2763723D01*
X7077709Y2770073D01*
X7075779Y2775508D01*
X7072680Y2780436D01*
X7068616Y2784500D01*
X7063689Y2787599D01*
X7058253Y2789478D01*
X7051954Y2790190D01*
X7025081Y2790190D01*
G37*
G36*
X5408269Y5194401D02*
G01*
X5462828Y5194401D01*
X5462828Y5217464D01*
X5462066Y5223764D01*
X5460187Y5229250D01*
X5457088Y5234127D01*
X5453024Y5238242D01*
X5448096Y5241290D01*
X5442661Y5243220D01*
X5436311Y5243931D01*
X5408269Y5243931D01*
G37*
G36*
X4928209Y5174335D02*
G01*
X4960518Y5174335D01*
X4960518Y5228894D01*
X4957470Y5228894D01*
X4951120Y5228183D01*
X4947716Y5227015D01*
X4944364Y5226456D01*
X4941011Y5227015D01*
X4937607Y5228183D01*
X4931257Y5228894D01*
X4928209Y5228894D01*
G37*
G36*
X7462875Y5134914D02*
G01*
X7462875Y5227624D01*
X7370114Y5227624D01*
X7377125Y5215077D01*
X7388910Y5197856D01*
X7402271Y5181803D01*
X7417003Y5167071D01*
X7433056Y5153710D01*
X7450277Y5141925D01*
G37*
G36*
X960475Y5134914D02*
G01*
X960475Y5227624D01*
X867714Y5227624D01*
X874725Y5215077D01*
X886510Y5197856D01*
X899871Y5181803D01*
X914603Y5167071D01*
X930656Y5153710D01*
X947877Y5141925D01*
G37*
G36*
X1173175Y5134914D02*
G01*
X1185722Y5141925D01*
X1202944Y5153710D01*
X1218996Y5167071D01*
X1233728Y5181803D01*
X1247089Y5197856D01*
X1258874Y5215077D01*
X1265885Y5227624D01*
X1173175Y5227624D01*
G37*
G36*
X1278890Y2822651D02*
G01*
X1403451Y2822651D01*
X1403451Y2877210D01*
X1305356Y2877210D01*
X1299006Y2876499D01*
X1293571Y2874568D01*
X1288643Y2871520D01*
X1284579Y2867406D01*
X1281480Y2862529D01*
X1279601Y2857042D01*
X1278890Y2850743D01*
G37*
G36*
X1626107Y2822651D02*
G01*
X1750669Y2822651D01*
X1750669Y2850743D01*
X1749958Y2857042D01*
X1748078Y2862529D01*
X1744980Y2867406D01*
X1740916Y2871520D01*
X1735988Y2874568D01*
X1730552Y2876499D01*
X1724202Y2877210D01*
X1626107Y2877210D01*
G37*
G36*
X7675575Y5134914D02*
G01*
X7688122Y5141925D01*
X7705344Y5153710D01*
X7721396Y5167071D01*
X7736128Y5181803D01*
X7749489Y5197856D01*
X7761274Y5215077D01*
X7768285Y5227624D01*
X7675575Y5227624D01*
G37*
G36*
X4758283Y5072126D02*
G01*
X4786325Y5072126D01*
X4792675Y5072837D01*
X4798110Y5074767D01*
X4803038Y5077815D01*
X4807102Y5081930D01*
X4810201Y5086807D01*
X4812080Y5092293D01*
X4812842Y5098592D01*
X4812842Y5122214D01*
X4813808Y5126583D01*
X4816602Y5130088D01*
X4820615Y5132070D01*
X4825136Y5132120D01*
X4834483Y5130088D01*
X4844389Y5129682D01*
X4854194Y5130952D01*
X4863642Y5133848D01*
X4872482Y5138318D01*
X4880457Y5144160D01*
X4887315Y5151323D01*
X4892852Y5159552D01*
X4896916Y5168544D01*
X4899456Y5178145D01*
X4900269Y5188000D01*
X4899456Y5197856D01*
X4895494Y5212791D01*
X4895494Y5228894D01*
X4889144Y5228539D01*
X4886045Y5228691D01*
X4883150Y5229707D01*
X4872482Y5237683D01*
X4863642Y5242153D01*
X4854194Y5245049D01*
X4844389Y5246319D01*
X4834483Y5245912D01*
X4824831Y5243830D01*
X4815636Y5240121D01*
X4813096Y5238597D01*
X4809642Y5237226D01*
X4805883Y5237276D01*
X4802378Y5238648D01*
X4798110Y5241290D01*
X4792675Y5243220D01*
X4786325Y5243931D01*
X4758283Y5243931D01*
X4758283Y5194401D01*
X4773574Y5194401D01*
X4777486Y5193588D01*
X4780788Y5191404D01*
X4782972Y5188102D01*
X4785410Y5173268D01*
X4788712Y5163972D01*
X4793538Y5155336D01*
X4799736Y5147614D01*
X4811268Y5137454D01*
X4812842Y5133441D01*
X4812588Y5129072D01*
X4810506Y5125262D01*
X4807051Y5122621D01*
X4802784Y5121706D01*
X4758283Y5121706D01*
G37*
G36*
X5408269Y5072126D02*
G01*
X5436311Y5072126D01*
X5442661Y5072837D01*
X5448096Y5074767D01*
X5453024Y5077815D01*
X5457088Y5081930D01*
X5460187Y5086807D01*
X5462066Y5092293D01*
X5462828Y5098592D01*
X5462828Y5121706D01*
X5408269Y5121706D01*
G37*
G36*
X4647488Y5072126D02*
G01*
X4675581Y5072126D01*
X4675581Y5121706D01*
X4621022Y5121706D01*
X4621022Y5098592D01*
X4621733Y5092293D01*
X4623612Y5086807D01*
X4626711Y5081930D01*
X4630775Y5077815D01*
X4635703Y5074767D01*
X4641138Y5072837D01*
G37*
G36*
X7454442Y2934004D02*
G01*
X7470038Y2934004D01*
X7476337Y2934716D01*
X7481824Y2936595D01*
X7486700Y2939694D01*
X7490815Y2943809D01*
X7493863Y2948686D01*
X7495794Y2954172D01*
X7496505Y2960471D01*
X7496505Y2978556D01*
X7454442Y2978556D01*
G37*
G36*
X7381189Y2934004D02*
G01*
X7396734Y2934004D01*
X7396734Y2978556D01*
X7354671Y2978556D01*
X7354671Y2960471D01*
X7355382Y2954172D01*
X7357313Y2948686D01*
X7360412Y2943809D01*
X7364475Y2939694D01*
X7369403Y2936595D01*
X7374839Y2934716D01*
G37*
G36*
X4892446Y5037074D02*
G01*
X4895494Y5037074D01*
X4895494Y5091633D01*
X4865928Y5091633D01*
X4865928Y5063591D01*
X4866640Y5057241D01*
X4868570Y5051806D01*
X4871669Y5046878D01*
X4875733Y5042814D01*
X4880660Y5039715D01*
X4886096Y5037785D01*
G37*
G36*
X4197146Y5010912D02*
G01*
X4241393Y5010912D01*
X4240834Y5018379D01*
X4238294Y5029403D01*
X4234180Y5039969D01*
X4228490Y5049824D01*
X4221429Y5058664D01*
X4213098Y5066385D01*
X4203750Y5072786D01*
X4197146Y5075936D01*
G37*
G36*
X3226206Y5010912D02*
G01*
X3270453Y5010912D01*
X3270453Y5075936D01*
X3263849Y5072786D01*
X3254502Y5066385D01*
X3246170Y5058664D01*
X3239109Y5049774D01*
X3233420Y5039969D01*
X3229305Y5029403D01*
X3226765Y5018379D01*
G37*
G36*
X3270453Y4828184D02*
G01*
X3270453Y4893208D01*
X3226206Y4893208D01*
X3226765Y4885740D01*
X3229305Y4874666D01*
X3233420Y4864150D01*
X3239109Y4854295D01*
X3246170Y4845456D01*
X3254502Y4837734D01*
X3263849Y4831334D01*
G37*
G36*
X4197146Y4828184D02*
G01*
X4203750Y4831334D01*
X4213098Y4837734D01*
X4221429Y4845456D01*
X4228490Y4854295D01*
X4234180Y4864150D01*
X4238294Y4874666D01*
X4240834Y4885740D01*
X4241393Y4893208D01*
X4197146Y4893208D01*
G37*
G36*
X7454442Y3041243D02*
G01*
X7496505Y3041243D01*
X7496505Y3059328D01*
X7495794Y3065627D01*
X7493863Y3071114D01*
X7490815Y3075990D01*
X7486700Y3080105D01*
X7481824Y3083204D01*
X7476337Y3085084D01*
X7470038Y3085795D01*
X7454442Y3085795D01*
G37*
G36*
X3384397Y4811166D02*
G01*
X3392474Y4811166D01*
X3392474Y4859477D01*
X3347720Y4859477D01*
X3343859Y4860239D01*
X3340557Y4862423D01*
X3338372Y4865725D01*
X3337560Y4869637D01*
X3337560Y4893208D01*
X3333140Y4893208D01*
X3333140Y4828184D01*
X3339744Y4831334D01*
X3344011Y4834280D01*
X3347415Y4835753D01*
X3351123Y4835956D01*
X3354628Y4834788D01*
X3357473Y4832451D01*
X3359353Y4829251D01*
X3360521Y4825847D01*
X3363620Y4820920D01*
X3367684Y4816856D01*
X3372612Y4813757D01*
X3378047Y4811877D01*
G37*
G36*
X4075176Y4811166D02*
G01*
X4083253Y4811166D01*
X4089552Y4811877D01*
X4095038Y4813757D01*
X4099915Y4816856D01*
X4104030Y4820920D01*
X4107078Y4825847D01*
X4108246Y4829200D01*
X4110126Y4832451D01*
X4112971Y4834788D01*
X4116476Y4835956D01*
X4120184Y4835753D01*
X4123588Y4834280D01*
X4127855Y4831334D01*
X4134459Y4828184D01*
X4134459Y4893208D01*
X4130040Y4893208D01*
X4130040Y4869637D01*
X4129278Y4865725D01*
X4127042Y4862423D01*
X4123740Y4860239D01*
X4119879Y4859477D01*
X4075176Y4859477D01*
G37*
G36*
X5595112Y4737354D02*
G01*
X5636260Y4737354D01*
X5636260Y4777079D01*
X5621578Y4777079D01*
X5615228Y4776368D01*
X5609793Y4774438D01*
X5604865Y4771339D01*
X5600801Y4767275D01*
X5597702Y4762347D01*
X5595823Y4756912D01*
X5595112Y4750562D01*
G37*
G36*
X5692140Y4737354D02*
G01*
X5733288Y4737354D01*
X5733288Y4750562D01*
X5732576Y4756912D01*
X5730697Y4762347D01*
X5727598Y4767275D01*
X5723534Y4771339D01*
X5718606Y4774438D01*
X5713171Y4776368D01*
X5706821Y4777079D01*
X5692140Y4777079D01*
G37*
G36*
X1077569Y3102203D02*
G01*
X1113129Y3102203D01*
X1119428Y3102914D01*
X1124915Y3104794D01*
X1129792Y3107893D01*
X1133906Y3112008D01*
X1137005Y3116884D01*
X1138885Y3122371D01*
X1139596Y3128670D01*
X1139596Y3164230D01*
X1077569Y3164230D01*
G37*
G36*
X6222238Y4665522D02*
G01*
X6269583Y4665522D01*
X6268923Y4667148D01*
X6261963Y4678883D01*
X6253530Y4689551D01*
X6243726Y4699050D01*
X6232753Y4707128D01*
X6222238Y4712868D01*
G37*
G36*
X7284415Y3162604D02*
G01*
X7300010Y3162604D01*
X7306360Y3163316D01*
X7311796Y3165195D01*
X7316724Y3168294D01*
X7320788Y3172409D01*
X7323886Y3177286D01*
X7325766Y3182772D01*
X7326477Y3189071D01*
X7326477Y3207156D01*
X7284415Y3207156D01*
G37*
G36*
X7211161Y3162604D02*
G01*
X7226757Y3162604D01*
X7226757Y3207156D01*
X7184694Y3207156D01*
X7184694Y3189071D01*
X7185406Y3182772D01*
X7187285Y3177286D01*
X7190384Y3172409D01*
X7194499Y3168294D01*
X7199375Y3165195D01*
X7204862Y3163316D01*
G37*
G36*
X1802638Y4665522D02*
G01*
X1849983Y4665522D01*
X1849323Y4667148D01*
X1842363Y4678883D01*
X1833930Y4689551D01*
X1824126Y4699050D01*
X1813153Y4707128D01*
X1802638Y4712868D01*
G37*
G36*
X1666544Y4665522D02*
G01*
X1713738Y4665522D01*
X1713738Y4712766D01*
X1709115Y4710633D01*
X1697634Y4703267D01*
X1687220Y4694478D01*
X1678076Y4684369D01*
X1670354Y4673142D01*
G37*
G36*
X6086144Y4665522D02*
G01*
X6133338Y4665522D01*
X6133338Y4712766D01*
X6128715Y4710633D01*
X6117234Y4703267D01*
X6106820Y4694478D01*
X6097676Y4684369D01*
X6089954Y4673142D01*
G37*
G36*
X1077569Y3261969D02*
G01*
X1139596Y3261969D01*
X1139596Y3297529D01*
X1138885Y3303828D01*
X1137005Y3309315D01*
X1133906Y3314192D01*
X1129792Y3318306D01*
X1124915Y3321405D01*
X1119428Y3323285D01*
X1113129Y3323996D01*
X1077569Y3323996D01*
G37*
G36*
X7184694Y3269843D02*
G01*
X7226757Y3269843D01*
X7226757Y3314395D01*
X7211161Y3314395D01*
X7204862Y3313684D01*
X7199375Y3311804D01*
X7194499Y3308705D01*
X7190384Y3304590D01*
X7187285Y3299714D01*
X7185406Y3294227D01*
X7184694Y3287928D01*
G37*
G36*
X7284415Y3269843D02*
G01*
X7326477Y3269843D01*
X7326477Y3287928D01*
X7325766Y3294227D01*
X7323886Y3299714D01*
X7320788Y3304590D01*
X7316724Y3308705D01*
X7311796Y3311804D01*
X7306360Y3313684D01*
X7300010Y3314395D01*
X7284415Y3314395D01*
G37*
G36*
X1713738Y4529429D02*
G01*
X1713738Y4576622D01*
X1666544Y4576622D01*
X1670354Y4569053D01*
X1678076Y4557826D01*
X1687220Y4547717D01*
X1697634Y4538929D01*
X1709115Y4531563D01*
G37*
G36*
X6133338Y4529429D02*
G01*
X6133338Y4576622D01*
X6086144Y4576622D01*
X6089954Y4569053D01*
X6097676Y4557826D01*
X6106820Y4547717D01*
X6117234Y4538929D01*
X6128715Y4531563D01*
G37*
G36*
X6910171Y3354171D02*
G01*
X6928256Y3354171D01*
X6928256Y3396234D01*
X6883704Y3396234D01*
X6883704Y3380689D01*
X6884416Y3374339D01*
X6886295Y3368903D01*
X6889394Y3363976D01*
X6893509Y3359912D01*
X6898386Y3356813D01*
X6903872Y3354882D01*
G37*
G36*
X6990943Y3354171D02*
G01*
X7009028Y3354171D01*
X7015327Y3354882D01*
X7020814Y3356813D01*
X7025690Y3359912D01*
X7029805Y3363976D01*
X7032904Y3368903D01*
X7034784Y3374339D01*
X7035495Y3380689D01*
X7035495Y3396234D01*
X6990943Y3396234D01*
G37*
G36*
X6222238Y4529328D02*
G01*
X6232753Y4535068D01*
X6243726Y4543145D01*
X6253530Y4552645D01*
X6261963Y4563313D01*
X6268923Y4575048D01*
X6269583Y4576622D01*
X6222238Y4576622D01*
G37*
G36*
X7454442Y3378504D02*
G01*
X7470038Y3378504D01*
X7476337Y3379215D01*
X7481824Y3381095D01*
X7486700Y3384194D01*
X7490815Y3388309D01*
X7493863Y3393186D01*
X7495794Y3398672D01*
X7496505Y3404971D01*
X7496505Y3423056D01*
X7454442Y3423056D01*
G37*
G36*
X7381189Y3378504D02*
G01*
X7396734Y3378504D01*
X7396734Y3423056D01*
X7354671Y3423056D01*
X7354671Y3404971D01*
X7355382Y3398672D01*
X7357313Y3393186D01*
X7360412Y3388309D01*
X7364475Y3384194D01*
X7369403Y3381095D01*
X7374839Y3379215D01*
G37*
G36*
X7211161Y3378504D02*
G01*
X7300010Y3378504D01*
X7306360Y3379215D01*
X7311796Y3381095D01*
X7316724Y3384194D01*
X7320788Y3388309D01*
X7323886Y3393186D01*
X7325766Y3398672D01*
X7326477Y3404971D01*
X7326477Y3466490D01*
X7327290Y3470401D01*
X7329474Y3473704D01*
X7338568Y3482797D01*
X7341870Y3484981D01*
X7345730Y3485743D01*
X7396734Y3485743D01*
X7396734Y3536746D01*
X7397496Y3540658D01*
X7399731Y3543909D01*
X7452512Y3596741D01*
X7457998Y3603396D01*
X7461503Y3606139D01*
X7465822Y3607104D01*
X7470038Y3607104D01*
X7476337Y3607815D01*
X7481824Y3609695D01*
X7486700Y3612794D01*
X7490815Y3616909D01*
X7493863Y3621786D01*
X7495794Y3627272D01*
X7496505Y3633571D01*
X7496505Y3732428D01*
X7495794Y3738727D01*
X7493863Y3744214D01*
X7490815Y3749090D01*
X7486700Y3753205D01*
X7481824Y3756304D01*
X7476337Y3758184D01*
X7470038Y3758895D01*
X7381189Y3758895D01*
X7374839Y3758184D01*
X7369403Y3756304D01*
X7364475Y3753205D01*
X7360412Y3749090D01*
X7357313Y3744214D01*
X7355382Y3738727D01*
X7354671Y3732428D01*
X7354671Y3633571D01*
X7355382Y3627272D01*
X7358786Y3617518D01*
X7358227Y3613048D01*
X7355840Y3609238D01*
X7279894Y3533292D01*
X7276592Y3531057D01*
X7272680Y3530295D01*
X7211161Y3530295D01*
X7204862Y3529584D01*
X7199375Y3527704D01*
X7194499Y3524605D01*
X7190384Y3520490D01*
X7187285Y3515614D01*
X7185406Y3510229D01*
X7184644Y3502202D01*
X7183628Y3498596D01*
X7181342Y3495649D01*
X7178192Y3493668D01*
X7174534Y3493008D01*
X7157008Y3493008D01*
X7153097Y3493770D01*
X7149795Y3496005D01*
X7148220Y3497579D01*
X7140194Y3503218D01*
X7131253Y3507333D01*
X7121804Y3509873D01*
X7112000Y3510737D01*
X7102195Y3509873D01*
X7092746Y3507333D01*
X7083806Y3503218D01*
X7075779Y3497579D01*
X7068820Y3490620D01*
X7063181Y3482594D01*
X7059066Y3473653D01*
X7056526Y3464204D01*
X7055764Y3455974D01*
X7055307Y3454450D01*
X7055764Y3452825D01*
X7056526Y3444595D01*
X7059066Y3435146D01*
X7063181Y3426206D01*
X7068820Y3418179D01*
X7075779Y3411220D01*
X7083806Y3405581D01*
X7092746Y3401466D01*
X7102195Y3398926D01*
X7112000Y3398062D01*
X7121804Y3398926D01*
X7131253Y3401466D01*
X7140194Y3405581D01*
X7148220Y3411220D01*
X7149795Y3412794D01*
X7153097Y3415029D01*
X7157008Y3415792D01*
X7174534Y3415792D01*
X7178192Y3415131D01*
X7181342Y3413150D01*
X7183628Y3410204D01*
X7184644Y3406597D01*
X7185406Y3398570D01*
X7187285Y3393186D01*
X7190384Y3388309D01*
X7194499Y3384194D01*
X7199375Y3381095D01*
X7204862Y3379215D01*
G37*
G36*
X1802638Y4529328D02*
G01*
X1813153Y4535068D01*
X1824126Y4543145D01*
X1833930Y4552645D01*
X1842363Y4563313D01*
X1849323Y4575048D01*
X1849983Y4576622D01*
X1802638Y4576622D01*
G37*
G36*
X6431178Y4519066D02*
G01*
X6444792Y4520438D01*
X6458051Y4523587D01*
X6470751Y4528515D01*
X6482740Y4535068D01*
X6493713Y4543145D01*
X6503517Y4552645D01*
X6511950Y4563313D01*
X6519164Y4575505D01*
X6522110Y4578705D01*
X6526123Y4580331D01*
X6530390Y4580178D01*
X6534251Y4578299D01*
X6536994Y4574946D01*
X6539941Y4569053D01*
X6547662Y4557826D01*
X6556806Y4547717D01*
X6567220Y4538929D01*
X6578701Y4531563D01*
X6591096Y4525822D01*
X6604101Y4521809D01*
X6617563Y4519523D01*
X6631178Y4519066D01*
X6644792Y4520438D01*
X6658051Y4523587D01*
X6670751Y4528515D01*
X6682740Y4535068D01*
X6693712Y4543145D01*
X6703517Y4552645D01*
X6711950Y4563313D01*
X6718909Y4575048D01*
X6724243Y4587595D01*
X6727850Y4600752D01*
X6729628Y4614265D01*
X6729628Y4627930D01*
X6727850Y4641443D01*
X6724243Y4654600D01*
X6718909Y4667148D01*
X6711950Y4678883D01*
X6703517Y4689551D01*
X6693712Y4699050D01*
X6682740Y4707128D01*
X6670751Y4713681D01*
X6658051Y4718608D01*
X6644792Y4721758D01*
X6631178Y4723130D01*
X6617563Y4722672D01*
X6604101Y4720386D01*
X6593941Y4717237D01*
X6590284Y4716780D01*
X6586728Y4717694D01*
X6583730Y4719777D01*
X6488633Y4814824D01*
X6482435Y4819954D01*
X6475780Y4823510D01*
X6468516Y4825695D01*
X6460490Y4826508D01*
X6026708Y4826508D01*
X6022797Y4827270D01*
X6019495Y4829505D01*
X6017920Y4831080D01*
X6009894Y4836718D01*
X6000953Y4840833D01*
X5991504Y4843373D01*
X5981700Y4844237D01*
X5971895Y4843373D01*
X5962446Y4840833D01*
X5953506Y4836718D01*
X5945479Y4831080D01*
X5938520Y4824120D01*
X5932881Y4816094D01*
X5928766Y4807153D01*
X5926226Y4797704D01*
X5925362Y4787900D01*
X5926226Y4778095D01*
X5928766Y4768646D01*
X5932881Y4759706D01*
X5938520Y4751679D01*
X5945479Y4744720D01*
X5953506Y4739081D01*
X5962446Y4734966D01*
X5971895Y4732426D01*
X5981700Y4731562D01*
X5991504Y4732426D01*
X6000953Y4734966D01*
X6009894Y4739081D01*
X6017920Y4744720D01*
X6019495Y4746294D01*
X6022797Y4748530D01*
X6026708Y4749292D01*
X6440779Y4749292D01*
X6444691Y4748530D01*
X6447993Y4746294D01*
X6455816Y4738471D01*
X6458204Y4734814D01*
X6458762Y4730496D01*
X6457543Y4726330D01*
X6454648Y4723079D01*
X6450634Y4721301D01*
X6446316Y4721402D01*
X6444792Y4721758D01*
X6431178Y4723130D01*
X6417564Y4722672D01*
X6404102Y4720386D01*
X6391097Y4716373D01*
X6378702Y4710633D01*
X6367221Y4703267D01*
X6356807Y4694478D01*
X6347663Y4684369D01*
X6339941Y4673142D01*
X6333794Y4660950D01*
X6329324Y4648047D01*
X6326632Y4634687D01*
X6325717Y4621072D01*
X6326632Y4607509D01*
X6329324Y4594148D01*
X6333794Y4581245D01*
X6339941Y4569053D01*
X6347663Y4557826D01*
X6356807Y4547717D01*
X6367221Y4538929D01*
X6378702Y4531563D01*
X6391097Y4525822D01*
X6404102Y4521809D01*
X6417564Y4519523D01*
G37*
G36*
X2011578Y4519066D02*
G01*
X2025192Y4520438D01*
X2038451Y4523587D01*
X2051151Y4528515D01*
X2063140Y4535068D01*
X2074113Y4543145D01*
X2083917Y4552645D01*
X2092350Y4563313D01*
X2099564Y4575505D01*
X2102510Y4578705D01*
X2106523Y4580331D01*
X2110790Y4580178D01*
X2114651Y4578299D01*
X2117394Y4574946D01*
X2120341Y4569053D01*
X2128062Y4557826D01*
X2137206Y4547717D01*
X2147620Y4538929D01*
X2159101Y4531563D01*
X2171496Y4525822D01*
X2184501Y4521809D01*
X2197963Y4519523D01*
X2211578Y4519066D01*
X2225141Y4520438D01*
X2238451Y4523587D01*
X2251151Y4528515D01*
X2263140Y4535068D01*
X2274112Y4543145D01*
X2283917Y4552645D01*
X2292350Y4563313D01*
X2299309Y4575048D01*
X2304643Y4587595D01*
X2308250Y4600752D01*
X2310028Y4614265D01*
X2310028Y4627930D01*
X2308250Y4641443D01*
X2304643Y4654600D01*
X2299309Y4667148D01*
X2292350Y4678883D01*
X2283917Y4689551D01*
X2274112Y4699050D01*
X2263140Y4707128D01*
X2251151Y4713681D01*
X2238451Y4718608D01*
X2225141Y4721758D01*
X2211578Y4723130D01*
X2197963Y4722672D01*
X2184501Y4720386D01*
X2171496Y4716373D01*
X2159101Y4710633D01*
X2147620Y4703267D01*
X2137206Y4694478D01*
X2128062Y4684369D01*
X2120341Y4673142D01*
X2117394Y4667250D01*
X2114651Y4663897D01*
X2110790Y4662017D01*
X2106523Y4661865D01*
X2102510Y4663490D01*
X2099564Y4666640D01*
X2092350Y4678883D01*
X2083917Y4689551D01*
X2074113Y4699050D01*
X2063140Y4707128D01*
X2051151Y4713681D01*
X2038451Y4718608D01*
X2025192Y4721758D01*
X2011578Y4723130D01*
X1997964Y4722672D01*
X1984502Y4720386D01*
X1971497Y4716373D01*
X1959102Y4710633D01*
X1947621Y4703267D01*
X1937207Y4694478D01*
X1928063Y4684369D01*
X1920341Y4673142D01*
X1914194Y4660950D01*
X1909724Y4648047D01*
X1907032Y4634687D01*
X1906117Y4621072D01*
X1907032Y4607509D01*
X1909724Y4594148D01*
X1914194Y4581245D01*
X1920341Y4569053D01*
X1928063Y4557826D01*
X1937207Y4547717D01*
X1947621Y4538929D01*
X1959102Y4531563D01*
X1971497Y4525822D01*
X1984502Y4521809D01*
X1997964Y4519523D01*
G37*
G36*
X6124854Y4211116D02*
G01*
X6166916Y4211116D01*
X6166916Y4224223D01*
X6166205Y4230522D01*
X6164275Y4236008D01*
X6161227Y4240885D01*
X6157112Y4245000D01*
X6152235Y4248099D01*
X6146749Y4249978D01*
X6140450Y4250690D01*
X6124854Y4250690D01*
G37*
G36*
X6025083Y4211116D02*
G01*
X6067145Y4211116D01*
X6067145Y4250690D01*
X6051550Y4250690D01*
X6045250Y4249978D01*
X6039764Y4248099D01*
X6034887Y4245000D01*
X6030772Y4240885D01*
X6027724Y4236008D01*
X6025794Y4230522D01*
X6025083Y4224223D01*
G37*
G36*
X7454696Y4162247D02*
G01*
X7511745Y4162247D01*
X7511745Y4204309D01*
X7481163Y4204309D01*
X7474864Y4203598D01*
X7469378Y4201668D01*
X7464501Y4198620D01*
X7460386Y4194505D01*
X7457338Y4189628D01*
X7455408Y4184142D01*
X7454696Y4177842D01*
G37*
G36*
X7705598Y4160012D02*
G01*
X7716266Y4160875D01*
X7726680Y4163364D01*
X7736636Y4167479D01*
X7745780Y4173067D01*
X7753908Y4180027D01*
X7760868Y4188206D01*
X7766507Y4197350D01*
X7770622Y4207256D01*
X7773111Y4217670D01*
X7773924Y4228388D01*
X7773111Y4239107D01*
X7770622Y4249521D01*
X7766507Y4259427D01*
X7760868Y4268571D01*
X7753908Y4276750D01*
X7745780Y4283710D01*
X7736636Y4289298D01*
X7726680Y4293412D01*
X7716266Y4295902D01*
X7705598Y4296765D01*
X7694879Y4295902D01*
X7684465Y4293412D01*
X7674508Y4289298D01*
X7665364Y4283710D01*
X7657236Y4276750D01*
X7650276Y4268571D01*
X7644638Y4259427D01*
X7640523Y4249521D01*
X7638034Y4239107D01*
X7637221Y4228388D01*
X7638440Y4213199D01*
X7637322Y4209694D01*
X7635087Y4206849D01*
X7631938Y4204970D01*
X7628381Y4204309D01*
X7599476Y4204309D01*
X7599476Y4162247D01*
X7656677Y4162247D01*
X7658150Y4165854D01*
X7660843Y4168698D01*
X7664399Y4170273D01*
X7668310Y4170375D01*
X7671968Y4169003D01*
X7674508Y4167479D01*
X7684465Y4163364D01*
X7694879Y4160875D01*
G37*
G36*
X7481163Y4062476D02*
G01*
X7511745Y4062476D01*
X7511745Y4104538D01*
X7454696Y4104538D01*
X7454696Y4088942D01*
X7455408Y4082643D01*
X7457338Y4077157D01*
X7460386Y4072280D01*
X7464501Y4068165D01*
X7469378Y4065117D01*
X7474864Y4063187D01*
G37*
G36*
X6883704Y3453942D02*
G01*
X6928256Y3453942D01*
X6928256Y3496005D01*
X6910171Y3496005D01*
X6903872Y3495294D01*
X6898386Y3493363D01*
X6893509Y3490315D01*
X6889394Y3486200D01*
X6886295Y3481324D01*
X6884416Y3475837D01*
X6883704Y3469538D01*
G37*
G36*
X6990943Y3453942D02*
G01*
X7035698Y3453942D01*
X7035495Y3456889D01*
X7035495Y3469538D01*
X7034784Y3475837D01*
X7032904Y3481324D01*
X7029805Y3486200D01*
X7025690Y3490315D01*
X7020814Y3493363D01*
X7015327Y3495294D01*
X7009028Y3496005D01*
X6990943Y3496005D01*
G37*
G36*
X7284415Y3714343D02*
G01*
X7326477Y3714343D01*
X7326477Y3732428D01*
X7325766Y3738727D01*
X7323886Y3744214D01*
X7320788Y3749090D01*
X7316724Y3753205D01*
X7311796Y3756304D01*
X7306360Y3758184D01*
X7300010Y3758895D01*
X7284415Y3758895D01*
G37*
G36*
X7184694Y3714343D02*
G01*
X7226757Y3714343D01*
X7226757Y3758895D01*
X7211161Y3758895D01*
X7204862Y3758184D01*
X7199375Y3756304D01*
X7194499Y3753205D01*
X7190384Y3749090D01*
X7187285Y3744214D01*
X7185406Y3738727D01*
X7184694Y3732428D01*
G37*
G36*
X7284415Y3607104D02*
G01*
X7300010Y3607104D01*
X7306360Y3607815D01*
X7311796Y3609695D01*
X7316724Y3612794D01*
X7320788Y3616909D01*
X7323886Y3621786D01*
X7325766Y3627272D01*
X7326477Y3633571D01*
X7326477Y3651656D01*
X7284415Y3651656D01*
G37*
G36*
X7454442Y3485743D02*
G01*
X7496505Y3485743D01*
X7496505Y3503828D01*
X7495794Y3510127D01*
X7493863Y3515614D01*
X7490815Y3520490D01*
X7486700Y3524605D01*
X7481824Y3527704D01*
X7476337Y3529584D01*
X7470038Y3530295D01*
X7454442Y3530295D01*
G37*
G36*
X7211161Y3607104D02*
G01*
X7226757Y3607104D01*
X7226757Y3651656D01*
X7184694Y3651656D01*
X7184694Y3633571D01*
X7185406Y3627272D01*
X7187285Y3621786D01*
X7190384Y3616909D01*
X7194499Y3612794D01*
X7199375Y3609695D01*
X7204862Y3607815D01*
G37*

%LPD*%
D10*
X1758210Y4621100D02*
G01*
X1943100Y4436214D01*
X1943100Y4343400D01*
X1028700Y3975100D02*
G01*
X1206500Y3975100D01*
X1397000Y3784600D01*
X1397000Y3606800D01*
X1467004Y3536795D01*
X1549400Y3536795D01*
X4406900Y1943100D02*
G01*
X5270500Y1943100D01*
X5334000Y2006600D01*
X5334000Y2514600D01*
X5511800Y2692400D01*
X5930900Y2692400D01*
X5994400Y2755900D01*
X5994400Y2819400D01*
X6057900Y2882900D01*
X6502400Y2882900D01*
X6553961Y2934462D01*
X6553961Y3009900D01*
X4215129Y3073400D02*
G01*
X4368800Y3073400D01*
X4457700Y2984500D01*
X4457700Y2032000D01*
X4495800Y1993900D01*
X5245100Y1993900D01*
X5283200Y2032000D01*
X5283200Y2540000D01*
X5486400Y2743200D01*
X5905500Y2743200D01*
X5943600Y2781300D01*
X5943600Y2844800D01*
X6032500Y2933700D01*
X6413500Y2933700D01*
X6451600Y2971800D01*
X6451600Y3073400D01*
X6489700Y3111500D01*
X7188200Y3111500D01*
X7255509Y3178810D01*
X7255509Y3238500D01*
X4215135Y3025396D02*
G01*
X4217926Y3022600D01*
X4330700Y3022600D01*
X4406900Y2946400D01*
X4406900Y1943100D01*
X4215135Y2975353D02*
G01*
X4289041Y2975353D01*
X4343400Y2920994D01*
X4343400Y1866900D01*
X4343400Y1866900D02*
G01*
X5283200Y1866900D01*
X5295900Y1879600D01*
X5397500Y1981200D01*
X5397500Y2501900D01*
X5537200Y2641600D01*
X5956300Y2641600D01*
X6045200Y2730500D01*
X6045200Y2794000D01*
X6083300Y2832100D01*
X6819900Y2832100D01*
X6896856Y2909062D01*
X6896856Y3009900D01*
X7255586Y3454400D02*
G01*
X7112000Y3454400D01*
X7255586Y3009900D02*
G01*
X7213600Y2967913D01*
X7213600Y2895600D01*
X6704736Y3009900D02*
G01*
X6743700Y2970936D01*
X6743700Y2895600D01*
X7047631Y3009900D02*
G01*
X7099300Y2958231D01*
X7099300Y2895600D01*
X3479800Y4318000D02*
G01*
X3479800Y4445000D01*
X3557397Y4522596D01*
X3644900Y4522596D01*
X4585715Y3644900D02*
G01*
X5867400Y3644900D01*
X5918200Y3594100D01*
X6578600Y3594100D01*
X6756400Y3416300D01*
X6756400Y3402837D01*
X7340600Y4407763D02*
G01*
X7340600Y4267200D01*
X3949191Y3491229D02*
G01*
X3949700Y3937000D01*
X3899308Y3491153D02*
G01*
X3899308Y3695291D01*
X3835400Y3759200D01*
X4149290Y3491153D02*
G01*
X4214141Y3556000D01*
X4356100Y3556000D01*
X4559300Y3759200D01*
X5664200Y4560062D02*
G01*
X5524500Y4559300D01*
X6627799Y4621100D02*
G01*
X6461000Y4787900D01*
X5981700Y4787900D01*
D11*
X6248400Y4013200D02*
G01*
X6248400Y4406900D01*
X6775698Y4004002D02*
G01*
X6775698Y3956304D01*
X6705600Y3886200D01*
X6324600Y3886200D01*
X6248400Y3962400D01*
X6248400Y4013200D01*
D10*
X4914900Y4725670D02*
G01*
X4787900Y4724400D01*
X4737100Y4673600D01*
X4737100Y4584700D01*
X5106926Y5133007D02*
G01*
X5105400Y5041900D01*
X5016500Y4953000D01*
X5016500Y4914900D01*
X5041900Y5133009D02*
G01*
X5041900Y5067300D01*
X4965700Y4991100D01*
D12*
X4914900Y4725796D02*
G01*
X4917897Y4722799D01*
X5232400Y4722799D01*
D10*
X4914900Y4725796D02*
G01*
X4840097Y4800600D01*
X3644900Y4522596D02*
G01*
X3608197Y4559300D01*
X3699309Y2909646D02*
G01*
X3570958Y2781300D01*
X3213100Y2781300D01*
X2870200Y3124200D01*
X2870200Y3200400D01*
X3633551Y2975409D02*
G01*
X3543300Y2975409D01*
X3399990Y2832100D01*
X3238500Y2832100D01*
X2984500Y3086100D01*
X2984500Y3200400D01*
X3708806Y4894554D02*
G01*
X3708806Y4966106D01*
X3784600Y5041900D01*
X3858816Y4894554D02*
G01*
X3858816Y5103416D01*
X3924300Y5168900D01*
X3558814Y4894554D02*
G01*
X3558814Y5026385D01*
X3556000Y5029200D01*
X3808808Y4894554D02*
G01*
X3808808Y5017691D01*
X3784600Y5041900D01*
X3658816Y4894554D02*
G01*
X3658816Y5066083D01*
X3556000Y5168900D01*
X3633551Y3275403D02*
G01*
X3277796Y3275403D01*
X3162300Y3390900D01*
X3633551Y3275403D02*
G01*
X3632354Y3276600D01*
X4215129Y3425444D02*
G01*
X4365243Y3425444D01*
X4585715Y3644900D01*
X6540500Y4217794D02*
G01*
X6465694Y4292600D01*
X6337300Y4292600D01*
X2133600Y4255894D02*
G01*
X2122294Y4267200D01*
X1866900Y4267200D01*
X3799309Y2909646D02*
G01*
X3799309Y2846809D01*
X3606800Y2654300D01*
X3581400Y2654300D01*
X3899308Y2909646D02*
G01*
X3899308Y2756308D01*
X3797300Y2654300D01*
X3749291Y2909646D02*
G01*
X3746500Y2906854D01*
X3746500Y2857500D01*
X3606800Y2717800D01*
X3378200Y2717800D01*
X3849291Y2909646D02*
G01*
X3849291Y2807891D01*
X3695700Y2654300D01*
X3949291Y2909646D02*
G01*
X3949291Y2717391D01*
X3886200Y2654300D01*
X3999308Y2909646D02*
G01*
X3999308Y2678508D01*
X3975100Y2654300D01*
X4049293Y2909646D02*
G01*
X4049293Y2475890D01*
X4013200Y2439796D01*
X4099306Y2909646D02*
G01*
X4102100Y2906852D01*
X4102100Y2501900D01*
X4039997Y2439796D01*
X4013200Y2439796D01*
X4149343Y2909570D02*
G01*
X4267200Y2908300D01*
X4292600Y2882900D01*
X4292600Y2032000D01*
X4165600Y1905000D01*
X4025138Y1905000D01*
X3633551Y3025396D02*
G01*
X3457196Y3025396D01*
X3378200Y2946400D01*
X3633551Y3075409D02*
G01*
X3367509Y3075409D01*
X3289300Y2997200D01*
X3633551Y3125396D02*
G01*
X3277796Y3125396D01*
X3200400Y3048000D01*
X3633551Y3175408D02*
G01*
X3188108Y3175408D01*
X3111500Y3098800D01*
X3633551Y3225391D02*
G01*
X3175408Y3225391D01*
X3098800Y3302000D01*
X3633551Y3375403D02*
G01*
X3630749Y3378200D01*
X3492500Y3378200D01*
X3365500Y3505200D01*
X3633551Y3325390D02*
G01*
X3392909Y3325390D01*
X3251200Y3467100D01*
X3633551Y3425390D02*
G01*
X3556000Y3425390D01*
X3514290Y3467100D01*
X3505200Y3467100D01*
X3699309Y3491153D02*
G01*
X3596363Y3594100D01*
X3581400Y3594100D01*
X3799309Y3491153D02*
G01*
X3799309Y3581400D01*
X3710409Y3670300D01*
X3695700Y3670300D01*
X3849370Y3491229D02*
G01*
X3849370Y3630929D01*
X3708400Y3771900D01*
X3009900Y3771900D01*
X2705100Y3467100D01*
X2032000Y3467100D01*
X1962404Y3536695D01*
X1549400Y3536695D01*
X7340600Y4558436D02*
G01*
X7345629Y4553407D01*
X7555611Y4553407D01*
X3639921Y1905000D02*
G01*
X3766921Y1778000D01*
X3949700Y1778000D01*
X4025036Y1853336D01*
X4025036Y1905000D01*
X7255586Y3009900D02*
G01*
X7425588Y3179902D01*
X7425588Y3238500D01*
X7255586Y3454400D02*
G01*
X7425588Y3624402D01*
X7425588Y3683000D01*
X6756400Y3252063D02*
G01*
X6759422Y3255086D01*
X6959600Y3255086D01*
X4099308Y3491153D02*
G01*
X4102100Y3493945D01*
X4102100Y3543300D01*
X4178300Y3619500D01*
X4178300Y3632200D01*
D13*
X4840097Y3467100D02*
G01*
X4840097Y2353490D01*
X4772606Y2286000D01*
D10*
X4049290Y3491153D02*
G01*
X4051300Y3556000D01*
X4102100Y3606800D01*
X4102100Y3632200D01*
X3999308Y3491153D02*
G01*
X4000500Y3568700D01*
X4025900Y3594100D01*
X4025900Y3632200D01*
X4215129Y3125470D02*
G01*
X4840224Y3126231D01*
X4215129Y3175507D02*
G01*
X4840224Y3175762D01*
X4215129Y3225292D02*
G01*
X4840224Y3226307D01*
X4215129Y3275329D02*
G01*
X4840224Y3275329D01*
X4215129Y3325368D02*
G01*
X4840224Y3326129D01*
X4215053Y3375405D02*
G01*
X4542409Y3375405D01*
X4634102Y3467100D01*
D13*
X2134997Y3733800D02*
G01*
X2755900Y3733800D01*
X2959100Y3937000D01*
X5803900Y3937000D01*
X5994400Y3746500D01*
X6946900Y3746500D01*
D12*
X6965695Y4004005D02*
G01*
X6965695Y3746500D01*
X6096000Y4044797D02*
G01*
X6096000Y3746500D01*
X5327395Y4522800D02*
G01*
X5327395Y3937000D01*
X4508500Y4356963D02*
G01*
X4508500Y3937000D01*
X4070095Y4319600D02*
G01*
X4070095Y3937000D01*
X3238500Y4166463D02*
G01*
X3238500Y3937000D01*
X2558795Y4016705D02*
G01*
X2558795Y3733800D01*
D14*
X2425700Y3576878D02*
G01*
X2268778Y3733800D01*
X2134997Y3733800D01*
D11*
X4508500Y4507737D02*
G01*
X4648200Y4508500D01*
X5137404Y4522800D02*
G01*
X5137404Y4426204D01*
X5080000Y4368800D01*
X4699000Y4368800D01*
X4648200Y4419600D01*
X4648200Y4508500D01*
X3238500Y4317138D02*
G01*
X3239361Y4318000D01*
X3378200Y4318000D01*
X3880098Y4319600D02*
G01*
X3880098Y4223004D01*
X3835400Y4178300D01*
X3454400Y4178300D01*
X3378200Y4254500D01*
X3378200Y4318000D01*
X2368804Y4016705D02*
G01*
X2368804Y3981704D01*
X2298700Y3911600D01*
X1968500Y3911600D01*
X1892300Y3987800D01*
X1892300Y4064000D01*
D12*
X2463800Y4263694D02*
G01*
X2458186Y4269308D01*
X2458186Y4621098D01*
D14*
X4013200Y2439796D02*
G01*
X3746500Y2439796D01*
X3746500Y2439796D02*
G01*
X3479800Y2439796D01*
X3479800Y2439796D02*
G01*
X3213100Y2439796D01*
X3213100Y2439796D02*
G01*
X2946400Y2439796D01*
X2946400Y2439796D02*
G01*
X2360802Y2439796D01*
X2168220Y2632379D01*
X2168220Y2781300D01*
X2168220Y2781300D02*
G01*
X2168220Y2942920D01*
X2425700Y3200400D01*
X2425700Y3281121D01*
X7251700Y2693796D02*
G01*
X6985000Y2693796D01*
X6985000Y2693796D02*
G01*
X6731000Y2693796D01*
X6731000Y2693796D02*
G01*
X6451600Y2693796D01*
X6451600Y2693796D02*
G01*
X6184900Y2693796D01*
X6477000Y1981200D02*
G01*
X6451600Y2006600D01*
X6451600Y2487803D01*
X7251700Y2487803D02*
G01*
X6985000Y2487803D01*
X6985000Y2487803D02*
G01*
X6731000Y2487803D01*
X6731000Y2487803D02*
G01*
X6451600Y2487803D01*
X6451600Y2487803D02*
G01*
X6184900Y2487803D01*
X6184900Y2487803D02*
G01*
X5983097Y2286000D01*
X5717590Y2286000D01*
X4013200Y2233803D02*
G01*
X3746500Y2233803D01*
X3746500Y2233803D02*
G01*
X3479800Y2233803D01*
X3479800Y2233803D02*
G01*
X3213100Y2233803D01*
X3213100Y2233803D02*
G01*
X2946400Y2233803D01*
D15*
X5232400Y4722799D02*
G01*
X5232400Y4953000D01*
X5171950Y5013449D01*
X5171950Y5133007D01*
D12*
X6540500Y4217796D02*
G01*
X6573697Y4250994D01*
X6870700Y4250994D01*
X6870700Y4250994D02*
G01*
X6877811Y4258106D01*
X6877811Y4621098D01*
X2133600Y4255896D02*
G01*
X2141397Y4263694D01*
X2463800Y4263694D01*
D15*
X3493770Y4894579D02*
G01*
X3493770Y4773929D01*
X3543300Y4724400D01*
X3911600Y4724400D01*
X3973829Y4789170D01*
X3973829Y4894579D01*
X3975100Y4519676D02*
G01*
X3973829Y4894579D01*
D10*
X3658870Y4894579D02*
G01*
X3658870Y4812029D01*
X3683000Y4787900D01*
X3733800Y4787900D01*
X3758691Y4813554D01*
X3758691Y4894579D01*
D12*
X3644900Y4522596D02*
G01*
X3647897Y4519599D01*
X3975100Y4519599D01*
D15*
X1866900Y4267200D02*
G01*
X952500Y4267200D01*
X850900Y4165600D01*
X850900Y2413000D01*
X939800Y2324100D01*
X1181100Y2324100D01*
X1346200Y2159000D01*
X1346200Y2070100D01*
X1435100Y1981200D01*
X1485900Y1981200D01*
D17*
G01*
X1549400Y3676802D03*
G01*
X1549400Y3536797D03*
G01*
X6096000Y4184802D03*
G01*
X6096000Y4044797D03*
G36*
X6117399Y2558300D02*
G01*
X6252400Y2558300D01*
X6252400Y2417300D01*
X6117399Y2417300D01*
G37*
D18*
G01*
X6184900Y2693796D03*
G36*
X6384099Y2558300D02*
G01*
X6519100Y2558300D01*
X6519100Y2417300D01*
X6384099Y2417300D01*
G37*
G01*
X6451600Y2693796D03*
G36*
X6917499Y2558300D02*
G01*
X7052500Y2558300D01*
X7052500Y2417300D01*
X6917499Y2417300D01*
G37*
G01*
X6985000Y2693796D03*
G36*
X3013900Y2369299D02*
G01*
X2878899Y2369299D01*
X2878899Y2510299D01*
X3013900Y2510299D01*
G37*
G01*
X2946400Y2233803D03*
G36*
X3280600Y2369299D02*
G01*
X3145599Y2369299D01*
X3145599Y2510299D01*
X3280600Y2510299D01*
G37*
G01*
X3213100Y2233803D03*
G36*
X3547300Y2369299D02*
G01*
X3412299Y2369299D01*
X3412299Y2510299D01*
X3547300Y2510299D01*
G37*
G01*
X3479800Y2233803D03*
G36*
X2201100Y4185399D02*
G01*
X2066099Y4185399D01*
X2066099Y4326399D01*
X2201100Y4326399D01*
G37*
G01*
X2133600Y4049903D03*
G36*
X1999500Y3801300D02*
G01*
X1999500Y3666299D01*
X1858500Y3666299D01*
X1858500Y3801300D01*
G37*
G36*
X2064499Y3801300D02*
G01*
X2064499Y3666299D01*
X2205499Y3666299D01*
X2205499Y3801300D01*
G37*
G36*
X6608000Y4147299D02*
G01*
X6472999Y4147299D01*
X6472999Y4288299D01*
X6608000Y4288299D01*
G37*
G01*
X6540500Y4011803D03*
G36*
X3712400Y4452099D02*
G01*
X3577399Y4452099D01*
X3577399Y4593099D01*
X3712400Y4593099D01*
G37*
G01*
X3644900Y4316603D03*
G36*
X4080700Y2369299D02*
G01*
X3945699Y2369299D01*
X3945699Y2510299D01*
X4080700Y2510299D01*
G37*
G01*
X4013200Y2233803D03*
G36*
X4982400Y4655299D02*
G01*
X4847399Y4655299D01*
X4847399Y4796299D01*
X4982400Y4796299D01*
G37*
G01*
X4914900Y4519803D03*
G36*
X6663499Y2558300D02*
G01*
X6798500Y2558300D01*
X6798500Y2417300D01*
X6663499Y2417300D01*
G37*
G01*
X6731000Y2693796D03*
D20*
G01*
X2168220Y2781300D03*
G01*
X1514779Y2781300D03*
D21*
G01*
X7425588Y3009900D03*
G01*
X7255586Y3009900D03*
G01*
X7425588Y3238500D03*
G01*
X7255586Y3238500D03*
G01*
X7425588Y3454400D03*
G01*
X7255586Y3454400D03*
G01*
X7425588Y3683000D03*
G01*
X7255586Y3683000D03*
G36*
X6909600Y3470087D02*
G01*
X7009599Y3470087D01*
X7009599Y3380094D01*
X6909600Y3380094D01*
G37*
G36*
X6909600Y3300087D02*
G01*
X7009599Y3300087D01*
X7009599Y3210095D01*
X6909600Y3210095D01*
G37*
D23*
G01*
X7760588Y4008399D03*
G01*
X7760588Y4678400D03*
D24*
G01*
X7555611Y4133392D03*
G01*
X7555611Y4553407D03*
G36*
X4570100Y2491000D02*
G01*
X4975100Y2491000D01*
X4975100Y2080999D01*
X4570100Y2080999D01*
G37*
G36*
X5515099Y2491000D02*
G01*
X5920099Y2491000D01*
X5920099Y2080999D01*
X5515099Y2080999D01*
G37*
D26*
G01*
X2368804Y4016705D03*
G01*
X2558795Y4016705D03*
G01*
X2463800Y4263694D03*
G01*
X6775704Y4004005D03*
G01*
X6965695Y4004005D03*
G01*
X6870700Y4250994D03*
D27*
G01*
X3880104Y4319600D03*
G01*
X4070095Y4319600D03*
G01*
X3975100Y4519599D03*
G01*
X5137404Y4522800D03*
G01*
X5327395Y4522800D03*
G01*
X5232400Y4722799D03*
G36*
X2510749Y3516500D02*
G01*
X2340650Y3516500D01*
X2340650Y3637252D01*
X2510749Y3637252D01*
G37*
D28*
G01*
X2425700Y3281121D03*
G36*
X6594398Y3053100D02*
G01*
X6594398Y2966699D01*
X6513751Y2966699D01*
X6513751Y3053100D01*
G37*
G36*
X6664401Y3053100D02*
G01*
X6664401Y2966699D01*
X6745048Y2966699D01*
X6745048Y3053100D01*
G37*
G36*
X6713199Y3292398D02*
G01*
X6799600Y3292398D01*
X6799600Y3211751D01*
X6713199Y3211751D01*
G37*
D30*
G01*
X6756400Y3402736D03*
G36*
X7383800Y4518101D02*
G01*
X7297399Y4518101D01*
X7297399Y4598748D01*
X7383800Y4598748D01*
G37*
G01*
X7340600Y4407763D03*
G36*
X6937298Y3053100D02*
G01*
X6937298Y2966699D01*
X6856651Y2966699D01*
X6856651Y3053100D01*
G37*
G36*
X7007301Y3053100D02*
G01*
X7007301Y2966699D01*
X7087948Y2966699D01*
X7087948Y3053100D01*
G37*
G36*
X3195299Y4206798D02*
G01*
X3281700Y4206798D01*
X3281700Y4126151D01*
X3195299Y4126151D01*
G37*
G01*
X3238500Y4317136D03*
G36*
X4465299Y4397298D02*
G01*
X4551700Y4397298D01*
X4551700Y4316651D01*
X4465299Y4316651D01*
G37*
G01*
X4508500Y4507636D03*
G36*
X5707400Y4670501D02*
G01*
X5620999Y4670501D01*
X5620999Y4751148D01*
X5707400Y4751148D01*
G37*
G01*
X5664200Y4560163D03*
G36*
X3984701Y1861799D02*
G01*
X3984701Y1948200D01*
X4065348Y1948200D01*
X4065348Y1861799D01*
G37*
G36*
X3914698Y1861799D02*
G01*
X3914698Y1948200D01*
X3834051Y1948200D01*
X3834051Y1861799D01*
G37*
G36*
X3685301Y2876400D02*
G01*
X3685301Y2942899D01*
X3713299Y2942899D01*
X3713299Y2876400D01*
G37*
G36*
X3735301Y2876400D02*
G01*
X3735301Y2942899D01*
X3763299Y2942899D01*
X3763299Y2876400D01*
G37*
G36*
X3785301Y2876400D02*
G01*
X3785301Y2942899D01*
X3813299Y2942899D01*
X3813299Y2876400D01*
G37*
G36*
X3835300Y2876400D02*
G01*
X3835300Y2942899D01*
X3863299Y2942899D01*
X3863299Y2876400D01*
G37*
G36*
X3885300Y2876400D02*
G01*
X3885300Y2942899D01*
X3913299Y2942899D01*
X3913299Y2876400D01*
G37*
G36*
X3935300Y2876400D02*
G01*
X3935300Y2942899D01*
X3963299Y2942899D01*
X3963299Y2876400D01*
G37*
G36*
X3985300Y2876400D02*
G01*
X3985300Y2942899D01*
X4013299Y2942899D01*
X4013299Y2876400D01*
G37*
G36*
X4035300Y2876400D02*
G01*
X4035300Y2942899D01*
X4063298Y2942899D01*
X4063298Y2876400D01*
G37*
G36*
X4085300Y2876400D02*
G01*
X4085300Y2942899D01*
X4113298Y2942899D01*
X4113298Y2876400D01*
G37*
G36*
X4135300Y2876400D02*
G01*
X4135300Y2942899D01*
X4163298Y2942899D01*
X4163298Y2876400D01*
G37*
G36*
X4248299Y2961401D02*
G01*
X4248299Y2989399D01*
X4181800Y2989399D01*
X4181800Y2961401D01*
G37*
G36*
X4248299Y3011401D02*
G01*
X4248299Y3039399D01*
X4181800Y3039399D01*
X4181800Y3011401D01*
G37*
G36*
X4248299Y3061401D02*
G01*
X4248299Y3089399D01*
X4181800Y3089399D01*
X4181800Y3061401D01*
G37*
G36*
X4248299Y3111400D02*
G01*
X4248299Y3139399D01*
X4181800Y3139399D01*
X4181800Y3111400D01*
G37*
G36*
X4248299Y3161400D02*
G01*
X4248299Y3189399D01*
X4181800Y3189399D01*
X4181800Y3161400D01*
G37*
G36*
X4248299Y3211400D02*
G01*
X4248299Y3239399D01*
X4181800Y3239399D01*
X4181800Y3211400D01*
G37*
G36*
X4248299Y3261400D02*
G01*
X4248299Y3289399D01*
X4181800Y3289399D01*
X4181800Y3261400D01*
G37*
G36*
X4248299Y3311400D02*
G01*
X4248299Y3339398D01*
X4181800Y3339398D01*
X4181800Y3311400D01*
G37*
G36*
X4248299Y3361400D02*
G01*
X4248299Y3389398D01*
X4181800Y3389398D01*
X4181800Y3361400D01*
G37*
G36*
X4248299Y3411400D02*
G01*
X4248299Y3439398D01*
X4181800Y3439398D01*
X4181800Y3411400D01*
G37*
G36*
X4135300Y3524399D02*
G01*
X4135300Y3457900D01*
X4163298Y3457900D01*
X4163298Y3524399D01*
G37*
G36*
X4085300Y3524399D02*
G01*
X4085300Y3457900D01*
X4113298Y3457900D01*
X4113298Y3524399D01*
G37*
G36*
X4035300Y3524399D02*
G01*
X4035300Y3457900D01*
X4063298Y3457900D01*
X4063298Y3524399D01*
G37*
G36*
X3985300Y3524399D02*
G01*
X3985300Y3457900D01*
X4013299Y3457900D01*
X4013299Y3524399D01*
G37*
G36*
X3935300Y3524399D02*
G01*
X3935300Y3457900D01*
X3963299Y3457900D01*
X3963299Y3524399D01*
G37*
G36*
X3885300Y3524399D02*
G01*
X3885300Y3457900D01*
X3913299Y3457900D01*
X3913299Y3524399D01*
G37*
G36*
X3835300Y3524399D02*
G01*
X3835300Y3457900D01*
X3863299Y3457900D01*
X3863299Y3524399D01*
G37*
G36*
X3785301Y3524399D02*
G01*
X3785301Y3457900D01*
X3813299Y3457900D01*
X3813299Y3524399D01*
G37*
G36*
X3735301Y3524399D02*
G01*
X3735301Y3457900D01*
X3763299Y3457900D01*
X3763299Y3524399D01*
G37*
G36*
X3685301Y3524399D02*
G01*
X3685301Y3457900D01*
X3713299Y3457900D01*
X3713299Y3524399D01*
G37*
G36*
X3666799Y3411400D02*
G01*
X3666799Y3439398D01*
X3600300Y3439398D01*
X3600300Y3411400D01*
G37*
G36*
X3666799Y3361400D02*
G01*
X3666799Y3389398D01*
X3600300Y3389398D01*
X3600300Y3361400D01*
G37*
G36*
X3666799Y3311400D02*
G01*
X3666799Y3339398D01*
X3600300Y3339398D01*
X3600300Y3311400D01*
G37*
G36*
X3666799Y3261400D02*
G01*
X3666799Y3289399D01*
X3600300Y3289399D01*
X3600300Y3261400D01*
G37*
G36*
X3666799Y3211400D02*
G01*
X3666799Y3239399D01*
X3600300Y3239399D01*
X3600300Y3211400D01*
G37*
G36*
X3666799Y3161400D02*
G01*
X3666799Y3189399D01*
X3600300Y3189399D01*
X3600300Y3161400D01*
G37*
G36*
X3666799Y3111400D02*
G01*
X3666799Y3139399D01*
X3600300Y3139399D01*
X3600300Y3111400D01*
G37*
G36*
X3666799Y3061401D02*
G01*
X3666799Y3089399D01*
X3600300Y3089399D01*
X3600300Y3061401D01*
G37*
G36*
X3666799Y3011401D02*
G01*
X3666799Y3039399D01*
X3600300Y3039399D01*
X3600300Y3011401D01*
G37*
G36*
X3666799Y2961401D02*
G01*
X3666799Y2989399D01*
X3600300Y2989399D01*
X3600300Y2961401D01*
G37*
G36*
X3703299Y2979399D02*
G01*
X3703299Y3421400D01*
X4145300Y3421400D01*
X4145300Y2979399D01*
G37*
D34*
G01*
X4053814Y4894554D03*
G01*
X3973804Y4894554D03*
G01*
X3413810Y4894554D03*
G01*
X3493795Y4894554D03*
D35*
G01*
X3558819Y4894554D03*
G01*
X3608806Y4894554D03*
G01*
X3658819Y4894554D03*
G01*
X3708806Y4894554D03*
G01*
X3758818Y4894554D03*
G01*
X3808806Y4894554D03*
G01*
X3858818Y4894554D03*
G01*
X3908806Y4894554D03*
D36*
G01*
X5171947Y5133009D03*
G01*
X5106924Y5133009D03*
G01*
X5041900Y5133009D03*
G01*
X4976875Y5133009D03*
G01*
X4911852Y5133009D03*
D37*
G01*
X5366893Y5158028D03*
G01*
X4716906Y5158028D03*
G36*
X3678999Y2304300D02*
G01*
X3814000Y2304300D01*
X3814000Y2163300D01*
X3678999Y2163300D01*
G37*
D18*
G01*
X3746500Y2439796D03*
G36*
X4769599Y3399599D02*
G01*
X4769599Y3534600D01*
X4910599Y3534600D01*
X4910599Y3399599D01*
G37*
G36*
X4704600Y3399599D02*
G01*
X4704600Y3534600D01*
X4563600Y3534600D01*
X4563600Y3399599D01*
G37*
G36*
X7319200Y2623299D02*
G01*
X7184199Y2623299D01*
X7184199Y2764299D01*
X7319200Y2764299D01*
G37*
G01*
X7251700Y2487803D03*
G36*
X3583299Y1836150D02*
G01*
X3583299Y1973849D01*
X3696553Y1973849D01*
X3696553Y1836150D01*
G37*
G36*
X3503300Y1836150D02*
G01*
X3503300Y1973849D01*
X3390046Y1973849D01*
X3390046Y1836150D01*
G37*
D39*
G01*
X1028700Y3213100D03*
D40*
G01*
X1028700Y3467100D03*
G01*
X1028700Y3721100D03*
G01*
X1028700Y3975100D03*
D41*
G01*
X1758213Y4621098D03*
G01*
X2008200Y4621098D03*
G01*
X2208199Y4621098D03*
D42*
G01*
X2458186Y4621098D03*
D41*
G01*
X6177813Y4621098D03*
G01*
X6427800Y4621098D03*
G01*
X6627799Y4621098D03*
D42*
G01*
X6877811Y4621098D03*
D43*
G01*
X1066800Y5334000D03*
G01*
X7569200Y5334000D03*
G01*
X1066800Y2032000D03*
G01*
X7569200Y2032000D03*
D44*
G01*
X6477000Y1981200D03*
G01*
X2413000Y1981200D03*
G36*
X1741299Y2056201D02*
G01*
X1916300Y2056201D01*
X1916300Y1906198D01*
X1741299Y1906198D01*
G37*
G36*
X1398399Y2056201D02*
G01*
X1573400Y2056201D01*
X1573400Y1906198D01*
X1398399Y1906198D01*
G37*
D16*
G01*
X3974312Y3250387D03*
G01*
X3874312Y3250387D03*
G01*
X3874312Y3150387D03*
G01*
X3974312Y3150387D03*
G01*
X6184900Y2693796D03*
G01*
X6451600Y2693796D03*
G01*
X6731000Y2693796D03*
G01*
X6985000Y2693796D03*
G01*
X7251700Y2693796D03*
G01*
X1892300Y4064000D03*
G01*
X3378200Y4318000D03*
G01*
X4648200Y4508500D03*
G01*
X2425700Y3576878D03*
G01*
X2425700Y3281121D03*
G01*
X4025900Y3632200D03*
G01*
X4102100Y3632200D03*
G01*
X4178300Y3632200D03*
G01*
X4013200Y2439796D03*
G01*
X3695700Y3670300D03*
G01*
X3581400Y3594100D03*
G01*
X3505200Y3467100D03*
G01*
X4737100Y4584700D03*
G01*
X3365500Y3505200D03*
G01*
X3251200Y3467100D03*
G01*
X3162300Y3390900D03*
G01*
X3098800Y3302000D03*
G01*
X3111500Y3098800D03*
G01*
X3200400Y3048000D03*
G01*
X3289300Y2997200D03*
G01*
X3378200Y2946400D03*
G01*
X3975100Y2654300D03*
G01*
X3886200Y2654300D03*
G01*
X3695700Y2654300D03*
G01*
X3797300Y2654300D03*
G01*
X3378200Y2717800D03*
G01*
X3581400Y2654300D03*
G01*
X3479800Y4318000D03*
G01*
X1866900Y4267200D03*
G01*
X6337300Y4292600D03*
G01*
X3784600Y5041900D03*
G01*
X3556000Y5168900D03*
G01*
X3924300Y5168900D03*
G01*
X3556000Y5029200D03*
G01*
X5016500Y4914900D03*
G01*
X4965700Y4991100D03*
G01*
X2984500Y3200400D03*
G01*
X2870200Y3200400D03*
G01*
X6248400Y4406900D03*
G01*
X5981700Y4787900D03*
G01*
X4559300Y3759200D03*
G01*
X5524500Y4559300D03*
G01*
X3835400Y3759200D03*
G01*
X7340600Y4267200D03*
G01*
X6743700Y2895600D03*
G01*
X7099300Y2895600D03*
G01*
X7213600Y2895600D03*
G01*
X7112000Y3454400D03*
G01*
X4343400Y1866900D03*
G01*
X4406900Y1943100D03*
G01*
X5334000Y3454400D03*
G01*
X5461000Y3454400D03*
G01*
X5588000Y3454400D03*
G01*
X5715000Y3454400D03*
G01*
X5842000Y3454400D03*
G01*
X5969000Y3454400D03*
G01*
X6096000Y3454400D03*
G01*
X6223000Y3454400D03*
G01*
X6350000Y3454400D03*
G01*
X6350000Y3302000D03*
G01*
X6223000Y3302000D03*
G01*
X6096000Y3302000D03*
G01*
X5969000Y3302000D03*
G01*
X5842000Y3302000D03*
G01*
X5715000Y3302000D03*
G01*
X5588000Y3302000D03*
G01*
X5461000Y3302000D03*
G01*
X5334000Y3302000D03*
G01*
X6350000Y3048000D03*
G01*
X6223000Y3048000D03*
G01*
X6096000Y3048000D03*
G01*
X5969000Y3048000D03*
G01*
X5842000Y3048000D03*
G01*
X5715000Y3048000D03*
G01*
X5588000Y3048000D03*
G01*
X5461000Y3048000D03*
G01*
X5334000Y3048000D03*
G01*
X6350000Y3175000D03*
G01*
X6223000Y3175000D03*
G01*
X6096000Y3175000D03*
G01*
X5969000Y3175000D03*
G01*
X5842000Y3175000D03*
G01*
X5715000Y3175000D03*
G01*
X5588000Y3175000D03*
G01*
X5461000Y3175000D03*
G01*
X5334000Y3175000D03*
G01*
X3784600Y3251200D03*
G01*
X3784600Y3149600D03*
G01*
X3784600Y3048000D03*
G01*
X3873500Y3048000D03*
G01*
X3975100Y3048000D03*
G01*
X4064000Y3048000D03*
G01*
X4064000Y3149600D03*
G01*
X4064000Y3251200D03*
G01*
X4064000Y3340100D03*
G01*
X3975100Y3340100D03*
G01*
X3873500Y3340100D03*
G01*
X3784600Y3340100D03*
G01*
X2133600Y4049903D03*
G01*
X3644900Y4316603D03*
G01*
X4914900Y4519803D03*
G01*
X6540500Y4011803D03*
G01*
X1943100Y4343400D03*
D12*
X2748203Y5286100D02*
G01*
X2748203Y5436100D01*
X1468221Y5286100D02*
G01*
X1468221Y5436100D01*
X7167803Y5286100D02*
G01*
X7167803Y5436100D01*
X5887821Y5286100D02*
G01*
X5887821Y5436100D01*
X4165803Y5327045D02*
G01*
X4165803Y5407045D01*
X3301796Y4897059D02*
G01*
X3301796Y5007061D01*
X4165803Y4897059D02*
G01*
X4165803Y5007061D01*
X3301796Y5327045D02*
G01*
X3301796Y5407045D01*
D46*
X5321909Y5447969D02*
G01*
X5321909Y5367959D01*
X4761890Y5447995D02*
G01*
X4761890Y5367985D01*
M02*
